<?xml version="1.0" encoding="UTF-8" standalone="no"?>
<svg
   xmlns:dc="http://purl.org/dc/elements/1.1/"
   xmlns:cc="http://creativecommons.org/ns#"
   xmlns:rdf="http://www.w3.org/1999/02/22-rdf-syntax-ns#"
   xmlns:svg="http://www.w3.org/2000/svg"
   xmlns="http://www.w3.org/2000/svg"
   xmlns:sodipodi="http://sodipodi.sourceforge.net/DTD/sodipodi-0.dtd"
   xmlns:inkscape="http://www.inkscape.org/namespaces/inkscape"
   viewBox="0 0 390.80073 188.97638"
   version="1.1"
   id="svg176"
   sodipodi:docname="foss_2019_2-01.svg"
   inkscape:version="0.92.3 (2405546, 2018-03-11)"
   inkscape:export-filename="/home/opntec/Downloads/fossasia10.png"
   inkscape:export-xdpi="250"
   inkscape:export-ydpi="250"
   width="103.39936mm"
   height="50mm">
  <metadata
     id="metadata180">
    <rdf:RDF>
      <cc:Work
         rdf:about="">
        <dc:format>image/svg+xml</dc:format>
        <dc:type
           rdf:resource="http://purl.org/dc/dcmitype/StillImage" />
        <dc:title>foss_2019_2</dc:title>
      </cc:Work>
    </rdf:RDF>
  </metadata>
  <sodipodi:namedview
     pagecolor="#ffffff"
     bordercolor="#666666"
     borderopacity="1"
     objecttolerance="10"
     gridtolerance="10"
     guidetolerance="10"
     inkscape:pageopacity="0"
     inkscape:pageshadow="2"
     inkscape:window-width="1366"
     inkscape:window-height="740"
     id="namedview178"
     showgrid="false"
     inkscape:zoom="0.81944444"
     inkscape:cx="292.40664"
     inkscape:cy="-130.07738"
     inkscape:window-x="0"
     inkscape:window-y="0"
     inkscape:window-maximized="1"
     inkscape:current-layer="svg176"
     units="mm"
     fit-margin-top="0"
     fit-margin-left="0"
     fit-margin-right="0"
     fit-margin-bottom="0" />
  <defs
     id="defs4">
    <style
       id="style2">.cls-1{fill:#c11a1c;}.cls-2{fill:#fff;}.cls-3{opacity:0.43;}</style>
  </defs>
  <title
     id="title6">foss_2019_2</title>
  <g
     id="Layer_2"
     data-name="Layer 2"
     transform="matrix(1.2664077,0,0,0.6123866,12.968015,5.5788417)">
    <rect
       class="cls-1"
       x="-10.24"
       y="-9.1099997"
       width="308.59"
       height="308.59"
       id="rect8"
       style="fill:#c11a1c" />
  </g>
  <g
     id="g1119"
     transform="translate(-38.095361,-349.59956)">
    <path
       class="cls-2"
       d="m 155.45716,417.83113 c -0.17551,-9.06744 -0.23401,-9.55494 -1.6185,-12.18743 a 15.326918,15.326918 0 0 0 -7.79996,-7.11746 c -1.09199,-0.312 -9.88645,-0.5265 -20.92339,-0.5265 v 9.04795 a 139.26826,139.26826 0 0 1 15.77541,0.5265 5.8499688,5.8499688 0 0 1 2.45699,2.26199 c 0.9945,1.57949 1.0725,2.47649 0.936,9.74995 l -0.156,7.79995 -1.7355,1.56 -1.73548,1.55999 h -15.59992 v 9.55495 c 22.95138,0 22.61987,0 26.63686,-4.52398 3.45148,-3.88048 3.97798,-6.37646 3.76349,-17.70591 z"
       id="path79"
       inkscape:connector-curvature="0"
       style="fill:#ffffff;stroke-width:1.94998956" />
    <path
       class="cls-2"
       d="m 95.475467,417.83113 c 0.1755,-9.06744 0.233999,-9.55494 1.618492,-12.18743 a 15.326918,15.326918 0 0 1 7.799961,-7.11746 c 1.09199,-0.312 9.88644,-0.5265 20.92338,-0.5265 v 9.04795 a 139.26826,139.26826 0 0 0 -15.77541,0.5265 5.8499688,5.8499688 0 0 0 -2.45699,2.26199 c -0.99449,1.57949 -1.07249,2.47649 -0.93599,9.74995 l 0.156,7.79995 1.73549,1.56 1.73549,1.55999 h 15.59991 v 9.55495 c -22.95137,0 -22.61988,0 -26.636853,-4.52398 -3.451481,-3.88048 -3.977979,-6.37646 -3.76348,-17.70591 z"
       id="path81"
       inkscape:connector-curvature="0"
       style="fill:#ffffff;stroke-width:1.94998956" />
    <path
       class="cls-2"
       d="m 78.296059,419.04013 v -21.04039 h 10.139945 v 42.06128 H 78.296059 Z m 0,0"
       id="path83"
       inkscape:connector-curvature="0"
       style="fill:#ffffff;stroke-width:1.94998956" />
    <path
       class="cls-2"
       d="m 72.699589,402.79672 v -4.79698 h 10.120446 v 9.59395 H 72.699589 Z m 0,0"
       id="path85"
       inkscape:connector-curvature="0"
       style="fill:#ffffff;stroke-width:1.94998956" />
    <path
       class="cls-2"
       d="m 294.80341,474.79033 v -3.29548 h 17.3549 c 16.59441,0 17.39391,0 18.0374,-0.741 a 2.612986,2.612986 0 0 0 -0.54599,-3.89997 c -0.72149,-0.35101 -4.46548,-0.4875 -14.72242,-0.4875 -12.51893,0 -13.88393,0 -15.28792,-0.741 -3.04198,-1.40399 -4.52397,-4.05598 -4.54347,-8.15095 a 9.3014503,9.3014503 0 0 1 2.33998,-6.74697 c 1.94999,-2.18398 1.94999,-2.16448 21.15739,-2.16448 h 17.5499 v 6.57146 h -16.36041 c -17.9594,0 -18.0959,0 -18.0764,2.24249 0,2.69098 0.624,2.78848 16.08741,2.78848 11.17345,0 13.64993,0 14.78093,0.60449 a 7.9949572,7.9949572 0 0 1 4.89447,8.11197 8.4629548,8.4629548 0 0 1 -2.20349,6.76646 c -2.30099,2.35948 -1.94999,2.32048 -22.13238,2.32048 H 294.7254 Z m 0,0"
       id="path87"
       inkscape:connector-curvature="0"
       style="fill:#ffffff;stroke-width:1.94998956" />
    <path
       class="cls-2"
       d="m 203.0369,474.79033 v -3.29548 h 17.3744 c 16.57492,0 17.39391,0 18.01791,-0.741 a 2.5934861,2.5934861 0 0 0 -0.546,-3.89997 c -0.7215,-0.35101 -4.46548,-0.4875 -14.70292,-0.4875 -12.53843,0 -13.88392,0 -15.28792,-0.741 -3.04198,-1.40399 -4.52397,-4.05598 -4.54347,-8.15095 a 9.2234508,9.2234508 0 0 1 2.33998,-6.74697 c 1.94999,-2.18398 1.94999,-2.16448 21.15739,-2.16448 h 17.5499 v 6.57146 h -16.3799 c -17.95941,0 -18.07641,0 -18.07641,2.24249 0,2.69098 0.62399,2.78848 16.10692,2.78848 11.15393,0 13.64992,0 14.78091,0.60449 a 7.9754574,7.9754574 0 0 1 4.87498,8.11197 8.3849552,8.3849552 0 0 1 -2.18399,6.76646 c -2.30098,2.35948 -1.94999,2.32048 -22.15189,2.32048 H 203.0369 Z m 0,0"
       id="path89"
       inkscape:connector-curvature="0"
       style="fill:#ffffff;stroke-width:1.94998956" />
    <path
       class="cls-2"
       d="m 77.340564,478.76831 v -11.40744 h -4.640975 v -6.57147 h 4.601975 l 0.195,-1.65749 c 0.0975,-0.89699 0.292498,-2.59348 0.428997,-3.74397 a 7.1174619,7.1174619 0 0 1 2.320488,-5.06998 c 0.994494,-0.93599 1.228493,-0.97499 8.443455,-1.20899 4.094977,-0.1365 10.256945,-0.273 13.649926,-0.2925 h 6.29847 v 6.55197 l -11.212443,0.11699 c -12.011936,0.117 -12.089935,0.1365 -12.245935,2.14499 a 15.053919,15.053919 0 0 1 -0.233999,2.12549 l -0.292498,1.131 24.121375,-0.4485 v 6.92246 H 85.082023 v 22.81488 h -7.799958 z m 0,0"
       id="path91"
       inkscape:connector-curvature="0"
       style="fill:#ffffff;stroke-width:1.94998956" />
    <path
       class="cls-2"
       d="m 116.90585,478.39782 a 11.699937,11.699937 0 0 1 -4.97247,-5.75247 c -0.6045,-1.4625 -0.7215,-2.84699 -0.7215,-8.71646 0,-6.70797 0,-7.03946 1.014,-9.08695 a 11.21244,11.21244 0 0 1 5.18697,-5.47947 c 1.404,-0.6435 2.82749,-0.702 15.59991,-0.702 8.15096,0 14.70292,0.156 15.59993,0.3705 a 11.17344,11.17344 0 0 1 5.69397,5.16747 c 1.01399,1.94999 1.05299,2.26198 1.18949,8.85296 0.156,8.22895 -0.234,10.04244 -2.72999,12.86992 -2.92499,3.33449 -2.67148,3.29549 -19.49989,3.29549 -14.21543,0 -14.78093,0 -16.37992,-0.81899 z m 29.05485,-7.27347 1.24799,-1.13099 0.117,-5.73297 c 0,-5.22597 0,-5.84997 -0.6825,-7.01996 a 4.504476,4.504476 0 0 0 -1.77448,-1.638 107.87343,107.87343 0 0 0 -11.97294,-0.37049 h -10.90045 l -1.18949,0.99449 c -1.67699,1.40399 -2.06698,3.17849 -1.94999,8.52146 0.117,3.58798 0.2925,4.81647 0.819,5.55747 1.32599,1.94998 1.69649,1.94998 13.64993,1.94998 h 11.32943 z m 0,0"
       id="path93"
       inkscape:connector-curvature="0"
       style="fill:#ffffff;stroke-width:1.94998956" />
    <path
       class="cls-2"
       d="m 158.24563,474.79033 v -3.29548 h 17.37441 c 16.57491,0 17.37441,0 18.01791,-0.741 a 2.612986,2.612986 0 0 0 -0.546,-3.89997 c -0.7215,-0.35101 -4.46548,-0.4875 -14.72242,-0.4875 -12.51893,0 -13.86443,0 -15.28792,-0.741 -3.04198,-1.40399 -4.50447,-4.05598 -4.52397,-8.15095 a 9.2819504,9.2819504 0 0 1 2.32048,-6.74697 c 2.04749,-2.18398 1.94999,-2.16448 21.15739,-2.16448 h 17.5499 v 6.57146 H 183.303 c -17.9594,0 -18.0959,0 -18.0764,2.24249 0,2.69098 0.624,2.78848 16.08741,2.78848 11.17345,0 13.64993,0 14.78093,0.60449 a 7.9559575,7.9559575 0 0 1 4.89446,8.11197 8.3849552,8.3849552 0 0 1 -2.20348,6.76646 c -2.30099,2.35948 -1.94999,2.32048 -22.13238,2.32048 h -18.40791 z m 0,0"
       id="path95"
       inkscape:connector-curvature="0"
       style="fill:#ffffff;stroke-width:1.94998956" />
    <path
       class="cls-2"
       d="m 252.11814,477.34482 c -3.11999,-1.443 -4.44598,-3.89998 -4.44598,-8.26796 a 8.5409544,8.5409544 0 0 1 3.23698,-7.42945 l 1.48199,-1.1895 15.34642,-0.195 c 8.44346,-0.0975 15.30742,-0.312 15.26842,-0.4875 a 7.4294603,7.4294603 0 0 1 0,-1.46249 3.1394832,3.1394832 0 0 0 -0.9555,-2.12549 l -0.95549,-0.95549 h -31.86283 v -6.57147 h 34.30032 l 1.94999,0.975 a 10.217946,10.217946 0 0 1 3.06148,2.39848 c 1.83299,2.39849 2.08649,4.30948 2.08649,15.59992 v 10.35444 h -18.48591 c -17.1404,0 -18.60289,0 -20.04588,-0.72149 z m 31.19983,-8.36545 v -2.5155 h -13.27944 c -14.87841,0 -14.99541,0 -14.99541,2.5155 0,2.51548 0.117,2.51548 14.99541,2.51548 h 13.27944 z m 0,0"
       id="path97"
       inkscape:connector-curvature="0"
       style="fill:#ffffff;stroke-width:1.94998956" />
    <path
       class="cls-2"
       d="m 340.58917,463.46089 v -14.70292 h 7.35146 v 29.40584 h -7.35146 z m 0,0"
       id="path99"
       inkscape:connector-curvature="0"
       style="fill:#ffffff;stroke-width:1.94998956" />
    <path
       class="cls-2"
       d="m 340.58917,442.18651 v -3.49049 h 7.35146 v 6.96147 h -7.35146 z m 0,0"
       id="path101"
       inkscape:connector-curvature="0"
       style="fill:#ffffff;stroke-width:1.94998956" />
    <path
       class="cls-2"
       d="m 355.85758,477.34482 c -3.08099,-1.404 -4.42647,-3.89998 -4.42647,-8.57996 a 8.4629548,8.4629548 0 0 1 3.21748,-7.11745 l 1.50149,-1.1895 15.48291,-0.117 15.50243,-0.0975 -0.23401,-0.858 a 6.7274641,6.7274641 0 0 1 -0.234,-1.55999 3.178483,3.178483 0 0 0 -0.95549,-1.63799 l -0.9555,-0.95549 H 352.9716 v -6.57147 h 34.22231 l 1.94999,0.975 a 10.471444,10.471444 0 0 1 3.06149,2.39848 c 1.83298,2.39849 2.08649,4.30948 2.08649,15.59992 v 10.35444 h -18.48591 c -17.1014,0 -18.6029,0 -20.06539,-0.72149 z m 31.19984,-8.36545 v -2.5155 h -13.35744 c -12.83092,0 -13.37692,0 -14.11792,0.78 a 2.4569868,2.4569868 0 0 0 0,3.64648 c 0.741,0.507 2.74949,0.6045 14.13742,0.6045 h 13.25993 z m 0,0"
       id="path103"
       inkscape:connector-curvature="0"
       style="fill:#ffffff;stroke-width:1.94998956" />
    <g
       transform="matrix(2.6100796,0,0,2.6100796,-264.73715,119.40945)"
       id="g1098">
      <path
         style="fill:#ffffff;stroke-width:1.35155225"
         inkscape:connector-curvature="0"
         id="path115"
         d="m 174.31878,113.60625 h 5.27105 v 0.97312 h -4.18981 v 2.5274 H 178.86 v 0.97312 h -3.45998 v 3.00044 h 4.18981 v 0.97312 h -5.27105 z"
         class="cls-2" />
      <path
         style="fill:#ffffff;stroke-width:1.35155225"
         inkscape:connector-curvature="0"
         id="path119"
         d="m 204.52784,119.37738 c 0.20273,1.02718 0.70281,1.79756 1.83811,1.79756 a 1.4191298,1.4191298 0 0 0 1.59483,-1.43264 c 0,-1.02718 -0.8785,-1.35156 -1.70295,-1.63538 -1.22991,-0.51359 -2.40576,-0.83796 -2.40576,-2.4328 a 2.2570922,2.2570922 0 0 1 2.48685,-2.21654 2.5274026,2.5274026 0 0 1 2.58147,2.12193 l -1.0407,0.31086 c -0.20273,-0.82444 -0.63523,-1.35155 -1.55428,-1.35155 -0.70281,0 -1.35156,0.36492 -1.35156,1.12179 0,0.75687 0.48656,1.02718 1.13531,1.35155 l 1.79756,0.79742 a 2.148968,2.148968 0 0 1 1.16234,1.97326 2.432794,2.432794 0 0 1 -2.70311,2.51389 2.7031044,2.7031044 0 0 1 -2.81123,-2.51389 z"
         class="cls-2" />
      <path
         style="fill:#ffffff;stroke-width:1.35155225"
         inkscape:connector-curvature="0"
         id="path121"
         d="m 185.22675,119.7423 -0.79742,2.51388 -1.06773,-0.39195 2.70311,-8.25798 h 1.35155 l 2.7031,8.25798 -1.08124,0.39195 -0.77038,-2.51388 z m 1.4867,-4.87911 -1.18936,3.90599 h 2.39224 z"
         class="cls-2" />
      <path
         style="fill:#ffffff;stroke-width:1.35155225"
         inkscape:connector-curvature="0"
         id="path123"
         d="m 193.64111,113.60625 h 2.8788 c 1.35155,0 2.54092,0.66226 2.54092,2.29764 a 2.5138871,2.5138871 0 0 1 -1.72999,2.36521 l 2.08139,3.41943 -0.94608,0.56765 -2.14897,-3.82489 h -1.5678 v 3.62216 h -1.09476 z m 2.51388,3.85192 a 1.554285,1.554285 0 0 0 1.75702,-1.55428 1.2704591,1.2704591 0 0 0 -1.43264,-1.35155 h -1.74351 v 2.8788 z"
         class="cls-2" />
      <path
         style="fill:#ffffff;stroke-width:1.35155225"
         inkscape:connector-curvature="0"
         id="path125"
         d="m 169.38467,113.39 1.02718,0.54062 -2.7031,4.86559 v 3.25724 h -1.08125 v -3.25724 l -2.7031,-4.86559 1.02718,-0.54062 2.24358,4.352 z"
         class="cls-2" />
    </g>
  </g>
</svg>
