<?xml version="1.0" encoding="UTF-8" standalone="no"?>
<!-- Created with Inkscape (http://www.inkscape.org/) -->

<svg
   xmlns:osb="http://www.openswatchbook.org/uri/2009/osb"
   xmlns:dc="http://purl.org/dc/elements/1.1/"
   xmlns:cc="http://creativecommons.org/ns#"
   xmlns:rdf="http://www.w3.org/1999/02/22-rdf-syntax-ns#"
   xmlns:svg="http://www.w3.org/2000/svg"
   xmlns="http://www.w3.org/2000/svg"
   xmlns:sodipodi="http://sodipodi.sourceforge.net/DTD/sodipodi-0.dtd"
   xmlns:inkscape="http://www.inkscape.org/namespaces/inkscape"
   width="210mm"
   height="297mm"
   viewBox="0 0 744.09449 1052.3622"
   id="svg5282"
   version="1.1"
   inkscape:version="0.92.3 (2405546, 2018-03-11)"
   sodipodi:docname="FOSSASIA-Summit-2019-Tshirt-Back.svg"
   inkscape:export-filename="/home/opntec/git/fossasia-artwork/summit-cn18/Front/FOSSASIA-Summit-China-2018-Tshirt-Front1.png"
   inkscape:export-xdpi="90"
   inkscape:export-ydpi="90">
  <defs
     id="defs5284">
    <linearGradient
       id="linearGradient4049"
       osb:paint="solid">
      <stop
         style="stop-color:#000000;stop-opacity:1;"
         offset="0"
         id="stop4047" />
    </linearGradient>
    <linearGradient
       id="linearGradient2235"
       osb:paint="solid">
      <stop
         style="stop-color:#ffffff;stop-opacity:1;"
         offset="0"
         id="stop2233" />
    </linearGradient>
  </defs>
  <sodipodi:namedview
     id="base"
     pagecolor="#ffffff"
     bordercolor="#666666"
     borderopacity="1.0"
     inkscape:pageopacity="0.0"
     inkscape:pageshadow="2"
     inkscape:zoom="0.35"
     inkscape:cx="-77.953999"
     inkscape:cy="672.31859"
     inkscape:document-units="px"
     inkscape:current-layer="layer1"
     showgrid="false"
     inkscape:window-width="1366"
     inkscape:window-height="740"
     inkscape:window-x="0"
     inkscape:window-y="0"
     inkscape:window-maximized="1"
     fit-margin-top="0"
     fit-margin-left="0"
     fit-margin-right="0"
     fit-margin-bottom="0" />
  <metadata
     id="metadata5287">
    <rdf:RDF>
      <cc:Work
         rdf:about="">
        <dc:format>image/svg+xml</dc:format>
        <dc:type
           rdf:resource="http://purl.org/dc/dcmitype/StillImage" />
        <dc:title></dc:title>
      </cc:Work>
    </rdf:RDF>
  </metadata>
  <g
     inkscape:label="Layer 1"
     inkscape:groupmode="layer"
     id="layer1"
     transform="translate(8.1838346,175.74945)">
    <rect
       style="fill:#d40000;fill-opacity:1;stroke:#ffffff;stroke-width:0;stroke-linecap:round;stroke-linejoin:miter;stroke-miterlimit:4;stroke-dasharray:none;stroke-opacity:1"
       id="rect4661-5"
       width="744.09448"
       height="1052.3622"
       x="-8.1838312"
       y="-175.74942" />
    <g
       transform="matrix(2.2041708,0,0,-2.2041708,-2382.5722,1279.1659)"
       id="g833">
      <g
         style="fill:#ffffff"
         id="g6026"
         transform="matrix(1.4136747,0,0,1.4136747,-409.02484,-162.25162)">
        <g
           style="fill:#ffffff"
           transform="matrix(1.393673,0,0,1.393673,-447.92294,-153.32245)"
           id="g4938">
          <text
             xml:space="preserve"
             style="font-style:normal;font-weight:normal;font-size:12.84476471px;line-height:0%;font-family:sans-serif;letter-spacing:0px;word-spacing:0px;fill:#ffffff;fill-opacity:1;stroke:none;stroke-width:1.0703969px;stroke-linecap:butt;stroke-linejoin:miter;stroke-opacity:1"
             x="1161.4421"
             y="-391.59848"
             id="text4050"
             transform="scale(1,-1)"><tspan
               sodipodi:role="line"
               id="tspan4052"
               x="1162.3273"
               y="-391.59848"
               style="font-style:normal;font-variant:normal;font-weight:normal;font-stretch:normal;font-size:7.19325256px;line-height:1.25;font-family:Rubik;-inkscape-font-specification:Rubik;text-align:center;text-anchor:middle;fill:#ffffff;stroke-width:1.0703969px"> </tspan><tspan
               sodipodi:role="line"
               x="1161.4421"
               y="-382.79669"
               id="tspan4056"
               style="font-style:normal;font-variant:normal;font-weight:normal;font-stretch:normal;font-size:7.19325256px;line-height:1.25;font-family:Rubik;-inkscape-font-specification:Rubik;text-align:center;text-anchor:middle;fill:#ffffff;stroke-width:1.0703969px">未来属于自由和开放源代码</tspan><tspan
               sodipodi:role="line"
               x="1161.4421"
               y="-373.61536"
               style="font-style:normal;font-variant:normal;font-weight:normal;font-stretch:normal;font-size:7.19325256px;line-height:1.25;font-family:Rubik;-inkscape-font-specification:Rubik;text-align:center;text-anchor:middle;fill:#ffffff;stroke-width:1.0703969px"
               id="tspan4068">Masa depan ialah bebas dan kode terbuka</tspan><tspan
               sodipodi:role="line"
               x="1162.5239"
               y="-365.3822"
               style="font-style:normal;font-variant:normal;font-weight:normal;font-stretch:normal;font-size:7.19325256px;line-height:1.25;font-family:Rubik;-inkscape-font-specification:Rubik;text-align:center;text-anchor:middle;fill:#ffffff;stroke-width:1.0703969px"
               id="tspan1366">இலவச மற்றும் வெளிப்படை மூலநிரல் </tspan><tspan
               sodipodi:role="line"
               x="1161.4421"
               y="-355.6322"
               style="font-style:normal;font-variant:normal;font-weight:normal;font-stretch:normal;font-size:7.19325256px;line-height:1.25;font-family:Rubik;-inkscape-font-specification:Rubik;text-align:center;text-anchor:middle;fill:#ffffff;stroke-width:1.0703969px"
               id="tspan545">மென்பொருள் தான் எதிர்காலம்/வருங்காலம்</tspan><tspan
               sodipodi:role="line"
               x="1162.3273"
               y="-345.88223"
               id="tspan4060"
               style="font-style:normal;font-variant:normal;font-weight:normal;font-stretch:normal;font-size:7.19325161px;line-height:1.25;font-family:Rubik;-inkscape-font-specification:Rubik;text-align:center;text-anchor:middle;fill:#ffffff;stroke-width:1.0703969px"> </tspan></text>
        </g>
      </g>
      <g
         id="g17524"
         style="fill:#ffffff"
         transform="matrix(0.80466635,0,0,0.80466635,326.56277,-3.4295748)">
        <g
           transform="translate(1086.9113,759.6647)"
           id="g2602"
           style="fill:#ffffff">
          <path
             inkscape:connector-curvature="0"
             id="path2604"
             style="fill:#ffffff;fill-opacity:1;fill-rule:nonzero;stroke:none"
             d="m 0,0 v -7.429 h -21.542 c -0.645,0 -1.206,-0.038 -1.68,-0.114 -0.34,-0.113 -0.73,-0.341 -1.171,-0.686 -0.748,-0.762 -1.121,-1.961 -1.121,-3.599 v -0.8 L 0,-12.514 V -20 l -25.514,-0.114 v -24.289 h -8.504 v 24.289 h -5.347 v 7.486 h 5.347 v 3.143 c 0,1.677 0.135,3.065 0.408,4.172 0.271,1.142 0.831,2.189 1.678,3.141 0.851,0.954 1.767,1.562 2.753,1.83 0.982,0.266 2.205,0.399 3.665,0.399 L 0,0" />
        </g>
        <g
           transform="translate(1103.2935,752.9788)"
           id="g2606"
           style="fill:#ffffff">
          <path
             inkscape:connector-curvature="0"
             id="path2608"
             style="fill:#ffffff;fill-opacity:1;fill-rule:nonzero;stroke:none"
             d="m 0,0 c -1.187,0 -2.206,-0.477 -3.056,-1.429 -0.847,-0.952 -1.272,-2.094 -1.272,-3.429 v -7.884 c 0,-1.335 0.425,-2.477 1.272,-3.431 0.85,-0.952 1.869,-1.427 3.056,-1.427 h 21.795 c 1.19,0 2.208,0.475 3.056,1.427 0.85,0.954 1.272,2.096 1.272,3.431 v 7.884 c 0,1.335 -0.422,2.477 -1.272,3.429 C 24.003,-0.477 22.985,0 21.795,0 H 0 m -2.545,7.429 h 27.294 c 2.92,0 5.399,-1.161 7.436,-3.485 2.07,-2.287 3.105,-5.067 3.105,-8.343 v -9.257 c 0,-3.239 -1.035,-6.022 -3.105,-8.346 -2.037,-2.322 -4.516,-3.485 -7.436,-3.485 H -2.545 c -2.885,0 -5.364,1.163 -7.436,3.485 -2.071,2.324 -3.106,5.107 -3.106,8.346 v 9.257 c 0,3.276 1.035,6.056 3.106,8.343 2.072,2.324 4.551,3.485 7.436,3.485" />
        </g>
        <g
           transform="translate(1151.1132,739.8922)"
           id="g2610"
           style="fill:#ffffff">
          <path
             inkscape:connector-curvature="0"
             id="path2612"
             style="fill:#ffffff;fill-opacity:1;fill-rule:nonzero;stroke:none"
             d="m 0,0 c -2.65,0 -4.806,0.857 -6.468,2.572 -1.631,1.751 -2.446,4.114 -2.446,7.087 0,3.924 1.375,6.761 4.125,8.514 1.324,0.837 2.92,1.258 4.789,1.258 H 36.052 V 11.944 H 1.678 c -1.866,0 -2.799,-0.799 -2.799,-2.4 0,-1.6 0.933,-2.4 2.799,-2.4 l 26.99,-0.057 c 2.648,0 4.787,-0.876 6.418,-2.628 1.662,-1.755 2.493,-4.114 2.496,-7.087 -0.003,-4.001 -1.378,-6.838 -4.127,-8.514 -1.289,-0.8 -2.885,-1.201 -4.787,-1.201 H -8.914 v 7.485 l 35.902,-0.057 c 1.868,0 2.801,0.82 2.801,2.458 0,1.6 -0.933,2.4 -2.801,2.4 L 0,0" />
        </g>
        <g
           transform="translate(1200.1787,739.8922)"
           id="g2614"
           style="fill:#ffffff">
          <path
             inkscape:connector-curvature="0"
             id="path2616"
             style="fill:#ffffff;fill-opacity:1;fill-rule:nonzero;stroke:none"
             d="m 0,0 c -2.647,0 -4.803,0.857 -6.468,2.572 -1.628,1.751 -2.442,4.114 -2.442,7.087 0,3.924 1.374,6.761 4.124,8.514 1.324,0.837 2.92,1.258 4.786,1.258 H 36.055 V 11.944 H 1.681 c -1.869,0 -2.802,-0.799 -2.802,-2.4 0,-1.6 0.933,-2.4 2.802,-2.4 l 26.99,-0.057 c 2.647,0 4.787,-0.876 6.416,-2.628 1.664,-1.755 2.495,-4.114 2.495,-7.087 0,-4.001 -1.375,-6.838 -4.124,-8.514 -1.292,-0.8 -2.887,-1.201 -4.787,-1.201 H -8.91 v 7.485 l 35.9,-0.057 c 1.867,0 2.8,0.82 2.8,2.458 0,1.6 -0.933,2.4 -2.8,2.4 L 0,0" />
        </g>
        <g
           transform="translate(1090.4987,691.4198)"
           id="g2618"
           style="fill:#ffffff">
          <path
             inkscape:connector-curvature="0"
             id="path2620"
             style="fill:#ffffff;fill-opacity:1;fill-rule:nonzero;stroke:none"
             d="m 0,0 v 4.544 h -28.553 c -1.89,0 -2.835,-0.764 -2.835,-2.298 0,-1.498 0.945,-2.246 2.835,-2.246 L 0,0 m -38.232,15.72 v 7.004 h 35.665 c 3.528,0 6.327,-0.926 8.396,-2.78 1.282,-1.14 2.156,-2.477 2.618,-4.01 0.321,-1.14 0.482,-2.745 0.482,-4.813 V -7.004 h -39.835 c -2.924,0 -5.223,0.803 -6.899,2.405 -1.674,1.605 -2.512,3.851 -2.512,6.738 0,2.887 0.838,5.114 2.512,6.684 1.712,1.604 4.01,2.405 6.899,2.405 H 0 v 0.268 c 0,2.211 -0.822,3.547 -2.46,4.01 -0.498,0.142 -1.265,0.214 -2.3,0.214 h -33.472" />
        </g>
        <g
           transform="translate(1120.0482,695.9643)"
           id="g2622"
           style="fill:#ffffff">
          <path
             inkscape:connector-curvature="0"
             id="path2624"
             style="fill:#ffffff;fill-opacity:1;fill-rule:nonzero;stroke:none"
             d="m 0,0 c -2.78,0 -5.043,0.802 -6.79,2.408 -1.712,1.638 -2.567,3.848 -2.567,6.628 0,3.673 1.444,6.328 4.331,7.968 1.391,0.783 3.065,1.176 5.026,1.176 H 37.857 V 11.175 H 1.764 c -1.958,0 -2.939,-0.748 -2.939,-2.246 0,-1.495 0.981,-2.245 2.939,-2.245 L 30.105,6.631 c 2.781,0 5.024,-0.819 6.736,-2.46 1.747,-1.64 2.621,-3.851 2.621,-6.631 0,-3.741 -1.443,-6.399 -4.33,-7.966 -1.356,-0.75 -3.032,-1.122 -5.027,-1.122 H -9.357 v 7.004 l 37.696,-0.053 c 1.961,0 2.942,0.765 2.942,2.298 0,1.499 -0.981,2.247 -2.942,2.247 L 0,0" />
        </g>
        <path
           inkscape:connector-curvature="0"
           id="path2626"
           style="fill:#ffffff;fill-opacity:1;fill-rule:nonzero;stroke:none"
           d="m 1177.103,717.14 h -8.929 v 7.111 h 8.929 z m 0,-32.724 h -8.929 v 29.728 h 8.929 z" />
        <g
           transform="translate(1228.2708,691.4198)"
           id="g2628"
           style="fill:#ffffff">
          <path
             inkscape:connector-curvature="0"
             id="path2630"
             style="fill:#ffffff;fill-opacity:1;fill-rule:nonzero;stroke:none"
             d="m 0,0 v 4.544 h -28.553 c -1.89,0 -2.835,-0.764 -2.835,-2.298 0,-1.498 0.945,-2.246 2.835,-2.246 L 0,0 m -38.232,15.72 v 7.004 h 35.665 c 3.529,0 6.327,-0.926 8.396,-2.78 1.282,-1.14 2.156,-2.477 2.618,-4.01 0.321,-1.14 0.482,-2.745 0.482,-4.813 V -7.004 h -39.835 c -2.922,0 -5.223,0.803 -6.896,2.405 -1.677,1.605 -2.515,3.851 -2.515,6.738 0,2.887 0.838,5.114 2.515,6.684 1.709,1.604 4.009,2.405 6.896,2.405 H 0 v 0.268 c 0,2.211 -0.819,3.547 -2.46,4.01 -0.498,0.142 -1.265,0.214 -2.298,0.214 h -33.474" />
        </g>
      </g>
      <g
         style="fill:#ffffff"
         id="g4218"
         transform="matrix(1.0264974,0,0,1.0264974,-35.210468,10.422202)">
        <text
           transform="scale(0.95049319,-1.0520854)"
           id="text4074"
           y="-454.75095"
           x="1182.4552"
           style="font-style:normal;font-weight:normal;line-height:0%;font-family:sans-serif;letter-spacing:0px;word-spacing:0px;fill:#ffffff;fill-opacity:1;stroke:none;stroke-width:1px;stroke-linecap:butt;stroke-linejoin:miter;stroke-opacity:1"
           xml:space="preserve"><tspan
             y="-454.75095"
             x="1182.4552"
             id="tspan4076"
             sodipodi:role="line"
             style="font-style:normal;font-variant:normal;font-weight:500;font-stretch:normal;font-size:21.79257011px;line-height:1.25;font-family:Rubik;-inkscape-font-specification:'Rubik Medium';fill:#ffffff">Asia's Open Tech Summit</tspan><tspan
             id="tspan4078"
             y="-427.51022"
             x="1182.4552"
             sodipodi:role="line"
             style="font-style:normal;font-variant:normal;font-weight:500;font-stretch:normal;font-size:21.79257011px;line-height:1.25;font-family:Rubik;-inkscape-font-specification:'Rubik Medium';fill:#ffffff"> </tspan></text>
        <g
           style="fill:#ffffff"
           transform="matrix(1.1495512,0,0,1.1495512,-149.9477,-65.531667)"
           id="g4116">
          <text
             xml:space="preserve"
             style="font-style:normal;font-weight:normal;line-height:0%;font-family:sans-serif;letter-spacing:0px;word-spacing:0px;fill:#ffffff;fill-opacity:1;stroke:none;stroke-width:1px;stroke-linecap:butt;stroke-linejoin:miter;stroke-opacity:1"
             x="1143.4357"
             y="-438.0188"
             id="text4080"
             transform="scale(0.96887864,-1.032121)"><tspan
               style="font-style:normal;font-variant:normal;font-weight:500;font-stretch:normal;font-size:15.52830124px;line-height:1.25;font-family:Rubik;-inkscape-font-specification:'Rubik Medium';fill:#ffffff"
               sodipodi:role="line"
               id="tspan4082"
               x="1143.4357"
               y="-438.0188">Singapore, March 14-17, 2019</tspan></text>
        </g>
      </g>
      <text
         xml:space="preserve"
         style="font-style:normal;font-weight:normal;font-size:14.60179043px;line-height:0%;font-family:sans-serif;text-align:center;letter-spacing:0px;word-spacing:0px;text-anchor:middle;fill:#ffffff;fill-opacity:1;stroke:none;stroke-width:1.21681583px;stroke-linecap:butt;stroke-linejoin:miter;stroke-opacity:1"
         x="1258.3732"
         y="-406.78601"
         id="text15138-3"
         transform="scale(0.9903009,-1.0097941)"><tspan
           style="font-style:normal;font-variant:normal;font-weight:500;font-stretch:normal;font-size:24.15672874px;line-height:1.25;font-family:Rubik;-inkscape-font-specification:'Rubik Medium';text-align:center;text-anchor:middle;fill:#ffffff;stroke-width:1.21681583px"
           sodipodi:role="line"
           x="1258.3732"
           y="-406.78601"
           id="tspan15300-6">The Future is FOSS</tspan></text>
      <g
         transform="matrix(0.62245934,0,0,-0.40586062,987.10905,752.87552)"
         id="g207"
         style="fill:#ffffff">
        <line
           style="fill:#ffffff"
           x1="283.733"
           y1="743.54401"
           x2="548.15601"
           y2="743.54401"
           id="line209" />
        <rect
           style="fill:#ffffff"
           x="283.733"
           y="740.54401"
           width="264.423"
           height="6"
           id="rect211" />
      </g>
    </g>
  </g>
</svg>
