<?xml version="1.0" encoding="UTF-8" standalone="no"?>
<!-- Created with Inkscape (http://www.inkscape.org/) -->

<svg
   xmlns:dc="http://purl.org/dc/elements/1.1/"
   xmlns:cc="http://creativecommons.org/ns#"
   xmlns:rdf="http://www.w3.org/1999/02/22-rdf-syntax-ns#"
   xmlns:svg="http://www.w3.org/2000/svg"
   xmlns="http://www.w3.org/2000/svg"
   xmlns:sodipodi="http://sodipodi.sourceforge.net/DTD/sodipodi-0.dtd"
   xmlns:inkscape="http://www.inkscape.org/namespaces/inkscape"
   width="85mm"
   height="55.000004mm"
   viewBox="0 0 301.1811 194.8819"
   id="svg5196"
   version="1.1"
   inkscape:version="0.91 r13725"
   sodipodi:docname="FOSSASIA-sample-card.svg"
   inkscape:export-filename="/home/makeman/Dropbox/Business Cards/hpdang/FOSSASIA-hpdang.png"
   inkscape:export-xdpi="600"
   inkscape:export-ydpi="600">
  <defs
     id="defs5198">
    <inkscape:perspective
       id="perspective6024"
       inkscape:persp3d-origin="372.04724 : 350.78739 : 1"
       inkscape:vp_z="744.09448 : 526.18109 : 1"
       inkscape:vp_y="0 : 1000 : 0"
       inkscape:vp_x="0 : 526.18109 : 1"
       sodipodi:type="inkscape:persp3d" />
  </defs>
  <sodipodi:namedview
     id="base"
     pagecolor="#ffffff"
     bordercolor="#666666"
     borderopacity="1.0"
     inkscape:pageopacity="0.0"
     inkscape:pageshadow="2"
     inkscape:zoom="1.4"
     inkscape:cx="46.739247"
     inkscape:cy="42.722796"
     inkscape:document-units="px"
     inkscape:current-layer="layer1"
     showgrid="false"
     fit-margin-top="0"
     fit-margin-left="0"
     fit-margin-right="0"
     fit-margin-bottom="0"
     inkscape:window-width="1366"
     inkscape:window-height="742"
     inkscape:window-x="0"
     inkscape:window-y="0"
     inkscape:window-maximized="1" />
  <metadata
     id="metadata5201">
    <rdf:RDF>
      <cc:Work
         rdf:about="">
        <dc:format>image/svg+xml</dc:format>
        <dc:type
           rdf:resource="http://purl.org/dc/dcmitype/StillImage" />
        <dc:title></dc:title>
      </cc:Work>
    </rdf:RDF>
  </metadata>
  <g
     inkscape:label="Layer 1"
     inkscape:groupmode="layer"
     id="layer1"
     transform="translate(242.39952,-436.42163)"
     style="display:inline">
    <rect
       style="opacity:1;fill:#ffffff;fill-opacity:1;stroke:none;stroke-width:8.33199978;stroke-linecap:square;stroke-linejoin:miter;stroke-miterlimit:0;stroke-dasharray:none;stroke-dashoffset:0;stroke-opacity:1"
       id="rect5027"
       width="301.18109"
       height="194.8819"
       x="-242.39952"
       y="436.42163" />
    <text
       xml:space="preserve"
       style="font-style:normal;font-variant:normal;font-weight:normal;font-stretch:normal;font-size:33px;line-height:135.00000238%;font-family:'Bitstream Charter';-inkscape-font-specification:'Bitstream Charter';fill:#000000;fill-opacity:1;stroke:none"
       x="-215.28593"
       y="478.45096"
       id="text2988"
       sodipodi:linespacing="135%"><tspan
         sodipodi:role="line"
         id="tspan2990"
         x="-215.28593"
         y="478.45096"
         style="font-style:normal;font-variant:normal;font-weight:normal;font-stretch:normal;font-size:12.5px;line-height:135.00000238%;font-family:'Bitstream Charter';-inkscape-font-specification:'Bitstream Charter';text-align:start;writing-mode:lr-tb;text-anchor:start">Developer Hero</tspan><tspan
         sodipodi:role="line"
         x="-215.28593"
         y="492.61752"
         id="tspan2992"
         style="font-style:normal;font-variant:normal;font-weight:normal;font-stretch:normal;font-size:10px;line-height:135.00000238%;font-family:'Bitstream Charter';-inkscape-font-specification:'Bitstream Charter';text-align:start;writing-mode:lr-tb;text-anchor:start">Full Stack Developer</tspan><tspan
         sodipodi:role="line"
         x="-215.28593"
         y="506.11752"
         style="font-style:normal;font-variant:normal;font-weight:normal;font-stretch:normal;font-size:10px;line-height:135.00000238%;font-family:'Bitstream Charter';-inkscape-font-specification:'Bitstream Charter';text-align:start;writing-mode:lr-tb;text-anchor:start"
         id="tspan4942">someemail@fossasia.org</tspan></text>
    <text
       xml:space="preserve"
       style="font-style:normal;font-variant:normal;font-weight:normal;font-stretch:normal;font-size:33px;line-height:125%;font-family:'Bitstream Charter';-inkscape-font-specification:'Bitstream Charter';fill:#000000;fill-opacity:1;stroke:none"
       x="-76.355522"
       y="532.25"
       id="text3340"
       sodipodi:linespacing="125%"><tspan
         sodipodi:role="line"
         x="-76.355522"
         y="532.25"
         style="font-style:normal;font-variant:normal;font-weight:normal;font-stretch:normal;font-size:10px;line-height:125%;font-family:'Bitstream Charter';-inkscape-font-specification:'Bitstream Charter, Normal';text-align:start;writing-mode:lr-tb;text-anchor:start"
         id="tspan2871">88 Open Technology Road</tspan><tspan
         sodipodi:role="line"
         x="-76.355522"
         y="544.75"
         style="font-style:normal;font-variant:normal;font-weight:normal;font-stretch:normal;font-size:10px;line-height:125%;font-family:'Bitstream Charter';-inkscape-font-specification:'Bitstream Charter, Normal';text-align:start;writing-mode:lr-tb;text-anchor:start"
         id="tspan2873">8888 OTS City, Country</tspan></text>
    <text
       xml:space="preserve"
       style="font-style:normal;font-variant:normal;font-weight:normal;font-stretch:normal;font-size:33px;line-height:135.00000238%;font-family:'Bitstream Charter';-inkscape-font-specification:'Bitstream Charter';fill:#000000;fill-opacity:1;stroke:none"
       x="-75.685524"
       y="476.35349"
       id="text3280"
       sodipodi:linespacing="135%"><tspan
         sodipodi:role="line"
         x="-75.685524"
         y="476.35349"
         style="font-style:normal;font-variant:normal;font-weight:bold;font-stretch:normal;font-size:10px;line-height:135.00000238%;font-family:'Bitstream Charter';-inkscape-font-specification:'Bitstream Charter, Bold';text-align:start;letter-spacing:0.19915999;writing-mode:lr-tb;text-anchor:start"
         id="tspan3212"><tspan
           style="font-style:italic;font-variant:normal;font-weight:bold;font-stretch:normal;font-size:10px;line-height:135.00000238%;font-family:'Bitstream Charter';-inkscape-font-specification:'Bitstream Charter, Bold Italic';text-align:start;writing-mode:lr-tb;text-anchor:start"
           id="tspan5015">MOBILE</tspan><tspan
           style="font-style:normal;font-variant:normal;font-weight:normal;font-stretch:normal;font-size:10px;line-height:135.00000238%;font-family:'Bitstream Charter';-inkscape-font-specification:'Bitstream Charter, Normal';text-align:start;writing-mode:lr-tb;text-anchor:start"
           id="tspan5009"> +65 0000000</tspan></tspan><tspan
         sodipodi:role="line"
         x="-75.685524"
         y="489.88013"
         style="font-style:normal;font-variant:normal;font-weight:bold;font-stretch:normal;font-size:10px;line-height:135.00000238%;font-family:'Bitstream Charter';-inkscape-font-specification:'Bitstream Charter, Bold';text-align:start;letter-spacing:0.19915999;writing-mode:lr-tb;text-anchor:start"
         id="tspan4936"><tspan
           style="font-style:italic;font-variant:normal;font-weight:bold;font-stretch:normal;font-size:10px;line-height:135.00000238%;font-family:'Bitstream Charter';-inkscape-font-specification:'Bitstream Charter, Bold Italic';text-align:start;writing-mode:lr-tb;text-anchor:start"
           id="tspan5017">TWITTER</tspan><tspan
           style="font-style:normal;font-variant:normal;font-weight:normal;font-stretch:normal;font-size:10px;line-height:135.00000238%;font-family:'Bitstream Charter';-inkscape-font-specification:'Bitstream Charter, Normal';text-align:start;writing-mode:lr-tb;text-anchor:start"
           id="tspan5011"> @fossasia</tspan></tspan><tspan
         sodipodi:role="line"
         x="-75.685524"
         y="503.40677"
         style="font-style:normal;font-variant:normal;font-weight:bold;font-stretch:normal;font-size:10px;line-height:135.00000238%;font-family:'Bitstream Charter';-inkscape-font-specification:'Bitstream Charter, Bold';text-align:start;letter-spacing:0.19915999;writing-mode:lr-tb;text-anchor:start"
         id="tspan3214"><tspan
           style="font-style:italic;font-variant:normal;font-weight:bold;font-stretch:normal;font-size:10px;line-height:135.00000238%;font-family:'Bitstream Charter';-inkscape-font-specification:'Bitstream Charter, Bold Italic';text-align:start;writing-mode:lr-tb;text-anchor:start"
           id="tspan5019">SKYPE</tspan><tspan
           style="font-style:normal;font-variant:normal;font-weight:normal;font-stretch:normal;font-size:10px;line-height:135.00000238%;font-family:'Bitstream Charter';-inkscape-font-specification:'Bitstream Charter, Normal';text-align:start;writing-mode:lr-tb;text-anchor:start"
           id="tspan5013"> fossasiasky</tspan></tspan></text>
    <text
       xml:space="preserve"
       style="font-style:normal;font-variant:normal;font-weight:normal;font-stretch:normal;font-size:47.53712082px;line-height:135.00000238%;font-family:'Bitstream Charter';-inkscape-font-specification:'Bitstream Charter';fill:#000000;fill-opacity:1;stroke:none"
       x="-75.905525"
       y="573.18323"
       id="text3280-5"
       sodipodi:linespacing="135%"><tspan
         sodipodi:role="line"
         x="-75.905525"
         y="573.18323"
         style="font-style:normal;font-variant:normal;font-weight:normal;font-stretch:normal;font-size:10px;line-height:135.00000238%;font-family:'Bitstream Charter';-inkscape-font-specification:'Bitstream Charter, Normal';text-align:start;letter-spacing:0.28689373;writing-mode:lr-tb;text-anchor:start"
         id="tspan3214-5">www.fossasia.org</tspan></text>
    <g
       transform="matrix(0.19529081,0,0,0.19529081,-227.36966,400.25681)"
       id="layer1-4"
       inkscape:label="Layer 1">
      <g
         style="font-style:normal;font-variant:normal;font-weight:normal;font-stretch:normal;font-size:72px;font-family:Ethnocentric;-inkscape-font-specification:Ethnocentric;fill:#000000;fill-opacity:1;stroke:none"
         id="flowRoot6032" />
      <g
         style="font-style:normal;font-variant:normal;font-weight:normal;font-stretch:normal;font-size:72px;font-family:Ethnocentric;-inkscape-font-specification:Ethnocentric;fill:#000000;fill-opacity:1;stroke:none"
         id="flowRoot6046" />
      <g
         style="font-style:normal;font-variant:normal;font-weight:normal;font-stretch:normal;font-size:72px;font-family:Ethnocentric;-inkscape-font-specification:Ethnocentric;fill:#000000;fill-opacity:1;stroke:none"
         id="flowRoot6054" />
      <g
         style="font-style:normal;font-variant:normal;font-weight:normal;font-stretch:normal;font-size:72px;font-family:Ethnocentric;-inkscape-font-specification:Ethnocentric;fill:#000000;fill-opacity:1;stroke:none"
         id="flowRoot6062" />
      <g
         transform="translate(0,802.36218)"
         style="font-style:normal;font-variant:normal;font-weight:normal;font-stretch:normal;font-size:72px;font-family:Ethnocentric;-inkscape-font-specification:Ethnocentric;fill:#000000;fill-opacity:1;stroke:none"
         id="flowRoot6070" />
      <g
         transform="matrix(1.0472911,0,0,1.0472911,0.71952702,-54.48149)"
         id="g2865">
        <g
           id="text6026"
           style="font-style:normal;font-variant:normal;font-weight:normal;font-stretch:normal;font-size:76.27169037px;line-height:20.0000003%;font-family:spaceman;-inkscape-font-specification:spaceman;writing-mode:lr-tb;fill:#000000;fill-opacity:1;stroke:none"
           transform="scale(0.94399373,1.0593291)">
          <path
             id="path2862"
             style="font-size:105.93291473px;line-height:20.0000003%;font-family:spaceman;-inkscape-font-specification:spaceman;text-align:start;letter-spacing:-7.99983072;text-anchor:start;fill:#d40000"
             d="m 144.72923,814.28949 0,13.77128 -44.809624,0 c -1.341852,5e-5 -2.507113,0.0707 -3.495786,0.21187 -0.706252,0.21191 -1.518404,0.63564 -2.436457,1.27119 -1.553712,1.41248 -2.330553,3.63707 -2.330524,6.67378 l 0,1.48306 53.072391,-0.21187 0,13.87721 -53.072391,0.21187 0,45.02149 -17.690797,0 0,-45.02149 -11.122956,0 0,-13.87721 11.122956,0 0,-5.82631 c -1.1e-5,-3.10732 0.282477,-5.68502 0.847464,-7.73311 0.564963,-2.1186 1.730224,-4.0607 3.495786,-5.82631 1.765531,-1.76549 3.672322,-2.89544 5.720377,-3.38985 2.048013,-0.49429 4.590401,-0.74147 7.62717,-0.74153 l 53.072391,0.10593"
             inkscape:connector-curvature="0" />
          <path
             id="path2864"
             style="font-size:105.93291473px;line-height:20.0000003%;font-family:spaceman;-inkscape-font-specification:spaceman;text-align:start;letter-spacing:-7.99983072;text-anchor:start;fill:#d40000"
             d="m 173.5146,812.91237 56.78004,0 c 6.0734,6e-5 11.2288,2.15402 15.46621,6.4619 4.30784,4.23737 6.4618,9.39277 6.4619,15.46621 l 0,17.16113 c -1e-4,6.00288 -2.15406,11.15828 -6.4619,15.46621 -4.23741,4.30794 -9.39281,6.4619 -15.46621,6.4619 l -56.78004,0 c -6.00288,0 -11.15828,-2.15396 -15.46621,-6.4619 -4.30794,-4.30793 -6.4619,-9.46333 -6.4619,-15.46621 l 0,-17.16113 c 0,-6.07344 2.15396,-11.22884 6.4619,-15.46621 4.30793,-4.30788 9.46333,-6.46184 15.46621,-6.4619 m 5.29664,13.77127 c -2.47179,5e-5 -4.59044,0.88282 -6.35597,2.64833 -1.76557,1.76559 -2.64834,3.88424 -2.64832,6.35597 l 0,14.61874 c -2e-5,2.47179 0.88275,4.59045 2.64832,6.35598 1.76553,1.76556 3.88418,2.64834 6.35597,2.64832 l 45.33929,0 c 2.47169,2e-5 4.59035,-0.88276 6.35598,-2.64832 1.76546,-1.76553 2.64824,-3.88419 2.64832,-6.35598 l 0,-14.61874 c -8e-5,-2.47173 -0.88286,-4.59038 -2.64832,-6.35597 -1.76563,-1.76551 -3.88429,-2.64828 -6.35598,-2.64833 l -45.33929,0"
             inkscape:connector-curvature="0" />
          <path
             id="path2866"
             style="font-size:105.93291473px;line-height:20.0000003%;font-family:spaceman;-inkscape-font-specification:spaceman;text-align:start;letter-spacing:-7.99983072;text-anchor:start;fill:#d40000"
             d="m 278.28201,850.94228 c -5.50852,2e-5 -9.99301,-1.58897 -13.45348,-4.76698 -3.38985,-3.24858 -5.08478,-7.62713 -5.08478,-13.13568 0,-7.27401 2.86019,-12.53534 8.58057,-15.784 2.75424,-1.55363 6.07347,-2.33047 9.95769,-2.33053 l 75.00051,0 0,13.87721 -71.50472,0 c -3.88423,5e-5 -5.82633,1.48311 -5.82631,4.44919 -2e-5,2.96615 1.94208,4.44921 5.82631,4.44918 l 56.14444,0.10593 c 5.50843,4e-5 9.95761,1.62434 13.34755,4.87291 3.46038,3.24864 5.19062,7.6272 5.19071,13.13569 -9e-5,7.41531 -2.86028,12.67664 -8.58056,15.784 -2.68372,1.48306 -6.00295,2.22459 -9.9577,2.22459 l -78.17849,0 0,-13.87721 74.68271,0.10593 c 3.88412,2e-5 5.82623,-1.51835 5.82631,-4.55511 -8e-5,-2.9661 -1.94219,-4.44916 -5.82631,-4.44919 l -56.14445,-0.10593"
             inkscape:connector-curvature="0" />
          <path
             id="path2868"
             style="font-size:105.93291473px;line-height:20.0000003%;font-family:spaceman;-inkscape-font-specification:spaceman;text-align:start;letter-spacing:-7.99983072;text-anchor:start;fill:#d40000"
             d="m 380.35312,850.94228 c -5.50853,2e-5 -9.99302,-1.58897 -13.45348,-4.76698 -3.38986,-3.24858 -5.08478,-7.62713 -5.08478,-13.13568 0,-7.27401 2.86018,-12.53534 8.58056,-15.784 2.75425,-1.55363 6.07348,-2.33047 9.9577,-2.33053 l 75.0005,0 0,13.87721 -71.50472,0 c -3.88422,5e-5 -5.82632,1.48311 -5.82631,4.44919 -10e-6,2.96615 1.94209,4.44921 5.82631,4.44918 l 56.14445,0.10593 c 5.50843,4e-5 9.9576,1.62434 13.34755,4.87291 3.46038,3.24864 5.19061,7.6272 5.19071,13.13569 -10e-5,7.41531 -2.86028,12.67664 -8.58057,15.784 -2.68372,1.48306 -6.00294,2.22459 -9.95769,2.22459 l -78.17849,0 0,-13.87721 74.6827,0.10593 c 3.88413,2e-5 5.82623,-1.51835 5.82631,-4.55511 -8e-5,-2.9661 -1.94218,-4.44916 -5.82631,-4.44919 l -56.14444,-0.10593"
             inkscape:connector-curvature="0" />
        </g>
        <g
           id="text2859"
           style="font-style:normal;font-variant:normal;font-weight:normal;font-stretch:normal;font-size:72px;font-family:Ethnocentric;-inkscape-font-specification:Ethnocentric;fill:#d40000;fill-opacity:1;stroke:none">
          <path
             id="path2871"
             style="font-size:105px;font-family:spaceman;-inkscape-font-specification:spaceman;letter-spacing:3.77589703;fill:#d40000"
             d="m 68.593375,965.74463 0,-13.755 70.034995,0 c 6.92992,6e-5 12.42492,1.82006 16.485,5.46 2.51991,2.24005 4.23491,4.86505 5.145,7.875 0.62991,2.24004 0.94491,5.39004 0.945,9.45 l 0,35.59497 -78.224995,0 c -5.740013,0 -10.255008,-1.575 -13.545,-4.725 -3.290002,-3.15 -4.935,-7.55996 -4.935,-13.22997 0,-5.66998 1.644998,-10.04497 4.935,-13.125 3.359992,-3.14997 7.874987,-4.72497 13.545,-4.725 l 60.689995,0 0,-0.525 c -7e-5,-4.33996 -1.61007,-6.96496 -4.83,-7.875 -0.98007,-0.27996 -2.48507,-0.41996 -4.515,-0.42 l -65.729995,0 m 75.074995,30.87 0,-8.925 -56.069995,0 c -3.710019,2e-5 -5.565018,1.50502 -5.565,4.515 -1.8e-5,2.94001 1.854981,4.41001 5.565,4.41 l 56.069995,0"
             inkscape:connector-curvature="0" />
          <path
             id="path2873"
             style="font-size:105px;font-family:spaceman;-inkscape-font-specification:spaceman;letter-spacing:3.77589703;fill:#d40000"
             d="m 201.6981,987.68963 c -5.46002,2e-5 -9.90501,-1.57498 -13.335,-4.725 -3.36,-3.21997 -5.04,-7.55997 -5.04,-13.02 0,-7.20995 2.83499,-12.42495 8.505,-15.645 2.72999,-1.53994 6.01998,-2.30994 9.87,-2.31 l 74.34,0 0,13.755 -70.875,0 c -3.85002,4e-5 -5.77502,1.47004 -5.775,4.41 -2e-5,2.94004 1.92498,4.41003 5.775,4.41 l 55.65,0.105 c 5.45991,3e-5 9.86991,1.61003 13.23,4.83 3.4299,3.22003 5.1449,7.56002 5.145,13.02 -1e-4,7.35001 -2.8351,12.56497 -8.505,15.64497 -2.66009,1.47 -5.95008,2.205 -9.87,2.205 l -77.49,0 0,-13.75497 74.025,0.105 c 3.84992,10e-6 5.77492,-1.50499 5.775,-4.515 -8e-5,-2.93998 -1.92508,-4.40998 -5.775,-4.41 l -55.65,-0.105"
             inkscape:connector-curvature="0" />
          <path
             id="path2875"
             style="font-size:105px;font-family:spaceman;-inkscape-font-specification:spaceman;letter-spacing:3.77589703;fill:#d40000"
             d="m 313.73555,1010.3696 -17.535,0 0,-58.37997 17.535,0 0,58.37997 m 0,-64.25997 -17.535,0 0,-13.965 17.535,0 0,13.965"
             inkscape:connector-curvature="0" />
          <path
             id="path2877"
             style="font-size:105px;font-family:spaceman;-inkscape-font-specification:spaceman;letter-spacing:3.77589703;fill:#d40000"
             d="m 339.13982,965.74463 0,-13.755 70.035,0 c 6.92992,6e-5 12.42492,1.82006 16.485,5.46 2.51991,2.24005 4.23491,4.86505 5.145,7.875 0.62991,2.24004 0.94491,5.39004 0.945,9.45 l 0,35.59497 -78.225,0 c -5.74001,0 -10.25501,-1.575 -13.545,-4.725 -3.29,-3.15 -4.935,-7.55996 -4.935,-13.22997 0,-5.66998 1.645,-10.04497 4.935,-13.125 3.35999,-3.14997 7.87499,-4.72497 13.545,-4.725 l 60.69,0 0,-0.525 c -8e-5,-4.33996 -1.61007,-6.96496 -4.83,-7.875 -0.98007,-0.27996 -2.48507,-0.41996 -4.515,-0.42 l -65.73,0 m 75.075,30.87 0,-8.925 -56.07,0 c -3.71002,2e-5 -5.56501,1.50502 -5.565,4.515 -10e-6,2.94001 1.85498,4.41001 5.565,4.41 l 56.07,0"
             inkscape:connector-curvature="0" />
        </g>
      </g>
    </g>
    <flowRoot
       xml:space="preserve"
       id="flowRoot3424"
       style="fill:black;stroke:none;stroke-opacity:1;stroke-width:1px;stroke-linejoin:miter;stroke-linecap:butt;fill-opacity:1;font-family:sans-serif;font-style:normal;font-weight:normal;font-size:40px;line-height:125%;letter-spacing:0px;word-spacing:0px"><flowRegion
         id="flowRegion3426"><rect
           id="rect3428"
           width="383.85797"
           height="162.12949"
           x="-67.175148"
           y="-12.199368" /></flowRegion><flowPara
         id="flowPara3430" /></flowRoot>  </g>
</svg>
