<?xml version="1.0" encoding="UTF-8" standalone="no"?>
<!-- Created with Inkscape (http://www.inkscape.org/) -->

<svg
   xmlns:dc="http://purl.org/dc/elements/1.1/"
   xmlns:cc="http://creativecommons.org/ns#"
   xmlns:rdf="http://www.w3.org/1999/02/22-rdf-syntax-ns#"
   xmlns:svg="http://www.w3.org/2000/svg"
   xmlns="http://www.w3.org/2000/svg"
   xmlns:sodipodi="http://sodipodi.sourceforge.net/DTD/sodipodi-0.dtd"
   xmlns:inkscape="http://www.inkscape.org/namespaces/inkscape"
   width="210mm"
   height="297mm"
   viewBox="0 0 210 297"
   version="1.1"
   id="svg1161"
   inkscape:version="0.92.3 (2405546, 2018-03-11)"
   sodipodi:docname="fossasia-academy-logo-path.svg">
  <defs
     id="defs1155" />
  <sodipodi:namedview
     id="base"
     pagecolor="#ffffff"
     bordercolor="#666666"
     borderopacity="1.0"
     inkscape:pageopacity="0.0"
     inkscape:pageshadow="2"
     inkscape:zoom="1.8101934"
     inkscape:cx="-773.43004"
     inkscape:cy="-160370.83"
     inkscape:document-units="mm"
     inkscape:current-layer="g1782"
     showgrid="false"
     inkscape:window-width="1366"
     inkscape:window-height="740"
     inkscape:window-x="0"
     inkscape:window-y="0"
     inkscape:window-maximized="1" />
  <metadata
     id="metadata1158">
    <rdf:RDF>
      <cc:Work
         rdf:about="">
        <dc:format>image/svg+xml</dc:format>
        <dc:type
           rdf:resource="http://purl.org/dc/dcmitype/StillImage" />
        <dc:title></dc:title>
      </cc:Work>
    </rdf:RDF>
  </metadata>
  <g
     inkscape:label="Layer 1"
     inkscape:groupmode="layer"
     id="layer1">
    <g
       id="g1782"
       transform="matrix(0.28222223,0,0,0.28222223,-1089.5327,43197.621)">
      <g
         aria-label="fossasia"
         style="font-style:normal;font-variant:normal;font-weight:normal;font-stretch:normal;font-size:71.28131866px;line-height:67.35242462px;font-family:Roboto;-inkscape-font-specification:Roboto;letter-spacing:0px;word-spacing:-10.87931061px;fill:#000000;fill-opacity:1;stroke:none;stroke-width:0.89101642"
         id="text1724">
        <path
           d="m 3007.5846,-1730.2566 v 9.1 h -29.61 q -1.33,0 -2.31,0.14 -0.7,0.21 -1.61,0.84 -1.54,1.4 -1.54,4.41 v 0.98 l 35.07,-0.14 v 9.17 l -35.07,0.14 v 29.75 h -11.69 v -29.75 h -7.35 v -9.17 h 7.35 v -3.85 q 0,-3.08 0.56,-5.11 0.56,-2.1 2.31,-3.85 1.75,-1.75 3.78,-2.24 2.03,-0.49 5.04,-0.49 z"
           style="font-style:normal;font-variant:normal;font-weight:normal;font-stretch:normal;font-size:70px;line-height:0px;font-family:spaceman;-inkscape-font-specification:spaceman;stroke-width:0.89101642"
           id="path1830"
           inkscape:connector-curvature="0" />
        <path
           d="m 3031.8921,-1731.1666 h 37.52 q 6.02,0 10.22,4.27 4.27,4.2 4.27,10.22 v 11.34 q 0,5.95 -4.27,10.22 -4.2,4.27 -10.22,4.27 h -37.52 q -5.95,0 -10.22,-4.27 -4.27,-4.27 -4.27,-10.22 v -11.34 q 0,-6.02 4.27,-10.22 4.27,-4.27 10.22,-4.27 z m 3.5,9.1 q -2.45,0 -4.2,1.75 -1.75,1.75 -1.75,4.2 v 9.66 q 0,2.45 1.75,4.2 1.75,1.75 4.2,1.75 h 29.96 q 2.45,0 4.2,-1.75 1.75,-1.75 1.75,-4.2 v -9.66 q 0,-2.45 -1.75,-4.2 -1.75,-1.75 -4.2,-1.75 z"
           style="font-style:normal;font-variant:normal;font-weight:normal;font-stretch:normal;font-size:70px;line-height:0px;font-family:spaceman;-inkscape-font-specification:spaceman;stroke-width:0.89101642"
           id="path1832"
           inkscape:connector-curvature="0" />
        <path
           d="m 3106.4082,-1706.0366 q -5.46,0 -8.89,-3.15 -3.36,-3.22 -3.36,-8.68 0,-7.21 5.67,-10.43 2.73,-1.54 6.58,-1.54 h 49.56 v 9.17 h -47.25 q -3.85,0 -3.85,2.94 0,2.94 3.85,2.94 l 37.1,0.07 q 5.46,0 8.82,3.22 3.43,3.22 3.43,8.68 0,7.35 -5.67,10.43 -2.66,1.47 -6.58,1.47 h -51.66 v -9.17 l 49.35,0.07 q 3.85,0 3.85,-3.01 0,-2.94 -3.85,-2.94 z"
           style="font-style:normal;font-variant:normal;font-weight:normal;font-stretch:normal;font-size:70px;line-height:0px;font-family:spaceman;-inkscape-font-specification:spaceman;stroke-width:0.89101642"
           id="path1834"
           inkscape:connector-curvature="0" />
        <path
           d="m 3179.1426,-1706.0366 q -5.46,0 -8.89,-3.15 -3.36,-3.22 -3.36,-8.68 0,-7.21 5.67,-10.43 2.73,-1.54 6.58,-1.54 h 49.56 v 9.17 h -47.25 q -3.85,0 -3.85,2.94 0,2.94 3.85,2.94 l 37.1,0.07 q 5.46,0 8.82,3.22 3.43,3.22 3.43,8.68 0,7.35 -5.67,10.43 -2.66,1.47 -6.58,1.47 h -51.66 v -9.17 l 49.35,0.07 q 3.85,0 3.85,-3.01 0,-2.94 -3.85,-2.94 z"
           style="font-style:normal;font-variant:normal;font-weight:normal;font-stretch:normal;font-size:70px;line-height:0px;font-family:spaceman;-inkscape-font-specification:spaceman;stroke-width:0.89101642"
           id="path1836"
           inkscape:connector-curvature="0" />
        <path
           d="m 3242.357,-1720.6666 v -9.17 h 46.69 q 6.93,0 10.99,3.64 2.52,2.24 3.43,5.25 0.63,2.24 0.63,6.3 v 23.73 h -52.15 q -5.74,0 -9.03,-3.15 -3.29,-3.15 -3.29,-8.82 0,-5.67 3.29,-8.75 3.36,-3.15 9.03,-3.15 h 40.46 v -0.35 q 0,-4.34 -3.22,-5.25 -0.98,-0.28 -3.01,-0.28 z m 50.05,20.58 v -5.95 h -37.38 q -3.71,0 -3.71,3.01 0,2.94 3.71,2.94 z"
           style="font-style:normal;font-variant:normal;font-weight:normal;font-stretch:normal;font-size:70px;line-height:0px;font-family:spaceman;-inkscape-font-specification:spaceman;stroke-width:0.89101642"
           id="path1838"
           inkscape:connector-curvature="0" />
        <path
           d="m 3328.5762,-1706.0366 q -5.46,0 -8.89,-3.15 -3.36,-3.22 -3.36,-8.68 0,-7.21 5.67,-10.43 2.73,-1.54 6.58,-1.54 h 49.56 v 9.17 h -47.25 q -3.85,0 -3.85,2.94 0,2.94 3.85,2.94 l 37.1,0.07 q 5.46,0 8.82,3.22 3.43,3.22 3.43,8.68 0,7.35 -5.67,10.43 -2.66,1.47 -6.58,1.47 h -51.66 v -9.17 l 49.35,0.07 q 3.85,0 3.85,-3.01 0,-2.94 -3.85,-2.94 z"
           style="font-style:normal;font-variant:normal;font-weight:normal;font-stretch:normal;font-size:70px;line-height:0px;font-family:spaceman;-inkscape-font-specification:spaceman;stroke-width:0.89101642"
           id="path1840"
           inkscape:connector-curvature="0" />
        <path
           d="m 3400.7505,-1690.9166 h -11.69 v -38.92 h 11.69 z m 0,-42.84 h -11.69 v -9.31 h 11.69 z"
           style="font-style:normal;font-variant:normal;font-weight:normal;font-stretch:normal;font-size:70px;line-height:0px;font-family:spaceman;-inkscape-font-specification:spaceman;stroke-width:0.89101642"
           id="path1842"
           inkscape:connector-curvature="0" />
        <path
           d="m 3415.1695,-1720.6666 v -9.17 h 46.69 q 6.93,0 10.99,3.64 2.52,2.24 3.43,5.25 0.63,2.24 0.63,6.3 v 23.73 h -52.15 q -5.74,0 -9.03,-3.15 -3.29,-3.15 -3.29,-8.82 0,-5.67 3.29,-8.75 3.36,-3.15 9.03,-3.15 h 40.46 v -0.35 q 0,-4.34 -3.22,-5.25 -0.98,-0.28 -3.01,-0.28 z m 50.05,20.58 v -5.95 h -37.38 q -3.71,0 -3.71,3.01 0,2.94 3.71,2.94 z"
           style="font-style:normal;font-variant:normal;font-weight:normal;font-stretch:normal;font-size:70px;line-height:0px;font-family:spaceman;-inkscape-font-specification:spaceman;stroke-width:0.89101642"
           id="path1844"
           inkscape:connector-curvature="0" />
      </g>
      <g
         aria-label="academy"
         style="font-style:normal;font-variant:normal;font-weight:normal;font-stretch:normal;font-size:71.28131866px;line-height:67.35242462px;font-family:Roboto;-inkscape-font-specification:Roboto;letter-spacing:0px;word-spacing:-10.87931061px;fill:#000000;fill-opacity:1;stroke:none;stroke-width:0.89101642"
         id="text1724-9">
        <path
           d="m 2981.6616,-1663.3442 v -9.17 h 46.69 q 6.93,0 10.99,3.64 2.52,2.24 3.43,5.25 0.63,2.24 0.63,6.3 v 23.73 h -52.15 q -5.74,0 -9.03,-3.15 -3.29,-3.15 -3.29,-8.82 0,-5.67 3.29,-8.75 3.36,-3.15 9.03,-3.15 h 40.46 v -0.35 q 0,-4.34 -3.22,-5.25 -0.98,-0.28 -3.01,-0.28 z m 50.05,20.58 v -5.95 h -37.38 q -3.71,0 -3.71,3.01 0,2.94 3.71,2.94 z"
           style="font-style:normal;font-variant:normal;font-weight:normal;font-stretch:normal;font-size:70px;line-height:0px;font-family:spaceman;-inkscape-font-specification:spaceman;stroke-width:0.89101642"
           id="path1847"
           inkscape:connector-curvature="0" />
        <path
           d="m 3115.9709,-1672.5142 v 9.73 h -40.11 q -4.06,0 -6.16,2.94 -1.82,2.52 -1.82,6.79 0,4.27 1.82,6.79 2.1,2.94 6.16,2.94 h 40.11 v 9.73 h -41.65 q -9.1,0 -13.93,-5.11 -4.76,-5.18 -4.76,-14.35 0,-9.17 4.76,-14.28 4.83,-5.18 13.93,-5.18 z"
           style="font-style:normal;font-variant:normal;font-weight:normal;font-stretch:normal;font-size:70px;line-height:0px;font-family:spaceman;-inkscape-font-specification:spaceman;stroke-width:0.89101642"
           id="path1849"
           inkscape:connector-curvature="0" />
        <path
           d="m 3129.8648,-1663.3442 v -9.17 h 46.69 q 6.93,0 10.99,3.64 2.52,2.24 3.43,5.25 0.63,2.24 0.63,6.3 v 23.73 h -52.15 q -5.74,0 -9.03,-3.15 -3.29,-3.15 -3.29,-8.82 0,-5.67 3.29,-8.75 3.36,-3.15 9.03,-3.15 h 40.46 v -0.35 q 0,-4.34 -3.22,-5.25 -0.98,-0.28 -3.01,-0.28 z m 50.05,20.58 v -5.95 h -37.38 q -3.71,0 -3.71,3.01 0,2.94 3.71,2.94 z"
           style="font-style:normal;font-variant:normal;font-weight:normal;font-stretch:normal;font-size:70px;line-height:0px;font-family:spaceman;-inkscape-font-specification:spaceman;stroke-width:0.89101642"
           id="path1851"
           inkscape:connector-curvature="0" />
        <path
           d="m 3222.524,-1633.5942 q -11.97,0 -16.45,-8.82 -2.24,-4.41 -2.24,-10.64 0,-12.67 8.68,-17.22 4.27,-2.24 10.01,-2.24 h 36.47 v -15.54 h 11.69 v 54.46 z m 1.54,-29.19 q -4.06,0 -6.16,2.94 -1.82,2.52 -1.82,6.79 0,4.27 1.82,6.79 2.1,2.94 6.16,2.94 h 34.93 v -19.46 z"
           style="font-style:normal;font-variant:normal;font-weight:normal;font-stretch:normal;font-size:70px;line-height:0px;font-family:spaceman;-inkscape-font-specification:spaceman;stroke-width:0.89101642"
           id="path1853"
           inkscape:connector-curvature="0" />
        <path
           d="m 3303.2241,-1642.7642 h 40.67 v 9.17 h -42.21 q -9.1,0 -13.93,-5.11 -4.76,-5.18 -4.76,-14.35 0,-9.17 4.76,-14.28 4.83,-5.18 13.93,-5.18 h 42.21 v 9.17 h -40.67 q -3.22,0 -5.32,1.82 -0.98,0.84 -2.52,3.92 l -0.07,0.14 h 48.58 v 8.75 h -48.58 l 0.07,0.21 q 1.4,3.01 2.52,3.92 2.1,1.82 5.32,1.82 z"
           style="font-style:normal;font-variant:normal;font-weight:normal;font-stretch:normal;font-size:70px;line-height:0px;font-family:spaceman;-inkscape-font-specification:spaceman;stroke-width:0.89101642"
           id="path1855"
           inkscape:connector-curvature="0" />
        <path
           d="m 3423.868,-1658.7242 q 0,-4.06 -4.06,-4.06 h -19.11 v 29.19 h -11.69 v -29.19 h -22.82 v 29.19 h -11.69 v -38.92 h 67.27 q 7,0 10.57,3.78 3.22,3.43 3.22,8.12 v 27.02 h -11.69 z"
           style="font-style:normal;font-variant:normal;font-weight:normal;font-stretch:normal;font-size:70px;line-height:0px;font-family:spaceman;-inkscape-font-specification:spaceman;stroke-width:0.89101642"
           id="path1857"
           inkscape:connector-curvature="0" />
        <path
           d="m 3503.773,-1633.5942 h -43.54 q -7.14,0 -10.5,-3.71 -3.36,-3.71 -3.36,-8.19 v -27.02 h 11.69 v 23.52 q 0,2.59 1.54,4.13 1.54,1.54 4.13,1.54 h 40.04 v -29.19 h 11.69 v 40.32 q 0,6.79 -4.06,10.64 -4.06,3.85 -10.22,3.85 h -53.83 v -9.45 h 51.8 q 2.45,0 3.57,-1.47 1.05,-1.05 1.05,-4.27 z"
           style="font-style:normal;font-variant:normal;font-weight:normal;font-stretch:normal;font-size:70px;line-height:0px;font-family:spaceman;-inkscape-font-specification:spaceman;stroke-width:0.89101642"
           id="path1859"
           inkscape:connector-curvature="0" />
      </g>
    </g>
  </g>
</svg>
