<?xml version="1.0" encoding="UTF-8" standalone="no"?>
<!-- Created with Inkscape (http://www.inkscape.org/) -->

<svg
   xmlns:dc="http://purl.org/dc/elements/1.1/"
   xmlns:cc="http://creativecommons.org/ns#"
   xmlns:rdf="http://www.w3.org/1999/02/22-rdf-syntax-ns#"
   xmlns:svg="http://www.w3.org/2000/svg"
   xmlns="http://www.w3.org/2000/svg"
   xmlns:sodipodi="http://sodipodi.sourceforge.net/DTD/sodipodi-0.dtd"
   xmlns:inkscape="http://www.inkscape.org/namespaces/inkscape"
   width="210mm"
   height="297mm"
   viewBox="0 0 744.09448819 1052.3622047"
   id="svg5282"
   version="1.1"
   inkscape:version="0.91 r13725"
   sodipodi:docname="FOSSASIA-Summit-2018-Tshirt-Front.svg">
  <defs
     id="defs5284" />
  <sodipodi:namedview
     id="base"
     pagecolor="#ffffff"
     bordercolor="#666666"
     borderopacity="1.0"
     inkscape:pageopacity="0.0"
     inkscape:pageshadow="2"
     inkscape:zoom="0.35"
     inkscape:cx="-5"
     inkscape:cy="520"
     inkscape:document-units="px"
     inkscape:current-layer="layer1"
     showgrid="false"
     inkscape:window-width="1366"
     inkscape:window-height="742"
     inkscape:window-x="0"
     inkscape:window-y="0"
     inkscape:window-maximized="1" />
  <metadata
     id="metadata5287">
    <rdf:RDF>
      <cc:Work
         rdf:about="">
        <dc:format>image/svg+xml</dc:format>
        <dc:type
           rdf:resource="http://purl.org/dc/dcmitype/StillImage" />
        <dc:title></dc:title>
      </cc:Work>
    </rdf:RDF>
  </metadata>
  <g
     inkscape:label="Layer 1"
     inkscape:groupmode="layer"
     id="layer1">
    <g
       id="g5914"
       transform="matrix(1.0318499,0,0,1.0318499,-11.849671,-2.8881309)">
      <text
         transform="scale(0.9903009,1.0097941)"
         sodipodi:linespacing="125%"
         id="text15138"
         y="709.52325"
         x="376.23129"
         style="font-style:normal;font-weight:normal;font-size:33.79426575px;line-height:125%;font-family:sans-serif;text-align:center;letter-spacing:0px;word-spacing:0px;text-anchor:middle;fill:#d40000;fill-opacity:1;stroke:none;stroke-width:1px;stroke-linecap:butt;stroke-linejoin:miter;stroke-opacity:1"
         xml:space="preserve"><tspan
           id="tspan15300"
           y="709.52325"
           x="376.23129"
           sodipodi:role="line"
           style="font-style:normal;font-variant:normal;font-weight:normal;font-stretch:normal;font-family:Rubik;-inkscape-font-specification:Rubik;text-align:center;text-anchor:middle;fill:#d40000">THE OPEN CONVERSATIONAL WEB</tspan></text>
      <text
         transform="scale(1.0025015,0.99750474)"
         sodipodi:linespacing="150%"
         id="text15138-9"
         y="769.35229"
         x="370.69244"
         style="font-style:normal;font-weight:normal;font-size:24.00496864px;line-height:150%;font-family:sans-serif;text-align:end;letter-spacing:0px;word-spacing:0px;text-anchor:end;fill:#d40000;fill-opacity:1;stroke:none;stroke-width:1px;stroke-linecap:butt;stroke-linejoin:miter;stroke-opacity:1"
         xml:space="preserve"><tspan
           id="tspan15300-4"
           y="769.35229"
           x="370.69244"
           sodipodi:role="line"
           style="font-style:normal;font-variant:normal;font-weight:normal;font-stretch:normal;line-height:150%;font-family:Rubik;-inkscape-font-specification:Rubik;text-align:center;text-anchor:middle;fill:#d40000">LIFELONG LEARNING INSTITUTE, SINGAPORE</tspan><tspan
           y="805.35974"
           x="370.69244"
           sodipodi:role="line"
           style="font-style:normal;font-variant:normal;font-weight:normal;font-stretch:normal;line-height:150%;font-family:Rubik;-inkscape-font-specification:Rubik;text-align:center;text-anchor:middle;fill:#d40000"
           id="tspan5716">MARCH 22-25, 2018 | FOSSASIA.SG</tspan></text>
      <g
         transform="translate(2.3879534e-6,0)"
         id="g5910">
        <path
           id="path5"
           d="m 616.29104,274.92163 c 14.10712,95.63718 -70.56586,188.7714 -193.37595,218.74452 -1.96432,7.85348 4.42185,29.36821 21.96628,52.02081 -73.45128,-0.78383 -80.42342,-42.70663 -93.61891,-42.32986 -122.64347,3.60677 -226.26573,-60.341 -240.06518,-153.8908 -15.286647,-103.61847 85.3754,-204.30986 224.86278,-224.8855 139.4694,-20.59268 264.92824,46.71195 280.23098,150.34083"
           inkscape:connector-curvature="0"
           style="fill:#d40000" />
        <path
           id="path7"
           d="m 605.13723,466.17097 c -0.2963,-0.0994 -0.61816,-0.14105 -0.94381,-0.19785 l 22.91956,-141.54637 c 3.97313,0.0142 7.68498,-2.46983 9.00651,-6.46757 1.62258,-4.94914 -1.05457,-10.29587 -6.00655,-11.91087 -2.31079,-0.75449 -4.70016,-0.54149 -6.74305,0.3834 L 560.12738,180.92932 c 1.62257,-1.13788 2.92896,-2.75194 3.59068,-4.78441 1.62446,-4.95198 -1.05079,-10.28072 -6.00277,-11.91087 -4.25239,-1.38591 -8.75565,0.42127 -10.98598,4.11134 L 419.3497,102.90284 c 1.5175,-4.907483 -1.14924,-10.155761 -6.03306,-11.757508 -4.93777,-1.609321 -10.26367,1.081084 -11.89193,6.049151 -0.53202,1.642454 -0.56326,3.311417 -0.22625,4.882867 l -138.30595,21.70879 c -0.99305,-2.4793 -3.0028,-4.52977 -5.73581,-5.42531 -4.93777,-1.61689 -10.26746,1.08961 -11.89572,6.04253 -1.06309,3.24231 -0.25559,6.64933 1.80812,9.06237 l -98.17612,97.91295 c -0.97317,-0.91258 -2.13472,-1.64056 -3.47897,-2.09022 -4.95482,-1.62826 -10.2722,1.08108 -11.89572,6.0482 -1.6292,4.95198 1.06594,10.27788 6.00276,11.90424 0.31997,0.0966 0.64752,0.14011 0.96749,0.21205 l -21.91043,135.40444 c -4.53828,-0.81318 -9.11254,1.79582 -10.60163,6.31138 -1.6292,4.96049 1.06594,10.29586 6.00276,11.90708 1.55915,0.52066 3.14007,0.56042 4.64053,0.28116 l 65.08092,129.17921 c -1.47395,1.11989 -2.63455,2.67715 -3.25178,4.57236 -1.62825,4.94913 1.06594,10.27504 6.00372,11.90234 3.72983,1.22309 7.68497,-0.0227 10.09611,-2.85985 l 127.26886,65.38669 c -0.0956,0.24424 -0.22436,0.46386 -0.30956,0.72135 -1.62257,4.96523 1.05174,10.27883 6.00655,11.90235 4.93778,1.61595 10.25137,-1.07825 11.89288,-6.04063 0.50552,-1.5582 0.54812,-3.15806 0.26696,-4.67366 l 140.57888,-22.06284 c 1.01387,2.46984 3.01416,4.50326 5.7377,5.40069 4.93683,1.62258 10.26273,-1.08108 11.89382,-6.04442 1.09245,-3.32372 0.19407,-6.80553 -1.97567,-9.23087 l 97.80976,-97.53239 c 0.98547,0.93719 2.16217,1.69736 3.52252,2.14134 4.95103,1.63204 10.27977,-1.07541 11.91371,-6.02643 1.62446,-4.96523 -1.06689,-10.29492 -6.01792,-11.92128 M 493.88112,576.83258 c -0.16756,-0.0578 -0.35216,-0.0672 -0.51971,-0.11171 l 4.1937,-19.32604 c 3.85858,0.61817 7.70107,-1.62826 8.96391,-5.4698 1.0063,-3.04729 0.0729,-6.26594 -2.08928,-8.34859 l 22.07799,-21.41342 16.3204,-15.86317 c 0.18081,0.15336 0.3976,0.26696 0.5803,0.40422 l -47.5895,71.0392 c -0.58882,-0.37109 -1.24864,-0.68349 -1.93781,-0.91069 m -11.89477,6.0482 c -0.20921,0.65604 -0.32186,1.32817 -0.39192,1.99935 l -36.86101,-6.07187 c 0.12591,-1.27326 -0.0653,-2.5929 -0.54149,-3.83871 l 47.48726,-21.78452 c 0.95613,1.79582 2.5503,3.25178 4.62633,3.92769 0.14578,0.0426 0.26885,0.0568 0.38245,0.0824 l -4.19465,19.32889 c -4.50326,-0.75733 -9.03681,1.85356 -10.50697,6.35681 M 335.4047,604.20901 c -3.42311,-1.11989 -6.98161,-0.15241 -9.40979,2.18868 l -24.34807,-23.24805 c 1.2032,-1.42283 1.90752,-3.20445 2.01449,-5.05516 l 65.9367,0.1259 31.56824,7.30632 c -0.31997,1.33479 -0.31997,2.68188 0.017,3.94567 l -60.30881,19.5239 c -1.06688,-2.18773 -2.97251,-3.95704 -5.4698,-4.78726 m -136.9465,-63.77169 c 1.26284,-4.79861 -1.3613,-9.80549 -6.11637,-11.37695 -1.95201,-0.62952 -3.93621,-0.56042 -5.74717,0.0142 l -7.01379,-27.16438 c 0.42031,-0.142 0.85294,-0.29536 1.27609,-0.49321 1.31775,-0.67118 2.34109,-1.65287 3.11073,-2.79075 l 11.6297,8.51236 c 0.44967,0.46386 0.98169,0.87093 1.58566,1.17575 l 55.13248,40.36838 c -0.25276,0.39287 -0.47901,0.79993 -0.62953,1.27989 -0.0984,0.28116 -0.16661,0.57178 -0.21205,0.85199 l -53.01575,-10.37728 z m -77.14042,-156.6664 9.45429,-21.43426 c 1.1464,0.45156 2.39505,0.63142 3.656,0.53297 l 24.0688,75.2329 c -2.10442,-0.0956 -4.11039,0.63142 -5.66386,1.99271 l -29.7374,-40.87011 c 1.23728,-1.08109 2.23128,-2.49634 2.79075,-4.1795 1.4588,-4.44646 -0.57462,-9.17313 -4.56858,-11.27471 m 40.60505,-117.29959 13.30814,18.80539 c -1.18995,0.95896 -2.13093,2.24831 -2.63739,3.81787 -1.08109,3.25746 0.0417,6.69478 2.51148,8.75471 l -36.63476,49.51216 c -0.82927,-0.54527 -1.72481,-0.97316 -2.69798,-1.21077 l 26.15051,-79.67936 z m -11.234,-32.73642 22.77283,-14.02286 c 0.60113,0.8501 1.3471,1.56767 2.16123,2.13188 l -14.00867,42.69433 -13.35357,-18.87639 c 1.39822,-1.11421 2.53515,-2.61088 3.14007,-4.46444 0.85483,-2.59763 0.50457,-5.25964 -0.71189,-7.46252 m 37.3476,-22.69425 c -0.0596,-0.0994 -0.12591,-0.18271 -0.19691,-0.29442 l 42.54097,-30.8289 -22.98867,55.13722 c -0.1136,-0.0454 -0.20827,-0.10129 -0.30861,-0.13159 -1.22119,-0.40327 -2.45469,-0.38907 -3.60488,-0.0805 l -0.72703,0.27831 c -0.59356,0.25087 -1.12558,0.59167 -1.6169,0.99684 l -14.54068,-15.38605 c 2.39789,-2.55125 3.09652,-6.39185 1.44271,-9.69095 m 114.87045,-77.53612 10.24002,0.0142 c -0.0454,2.62603 1.19373,5.07788 3.29626,6.62377 l 0.054,2.07129 -14.13457,-6.25363 c 0.29252,-0.78478 0.48753,-1.61216 0.54433,-2.45563 m 136.94845,7.61682 c 0.25275,-0.12591 0.479,-0.27832 0.70052,-0.41842 l 9.92004,13.98499 c -0.33795,0.49037 -0.63615,1.00535 -0.8482,1.61027 -0.36163,1.12274 -0.36163,2.26062 -0.11076,3.32656 l -67.80162,6.7847 -0.71284,-0.43451 c -0.58976,-2.7065 -2.52663,-5.03244 -5.34294,-5.96017 -1.58944,-0.51498 -3.22716,-0.51498 -4.7333,-0.0985 l -41.74766,-25.14705 c 0.0398,-0.40328 0.0511,-0.81697 0.0511,-1.2193 l 98.33421,0.18271 c 0.0303,1.23349 0.30009,2.4793 0.88797,3.65883 2.11578,4.17856 7.22017,5.86172 11.40346,3.72984 m 71.70848,32.4155 c 2.95357,0.96465 6.034,0.11455 8.12423,-1.92172 l 20.19791,18.71261 c -0.22151,0.30578 -0.42031,0.64279 -0.54622,1.02429 -0.29441,0.92489 -0.21016,1.86208 0.14011,2.67336 l -12.25924,3.82924 -49.73652,-36.43312 28.58721,3.63138 c -0.37772,3.68629 1.83463,7.27886 5.49252,8.48396 m 30.73423,332.18553 -17.25475,16.7445 -21.20233,20.58984 c -0.72893,-0.57273 -1.54873,-1.04985 -2.46794,-1.35656 -3.61813,-1.19563 -7.44831,0.33511 -9.38234,3.44868 l -5.35998,-2.94222 54.30889,-39.35925 c 0.20921,1.05458 0.67212,2.04479 1.35845,2.87501 m -98.44781,68.4302 c -0.12307,-0.21773 -0.27927,-0.43357 -0.40517,-0.64657 l 42.48511,-30.79671 5.69226,3.12397 c -0.16472,0.35594 -0.33511,0.69011 -0.46481,1.05553 -0.61533,1.86586 -0.47333,3.78568 0.18933,5.46979 l -47.49672,21.79399 z m -15.97109,3.28301 -58.62849,-0.0947 -105.53167,-24.42192 c 0.16661,-1.00819 0.0956,-1.99082 -0.19785,-2.92044 l 5.58434,-2.18773 49.9997,-19.63466 c 0.70053,1.51466 1.99366,2.751 3.68818,3.30858 2.77939,0.89743 5.73676,-0.26412 7.2268,-2.64781 l 98.21777,46.72047 c -0.17891,0.60208 -0.31713,1.23444 -0.35878,1.87817 M 291.3917,570.03354 c -1.59891,0.81034 -2.8201,2.05899 -3.61908,3.53199 l -24.96718,-18.2923 c 0.2963,-0.43451 0.55095,-0.90784 0.71472,-1.4285 0.0151,-0.0578 0.0151,-0.10224 0.0293,-0.15336 l 102.17765,23.63429 -62.03552,-0.10887 c -0.054,-1.17196 -0.32375,-2.34582 -0.89554,-3.43826 -2.10063,-4.20601 -7.21164,-5.88349 -11.4044,-3.74499 M 231.364,438.73382 183.9023,423.62892 c 1.1464,-4.15204 -1.11044,-8.51141 -5.23314,-9.8585 -0.44966,-0.15336 -0.92488,-0.23951 -1.37738,-0.31145 l 16.45482,-60.33816 c 0.18271,0.089 0.34743,0.1704 0.54528,0.24139 1.40011,0.46481 2.86175,0.36258 4.1511,-0.14294 l 36.18888,79.46067 c -1.37738,0.7242 -2.45847,1.95769 -2.97534,3.54429 -0.28211,0.83874 -0.38151,1.68411 -0.29252,2.5096 m -70.70408,-0.26317 c -0.39286,-0.12875 -0.80277,-0.2007 -1.19184,-0.26696 l -24.1559,-75.47524 c 0.78856,-0.15336 1.5724,-0.36162 2.31458,-0.74029 4.18328,-2.13755 5.8655,-7.2533 3.76107,-11.44511 -0.0568,-0.10129 -0.12306,-0.1827 -0.18175,-0.28115 l 48.83814,-2.18584 c 0.20827,1.93213 1.3045,3.6967 2.98766,4.71342 l -16.38289,60.61269 c -3.58973,-0.21868 -7.0119,1.96337 -8.18954,5.5389 -1.01104,3.07475 -0.071,6.29907 2.10347,8.38929 l -8.02483,12.07843 c -0.57651,-0.37867 -1.19373,-0.71379 -1.87817,-0.93814 m 23.63338,-215.9953 c 0.61627,-0.2963 1.1464,-0.70431 1.65286,-1.12368 l 14.55867,15.38321 c -0.18176,0.21394 -0.35026,0.41085 -0.50173,0.63237 l -0.41085,0.68916 c -0.13726,0.28116 -0.27831,0.55948 -0.38055,0.87093 -0.26601,0.78099 -0.34743,1.57997 -0.29252,2.35529 l 0.10981,0.78478 c 0.36636,1.8261 1.5033,3.43732 3.19782,4.33191 l -18.76089,37.80199 c -0.22626,-0.0984 -0.43736,-0.22436 -0.67497,-0.2963 -0.68633,-0.22531 -1.37455,-0.32565 -2.06372,-0.36163 l 0.15525,-60.17344 c 1.14925,-0.0417 2.29849,-0.33606 3.39472,-0.89459 m 26.4809,15.72117 34.15451,-17.37404 c 0.74029,1.24581 1.87817,2.254 3.36348,2.74248 l -22.81732,85.19364 c -0.49132,-0.0729 -0.98642,-0.0303 -1.46164,0.11076 l -17.08341,-62.01848 c 1.89331,-0.57463 3.46761,-2.02396 4.13879,-4.04224 0.52161,-1.58565 0.36352,-3.22337 -0.29441,-4.61212 m 36.77203,-77.36288 3.62381,2.94317 -10.61963,7.68592 -0.43451,-1.97852 -0.77248,-3.57458 c 3.49602,0.30482 6.85855,-1.71251 8.20281,-5.07599 m 4.33569,3.51495 61.96642,50.32629 c -0.36163,0.50078 -0.67024,1.05079 -0.88324,1.66801 -0.1562,0.49132 -0.23382,0.98169 -0.26317,1.47301 l -8.6288,-0.0833 -47.57435,-0.41937 c -0.14294,-2.50013 -1.75416,-4.78536 -4.26281,-5.6118 -0.96937,-0.30482 -1.96431,-0.35026 -2.90719,-0.21205 l -8.56537,-39.07714 11.11851,-8.06364 z m 46.42795,-23.8028 c 1.68222,-0.85294 2.94222,-2.20003 3.71659,-3.76865 l 14.51418,6.41078 0.99683,38.41258 0.79992,30.46444 c -1.5298,0.13727 -2.95831,0.85483 -4.01004,1.99083 l -61.78371,-50.1824 35.3047,-25.60145 c 2.4528,3.08894 6.815,4.12364 10.46153,2.27387 m 202.50459,66.37217 26.15903,-8.16399 18.17586,13.31192 c -1.20889,2.34393 -1.3471,5.21798 -0.0596,7.74462 0.53865,1.07919 1.27988,1.96147 2.14986,2.68093 l -35.1504,46.42227 c -0.58598,-0.53296 -1.31775,-0.94855 -2.14608,-1.22497 -0.79708,-0.26033 -1.60174,-0.34459 -2.38652,-0.29063 l -7.38679,-37.16489 -3.00374,-15.16642 c 1.72386,-0.62953 3.1713,-2.00029 3.80083,-3.91349 0.46292,-1.4446 0.36541,-2.9337 -0.15241,-4.23535 m 75.51405,34.46123 -16.52393,-20.9278 c 0.33795,-0.53296 0.61627,-1.08108 0.82643,-1.66801 l 15.6975,22.59581 z m 47.50336,82.44454 -33.56286,102.33006 c -0.25465,-0.0701 -0.50551,-0.12969 -0.75448,-0.16755 l 8.60797,-57.88632 c 2.80589,0.24235 5.52754,-1.45501 6.45148,-4.27416 0.1259,-0.39287 0.21016,-0.79993 0.25181,-1.20321 l -0.91353,-1.60269 c 2.61468,-2.5361 3.43732,-6.53857 1.72766,-9.94655 -0.53203,-1.03848 -1.2477,-1.89237 -2.07413,-2.59479 l 18.47026,-25.58062 c 0.56232,0.36351 1.1483,0.67118 1.79582,0.92583 m -40.54825,103.69231 -6.05578,-5.16214 18.10769,-55.19212 c 0.41559,0.26696 0.86525,0.50457 1.35941,0.67403 0.22151,0.071 0.43451,0.0985 0.65792,0.1401 l -8.61459,57.90998 c -1.98704,-0.13632 -3.90876,0.45061 -5.45465,1.63015 m -264.45396,99.91892 -46.19981,18.1503 -9.37382,3.68534 c -0.47711,-1.03565 -1.23065,-1.91888 -2.21234,-2.57491 l 50.37647,-88.16805 c 0.26979,0.12307 0.52445,0.25276 0.80276,0.35121 0.81413,0.26601 1.65476,0.35027 2.46605,0.28021 l 8.7973,60.28136 c -2.10631,0.46481 -3.92579,1.96716 -4.64431,4.1511 -0.43451,1.30545 -0.39286,2.63645 0,3.84439 m -29.63705,-167.9468 -44.36234,4.30919 c -0.35121,-2.23411 -1.89616,-4.1795 -4.18045,-4.93966 -1.06499,-0.34837 -2.15744,-0.37488 -3.18077,-0.15336 L 225.9728,316.0829 c 0.56705,-0.15904 1.06594,-0.44966 1.50046,-0.84158 l 62.79852,41.03483 c -0.32281,0.46576 -0.60491,0.98547 -0.78572,1.5601 -0.1846,0.54527 -0.26791,1.09528 -0.29725,1.65286 m -88.68303,-16.61955 11.88152,-14.37501 10.62814,-12.84711 c 0.25181,0.15335 0.52066,0.28967 0.81413,0.38907 0.44871,0.14105 0.91258,0.19785 1.36224,0.16756 l 10.8525,40.26993 0.66077,2.42724 c -1.544,0.53013 -2.8485,1.65381 -3.58973,3.18645 l -30.98226,-12.68523 c 0,-0.0118 0.0106,-0.0275 0.0106,-0.054 0.78762,-2.37138 0.0568,-4.86488 -1.63772,-6.47894 m -14.19705,-45.89214 13.11691,5.93082 -3.09084,38.27722 c -0.51404,0 -1.0205,0.071 -1.50803,0.1846 L 181.569,299.58543 c 1.82421,-0.30956 3.50926,-1.20699 4.73992,-2.60805 m 11.88341,44.4873 c -0.36162,-0.10981 -0.71851,-0.17892 -1.06499,-0.23666 l 3.05866,-37.96387 21.07831,9.54705 c 0.0842,0.89838 0.50551,1.72482 1.14924,2.35624 l -22.52386,27.20982 c -0.50835,-0.37677 -1.06594,-0.69958 -1.69736,-0.91258 m 58.27823,-123.36672 48.03632,0.43357 8.16494,0.0729 c 0.11076,2.50865 1.73523,4.79672 4.25145,5.61937 0.31713,0.11455 0.64088,0.17419 0.96369,0.21679 l -5.11858,52.04542 -2.00597,20.39388 c -1.23445,-0.0388 -2.43765,0.29346 -3.46099,0.92488 l -53.13408,-75.29916 c 0.91258,-0.73271 1.62825,-1.7125 2.02017,-2.90624 0.16566,-0.50741 0.23761,-0.99588 0.28305,-1.5014 m 154.58565,-27.53642 c 2.59763,0.85957 5.35904,-0.38624 6.52721,-2.78697 l 49.39573,17.15536 c -0.11171,0.40422 -0.17892,0.81129 -0.21868,1.21835 l -43.06258,-0.3673 -16.83159,-0.12591 c 0.30861,-2.07507 -0.44967,-4.1085 -1.95012,-5.48305 l 5.9346,-9.69095 c 0.0663,0.0265 0.14011,0.0663 0.20543,0.0805 m -4.41238,16.16136 c 0.0284,-0.0833 0.0284,-0.18554 0.053,-0.28494 l 60.04848,0.49416 c 0.0549,0.95517 0.32092,1.84693 0.76869,2.66389 l -1.23255,0.78762 -87.92854,56.15488 c -0.69106,-0.71473 -1.52885,-1.27515 -2.52379,-1.61311 -0.0445,-0.009 -0.0748,-0.009 -0.11644,-0.0246 l 20.15627,-46.37115 3.35022,-7.69634 c 3.12682,0.76679 6.38427,-0.97222 7.42465,-4.1104 m 149.17833,17.08057 10.59785,33.14443 -52.60679,14.54447 c -0.26886,-0.72987 -0.65793,-1.41241 -1.19469,-2.00881 l 35.22045,-46.54533 c 2.28619,1.56577 5.27384,1.95864 7.98318,0.86524 m 24.5677,29.28774 -13.11312,3.63517 -10.64329,-33.27222 c 1.05079,-0.57463 1.93497,-1.3471 2.65254,-2.23033 l 22.25785,28.16405 c -0.44967,0.44967 -0.81697,0.994 -1.02145,1.64151 -0.23098,0.70053 -0.23856,1.40011 -0.13253,2.06182 m 13.59686,51.33543 -11.37505,0.22247 -3.58027,-11.20655 15.28665,4.22494 c -0.2253,0.41748 -0.43357,0.84063 -0.57178,1.31301 -0.62195,1.85546 -0.46386,3.76013 0.24045,5.44613 m -12.28953,0.23572 -21.69932,0.43452 c 0.37772,-0.57462 0.70053,-1.19468 0.92962,-1.86208 1.38213,-4.25618 -0.91447,-8.83801 -5.14982,-10.22865 -4.24861,-1.40106 -8.82287,0.92489 -10.22487,5.19242 -0.82738,2.52664 -0.32659,5.13184 1.08109,7.15296 l -23.33799,0.46386 c -0.20069,-2.42818 -1.81096,-4.632 -4.26754,-5.42814 -1.06499,-0.355 -2.14608,-0.37109 -3.16941,-0.15525 l -5.45655,-20.48003 -0.0833,-0.35026 c 1.62446,-0.67213 2.98671,-2.01354 3.58026,-3.8264 0.008,-0.0445 0.0237,-0.0861 0.0237,-0.11359 l 64.08314,17.70063 3.69102,11.50001 z m 11.02669,59.16336 -51.81444,20.70627 c -0.69674,-1.50613 -1.98893,-2.72448 -3.68629,-3.29058 -0.98263,-0.31714 -1.97947,-0.34743 -2.93086,-0.19596 l -15.46083,-68.72651 c 1.23917,-0.35878 2.32499,-1.1322 3.1448,-2.18299 l 67.71642,46.13921 c 0.13726,0.84537 0.36162,1.69831 0.76868,2.49729 0.50647,0.99778 1.19469,1.83841 1.99367,2.52758 -0.0852,0.87187 0.002,1.72481 0.26885,2.52569 M 545.5254,490.79831 c -0.12875,1.16344 0,2.37043 0.37772,3.54902 l 0.11454,1.18143 c -1.34804,0.23572 -2.60899,0.89649 -3.55186,1.91793 l -85.44356,-69.45164 c 0.35026,-0.50836 0.67402,-1.04228 0.86903,-1.65855 0.46292,-1.40106 0.36447,-2.83619 -0.0985,-4.10471 l 71.96597,-32.14097 c 0.71568,1.39158 1.96432,2.51716 3.56228,3.04729 0.74313,0.23667 1.4749,0.32376 2.20193,0.28116 l 9.46659,92.0626 0.53581,5.31644 z M 443.38467,340.30317 403.84934,370.23464 c -0.67402,-0.67307 -1.47395,-1.20604 -2.42534,-1.51465 -0.89459,-0.29536 -1.79297,-0.36163 -2.67904,-0.25182 l -4.48433,-17.23961 -19.32983,-74.22375 c 1.1341,-0.19501 2.17353,-0.70147 3.02931,-1.44271 l 64.88023,56.80239 0.81413,0.71189 c -0.42221,0.53675 -0.76964,1.15681 -0.994,1.84125 -0.61722,1.88006 -0.28115,3.84154 0.7242,5.38554 m -45.41124,28.30606 c -0.93719,0.23382 -1.79487,0.69674 -2.53705,1.32911 l -12.52619,-9.94276 -67.26581,-53.35371 c 0.33512,-0.49132 0.63142,-1.00914 0.81413,-1.59891 0.49983,-1.53359 0.36257,-3.09842 -0.22815,-4.4758 l 51.96969,-27.16817 c 0.68254,1.57524 1.98799,2.84755 3.72795,3.42311 0.72987,0.23951 1.48436,0.30578 2.21518,0.284 l 23.83025,91.50313 z m -82.80901,-61.33499 32.82351,26.01419 46.87383,37.18287 c -0.53675,0.60208 -0.96748,1.32059 -1.24864,2.11863 l -92.01148,-12.89066 c -0.0293,-2.57775 -1.62542,-4.96428 -4.19086,-5.83615 l 11.91844,-44.65581 c 2.19246,0.43736 4.39628,-0.32281 5.8352,-1.93307 m -13.83731,54.4452 c 0.12212,-0.40328 0.20353,-0.81129 0.25938,-1.22214 l 91.81363,12.86321 c -0.36541,1.74564 0.0161,3.50832 0.98168,4.89139 l -61.27724,56.6263 -14.64103,13.53344 c -0.65793,-0.63047 -1.44839,-1.13599 -2.35623,-1.42945 -0.92773,-0.30861 -1.88007,-0.35405 -2.77561,-0.22152 l -5.41489,-27.34046 -10.65938,-53.68883 c 1.85072,-0.58977 3.40797,-2.02017 4.06969,-4.01194 m 32.37952,73.67659 61.18164,-56.52691 c 0.70431,0.76017 1.5724,1.37739 2.63834,1.73144 2.46604,0.81034 5.07788,-0.0161 6.67394,-1.899 l 33.04409,31.99708 9.98536,9.64929 c -0.51499,0.60113 -0.923,1.30261 -1.1767,2.10159 -0.31145,0.94382 -0.36257,1.90752 -0.23951,2.80495 l -62.41702,12.9342 -63.23493,13.09892 c -0.22815,-0.83874 -0.61723,-1.615 -1.16345,-2.29659 l 14.70824,-13.59497 z M 437.9215,410.24897 404.66347,378.06446 c 0.29725,-0.4544 0.54243,-0.91258 0.73082,-1.46354 0.67307,-2.04478 0.22436,-4.20695 -1.00819,-5.7945 l 39.46432,-29.87088 c 0.71473,0.82643 1.64246,1.50046 2.77845,1.86208 0.42505,0.13726 0.85578,0.2395 1.27609,0.284 l 2.91855,75.19124 c -1.12273,0.2253 -2.18867,0.74312 -3.02646,1.5298 l -9.87555,-9.55369 z m 11.27187,-67.16641 c 1.79676,-0.1969 3.42217,-1.18237 4.46444,-2.68283 l 76.01862,44.1323 c -0.1136,0.23288 -0.24045,0.45819 -0.3247,0.7242 -0.42126,1.26095 -0.39192,2.58059 -0.0237,3.76486 l -72.03886,32.16653 c -0.74502,-1.2458 -1.89238,-2.25494 -3.36822,-2.73111 -0.60207,-0.19691 -1.189,-0.28116 -1.80812,-0.28116 l -2.91949,-75.09279 z m 5.19148,-8.38929 57.17347,-25.46986 c 0.72514,1.38591 1.95769,2.52474 3.57554,3.04445 0.97789,0.32092 1.97189,0.36257 2.92801,0.21016 l 15.4722,68.72461 c -1.39159,0.40612 -2.59479,1.3045 -3.42407,2.538 l -75.97886,-44.10769 c 0.13159,-0.27169 0.25465,-0.53581 0.35311,-0.83401 0.46386,-1.40011 0.37771,-2.83146 -0.0994,-4.10566 m 139.82344,12.63695 c -3.0454,1.5582 -4.73897,4.70111 -4.62916,7.91123 l -18.04616,-12.30657 -49.09375,-33.4341 c 0.22152,-0.38624 0.40801,-0.78384 0.56043,-1.2335 0.1827,-0.56042 0.25181,-1.10759 0.2821,-1.67085 l 23.96941,-0.46197 c 0.92773,1.00914 2.07413,1.82421 3.46761,2.28523 3.23284,1.06499 6.66164,-0.0521 8.71779,-2.53988 l 22.50019,-0.43357 13.28163,41.50532 c -0.33417,0.10886 -0.67118,0.21962 -1.01009,0.37866 m -80.11292,-72.65608 c 0.14105,-0.81035 0.12591,-1.63678 -0.0578,-2.42535 l 52.62289,-14.54447 11.06929,34.57389 -63.63443,-17.60407 z m -4.51556,4.99457 5.52375,20.76118 c -1.79676,0.60113 -3.31141,2.01544 -3.94283,3.95136 -0.46387,1.40389 -0.37772,2.83335 0.0985,4.11134 l -31.86739,14.20935 -25.29946,11.26051 c -0.2556,-0.48848 -0.59072,-0.93719 -0.96938,-1.34426 l 51.01167,-54.08358 c 0.56043,0.44872 1.1909,0.81413 1.89237,1.05079 1.19658,0.37772 2.41209,0.38908 3.55282,0.0833 m -57.01444,52.38622 c -0.59166,-0.48753 -1.26379,-0.88607 -2.03911,-1.1322 -2.32594,-0.77532 -4.75412,-0.0738 -6.36439,1.55252 l -0.97127,-0.85389 -64.63978,-56.60453 c 0.53297,-0.63427 0.98264,-1.36319 1.24581,-2.20951 0.19406,-0.57178 0.2556,-1.1464 0.28116,-1.71913 l 28.57963,0.62858 93.12097,2.03248 c 0.0293,1.615 0.65698,3.12871 1.78066,4.26375 l -50.99368,54.04193 z m 49.49323,-60.36466 c -0.14011,0.41937 -0.22152,0.85578 -0.26601,1.27609 l -113.38231,-2.48498 -8.32019,-0.17702 c -0.1136,-1.15303 -0.53297,-2.24832 -1.2032,-3.15806 l 24.54214,-15.68235 64.49399,-41.19103 c 0.73839,1.02428 1.79581,1.83557 3.08705,2.25683 1.53832,0.50646 3.12493,0.34932 4.49663,-0.26885 l 29.55754,55.87087 c -1.37928,0.73745 -2.48308,1.97189 -3.00564,3.5585 M 394.81727,218.98029 374.945,264.72948 c -2.10537,-0.35878 -4.18329,0.3834 -5.5976,1.88669 l -45.72363,-44.29891 c 0.50267,-0.60208 0.91352,-1.30544 1.16344,-2.08738 0.28211,-0.82928 0.36257,-1.66707 0.29725,-2.49634 l 69.93066,-10.46816 c 0.64373,1.49193 1.85356,2.70934 3.44868,3.32656 l -3.64653,8.38835 z m -25.96402,48.25216 c -0.35879,0.50078 -0.68349,1.0631 -0.8927,1.69452 -0.4241,1.26379 -0.39476,2.55124 -0.0568,3.74214 l -26.95896,14.10049 -25.077,13.11028 c -0.74313,-1.23066 -1.89805,-2.24263 -3.36821,-2.72164 -0.32376,-0.11455 -0.63142,-0.15052 -0.95518,-0.20638 l 7.11414,-72.44592 c 1.64056,0.0606 3.21296,-0.54433 4.40102,-1.64057 l 45.79369,44.36708 z m -62.21444,31.02012 c -0.89933,0.72704 -1.615,1.72671 -2.00692,2.90435 -0.25465,0.75733 -0.31997,1.51561 -0.28967,2.27199 l -75.63239,8.69506 c -0.14105,-1.41336 -1.08108,-2.69135 -2.49444,-3.18267 l 22.82016,-85.19175 c 1.58471,0.32092 3.16752,0.0152 4.48811,-0.80182 l 53.11515,75.30484 z m -53.75793,32.64081 -24.88294,-16.24562 c 0.22152,-0.30577 0.41937,-0.64373 0.53013,-1.01008 0.0871,-0.23761 0.13822,-0.47522 0.16756,-0.72988 l 38.46087,-4.41616 37.29553,-4.29405 c 0.37488,2.18773 1.87344,4.08105 4.10755,4.82702 l -11.78117,44.20898 -0.12591,0.44966 c -2.22938,-0.44966 -4.46065,0.32187 -5.9062,1.94823 l -37.86542,-24.7381 z m 40.57097,34.838 c 1.01576,0.31997 2.05141,0.35027 3.03025,0.16851 l 10.76068,54.22369 5.31265,26.77625 c -1.96337,0.52066 -3.63138,2.00502 -4.31866,4.09525 -0.0398,0.10792 -0.0398,0.25181 -0.0842,0.37771 l -64.40311,-12.41354 c 0.26317,-2.13187 -0.57841,-4.2221 -2.17637,-5.5815 l 24.20607,-32.91912 26.11643,-35.53948 c 0.46386,0.33322 0.98169,0.61438 1.55631,0.81223 m -49.97603,74.37996 c 0.0454,-0.12875 0.0606,-0.25087 0.088,-0.37677 l 64.41826,12.41259 c -0.30672,2.36854 0.78762,4.68312 2.75383,5.98857 l -15.90766,27.8384 -34.48774,60.33721 c -0.25465,-0.12212 -0.50835,-0.26601 -0.78383,-0.36257 -0.88607,-0.28116 -1.78445,-0.34931 -2.65254,-0.2395 l -9.38896,-53.25336 -8.48302,-48.22187 c 2.02207,-0.50647 3.74688,-1.99083 4.44362,-4.1227 m 71.95177,18.90667 c 1.7002,-0.36825 3.2158,-1.40389 4.10188,-2.94884 l 95.28976,47.75706 c -0.071,0.17134 -0.15904,0.32376 -0.21016,0.49415 -0.30766,0.92584 -0.36825,1.86208 -0.2395,2.77561 l -83.60704,16.83538 c -0.51783,-1.9823 -1.98231,-3.66546 -4.0678,-4.33569 -0.82833,-0.28211 -1.65665,-0.35027 -2.45279,-0.29536 l -8.81435,-60.28231 z m 99.71256,44.11148 -41.63218,-20.88614 -53.64338,-26.90122 c 0.0682,-0.15241 0.15335,-0.29346 0.20921,-0.4648 0.30482,-0.94856 0.36351,-1.90658 0.2395,-2.81726 L 445.95579,426.0241 c 0.47239,1.75416 1.71346,3.24042 3.42123,4.02709 l -7.63102,19.87416 -19.34498,50.37079 c -2.82672,-0.88513 -5.81722,0.34553 -7.26087,2.83335 m 27.39252,-53.0877 7.56002,-19.68294 c 2.38274,0.73082 4.85542,-0.008 6.45054,-1.74848 l 85.4464,69.4668 c -0.35027,0.49226 -0.65888,1.04227 -0.87093,1.6557 -0.19501,0.58883 -0.26033,1.18049 -0.27642,1.76647 l -114.11597,4.13785 c -0.213,-2.16123 -1.55915,-4.09525 -3.60488,-5.03244 l 19.41124,-50.56296 z m -16.77196,59.55433 59.31293,32.63512 -42.1074,30.5326 c -1.90751,-2.4102 -4.96049,-3.56228 -7.94815,-3.09747 l -11.68556,-57.84182 c 0.99873,-0.48942 1.81948,-1.26379 2.42818,-2.22843 m 34.17913,17.90984 -33.80236,-18.61227 c 0.10982,-0.2253 0.22436,-0.45061 0.30483,-0.69011 0.20069,-0.58693 0.26128,-1.17386 0.28494,-1.78161 l 113.42397,-4.1104 -54.37705,39.41605 -25.83433,-14.22166 z m 90.19863,-43.33995 c -1.93592,0.98169 -3.29248,2.6071 -4.03845,4.47297 l -1.46069,-14.10712 -8.32966,-81.19495 c 1.30261,-0.22625 2.5096,-0.85862 3.43732,-1.82232 l 10.12263,8.62217 9.34447,7.93774 c -0.97317,4.06779 1.2761,8.26244 5.30129,9.58398 1.91983,0.64372 3.9116,0.47238 5.6544,-0.26696 l 6.04347,5.1432 -20.01427,61.03111 c -1.96716,-0.52066 -4.10945,-0.3976 -6.06051,0.60018 m 20.80094,-67.1418 c 1.72481,-0.96654 3.12871,-2.52568 3.7838,-4.54396 1.39348,-4.26375 -0.90596,-8.85032 -5.15456,-10.24191 -4.1672,-1.35656 -8.64016,0.87377 -10.11789,4.99553 l -12.84617,-10.91214 -6.35397,-5.40921 c 0.3957,-0.53676 0.72987,-1.11138 0.95233,-1.77026 0.42411,-1.32059 0.37961,-2.66674 -0.0151,-3.88603 l 25.75481,-10.28072 26.05868,-10.41988 c 0.36825,0.78573 0.89838,1.48342 1.55726,2.06088 l -18.08119,55.10692 -5.53796,-4.69922 z m 25.12149,-70.35286 -13.2021,-41.23837 11.49054,-0.21867 c 0.91069,1.65286 2.41398,2.99712 4.36221,3.62665 0.56042,0.18554 1.13504,0.29535 1.71345,0.35405 l -1.34804,37.31067 c -1.00062,-0.11833 -2.0249,-0.088 -3.01606,0.16567 m -1.29313,-49.69393 -16.03357,-4.43131 -11.2217,-35.08129 13.09041,-3.60204 c 0.43357,1.16439 1.36129,2.13188 2.63739,2.5361 0.76963,0.25465 1.55631,0.26601 2.29849,0.0833 l 12.707,37.7007 c -1.3878,0.56421 -2.60615,1.53074 -3.47802,2.79453 m -45.02311,-88.96702 -4.87719,-11.90424 7.89514,11.37506 c -1.00914,-0.0152 -2.02112,0.16661 -3.01795,0.52918 m -9.85851,-13.28068 c 0.43262,0.61627 1.06499,1.10759 1.83463,1.36129 0.74502,0.23383 1.49098,0.23383 2.18773,0.0426 l 5.02581,12.19771 c -0.0426,0.0142 -0.0729,0.0142 -0.11833,0.0445 -1.36793,0.68917 -2.43386,1.72481 -3.21675,2.9318 l -17.59082,-12.87456 11.87773,-3.70333 z m -39.13015,42.57126 6.00371,30.2202 c -0.3266,0.0852 -0.66172,0.16472 -0.97033,0.29725 l -3.50453,-6.62093 -26.07478,-49.31621 c 1.20794,-0.74597 2.18868,-1.89237 2.6639,-3.35023 0.12591,-0.36825 0.19691,-0.74218 0.23951,-1.10759 l 1.04984,0.0719 c 0.69106,2.5503 2.59574,4.72099 5.28804,5.60422 1.59891,0.53581 3.25461,0.5235 4.76927,0.0748 0.71283,0.89459 1.68221,1.61405 2.85985,1.99082 1.11422,0.36446 2.24643,0.37772 3.29627,0.14011 l 4.37925,21.99562 z M 480.29301,202.8795 c -0.41085,1.27515 -0.46102,2.58059 -0.26601,3.81409 l -0.86051,-0.054 c 0.0161,-2.65254 -1.62542,-5.13184 -4.25713,-6.00277 -1.25148,-0.41085 -2.52947,-0.3957 -3.69007,-0.0454 l -5.8513,-16.22384 -7.33377,-20.41092 c 0.37582,-0.16377 0.74123,-0.37961 1.07919,-0.61911 l 27.23727,34.15451 c -2.73489,0.58788 -5.12047,2.52474 -6.05767,5.38744 m -9.80549,-2.00408 c -1.42946,0.63142 -2.59669,1.77877 -3.24042,3.30857 l -44.78455,-15.55361 -4.55911,-1.58849 c 0.39476,-1.24675 0.29631,-2.53799 -0.15336,-3.66168 l 32.80553,-21.40017 c 0.73082,0.9902 1.76647,1.79581 3.04446,2.21613 1.24864,0.40706 2.52379,0.39191 3.70427,0.0388 l 13.18318,36.64044 z m -20.35033,-39.56846 -32.73642,21.35947 c -0.64752,-1.10475 -1.6595,-1.99177 -2.95831,-2.41019 -2.36286,-0.77248 -4.84216,0.16756 -6.17127,2.14702 l -25.27769,-15.21849 66.78017,-6.70708 c 0.10887,0.28116 0.22341,0.56042 0.36352,0.82927 m -42.25035,21.77032 c -0.10981,0.20921 -0.20826,0.41559 -0.29535,0.64657 -0.82549,2.52095 0.29535,5.20095 2.54367,6.43728 l -5.83521,9.5357 c -0.50362,-0.35594 -1.02428,-0.66172 -1.63014,-0.85578 -2.50676,-0.82927 -5.17255,0.0417 -6.75726,1.99177 l -9.70988,-9.01787 -36.61867,-34.01536 16.02126,7.08385 c -0.0445,0.11455 -0.11455,0.21016 -0.1562,0.32092 -1.38969,4.2505 0.90974,8.83517 5.16119,10.22676 4.23346,1.38969 8.80866,-0.92773 10.19646,-5.1858 0.32187,-0.95802 0.42316,-1.93971 0.37772,-2.8911 l 0.50268,-0.0454 26.19973,15.7685 z m -41.93132,-19.00891 -18.36518,-8.12045 -19.52106,-18.13041 c 0.32281,-0.52161 0.60492,-1.08109 0.80182,-1.68221 0.0549,-0.18934 0.0691,-0.37204 0.12401,-0.55096 l 41.02537,24.70023 c -1.72481,0.72703 -3.18172,2.03153 -4.06496,3.7838 m -38.34821,-25.60808 17.78489,16.52299 -28.09306,-12.42774 -0.0587,-1.86776 c 0.44966,0.23856 0.91258,0.46102 1.41904,0.63142 3.36442,1.09339 6.92765,-0.1704 8.94782,-2.85891 m 19.77855,18.36992 48.07514,44.64729 c -0.26696,0.41937 -0.50079,0.86524 -0.67213,1.35656 -0.39097,1.23917 -0.39097,2.51432 -0.0738,3.67682 l -69.77257,10.44923 c -0.45155,-2.08644 -1.93686,-3.89456 -4.12838,-4.61402 -0.55663,-0.17892 -1.1322,-0.26601 -1.70966,-0.28021 l -1.28462,-49.34461 -0.50835,-19.17079 30.07441,13.27973 z M 223.26749,309.15146 c -0.82359,0.43357 -1.49762,1.19468 -1.82137,2.16122 -0.053,0.18271 -0.0985,0.36257 -0.12875,0.54528 l -21.05086,-9.5357 3.16752,-39.37155 1.27894,-15.86222 c 0.48848,0.0303 0.96654,0 1.4304,-0.0833 l 17.12412,62.14628 z m -20.4999,-47.51755 -3.27261,40.35323 -12.636,-5.73391 c 0.43452,-0.65035 0.82643,-1.34142 1.09623,-2.12241 1.21551,-3.72794 -0.39854,-7.71527 -3.69197,-9.56315 l 18.78172,-37.80294 c 0.0549,0.0123 0.0833,0.0275 0.14105,0.0578 0.24802,0.0653 0.50267,0.10981 0.75354,0.15241 l -1.17196,14.65902 z m -25.02399,37.6846 c 0.97884,0.3266 1.96053,0.42316 2.9318,0.38056 l 13.30435,41.93416 c -0.83685,0.3266 -1.60648,0.83211 -2.254,1.49004 l -0.49131,0.61722 c -0.37961,0.51688 -0.71473,1.08109 -0.92489,1.72765 -0.19501,0.60303 -0.26601,1.21646 -0.27832,1.83274 l -49.3323,2.19151 c -0.44871,-0.60397 -0.93719,-1.16723 -1.50234,-1.62541 l 36.64044,-49.51217 c 0.57367,0.39192 1.19847,0.74313 1.90657,0.9637 m 21.41627,53.59321 c 1.13504,-0.61722 2.06182,-1.57145 2.64875,-2.79075 l 30.98226,12.6947 c 0,0.0152 -0.0161,0.0246 -0.0227,0.0388 -1.07257,3.2849 0.71094,6.82067 3.97786,7.88567 0.47996,0.1685 0.97033,0.2395 1.4607,0.27926 l -0.35027,22.41216 -0.58598,38.50346 c -0.6797,0.0388 -1.30544,0.19501 -1.9255,0.43357 l -36.1851,-79.45689 z m 39.3706,48.14898 0.46103,-30.02613 c 2.51148,-0.12591 4.79672,-1.75795 5.62505,-4.29405 0.23666,-0.71189 0.30861,-1.43135 0.29535,-2.15933 l 17.58798,-1.7002 26.68822,-2.60236 c 0.11265,1.61121 0.87092,3.11166 2.06561,4.17666 l -25.86462,35.20436 -24.46357,33.2656 c -0.43736,-0.27548 -0.89838,-0.52919 -1.41336,-0.69769 -0.47996,-0.1562 -0.97317,-0.23951 -1.4588,-0.27737 l 0.47711,-30.88949 z m -3.70333,42.71231 c 0.25465,0.12591 0.51783,0.25182 0.78478,0.34743 0.88324,0.28021 1.78067,0.3531 2.6374,0.25181 l 8.55401,48.48409 9.33311,52.99114 c -1.16534,0.2821 -2.23412,0.91353 -3.0596,1.81191 l -48.823,-40.3949 c 0.72703,-0.69768 1.32911,-1.55536 1.66707,-2.59668 0.84158,-2.53894 -0.0559,-5.21515 -2.00597,-6.81405 l 30.9122,-54.08075 z m -31.19431,64.01309 43.89753,36.2987 -47.95207,-35.12011 c 1.4607,0.0956 2.8892,-0.33795 4.05454,-1.17859 m 126.73778,20.35223 c 0.0985,-0.2272 0.22152,-0.42505 0.29725,-0.66172 0.30482,-0.92772 0.35878,-1.86492 0.23382,-2.77655 l 83.6061,-16.83065 c 0.52161,1.97568 1.99366,3.64937 4.06874,4.33096 1.3594,0.45061 2.76424,0.38435 4.03845,-0.0795 l 11.64201,57.69603 c -0.60208,0.17513 -1.189,0.35689 -1.78161,0.6513 -1.89237,0.96654 -3.23663,2.55314 -3.97881,4.38871 l -98.12595,-46.71857 z m 226.66711,-44.27809 19.90067,-60.6941 5.73959,4.88287 c -0.96654,0.89838 -1.75226,2.03247 -2.20098,3.39282 -1.06594,3.25272 0.0445,6.69004 2.52379,8.74997 l -25.87692,43.69589 c -0.0445,0 -0.0729,-0.0275 -0.0985,-0.0275 m 64.28195,-161.46975 -18.4466,25.52666 c -0.88229,-0.60113 -1.87534,-1.0205 -2.90057,-1.26 l 1.34804,-37.46404 c 3.22149,-0.0691 6.19494,-2.11673 7.25141,-5.35619 1.34426,-4.11134 -0.87092,-8.52751 -4.96712,-9.85946 -1.52696,-0.50835 -3.10125,-0.50835 -4.54207,-0.10129 l -12.67103,-37.68555 c 0.0454,-0.0152 0.10224,-0.0237 0.14011,-0.054 l 35.01029,51.40359 c -1.47205,1.10475 -2.6781,2.64686 -3.29721,4.55721 -1.26095,3.8406 0.10129,7.91029 3.07475,10.29303 M 582.47161,248.6571 560.9124,217.6597 c 0.37677,-1.82043 0.20637,-3.75824 -0.69012,-5.55405 -1.28935,-2.56545 -3.69954,-4.16152 -6.32273,-4.56101 l -8.51804,-12.24409 c 0.47711,-0.41937 0.85672,-0.96559 1.08203,-1.62257 0.52066,-1.60175 -0.0966,-3.27071 -1.39064,-4.21263 l 4.58845,-8.35995 c 0.67308,0.4402 1.3755,0.82075 2.17353,1.08109 2.03911,0.66455 4.1246,0.57746 6.00182,-0.0937 l 26.27263,66.03042 c -0.58598,0.0549 -1.13788,0.25843 -1.63772,0.53391 m -33.53824,-68.06668 -4.62727,8.45934 c -0.0861,-0.0274 -0.15809,-0.0691 -0.24518,-0.0984 -1.0063,-0.33606 -2.041,-0.1969 -2.91287,0.26601 l -0.21016,-0.29346 0.14105,0.33796 c -0.21016,0.10792 -0.41179,0.24802 -0.59261,0.40327 l -20.16952,-18.68231 c 0.62007,-0.75449 1.13789,-1.64341 1.46165,-2.6374 0.22435,-0.65887 0.32091,-1.33573 0.36541,-2.00313 l 23.39194,5.24165 c -0.60302,3.45342 0.74502,6.89074 3.39756,9.00652 m -22.76242,17.58798 -25.69516,8.02104 c -0.73461,-1.34425 -1.93498,-2.40735 -3.49507,-2.92802 -0.42126,-0.1401 -0.84821,-0.22435 -1.28935,-0.26317 -0.74029,-2.42818 -2.59479,-4.47296 -5.17444,-5.32117 -1.09528,-0.36162 -2.21897,-0.46386 -3.29532,-0.36162 L 459.73063,162.8501 c 0.75827,-0.71662 1.4039,-1.59891 1.73617,-2.66485 0.0871,-0.25465 0.12591,-0.50646 0.16851,-0.77153 l 14.04179,1.77878 50.49385,36.98597 z m -64.42394,-39.55331 c 0.18271,-2.7633 -1.48341,-5.41016 -4.24766,-6.32369 -2.35244,-0.76963 -4.84121,-0.0417 -6.43728,1.65571 l -9.77804,-13.77105 c 0.91353,-0.71662 1.65192,-1.60175 2.18868,-2.56734 l 30.88664,22.60811 -12.61234,-1.60174 z M 286.94641,136.8879 c 0.12496,0.22152 0.26696,0.43357 0.40706,0.64373 l -35.53948,25.76711 -4.00247,-3.25461 c 0.49321,-1.76647 0.36825,-3.55092 -0.25181,-5.14604 l 39.3867,-18.01019 z m -49.41561,28.66768 c 0.31145,0.0985 0.63142,0.13821 0.95897,0.20921 l 0.76868,3.55944 0.59356,2.64118 -7.45305,5.39879 4.95292,-11.89003 c 0.0701,0.0151 0.12118,0.0511 0.17892,0.0814 m 2.52663,7.34986 8.4887,38.73634 c -1.02997,0.29631 -1.94917,0.88608 -2.6923,1.65666 l -0.52066,0.59261 c -0.40707,0.54527 -0.76112,1.13125 -0.97885,1.80528 -0.5093,1.51844 -0.3692,3.0719 0.20353,4.41711 l -34.19238,17.40716 c -0.53486,-0.85294 -1.2619,-1.56577 -2.17731,-2.08833 l 23.55193,-56.50702 8.31734,-6.01981 z m -63.66187,49.45253 c 1.10475,0.60207 2.34203,0.95801 3.60582,1.01197 l -0.15336,60.17344 c -1.38969,0.0663 -2.70839,0.51499 -3.85763,1.24486 l -13.73224,-19.3535 14.13741,-43.07677 z m -13.12922,217.57066 7.98223,-12.01784 c 0.69769,0.53013 1.47016,0.97506 2.35623,1.2761 4.16436,1.35656 8.62218,-0.85673 10.11127,-4.96712 l 47.78357,15.28665 c 0.33795,1.57146 1.27515,2.95831 2.63834,3.87089 l -30.87151,54.02962 c -0.40422,-0.2556 -0.83779,-0.47901 -1.3168,-0.63426 -2.69135,-0.88702 -5.54174,0.20921 -7.06965,2.45753 l -0.40612,0.68633 c -0.13821,0.27831 -0.2963,0.54717 -0.39286,0.86808 -0.1827,0.53203 -0.25465,1.08109 -0.28116,1.64056 l 0,0.79898 c 0.0417,0.61722 0.17892,1.23634 0.42221,1.81191 l -9.74869,-7.14065 c 1.28935,-2.38369 1.44271,-5.32969 0.1401,-7.92543 -1.88006,-3.71185 -6.09837,-5.4395 -9.95885,-4.30541 l -10.81369,-33.80235 c 0.85673,-0.86809 1.55726,-1.92172 1.96337,-3.16847 1.08014,-3.27071 -0.0407,-6.70519 -2.53799,-8.76512 m 99.03948,116.05946 25.10066,18.404 c -0.19406,0.50552 -0.35026,1.02429 -0.46007,1.55726 l -24.70023,-19.89972 c 0.0142,-0.0151 0.0445,-0.0312 0.0596,-0.0615 m 36.74552,29.21864 c 0.74218,-0.37488 1.40389,-0.85294 1.99082,-1.41905 l 23.49419,22.46139 -25.90817,-20.88804 c 0.14484,-0.0587 0.28305,-0.0852 0.42316,-0.1543 m 112.46783,-5.49441 c -4.19086,-1.37929 -8.69411,0.88039 -10.14913,5.04474 l -28.25209,-6.53573 54.73015,0.0985 c 0.0303,0.77248 0.15241,1.55915 0.38907,2.31458 l -11.73573,3.84155 c -0.84158,-2.17259 -2.58059,-3.97787 -4.98227,-4.76359 m 150.0067,-91.8014 c -0.82738,-1.68222 -2.17447,-2.88921 -3.70428,-3.67683 l 25.81161,-43.5927 c 0.61628,0.41085 1.26095,0.78762 1.99177,1.02712 1.59891,0.51688 3.22811,0.51688 4.72667,0.0814 l 8.40444,24.64249 c -2.51432,1.00062 -4.5894,3.06149 -5.50198,5.821 -0.71568,2.19152 -0.55948,4.43416 0.22436,6.41267 l -31.35525,10.79381 c -0.16093,-0.51498 -0.34269,-1.02145 -0.59734,-1.50897 m 41.81488,-22.13479 c -1.29124,-0.15336 -2.55408,0 -3.74877,0.33512 l -8.42905,-24.68319 c 2.13472,-0.86809 3.90213,-2.5929 4.67271,-4.95197 1.03754,-3.16753 0.0142,-6.52059 -2.31269,-8.59567 l 0.78099,-0.71567 c 0.0303,-0.0985 0.0757,-0.19691 0.10224,-0.29536 0.14106,-0.4099 0.24803,-0.79993 0.37677,-1.20131 l -1.90751,1.73428 c -0.54717,-0.39192 -1.13316,-0.71284 -1.78067,-0.98263 l 33.56475,-102.3045 c 0.51592,0.14484 1.02428,0.24235 1.55441,0.29631 l -22.87318,141.3646 z M 559.3826,181.40265 622.56736,306.82552 c -0.0984,0.0682 -0.19407,0.13632 -0.29441,0.20542 l -35.01976,-51.3998 c 0.60207,-0.49416 1.0773,-1.15019 1.34804,-1.95012 0.72325,-2.24263 -0.4809,-4.65472 -2.7065,-5.38838 -0.2821,-0.0842 -0.5661,-0.13821 -0.84821,-0.18365 l -26.39191,-66.33714 c 0.24898,-0.11455 0.48848,-0.24045 0.72799,-0.3692 M 546.33574,169.1491 c -0.17797,0.36541 -0.37582,0.72419 -0.50552,1.13504 -0.053,0.15147 -0.053,0.29631 -0.0956,0.44872 l -23.5737,-5.30224 c -0.1562,-3.25461 -2.25779,-6.23943 -5.52755,-7.30821 -4.25523,-1.40389 -8.82381,0.92867 -10.2277,5.19243 -0.0966,0.31902 -0.14105,0.63142 -0.21395,0.95139 l -30.02329,-3.80273 -32.3322,-23.68636 c 0.91069,-2.21802 0.94004,-4.78441 -0.22151,-7.099 -2.11863,-4.19464 -7.2268,-5.86266 -11.40251,-3.72983 -0.25371,0.1278 -0.49511,0.28116 -0.73082,0.41937 l -14.1677,-19.97356 c 0.68916,-0.76869 1.28934,-1.65287 1.71345,-2.66485 l 127.3086,65.41983 z M 401.39466,102.94828 c 0.88323,2.80022 3.03025,5.17065 6.03211,6.15328 3.35496,1.09529 6.83014,0.16756 9.24318,-2.07886 l 14.09575,19.86564 c -1.84882,1.4872 -2.97535,3.656 -3.17036,5.96017 l -98.40616,-0.18271 c -0.34837,-3.04446 -2.3799,-5.75474 -5.48211,-6.77808 -4.23629,-1.38307 -8.80866,0.94382 -10.19457,5.20284 -0.17324,0.51025 -0.28021,1.02712 -0.35026,1.54495 l -10.22771,-0.0123 c -0.0417,-1.1909 -0.32186,-2.38653 -0.88323,-3.50358 -2.11673,-4.20885 -7.22206,-5.8797 -11.41955,-3.74783 -2.42534,1.23066 -3.97881,3.47235 -4.45782,5.97531 l -22.62231,-3.15521 c 0.11076,-1.22498 0.0152,-2.42818 -0.32281,-3.55092 l 138.16585,-21.6927 z M 247.67425,134.1104 c 0.994,0.96654 2.18868,1.73807 3.58974,2.20382 4.93588,1.62542 10.26557,-1.08108 11.89382,-6.04536 0.12591,-0.39192 0.21016,-0.78951 0.27832,-1.1909 l 22.59959,3.15522 c -0.1136,1.27231 0.0805,2.58059 0.55948,3.82639 l -39.3867,18.02439 c -0.93909,-1.8119 -2.538,-3.26692 -4.62538,-3.95609 -4.23346,-1.3859 -8.82286,0.94098 -10.21256,5.19243 -1.29313,3.90876 0.57746,8.0627 4.1814,9.79887 l -5.52565,13.23051 -43.6675,31.64113 c -2.38463,-3.39283 -6.91061,-4.61686 -10.72848,-2.69514 -4.18045,2.13188 -5.86172,7.2552 -3.74404,11.44606 0.0293,0.0805 0.0899,0.14105 0.11076,0.20921 l -22.77378,14.01529 c -0.2272,-0.32281 -0.46386,-0.64657 -0.72987,-0.94003 l 98.18085,-97.9158 z m -106.3155,113.53851 c 2.20193,0.25465 4.38966,-0.2963 6.17222,-1.44271 l 13.74455,19.37054 -26.37014,80.37799 c -1.63677,-0.21111 -3.33792,0.0445 -4.92168,0.86146 -4.19181,2.1101 -5.8655,7.22963 -3.75729,11.43943 0.84063,1.66801 2.17731,2.9318 3.74309,3.71942 l -9.46659,21.44183 c -0.21016,-0.0956 -0.40801,-0.21205 -0.62574,-0.27737 -0.1439,-0.0568 -0.28495,-0.0568 -0.426,-0.10224 l 21.90758,-135.38835 z m 43.08814,282.40924 -64.92377,-128.87154 c 1.03469,-0.30483 2.00502,-0.78478 2.87689,-1.41337 l 29.79042,40.94017 c -0.77248,0.82738 -1.37834,1.81191 -1.74375,2.94316 -1.40011,4.25429 0.91069,8.83801 5.15077,10.23055 2.66201,0.87661 5.46696,0.26033 7.52594,-1.34994 l 10.70767,33.45115 c -0.21584,0.0842 -0.42411,0.13821 -0.63427,0.24045 -4.17666,2.12525 -5.86171,7.24857 -3.74214,11.44322 1.76647,3.49412 5.61085,5.20378 9.26969,4.44835 l 7.04125,27.27514 c -0.45061,0.18271 -0.90028,0.39476 -1.3187,0.66266 m 12.62181,13.36399 c 0.44966,-0.65414 0.82832,-1.35562 1.13504,-2.12809 l 53.17668,10.40473 c -0.0587,1.82611 0.68255,3.57458 1.9861,4.79862 0.78951,0.44966 1.55914,0.92772 2.34392,1.3594 2.10821,0.68633 4.30541,0.15714 5.89012,-1.19185 l 25.23698,20.32383 c -0.12874,1.50045 0.0824,3.04445 0.81034,4.48527 1.89237,3.74782 6.15802,5.46128 10.02986,4.26565 l 27.20603,21.92178 c -0.24802,0.33512 -0.48469,0.68917 -0.69674,1.06594 L 197.0687,543.42214 Z m 144.43746,67.15884 c -0.0691,-0.27169 -0.16756,-0.51783 -0.26696,-0.77248 l 60.23876,-19.49265 c 0.82927,2.1934 2.58059,4.02235 4.99457,4.81092 4.23441,1.38685 8.80772,-0.92773 10.19647,-5.19053 0.51877,-1.55821 0.51877,-3.14575 0.12969,-4.61781 l 11.73574,-3.85953 c 0.0682,0.1562 0.1259,0.29536 0.19785,0.44967 2.10537,4.20127 7.22206,5.86834 11.4044,3.73551 2.42534,-1.23917 3.97975,-3.48086 4.45687,-5.96111 l 36.92917,6.08513 c 0,0.95801 0.14106,1.88006 0.41085,2.77749 l -140.42741,22.03539 z m 155.79832,-31.71214 c -0.24045,-0.22814 -0.49227,-0.43735 -0.75544,-0.64751 l 47.59897,-71.0231 c 0.2963,0.15336 0.60776,0.30577 0.94003,0.41842 1.2335,0.40706 2.49729,0.36257 3.64653,0.0152 1.53265,-1.757 3.01795,-3.55376 4.49095,-5.35904 0.072,-0.69958 0,-1.41904 -0.15525,-2.09117 1.55726,0.18365 3.18456,-0.0701 4.71531,-0.84253 3.40703,-1.72481 5.10155,-5.4537 4.49947,-9.03018 l 31.55688,-10.87048 c 0.35027,0.67402 0.77153,1.3168 1.27515,1.89142 l -97.8126,97.53902 z"
           inkscape:connector-curvature="0"
           style="fill:#ffffff" />
      </g>
      <g
         style="fill:#d40000"
         transform="matrix(2.2229105,0,0,-2.2229105,-802.35292,1197.6232)"
         id="g16250">
        <g
           style="fill:#d40000"
           id="g9012"
           transform="matrix(2.2603163,0,0,2.2603163,577.61394,247.61261)">
          <path
             d="m 0,0 0,1.172 6.182,0 c 5.905,0 6.192,0.011 6.419,0.262 0.351,0.388 0.243,1.132 -0.195,1.352 C 12.149,2.915 10.816,2.96 7.168,2.965 2.708,2.969 2.226,2.992 1.724,3.224 0.64,3.725 0.114,4.668 0.107,6.127 0.102,7.147 0.372,7.925 0.938,8.528 1.668,9.306 1.655,9.304 8.473,9.304 l 6.276,0 0,-2.343 -5.827,0 C 2.526,6.961 2.48,6.955 2.484,6.16 2.489,5.206 2.708,5.169 8.216,5.169 c 3.976,0 4.833,-0.035 5.261,-0.214 1.152,-0.481 1.733,-1.444 1.742,-2.887 0.008,-1.176 -0.198,-1.809 -0.783,-2.41 -0.819,-0.842 -0.705,-0.83 -7.884,-0.83 L 0,-1.172 0,0 Z"
             style="fill:#d40000;fill-opacity:1;fill-rule:nonzero;stroke:none"
             id="path9014"
             inkscape:connector-curvature="0" />
        </g>
        <g
           style="fill:#d40000"
           id="g9016"
           transform="matrix(2.2603163,0,0,2.2603163,503.76919,247.61261)">
          <path
             d="m 0,0 0,1.172 6.182,0 c 5.905,0 6.192,0.011 6.419,0.262 0.351,0.388 0.243,1.132 -0.195,1.352 C 12.149,2.915 10.816,2.96 7.168,2.965 2.708,2.969 2.226,2.992 1.724,3.224 0.64,3.725 0.114,4.668 0.107,6.127 0.102,7.147 0.372,7.925 0.938,8.528 1.668,9.306 1.655,9.304 8.473,9.304 l 6.276,0 0,-2.343 -5.827,0 C 2.526,6.961 2.48,6.955 2.484,6.16 2.489,5.206 2.708,5.169 8.216,5.169 c 3.976,0 4.833,-0.035 5.261,-0.214 1.152,-0.481 1.733,-1.444 1.742,-2.887 0.008,-1.176 -0.198,-1.809 -0.783,-2.41 -0.819,-0.842 -0.705,-0.83 -7.884,-0.83 L 0,-1.172 0,0 Z"
             style="fill:#d40000;fill-opacity:1;fill-rule:nonzero;stroke:none"
             id="path9018"
             inkscape:connector-curvature="0" />
        </g>
        <g
           style="fill:#d40000"
           id="g9020"
           transform="matrix(2.2603163,0,0,2.2603163,402.599,244.40951)">
          <path
             d="m 0,0 0,4.067 -1.654,0 0,2.343 1.637,0 0.071,0.585 c 0.04,0.323 0.109,0.922 0.154,1.332 0.096,0.86 0.306,1.32 0.824,1.805 0.358,0.334 0.442,0.347 3.011,0.435 1.453,0.049 3.65,0.096 4.882,0.103 l 2.24,0.013 0,-2.331 L 7.174,8.311 C 2.893,8.268 2.867,8.263 2.813,7.548 2.797,7.339 2.738,6.988 2.681,6.767 l -0.103,-0.4 8.587,0.157 0,-2.457 -8.408,0 0,-8.133 L 0,-4.066 0,0 Z"
             style="fill:#d40000;fill-opacity:1;fill-rule:nonzero;stroke:none"
             id="path9022"
             inkscape:connector-curvature="0" />
        </g>
        <g
           style="fill:#d40000"
           id="g9024"
           transform="matrix(2.2603163,0,0,2.2603163,457.81944,250.5535)">
          <path
             d="M 0,0 0.45,0.402 0.489,2.447 C 0.525,4.304 0.503,4.533 0.248,4.943 0.094,5.191 -0.192,5.455 -0.387,5.529 -0.586,5.605 -2.443,5.663 -4.648,5.663 l -3.91,0 -0.421,-0.354 c -0.6,-0.505 -0.741,-1.132 -0.682,-3.035 0.038,-1.28 0.102,-1.717 0.289,-1.981 0.47,-0.665 0.606,-0.685 4.892,-0.69 L -0.45,-0.402 0,0 Z m -10.341,-2.59 c -0.694,0.343 -1.42,1.182 -1.775,2.05 -0.214,0.523 -0.253,1.01 -0.253,3.102 0,2.393 0.012,2.508 0.361,3.239 0.433,0.908 1.093,1.605 1.845,1.948 C -9.662,7.978 -9.158,8 -4.581,8.003 -1.674,8.004 0.658,7.948 0.941,7.868 1.633,7.677 2.531,6.861 2.97,6.026 3.328,5.347 3.345,5.22 3.389,2.877 3.445,-0.055 3.309,-0.701 2.422,-1.709 1.381,-2.891 1.469,-2.877 -4.513,-2.879 -9.574,-2.883 -9.77,-2.873 -10.341,-2.59"
             style="fill:#d40000;fill-opacity:1;fill-rule:nonzero;stroke:none"
             id="path9026"
             inkscape:connector-curvature="0" />
        </g>
        <g
           style="fill:#d40000"
           id="g9028"
           transform="matrix(2.2603163,0,0,2.2603163,467.71488,247.61261)">
          <path
             d="m 0,0 0,1.172 6.182,0 c 5.905,0 6.192,0.011 6.419,0.262 0.351,0.388 0.243,1.132 -0.195,1.352 C 12.149,2.915 10.816,2.96 7.168,2.965 2.708,2.969 2.226,2.992 1.724,3.224 0.64,3.725 0.114,4.668 0.107,6.127 0.102,7.147 0.372,7.925 0.938,8.528 1.668,9.306 1.655,9.304 8.473,9.304 l 6.276,0 0,-2.343 -5.827,0 C 2.526,6.961 2.48,6.955 2.484,6.16 2.489,5.206 2.708,5.169 8.216,5.169 c 3.976,0 4.833,-0.035 5.261,-0.214 1.152,-0.481 1.733,-1.444 1.742,-2.887 0.008,-1.176 -0.198,-1.809 -0.783,-2.41 -0.819,-0.842 -0.705,-0.83 -7.884,-0.83 L 0,-1.172 0,0 Z"
             style="fill:#d40000;fill-opacity:1;fill-rule:nonzero;stroke:none"
             id="path9030"
             inkscape:connector-curvature="0" />
        </g>
        <g
           style="fill:#d40000"
           id="g9032"
           transform="matrix(2.2603163,0,0,2.2603163,568.35094,252.28603)">
          <path
             d="m 0,0 0,0.896 -4.725,0 c -5.295,0 -5.337,-0.007 -5.337,-0.896 0,-0.889 0.042,-0.896 5.337,-0.896 L 0,-0.896 0,0 Z m -11.096,-2.979 c -1.112,0.513 -1.585,1.393 -1.585,2.946 0,1.211 0.344,2.002 1.149,2.644 l 0.53,0.422 5.466,0.068 c 3.007,0.039 5.452,0.116 5.432,0.173 -0.018,0.056 -0.034,0.292 -0.034,0.523 0,0.262 -0.127,0.547 -0.338,0.758 l -0.339,0.339 -11.315,0 0,2.343 12.214,0 0.704,-0.352 C 1.176,6.692 1.666,6.308 1.876,6.032 2.528,5.177 2.619,4.497 2.619,0.453 l 0,-3.692 -6.582,0.002 c -6.104,0.004 -6.622,0.022 -7.133,0.258"
             style="fill:#d40000;fill-opacity:1;fill-rule:nonzero;stroke:none"
             id="path9034"
             inkscape:connector-curvature="0" />
        </g>
        <g
           style="fill:#d40000"
           id="g9036"
           transform="matrix(2.2603163,0,0,2.2603163,614.4623,256.80305)">
          <path
             d="m 0,0 0,5.238 2.618,0 0,-10.476 L 0,-5.238 0,0 Z"
             style="fill:#d40000;fill-opacity:1;fill-rule:nonzero;stroke:none"
             id="path9038"
             inkscape:connector-curvature="0" />
        </g>
        <g
           style="fill:#d40000"
           id="g9040"
           transform="matrix(2.2603163,0,0,2.2603163,614.4623,273.85262)">
          <path
             d="m 0,0 0,1.241 2.618,0 0,-2.481 L 0,-1.24 0,0 Z"
             style="fill:#d40000;fill-opacity:1;fill-rule:nonzero;stroke:none"
             id="path9042"
             inkscape:connector-curvature="0" />
        </g>
        <g
           style="fill:#d40000"
           id="g9044"
           transform="matrix(2.2603163,0,0,2.2603163,651.85268,252.28535)">
          <path
             d="m 0,0 0,0.896 -4.755,0 c -4.572,0 -4.767,-0.011 -5.032,-0.276 -0.374,-0.375 -0.359,-1.028 0.031,-1.301 0.263,-0.184 0.978,-0.215 5.032,-0.215 L 0,-0.896 0,0 Z m -11.101,-2.981 c -1.103,0.502 -1.578,1.42 -1.579,3.056 -10e-4,1.096 0.37,1.917 1.148,2.536 l 0.53,0.422 5.516,0.039 5.516,0.038 -0.082,0.306 c -0.045,0.168 -0.083,0.417 -0.084,0.553 -0.001,0.136 -0.154,0.4 -0.34,0.586 l -0.338,0.338 -11.316,0 0,2.344 12.214,0 0.705,-0.352 C 1.177,6.692 1.666,6.308 1.877,6.032 2.529,5.177 2.619,4.497 2.619,0.453 l 0,-3.692 -6.582,0.002 c -6.087,0.004 -6.624,0.023 -7.138,0.256"
             style="fill:#d40000;fill-opacity:1;fill-rule:nonzero;stroke:none"
             id="path9046"
             inkscape:connector-curvature="0" />
        </g>
      </g>
    </g>
  </g>
</svg>
