<?xml version="1.0" encoding="UTF-8" standalone="no"?>
<!-- Created with Inkscape (http://www.inkscape.org/) -->

<svg
   xmlns:dc="http://purl.org/dc/elements/1.1/"
   xmlns:cc="http://creativecommons.org/ns#"
   xmlns:rdf="http://www.w3.org/1999/02/22-rdf-syntax-ns#"
   xmlns:svg="http://www.w3.org/2000/svg"
   xmlns="http://www.w3.org/2000/svg"
   xmlns:sodipodi="http://sodipodi.sourceforge.net/DTD/sodipodi-0.dtd"
   xmlns:inkscape="http://www.inkscape.org/namespaces/inkscape"
   width="700"
   height="120"
   id="svg6016"
   version="1.1"
   inkscape:version="0.48.4 r9939"
   sodipodi:docname="fossasia-long-path.svg"
   inkscape:export-filename="/home/hp/Downloads/fossasia/fossasia-squarelogo_300dpi.png"
   inkscape:export-xdpi="300"
   inkscape:export-ydpi="300">
  <defs
     id="defs6018">
    <inkscape:perspective
       sodipodi:type="inkscape:persp3d"
       inkscape:vp_x="0 : 526.18109 : 1"
       inkscape:vp_y="0 : 1000 : 0"
       inkscape:vp_z="744.09448 : 526.18109 : 1"
       inkscape:persp3d-origin="372.04724 : 350.78739 : 1"
       id="perspective6024" />
  </defs>
  <sodipodi:namedview
     id="base"
     pagecolor="#ffffff"
     bordercolor="#666666"
     borderopacity="1.0"
     inkscape:pageopacity="0.0"
     inkscape:pageshadow="2"
     inkscape:zoom="1.2432572"
     inkscape:cx="365.85082"
     inkscape:cy="-25.619929"
     inkscape:document-units="px"
     inkscape:current-layer="layer1"
     showgrid="false"
     inkscape:window-width="1366"
     inkscape:window-height="743"
     inkscape:window-x="0"
     inkscape:window-y="0"
     inkscape:window-maximized="1"
     inkscape:snap-object-midpoints="false"
     inkscape:snap-center="true"
     inkscape:snap-page="true"
     height="3543.31px"
     fit-margin-top="0"
     fit-margin-left="0"
     fit-margin-right="0"
     fit-margin-bottom="0">
    <inkscape:grid
       type="xygrid"
       id="grid2863"
       empspacing="5"
       visible="true"
       enabled="true"
       snapvisiblegridlinesonly="true"
       originx="-17.524979px"
       originy="-76.9287px" />
  </sodipodi:namedview>
  <metadata
     id="metadata6021">
    <rdf:RDF>
      <cc:Work
         rdf:about="">
        <dc:format>image/svg+xml</dc:format>
        <dc:type
           rdf:resource="http://purl.org/dc/dcmitype/StillImage" />
        <dc:title />
      </cc:Work>
    </rdf:RDF>
  </metadata>
  <g
     inkscape:label="Layer 1"
     inkscape:groupmode="layer"
     id="layer1"
     transform="translate(-76.848458,-813.44093)">
    <flowRoot
       xml:space="preserve"
       id="flowRoot6032"
       style="font-size:72px;font-style:normal;font-variant:normal;font-weight:normal;font-stretch:normal;fill:#000000;fill-opacity:1;stroke:none;font-family:Ethnocentric;-inkscape-font-specification:Ethnocentric"><flowRegion
         id="flowRegion6034"><rect
           id="rect6036"
           width="923.17072"
           height="320.73172"
           x="-165.85365"
           y="103.5817" /></flowRegion><flowPara
         id="flowPara6038" /></flowRoot>    <flowRoot
       xml:space="preserve"
       id="flowRoot6046"
       style="font-size:72px;font-style:normal;font-variant:normal;font-weight:normal;font-stretch:normal;fill:#000000;fill-opacity:1;stroke:none;font-family:Ethnocentric;-inkscape-font-specification:Ethnocentric"><flowRegion
         id="flowRegion6048"><rect
           id="rect6050"
           width="917.07318"
           height="268.29269"
           x="28.04878"
           y="76.752426" /></flowRegion><flowPara
         id="flowPara6052" /></flowRoot>    <flowRoot
       xml:space="preserve"
       id="flowRoot6054"
       style="font-size:72px;font-style:normal;font-variant:normal;font-weight:normal;font-stretch:normal;fill:#000000;fill-opacity:1;stroke:none;font-family:Ethnocentric;-inkscape-font-specification:Ethnocentric"><flowRegion
         id="flowRegion6056"><rect
           id="rect6058"
           width="713.41461"
           height="148.78049"
           x="25.609756"
           y="81.630478" /></flowRegion><flowPara
         id="flowPara6060" /></flowRoot>    <flowRoot
       xml:space="preserve"
       id="flowRoot6062"
       style="font-size:72px;font-style:normal;font-variant:normal;font-weight:normal;font-stretch:normal;fill:#000000;fill-opacity:1;stroke:none;font-family:Ethnocentric;-inkscape-font-specification:Ethnocentric"><flowRegion
         id="flowRegion6064"><rect
           id="rect6066"
           width="691.46344"
           height="115.85366"
           x="47.560974"
           y="120.65487" /></flowRegion><flowPara
         id="flowPara6068" /></flowRoot>    <flowRoot
       xml:space="preserve"
       id="flowRoot6070"
       style="font-size:72px;font-style:normal;font-variant:normal;font-weight:normal;font-stretch:normal;fill:#000000;fill-opacity:1;stroke:none;font-family:Ethnocentric;-inkscape-font-specification:Ethnocentric"
       transform="translate(0,802.36218)"><flowRegion
         id="flowRegion6072"><rect
           id="rect6074"
           width="1079.2683"
           height="365.85367"
           x="-91.463417"
           y="-729.26831" /></flowRegion><flowPara
         id="flowPara6076" /></flowRoot>    <text
       xml:space="preserve"
       style="font-size:105.45978546px;font-style:normal;font-variant:normal;font-weight:normal;font-stretch:normal;line-height:0%;letter-spacing:0px;word-spacing:0px;fill:#000000;fill-opacity:1;stroke:none;font-family:spaceman;-inkscape-font-specification:spaceman"
       x="95.110992"
       y="843.02728"
       id="text3015"
       sodipodi:linespacing="0%"
       transform="scale(0.93415532,1.0704858)"><tspan
         sodipodi:role="line"
         id="tspan3017"
         x="95.110992"
         y="843.02728"
         style="font-size:105px;font-weight:normal;line-height:0%;letter-spacing:-10px;-inkscape-font-specification:spaceman">fossa<tspan
   style="letter-spacing:-7.23999977px"
   id="tspan3019">s</tspan><tspan
   style="letter-spacing:-11.18000031px"
   id="tspan3099">i</tspan>a</tspan></text>
    <path
       d="m 22.398155,88.914044 0,-23.727994 -4.826033,0 -4.826033,0 0,-6.83688 0,-6.83688 4.710627,0 4.710627,0 0.548704,-7.26856 c 0.612395,-8.112276 1.386973,-10.757739 3.958465,-13.519587 3.817265,-4.099839 4.192947,-4.146355 33.487623,-4.146355 l 27.387463,0 0,6.836879 0,6.83688 -22.558048,0 -22.558047,0 -1.974286,1.974286 c -1.513777,1.513778 -1.974286,2.822315 -1.974286,5.609943 l 0,3.635656 24.532333,-0.511194 24.532334,-0.511195 0,7.368503 0,7.368504 -24.532334,0 -24.532333,0 0,23.727994 0,23.727996 -8.043388,0 -8.043388,0 0,-23.727996 z"
       id="path3135"
       inkscape:connector-curvature="0"
       transform="translate(76.848458,813.44093)"
       style="fill:#ffffff" />
    <path
       style="fill:#ffffff"
       d="M 104.61652,86.806003 C 100.56291,84.799505 96.328444,79.907689 94.256854,74.838115 93.009844,71.786447 92.7778,68.947167 92.7778,56.740492 c 0,-13.963054 0.07504,-14.635472 2.109476,-18.901961 2.524357,-5.293925 6.376314,-9.362322 10.759944,-11.364557 2.92652,-1.336695 5.87122,-1.470726 32.57572,-1.482713 16.9616,-0.0076 30.56929,0.323212 32.22612,0.783472 4.03351,1.120496 9.27862,5.881793 11.83839,10.74641 2.08628,3.964793 2.18558,4.711139 2.44561,18.383172 0.32533,17.105035 -0.47063,20.878792 -5.64318,26.755123 -6.07481,6.901338 -5.56177,6.81469 -40.46477,6.834137 -29.53667,0.01646 -30.68072,-0.04031 -34.00859,-1.687572 z m 60.338,-15.117273 2.62679,-2.345046 0.22977,-11.931968 c 0.20868,-10.836211 0.0794,-12.17387 -1.40796,-14.566117 -0.90076,-1.448782 -2.56601,-2.98708 -3.70058,-3.41844 -1.16402,-0.442561 -12.00135,-0.784289 -24.87242,-0.784289 l -22.80958,0 -2.4602,2.070123 c -3.49677,2.942335 -4.32126,6.607374 -3.98357,17.707836 0.22714,7.466451 0.60011,10.017045 1.69029,11.559245 2.74497,3.883103 3.53773,3.994887 28.54645,4.025201 l 23.51422,0.0285 2.62679,-2.345047 z"
       id="path3137"
       inkscape:connector-curvature="0"
       transform="translate(76.848458,813.44093)" />
    <path
       style="fill:#ffffff"
       d="m 190.50496,81.674995 0,-6.83688 36.07059,0 c 34.45914,0 36.13258,-0.06851 37.45832,-1.533439 2.04372,-2.258276 1.41684,-6.601474 -1.13841,-7.887342 -1.49922,-0.754443 -9.276,-1.01942 -30.56488,-1.04143 -26.02495,-0.02691 -28.83899,-0.161043 -31.77138,-1.514428 -6.32237,-2.917962 -9.38986,-8.42733 -9.43123,-16.938986 -0.0289,-5.950442 1.5424,-10.491887 4.84895,-14.014479 4.25514,-4.53316 4.18446,-4.525885 43.96904,-4.525885 l 36.62325,0 0,6.83688 0,6.83688 -34.00542,0 c -37.32087,0 -37.59477,0.03405 -37.56841,4.670557 0.0316,5.56533 1.30637,5.785847 33.44594,5.785847 23.20317,0 28.20893,0.202969 30.70262,1.244898 6.72357,2.809288 10.11592,8.431547 10.16857,16.852725 0.0429,6.860236 -1.1586,10.555958 -4.57115,14.060599 -4.78229,4.911343 -4.11731,4.841363 -46.00447,4.841363 l -38.23193,0 0,-6.83688 z"
       id="path3139"
       inkscape:connector-curvature="0"
       transform="translate(76.848458,813.44093)" />
    <path
       style="fill:#ffffff"
       d="m 283.80826,81.674995 0,-6.83688 35.66842,0 c 33.53347,0 35.74809,-0.08804 36.99958,-1.470927 1.95202,-2.156953 1.71254,-6.214126 -0.45647,-7.73336 -1.53774,-1.077074 -5.84304,-1.252117 -30.79662,-1.252117 -28.48696,0 -29.07335,-0.03257 -32.58707,-1.809762 -2.05523,-1.039505 -4.58,-3.251909 -5.93208,-5.198165 -1.99156,-2.86673 -2.41065,-4.367445 -2.7221,-9.747542 -0.43278,-7.476149 0.5638,-11.152484 4.1217,-15.204713 4.47664,-5.098613 3.95566,-5.039403 44.34131,-5.039403 l 36.62325,0 0,6.83688 0,6.83688 -34.1844,0 c -33.11195,0 -34.23487,0.05046 -35.79308,1.608678 -2.02051,2.020513 -2.04353,4.110435 -0.0721,6.546687 l 1.53658,1.89887 30.5004,0.402169 30.5004,0.40217 2.89568,2.210089 c 4.14952,3.16707 6.16712,6.357995 7.23291,11.439177 1.85243,8.831561 -1.80402,18.025904 -8.44764,21.242027 -3.43882,1.664702 -4.44576,1.706122 -41.47652,1.706122 l -37.95215,0 0,-6.83688 z"
       id="path3141"
       inkscape:connector-curvature="0"
       transform="translate(76.848458,813.44093)" />
    <path
       style="fill:#ffffff"
       d="m 385.55712,86.99164 c -6.48827,-2.994532 -9.24989,-8.125373 -9.24989,-17.185462 0,-7.073598 2.00622,-11.688149 6.70927,-15.432078 l 3.08975,-2.45964 31.89899,-0.40217 c 17.54444,-0.221193 31.8085,-0.673633 31.6979,-1.005423 -0.1106,-0.33179 -0.20108,-1.705564 -0.20108,-3.052832 0,-1.528334 -0.7425,-3.192071 -1.97429,-4.423863 l -1.97429,-1.974286 -33.01445,0 -33.01445,0 0,-6.83688 0,-6.83688 35.63515,0 35.63515,0 4.11414,2.050165 c 2.26278,1.127591 5.11935,3.368048 6.34792,4.978795 3.80372,4.986934 4.33189,8.956708 4.33189,32.558929 l 0,21.54186 -38.40718,-0.01767 C 391.56159,88.477827 388.541,88.36879 385.55712,86.99164 z m 64.74927,-17.381727 0,-5.228202 -27.57071,0 c -30.89984,0 -31.14602,0.04132 -31.14602,5.228202 0,5.18688 0.24618,5.228202 31.14602,5.228202 l 27.57071,0 0,-5.228202 z"
       id="path3143"
       inkscape:connector-curvature="0"
       transform="translate(76.848458,813.44093)" />
    <path
       style="fill:#ffffff"
       d="m 474.43656,81.674995 0,-6.83688 35.73562,0 c 39.577,0 38.26355,0.178058 38.26355,-5.187168 0,-4.877125 0.30923,-4.827796 -33.03229,-5.269236 l -30.37546,-0.402169 -3.41431,-2.413017 c -5.21289,-3.684126 -6.77494,-7.393156 -6.77494,-16.086776 0,-8.295208 1.12597,-11.008074 6.30756,-15.197159 l 3.09021,-2.498294 37.72998,-0.224024 37.72999,-0.224023 0,6.859818 0,6.859819 -34.03066,0 c -25.98633,0 -34.3418,0.237667 -35.34689,1.005423 -2.18379,1.668139 -2.5105,4.878077 -0.72152,7.088822 l 1.58607,1.95999 30.43589,0.402169 c 30.00847,0.396522 30.47171,0.42772 32.98659,2.221557 4.12162,2.939911 6.44905,6.252251 7.51484,10.694975 2.23839,9.330658 -1.08,18.566655 -7.98011,22.210843 l -3.54495,1.87221 -38.07959,0 -38.07958,0 0,-6.83688 z"
       id="path3145"
       inkscape:connector-curvature="0"
       transform="translate(76.848458,813.44093)" />
    <path
       style="fill:#ffffff"
       d="m 569.34854,57.947001 0,-30.564875 7.64122,0 7.64121,0 0,30.564875 0,30.564874 -7.64121,0 -7.64122,0 0,-30.564874 z"
       id="path3147"
       inkscape:connector-curvature="0"
       transform="translate(76.848458,813.44093)" />
    <path
       style="fill:#ffffff"
       d="m 569.34854,12.904028 0,-7.2390491 7.64122,0 7.64121,0 0,7.2390491 0,7.239049 -7.64121,0 -7.64122,0 0,-7.239049 z"
       id="path3149"
       inkscape:connector-curvature="0"
       transform="translate(76.848458,813.44093)" />
    <path
       style="fill:#ffffff"
       d="m 601.08664,86.999988 c -6.43388,-2.922509 -9.20399,-8.281893 -9.21213,-17.822898 -0.005,-6.399184 2.16367,-11.188054 6.70503,-14.80299 l 3.09,-2.45964 32.18666,-0.227754 32.18667,-0.227755 -0.47803,-1.783092 c -0.26291,-0.980702 -0.48296,-2.432963 -0.489,-3.227247 -0.006,-0.794285 -0.89941,-2.332583 -1.98527,-3.41844 l -1.97429,-1.974286 -33.01445,0 -33.01445,0 0,-6.83688 0,-6.83688 35.63515,0 35.63515,0 4.11414,2.050165 c 2.26278,1.127591 5.11934,3.368048 6.34792,4.978795 3.80372,4.986934 4.33189,8.956708 4.33189,32.558929 l 0,21.54186 -38.40718,-0.01767 c -35.52261,-0.01634 -38.65131,-0.128561 -41.65781,-1.494222 z m 64.78255,-17.390075 0,-5.228202 -27.74969,0 c -26.67723,0 -27.81186,0.06217 -29.35836,1.608678 -2.18595,2.18595 -2.09603,6.002136 0.17897,7.595609 1.53355,1.074143 5.70651,1.252117 29.35836,1.252117 l 27.57072,0 0,-5.228202 z"
       id="path3151"
       inkscape:connector-curvature="0"
       transform="translate(76.848458,813.44093)" />
  </g>
</svg>
