<?xml version="1.0" encoding="utf-8"?>
<!-- Generator: Adobe Illustrator 14.0.0, SVG Export Plug-In . SVG Version: 6.00 Build 43363)  -->
<!DOCTYPE svg PUBLIC "-//W3C//DTD SVG 1.1//EN" "http://www.w3.org/Graphics/SVG/1.1/DTD/svg11.dtd">
<svg version="1.1" id="IBM" xmlns="http://www.w3.org/2000/svg" xmlns:xlink="http://www.w3.org/1999/xlink" x="0px" y="0px"
	 width="400px" height="300px" viewBox="0 50 400 300" enable-background="new 0 50 400 300" xml:space="preserve">
<path id="IBM_1_" fill="#1F70C1" d="M28.896,130.738v9.365h66.61v-9.365H28.896z M104.944,130.738v9.365h94.922
	c0,0-9.695-9.365-22.537-9.365H104.944z M218.488,130.738v9.365h57.427l-3.41-9.365H218.488z M317.087,130.738l-3.411,9.365h56.906
	v-9.365H317.087z M28.896,148.951v9.364h66.61v-9.364H28.896z M104.944,148.963v9.352h105.938c0,0-1.237-7.208-3.396-9.352H104.944z
	 M218.488,148.963v9.352h63.722l-3.154-9.352H218.488z M310.27,148.963l-3.155,9.352h63.47v-9.352H310.27z M48.039,167.163v9.379
	h28.847v-9.379H48.039z M124.086,167.163v9.379h28.847v-9.379H124.086z M180.992,167.163v9.379h28.847c0,0,1.832-4.954,1.832-9.379
	H180.992z M237.63,167.163v9.379h51.144l-3.408-9.379H237.63z M303.985,167.163l-3.422,9.379h51.398v-9.379H303.985z M48.039,185.39
	v9.366h28.847v-9.366H48.039L48.039,185.39z M124.086,185.39v9.366h73.683c0,0,6.162-4.807,8.128-9.366H124.086L124.086,185.39z
	 M237.63,185.39v9.366h28.848v-5.215l1.831,5.215h52.842l1.965-5.215v5.215h28.848v-9.366h-54.151l-2.874,7.934l-2.888-7.934H237.63
	L237.63,185.39z M48.039,203.602v9.368h28.847v-9.368H48.039z M124.086,203.602v9.368h81.811c-1.967-4.546-8.128-9.368-8.128-9.368
	H124.086z M237.63,203.602v9.368h28.848v-9.368H237.63z M271.718,203.602l3.488,9.368h39.619l3.316-9.368H271.718z M323.115,203.602
	v9.368h28.848v-9.368H323.115z M48.039,221.817v9.366h28.847v-9.366H48.039z M124.086,221.817v9.366h28.847v-9.366H124.086z
	 M180.992,221.817v9.366h30.678c0-4.42-1.831-9.366-1.831-9.366H180.992z M237.63,221.817v9.366h28.848v-9.366H237.63z
	 M278.266,221.817l3.383,9.366h26.563l3.408-9.366H278.266z M323.115,221.817v9.366h28.848v-9.366H323.115z M29.417,240.03v9.377
	h66.611v-9.377H29.417z M104.944,240.03v9.377h102.543c2.158-2.146,3.396-9.377,3.396-9.377H104.944z M219.01,240.03v9.377h47.468
	v-9.377H219.01z M284.831,240.03l3.476,9.377h13.515l3.263-9.377H284.831z M323.115,240.03v9.377h47.988v-9.377H323.115z
	 M29.417,258.255v9.366h66.611v-9.366H29.417z M104.944,258.255v9.351h72.385c12.842,0,22.537-9.351,22.537-9.351H104.944z
	 M219.01,258.255v9.366h47.468v-9.366H219.01z M291.421,258.255l3.343,9.337l0.574,0.014l3.396-9.351H291.421z M323.115,258.255
	v9.366h47.988v-9.366H323.115z"/>
</svg>
