<?xml version="1.0" encoding="UTF-8" standalone="no"?>
<!-- Created with Inkscape (http://www.inkscape.org/) -->

<svg
   xmlns:dc="http://purl.org/dc/elements/1.1/"
   xmlns:cc="http://creativecommons.org/ns#"
   xmlns:rdf="http://www.w3.org/1999/02/22-rdf-syntax-ns#"
   xmlns:svg="http://www.w3.org/2000/svg"
   xmlns="http://www.w3.org/2000/svg"
   xmlns:xlink="http://www.w3.org/1999/xlink"
   xmlns:sodipodi="http://sodipodi.sourceforge.net/DTD/sodipodi-0.dtd"
   xmlns:inkscape="http://www.inkscape.org/namespaces/inkscape"
   width="850mm"
   height="2060mm"
   viewBox="0 0 3011.811 7299.2125"
   id="svg4504"
   version="1.1"
   inkscape:version="0.91 r13725"
   sodipodi:docname="FOSSASIA-PhotoWall-80x200_V1.svg"
   inkscape:export-filename="/home/opntec/git/fossasia-artwork/summit-18/Banner/Rollup-FOSSASIA-PhotoWall-85x200/v1/FOSSASIA-PhotoWall-80x200_V1-(small).png"
   inkscape:export-xdpi="90"
   inkscape:export-ydpi="90">
  <defs
     id="defs4506">
    <clipPath
       clipPathUnits="userSpaceOnUse"
       id="clipPath740">
      <path
         d="m 222.327,3542.717 940.628,0 0,361.327 -940.628,0 0,-361.327 z"
         id="path742"
         inkscape:connector-curvature="0" />
    </clipPath>
    <linearGradient
       inkscape:collect="always"
       xlink:href="#linearGradient24"
       id="linearGradient4061"
       gradientUnits="userSpaceOnUse"
       gradientTransform="matrix(-1.982e-4,-4535.0005,-4535.0005,1.982e-4,850.5,4535.4297)"
       spreadMethod="pad"
       x1="0"
       y1="0"
       x2="1"
       y2="0" />
    <linearGradient
       x1="0"
       y1="0"
       x2="1"
       y2="0"
       gradientUnits="userSpaceOnUse"
       gradientTransform="matrix(-1.982e-4,-4535.0005,-4535.0005,1.982e-4,850.5,4535.4297)"
       spreadMethod="pad"
       id="linearGradient24">
      <stop
         style="stop-opacity:1;stop-color:#cccccc"
         offset="0"
         id="stop26" />
      <stop
         style="stop-opacity:1;stop-color:#ffffff"
         offset="0.44407764"
         id="stop28" />
      <stop
         style="stop-opacity:1;stop-color:#ffffff"
         offset="1"
         id="stop30" />
    </linearGradient>
    <clipPath
       clipPathUnits="userSpaceOnUse"
       id="clipPath740-19-6">
      <path
         d="m 222.327,3542.717 940.628,0 0,361.327 -940.628,0 0,-361.327 z"
         id="path742-64-7"
         inkscape:connector-curvature="0" />
    </clipPath>
    <clipPath
       clipPathUnits="userSpaceOnUse"
       id="clipPath740-2-1-9">
      <path
         d="m 222.327,3542.717 940.628,0 0,361.327 -940.628,0 0,-361.327 z"
         id="path742-4-6-1"
         inkscape:connector-curvature="0" />
    </clipPath>
    <clipPath
       clipPathUnits="userSpaceOnUse"
       id="clipPath740-65-6-1">
      <path
         d="m 222.327,3542.717 940.628,0 0,361.327 -940.628,0 0,-361.327 z"
         id="path742-69-2-7"
         inkscape:connector-curvature="0" />
    </clipPath>
    <clipPath
       clipPathUnits="userSpaceOnUse"
       id="clipPath740-63-0">
      <path
         d="m 222.327,3542.717 940.628,0 0,361.327 -940.628,0 0,-361.327 z"
         id="path742-8-4"
         inkscape:connector-curvature="0" />
    </clipPath>
    <clipPath
       clipPathUnits="userSpaceOnUse"
       id="clipPath740-2">
      <path
         d="m 222.327,3542.717 940.628,0 0,361.327 -940.628,0 0,-361.327 z"
         id="path742-9"
         inkscape:connector-curvature="0" />
    </clipPath>
    <clipPath
       clipPathUnits="userSpaceOnUse"
       id="clipPath740-4">
      <path
         d="m 222.327,3542.717 940.628,0 0,361.327 -940.628,0 0,-361.327 z"
         id="path742-92"
         inkscape:connector-curvature="0" />
    </clipPath>
    <clipPath
       clipPathUnits="userSpaceOnUse"
       id="clipPath740-2-1">
      <path
         d="m 222.327,3542.717 940.628,0 0,361.327 -940.628,0 0,-361.327 z"
         id="path742-9-7"
         inkscape:connector-curvature="0" />
    </clipPath>
  </defs>
  <sodipodi:namedview
     id="base"
     pagecolor="#ffffff"
     bordercolor="#666666"
     borderopacity="1.0"
     inkscape:pageopacity="0.0"
     inkscape:pageshadow="2"
     inkscape:zoom="0.061871843"
     inkscape:cx="-1606.5488"
     inkscape:cy="2792.6347"
     inkscape:document-units="px"
     inkscape:current-layer="layer1"
     showgrid="false"
     inkscape:window-width="1366"
     inkscape:window-height="742"
     inkscape:window-x="0"
     inkscape:window-y="0"
     inkscape:window-maximized="1"
     borderlayer="true" />
  <metadata
     id="metadata4509">
    <rdf:RDF>
      <cc:Work
         rdf:about="">
        <dc:format>image/svg+xml</dc:format>
        <dc:type
           rdf:resource="http://purl.org/dc/dcmitype/StillImage" />
        <dc:title></dc:title>
      </cc:Work>
    </rdf:RDF>
  </metadata>
  <g
     inkscape:label="Layer 1"
     inkscape:groupmode="layer"
     id="layer1"
     transform="translate(0,6246.8504)">
    <g
       style="display:inline"
       id="g20"
       transform="matrix(1.7708306,0,0,1.6095287,-5.4852097e-6,-6247.5425)">
      <g
         id="g22">
        <path
           d="m 0,0.43 1700.79,0 0,4535 -1700.79,0 0,-4535 z"
           style="fill:url(#linearGradient4061);stroke:none"
           id="path32"
           inkscape:connector-curvature="0" />
      </g>
    </g>
    <g
       id="g4273"
       transform="translate(0,-89.954347)">
      <g
         style="fill:#c90405;fill-opacity:1;stroke:#000000;stroke-width:0;stroke-miterlimit:4;stroke-dasharray:none;stroke-opacity:1"
         transform="matrix(2.3806749,0,0,-2.3806749,-143.04825,5059.7771)"
         id="g736">
        <g
           style="fill:#c90405;fill-opacity:1;stroke:#000000;stroke-width:0;stroke-miterlimit:4;stroke-dasharray:none;stroke-opacity:1"
           clip-path="url(#clipPath740)"
           id="g738">
          <g
             style="fill:#c90405;fill-opacity:1;stroke:#000000;stroke-width:0;stroke-miterlimit:4;stroke-dasharray:none;stroke-opacity:1"
             transform="translate(417.0547,3900.7676)"
             id="g744">
            <path
               inkscape:connector-curvature="0"
               id="path746"
               style="fill:#c90405;fill-opacity:1;fill-rule:nonzero;stroke:#000000;stroke-width:0;stroke-miterlimit:4;stroke-dasharray:none;stroke-opacity:1"
               d="m 0,0 0,-32.749 -106.559,0 c -3.192,0 -5.96,-0.17 -8.313,-0.504 -1.681,-0.505 -3.611,-1.512 -5.792,-3.023 -3.699,-3.359 -5.544,-8.653 -5.544,-15.87 l 0,-3.527 L 0,-55.169 0,-88.17 l -126.208,-0.504 0,-107.06 -42.069,0 0,107.06 -26.45,0 0,33.001 26.45,0 0,13.855 c 0,7.387 0.667,13.559 2.016,18.516 1.34,4.949 4.113,9.529 8.312,13.729 4.197,4.194 8.731,6.884 13.604,8.061 4.871,1.175 10.913,1.764 18.137,1.764 L 0,0 Z" />
          </g>
          <g
             style="fill:#c90405;fill-opacity:1;stroke:#000000;stroke-width:0;stroke-miterlimit:4;stroke-dasharray:none;stroke-opacity:1"
             transform="translate(482.8022,3864.9966)"
             id="g748">
            <path
               inkscape:connector-curvature="0"
               id="path750"
               style="fill:#c90405;fill-opacity:1;fill-rule:nonzero;stroke:#000000;stroke-width:0;stroke-miterlimit:4;stroke-dasharray:none;stroke-opacity:1"
               d="m 0,0 c -4.198,-4.202 -6.298,-9.239 -6.298,-15.115 l 0,-34.763 c 0,-5.883 2.1,-10.922 6.298,-15.116 4.196,-4.201 9.234,-6.298 15.114,-6.298 l 107.818,0 c 5.877,0 10.915,2.097 15.114,6.298 4.198,4.194 6.298,9.233 6.298,15.116 l 0,34.763 c 0,5.876 -2.1,10.913 -6.298,15.115 -4.199,4.197 -9.237,6.297 -15.114,6.297 l -107.818,0 C 9.234,6.297 4.196,4.197 0,0 m 2.518,39.045 135.026,0 c 14.444,0 26.744,-5.081 36.904,-15.239 C 184.609,13.644 189.689,1.34 189.689,-13.1 l 0,-40.81 c 0,-14.277 -5.08,-26.535 -15.241,-36.778 -10.16,-10.248 -22.46,-15.368 -36.904,-15.368 l -135.026,0 c -14.273,0 -26.535,5.12 -36.777,15.368 -10.249,10.243 -15.369,22.501 -15.369,36.778 l 0,40.81 c 0,14.44 5.12,26.744 15.369,36.906 10.242,10.158 22.504,15.239 36.777,15.239" />
          </g>
          <g
             style="fill:#c90405;fill-opacity:1;stroke:#000000;stroke-width:0;stroke-miterlimit:4;stroke-dasharray:none;stroke-opacity:1"
             transform="translate(734.4604,3813.605)"
             id="g752">
            <path
               inkscape:connector-curvature="0"
               id="path754"
               style="fill:#c90405;fill-opacity:1;fill-rule:nonzero;stroke:#000000;stroke-width:0;stroke-miterlimit:4;stroke-dasharray:none;stroke-opacity:1"
               d="m 0,0 c -13.101,0 -23.725,3.819 -31.869,11.463 -8.145,7.638 -12.216,18.011 -12.216,31.111 0,17.297 6.799,29.807 20.403,37.534 6.55,3.693 14.441,5.543 23.682,5.543 l 178.352,0 0,-33.001 -170.041,0 c -9.241,0 -13.856,-3.526 -13.856,-10.581 0,-7.052 4.615,-10.58 13.856,-10.58 l 133.512,-0.252 c 13.099,0 23.717,-3.864 31.867,-11.586 8.143,-7.726 12.218,-18.14 12.218,-31.239 0,-17.633 -6.799,-30.144 -20.404,-37.535 -6.387,-3.526 -14.278,-5.289 -23.681,-5.289 l -185.908,0 0,33.003 177.595,-0.252 c 9.232,0 13.856,3.609 13.856,10.829 0,7.053 -4.624,10.58 -13.856,10.58 L 0,0 Z" />
          </g>
          <g
             style="fill:#c90405;fill-opacity:1;stroke:#000000;stroke-width:0;stroke-miterlimit:4;stroke-dasharray:none;stroke-opacity:1"
             transform="translate(977.0449,3813.605)"
             id="g756">
            <path
               inkscape:connector-curvature="0"
               id="path758"
               style="fill:#c90405;fill-opacity:1;fill-rule:nonzero;stroke:#000000;stroke-width:0;stroke-miterlimit:4;stroke-dasharray:none;stroke-opacity:1"
               d="m 0,0 c -13.097,0 -23.722,3.819 -31.864,11.463 -8.15,7.638 -12.221,18.011 -12.221,31.111 0,17.297 6.803,29.807 20.406,37.534 6.551,3.693 14.441,5.543 23.679,5.543 l 178.355,0 0,-33.001 -170.04,0 c -9.241,0 -13.856,-3.526 -13.856,-10.581 0,-7.052 4.615,-10.58 13.856,-10.58 l 133.511,-0.252 c 13.101,0 23.719,-3.864 31.868,-11.586 8.143,-7.726 12.216,-18.14 12.216,-31.239 0,-17.633 -6.797,-30.144 -20.403,-37.535 -6.386,-3.526 -14.278,-5.289 -23.681,-5.289 l -185.911,0 0,33.003 177.6,-0.252 c 9.231,0 13.855,3.609 13.855,10.829 0,7.053 -4.624,10.58 -13.855,10.58 L 0,0 Z" />
          </g>
          <g
             style="fill:#c90405;fill-opacity:1;stroke:#000000;stroke-width:0;stroke-miterlimit:4;stroke-dasharray:none;stroke-opacity:1"
             transform="translate(433.811,3575.7183)"
             id="g760">
            <path
               inkscape:connector-curvature="0"
               id="path762"
               style="fill:#c90405;fill-opacity:1;fill-rule:nonzero;stroke:#000000;stroke-width:0;stroke-miterlimit:4;stroke-dasharray:none;stroke-opacity:1"
               d="m 0,0 0,21.413 -134.521,0 c -8.901,0 -13.352,-3.613 -13.352,-10.833 0,-7.055 4.451,-10.58 13.352,-10.58 L 0,0 Z m -180.118,74.064 0,32.999 168.027,0 c 16.624,0 29.807,-4.37 39.547,-13.1 6.049,-5.378 10.16,-11.676 12.346,-18.893 1.512,-5.379 2.267,-12.935 2.267,-22.674 l 0,-85.395 -187.675,0 c -13.773,0 -24.605,3.777 -32.496,11.332 -7.894,7.562 -11.838,18.141 -11.838,31.742 0,13.607 3.985,24.142 11.964,31.615 7.977,7.473 18.768,11.211 32.37,11.211 l 145.606,0 0,1.258 c 0,10.413 -3.867,16.71 -11.589,18.894 -2.352,0.671 -5.964,1.011 -10.831,1.011 l -157.698,0 z" />
          </g>
          <g
             style="fill:#c90405;fill-opacity:1;stroke:#000000;stroke-width:0;stroke-miterlimit:4;stroke-dasharray:none;stroke-opacity:1"
             transform="translate(582.9419,3597.1309)"
             id="g764">
            <path
               inkscape:connector-curvature="0"
               id="path766"
               style="fill:#c90405;fill-opacity:1;fill-rule:nonzero;stroke:#000000;stroke-width:0;stroke-miterlimit:4;stroke-dasharray:none;stroke-opacity:1"
               d="m 0,0 c -13.099,0 -23.724,3.815 -31.867,11.46 -8.149,7.642 -12.217,18.012 -12.217,31.115 0,17.294 6.802,29.805 20.404,37.531 6.551,3.693 14.441,5.544 23.68,5.544 l 178.357,0 0,-33.001 -170.043,0 c -9.24,0 -13.855,-3.527 -13.855,-10.582 0,-7.051 4.615,-10.578 13.855,-10.578 l 133.511,-0.252 c 13.101,0 23.719,-3.866 31.868,-11.59 8.142,-7.726 12.217,-18.137 12.217,-31.237 0,-17.633 -6.8,-30.146 -20.4,-37.535 -6.388,-3.526 -14.281,-5.289 -23.685,-5.289 l -185.909,0 0,33.001 177.597,-0.252 c 9.232,0 13.856,3.607 13.856,10.832 0,7.054 -4.624,10.581 -13.856,10.581 L 0,0 Z" />
          </g>
          <path
             inkscape:connector-curvature="0"
             id="path768"
             style="fill:#c90405;fill-opacity:1;fill-rule:nonzero;stroke:#000000;stroke-width:0;stroke-miterlimit:4;stroke-dasharray:none;stroke-opacity:1"
             d="m 861.553,3542.717 -42.067,0 0,140.064 42.067,0 0,-140.064 z m 0,154.17 -42.067,0 0,33.504 42.067,0 0,-33.504 z" />
          <g
             style="fill:#c90405;fill-opacity:1;stroke:#000000;stroke-width:0;stroke-miterlimit:4;stroke-dasharray:none;stroke-opacity:1"
             transform="translate(1112.4595,3575.7183)"
             id="g770">
            <path
               inkscape:connector-curvature="0"
               id="path772"
               style="fill:#c90405;fill-opacity:1;fill-rule:nonzero;stroke:#000000;stroke-width:0;stroke-miterlimit:4;stroke-dasharray:none;stroke-opacity:1"
               d="m 0,0 0,21.413 -134.526,0 c -8.903,0 -13.348,-3.613 -13.348,-10.833 0,-7.055 4.445,-10.58 13.348,-10.58 L 0,0 Z m -180.117,74.064 0,32.999 168.024,0 c 16.623,0 29.809,-4.37 39.551,-13.1 6.045,-5.378 10.157,-11.676 12.343,-18.893 1.51,-5.379 2.263,-12.935 2.263,-22.674 l 0,-85.395 -187.669,0 c -13.774,0 -24.607,3.777 -32.502,11.332 -7.891,7.562 -11.834,18.141 -11.834,31.742 0,13.607 3.984,24.142 11.962,31.615 7.976,7.473 18.765,11.211 32.374,11.211 l 145.605,0 0,1.258 c 0,10.413 -3.869,16.71 -11.592,18.894 -2.353,0.671 -5.96,1.011 -10.828,1.011 l -157.697,0 z" />
          </g>
        </g>
      </g>
      <g
         transform="matrix(0.88198497,0,0,0.88198497,255.84816,-604.71903)"
         id="g4924">
        <g
           style="display:inline;fill:#c90405;fill-opacity:1"
           id="g5113"
           transform="matrix(1.4030509,0,0,-1.4030509,303.69101,-1385.1223)">
          <g
             transform="translate(-14.413443,32.040329)"
             id="g7260"
             style="fill:#c90405;fill-opacity:1">
            <g
               id="g5110"
               style="fill:#c90405;fill-opacity:1">
              <path
                 inkscape:connector-curvature="0"
                 id="path888"
                 style="fill:#c90405;fill-opacity:1;fill-rule:nonzero;stroke:none"
                 d="m 866.97554,2305.3545 c 0,0 -1.50908,-1.186 -4.43285,-3.4847 -2.95762,-2.2596 -7.18214,-5.7906 -13.12408,-9.9118 -1.47079,-1.0524 -3.02795,-2.1671 -4.6688,-3.3423 -0.82264,-0.5893 -1.66577,-1.193 -2.53115,-1.8108 -0.8823,-0.5859 -1.78596,-1.185 -2.71189,-1.7994 -1.85807,-1.2206 -3.80252,-2.4955 -5.82976,-3.8257 -1.01584,-0.665 -2.05305,-1.3434 -3.11075,-2.0352 -0.52973,-0.3455 -1.06481,-0.6944 -1.60523,-1.0461 -0.55109,-0.3321 -1.10843,-0.6677 -1.67022,-1.006 -2.25159,-1.3569 -4.58777,-2.7627 -7.00585,-4.2183 -2.42432,-1.4522 -4.90918,-3.0031 -7.57833,-4.4089 -5.30715,-2.8686 -10.89385,-6.0674 -17.02186,-8.9975 -12.09221,-6.2366 -25.99442,-12.1322 -41.42796,-17.8926 -3.87998,-1.3737 -7.83475,-2.8168 -11.89367,-4.2129 -4.10167,-1.2687 -8.28167,-2.5615 -12.53825,-3.8782 -2.1234,-0.6909 -4.30199,-1.2465 -6.49483,-1.8322 -2.19551,-0.585 -4.40971,-1.1762 -6.64349,-1.7709 -1.11735,-0.2983 -2.24003,-0.5973 -3.36717,-0.8974 l -1.69693,-0.4505 -1.71562,-0.3882 c -2.29612,-0.5182 -4.61003,-1.0407 -6.94265,-1.5661 -2.33707,-0.5261 -4.69284,-1.0576 -7.0673,-1.5927 -2.39137,-0.4452 -4.80233,-0.893 -7.2311,-1.3453 -4.86555,-0.8761 -9.80322,-1.8438 -14.86107,-2.4769 -10.08456,-1.5491 -20.5386,-2.6326 -31.30335,-3.4446 -2.69497,-0.1602 -5.40775,-0.3231 -8.13655,-0.4869 -1.36663,-0.08 -2.73682,-0.1612 -4.11146,-0.2431 l -1.03276,-0.058 c -0.24661,-0.01 -0.17806,-0.024 -0.68287,-0.025 l -0.50125,-0.012 -2.01121,-0.054 c -2.68429,-0.071 -5.38549,-0.1416 -8.10272,-0.2137 -2.85166,0 -5.72114,0 -8.60664,0 -11.45207,0.097 -23.03947,0.6331 -34.93135,1.6916 -23.72502,2.2178 -48.3724,6.4343 -73.29132,13.328 -24.91001,6.8839 -50.11561,16.3176 -74.85291,28.571 -12.3771,6.1057 -24.62601,12.9299 -36.66124,20.4496 -12.04502,7.5062 -23.86746,15.722 -35.36493,24.6375 -11.50727,8.9031 -22.70739,18.4874 -33.46859,28.7588 -10.76297,10.2689 -21.16002,21.1565 -30.96947,32.7332 -19.66163,23.1134 -37.21679,48.7553 -52.01555,76.3799 -14.79696,27.6227 -26.65858,57.2995 -35.19666,88.1862 -8.55055,30.8813 -13.69388,63.0055 -15.12283,95.4039 -0.17272,4.0491 -0.36147,8.1019 -0.38817,12.1581 l -0.0979,6.0853 c -0.002,0.3998 -0.0134,0.1789 -0.007,1.0897 l 0.006,0.7158 0.0125,1.4317 0.0258,2.865 0.0534,5.7452 0.20834,6.2722 c 0.0792,2.078 0.12998,4.2138 0.25284,6.2437 l 0.3775,6.0889 c 1.05947,16.2366 3.00213,32.442 5.84044,48.4961 5.80305,32.0824 15.15488,63.5406 27.89256,93.4079 6.37551,14.9305 13.57635,29.4675 21.55177,43.5006 7.9754,14.0314 16.63634,27.6175 26.04427,40.5786 9.42127,12.9514 19.49247,25.3374 30.13169,37.0912 10.66682,11.7291 21.88919,22.8321 33.59767,33.2345 23.47484,20.7415 48.83891,38.7018 75.323,53.5416 13.22913,7.443 26.74584,14.0953 40.42903,19.9634 13.67785,5.8796 27.52576,10.9731 41.43508,15.2857 13.9031,4.3287 27.86141,7.9033 41.78142,10.7096 13.91645,2.8196 27.78305,4.9315 41.51699,6.3141 13.73394,1.3746 27.32454,2.094 40.69434,2.1411 3.34135,0.067 6.67021,-0.02 9.98307,-0.066 1.75035,-0.029 3.49714,-0.058 5.24037,-0.088 1.57941,-0.071 3.15526,-0.1415 4.72755,-0.2127 1.57229,-0.071 3.14191,-0.1416 4.70797,-0.2119 l 2.34774,-0.1059 1.17166,-0.054 1.24198,-0.093 c 3.31551,-0.2529 6.61769,-0.5057 9.90649,-0.7559 3.3173,-0.211 6.45565,-0.6357 9.65275,-0.9624 3.1793,-0.3695 6.35149,-0.6375 9.48805,-1.1236 3.13746,-0.4434 6.26245,-0.885 9.37141,-1.3247 3.10541,-0.463 6.17699,-1.0578 9.24144,-1.5777 1.53133,-0.2689 3.05733,-0.5378 4.58065,-0.8058 1.52243,-0.2697 3.02973,-0.6142 4.53792,-0.917 3.01192,-0.6258 6.00959,-1.2491 8.99303,-1.8696 2.96207,-0.7088 5.909,-1.4138 8.84168,-2.1154 1.46278,-0.3561 2.92289,-0.7114 4.37855,-1.0657 1.44587,-0.398 2.88728,-0.795 4.32513,-1.1912 2.87126,-0.7942 5.72826,-1.5848 8.56925,-2.371 2.81606,-0.8698 5.61608,-1.736 8.40187,-2.5969 1.38977,-0.4327 2.77687,-0.8637 4.15953,-1.2937 1.37018,-0.471 2.73592,-0.941 4.0981,-1.4094 2.7199,-0.9419 5.42378,-1.8776 8.11252,-2.8089 2.65847,-1.0114 5.3018,-2.0175 7.92911,-3.0164 1.31231,-0.5003 2.62018,-0.9989 3.92449,-1.4966 1.29006,-0.5324 2.57656,-1.063 3.8595,-1.5928 2.55875,-1.0674 5.10237,-2.1278 7.62997,-3.1819 2.51335,-1.0853 4.97594,-2.2463 7.43855,-3.3548 4.943,-2.1759 9.69905,-4.5957 14.41413,-6.9061 2.37001,-1.1288 4.65544,-2.394 6.94354,-3.6057 2.28186,-1.2197 4.5486,-2.4314 6.79841,-3.6334 2.21243,-1.2678 4.41061,-2.5258 6.59187,-3.7749 2.17503,-1.2562 4.3563,-2.459 6.44941,-3.7802 4.20584,-2.6087 8.39119,-5.0873 12.35574,-7.7787 32.10017,-20.9455 56.81967,-43.4187 75.35328,-63.2584 18.54606,-19.9002 31.01399,-37.1785 39.05171,-49.1603 1.98095,-3.0146 3.7304,-5.6775 5.24038,-7.9763 1.43607,-2.3442 2.64422,-4.3172 3.61733,-5.9064 1.93019,-3.1774 2.92645,-4.8183 2.92645,-4.8183 0,0 -1.22685,1.4761 -3.60397,4.3367 -1.18234,1.4299 -2.65135,3.2042 -4.39726,5.3142 -1.79843,2.062 -3.88176,4.4499 -6.24018,7.1528 -4.74448,5.3713 -10.76387,11.8358 -18.01011,19.2165 -1.81891,1.8385 -3.77225,3.6823 -5.75409,5.6233 -0.99447,0.9659 -2.00675,1.9479 -3.03417,2.9469 -1.02297,1.0025 -2.12518,1.9613 -3.20156,2.9754 -2.17414,2.0023 -4.41595,4.0669 -6.72452,6.193 -2.36556,2.0583 -4.79878,4.1773 -7.29878,6.3532 -10.1166,8.5568 -21.59182,17.6531 -34.65536,26.6729 -13.07867,8.9894 -27.6041,18.0876 -43.74722,26.5481 -3.98681,2.1982 -8.1971,4.1373 -12.378,6.2554 -2.08333,1.0746 -4.24945,2.0263 -6.40578,3.0297 -2.15901,0.9962 -4.33315,1.9979 -6.52332,3.0084 -2.21865,0.9437 -4.45333,1.8954 -6.70403,2.8525 -2.25339,0.9437 -4.49341,1.956 -6.81355,2.8294 -4.61449,1.7985 -9.25123,3.6966 -14.05624,5.3437 -2.39316,0.844 -4.78186,1.7397 -7.21597,2.5569 -2.44035,0.796 -4.89583,1.5955 -7.36733,2.4003 -1.23397,0.4006 -2.47239,0.8022 -3.71438,1.2046 -1.25355,0.3678 -2.51068,0.7354 -3.77225,1.1049 -2.51869,0.739 -5.05252,1.4823 -7.60058,2.2302 -2.56944,0.6678 -5.15313,1.3391 -7.75195,2.0157 -1.29717,0.3401 -2.59792,0.6811 -3.90223,1.023 -1.3141,0.3036 -2.63175,0.6089 -3.95387,0.9143 -2.63977,0.6081 -5.29468,1.2198 -7.96384,1.835 -2.68606,0.5332 -5.38638,1.0683 -8.10004,1.607 -1.35595,0.2689 -2.71457,0.5386 -4.07762,0.8084 -1.37108,0.227 -2.74484,0.4549 -4.12304,0.6828 -2.75195,0.4612 -5.51815,0.925 -8.2977,1.3907 -2.79113,0.381 -5.5965,0.7639 -8.41522,1.1494 -1.40936,0.1834 -2.81606,0.4086 -4.23611,0.5591 -1.42003,0.1487 -2.84454,0.2983 -4.27171,0.4478 -2.85611,0.2823 -5.71223,0.6411 -8.59773,0.8681 -2.88461,0.219 -5.78169,0.4398 -8.69211,0.6605 -2.9033,0.2681 -5.83955,0.3197 -8.7749,0.4728 -2.92646,0.1095 -5.92413,0.3259 -8.79628,0.3143 -2.89619,0.041 -5.80483,0.079 -8.72594,0.1193 l -1.09686,0.014 -1.17255,-0.017 -2.34953,-0.032 c -1.56784,-0.022 -3.13924,-0.043 -4.71331,-0.065 -1.57317,-0.022 -3.15081,-0.042 -4.73111,-0.065 -1.41559,-0.065 -2.83475,-0.1291 -4.25657,-0.1941 -3.02974,-0.1371 -6.07104,-0.2315 -9.1168,-0.4772 -12.18746,-0.7897 -24.50848,-2.0708 -36.88915,-3.9975 -12.37532,-1.9534 -24.81653,-4.4542 -37.23904,-7.6122 -12.41806,-3.1694 -24.82722,-6.9364 -37.13756,-11.3621 -12.30409,-4.44 -24.51471,-9.5138 -36.54994,-15.2252 -12.0281,-5.7274 -23.855,-12.1403 -35.43527,-19.1488 -23.13474,-14.0642 -45.21179,-30.6641 -65.54204,-49.6046 -10.16468,-9.4676 -19.87086,-19.5379 -29.06243,-30.1325 -9.2165,-10.5726 -17.91662,-21.6782 -26.02291,-33.2585 -16.20189,-23.1704 -29.99014,-48.2443 -41.03889,-74.5663 -10.93036,-26.371 -19.12834,-53.9795 -24.17106,-82.1864 -2.52938,-14.1008 -4.27438,-28.3457 -5.24394,-42.6379 l -0.34811,-5.3605 c -0.11841,-1.7869 -0.14334,-3.474 -0.23148,-5.2146 l -0.22703,-5.1851 -0.0988,-5.7159 -0.0472,-2.865 -0.0231,-1.4316 -0.0124,-0.7159 c 0,0.4327 0.004,-0.2652 0.006,-0.3427 l 0.0472,-5.3668 c -0.01,-3.579 0.13533,-7.1518 0.25819,-10.7229 0.55022,-14.2814 1.83226,-28.5024 3.85505,-42.5764 2.05395,-14.0705 4.91006,-27.9763 8.41344,-41.6604 3.51584,-13.6823 7.78755,-27.1153 12.70297,-40.2421 4.89314,-13.1356 10.50477,-25.9392 16.76277,-38.3323 12.44477,-24.8281 27.38598,-48.0661 44.19416,-69.3081 16.83489,-21.2303 35.59108,-40.4023 55.56343,-57.3334 10.00087,-8.4489 20.30444,-16.3416 30.83326,-23.6617 10.53861,-7.3069 21.31138,-14.0251 32.22125,-20.1816 10.917,-6.1458 21.99158,-11.6871 33.12314,-16.6898 11.13601,-4.9919 22.35215,-9.3848 33.54959,-13.2719 22.41537,-7.7367 44.81917,-13.1596 66.64603,-16.8205 10.90365,-1.7878 21.74941,-3.0592 32.25598,-3.9976 2.60594,-0.2074 5.19674,-0.414 7.77241,-0.6188 2.71456,-0.1407 5.41309,-0.2804 8.09471,-0.4193 l 2.00854,-0.1033 0.50125,-0.026 c -0.17183,-0.01 0.23148,-0.01 0.31784,-0.012 l 0.96954,-0.021 c 1.29185,-0.028 2.58013,-0.058 3.86396,-0.086 2.57033,-0.06 5.12463,-0.1203 7.66291,-0.179 10.154,-0.072 20.07029,0.1308 29.699,0.7381 4.82993,0.1727 9.5566,0.6819 14.22984,1.104 2.33885,0.2118 4.6599,0.4228 6.96224,0.6312 2.29344,0.2929 4.56908,0.5841 6.82601,0.8724 18.07332,2.2909 34.91088,5.5601 50.2732,9.5265 3.8782,0.8716 7.59168,2.0129 11.26155,3.0386 3.6574,1.0638 7.28274,1.988 10.72647,3.1792 3.47489,1.1236 6.86786,2.2205 10.17982,3.2906 3.3084,1.0907 6.47345,2.3193 9.59577,3.4278 12.4697,4.4915 23.33595,9.2689 32.77414,13.5176 9.34738,4.4275 17.27025,8.3351 23.53538,11.7761 6.36037,3.2896 11.09595,6.1698 14.32599,7.9967 3.22827,1.8474 4.89404,2.8001 4.89404,2.8001" />
            </g>
          </g>
          <g
             style="fill:#c90405;fill-opacity:1"
             transform="matrix(0.8903112,0,0,0.8903112,824.10384,2451.0547)"
             id="g924">
            <path
               inkscape:connector-curvature="0"
               id="path926"
               style="fill:#c90405;fill-opacity:1;fill-rule:nonzero;stroke:none"
               d="m 0,0 c 0,0 -1.427,-1.151 -4.19,-3.383 -2.8,-2.192 -6.788,-5.617 -12.422,-9.619 -1.395,-1.022 -2.871,-2.105 -4.427,-3.247 -0.78,-0.572 -1.58,-1.158 -2.4,-1.76 -0.837,-0.568 -1.694,-1.152 -2.572,-1.749 -1.764,-1.185 -3.609,-2.425 -5.532,-3.718 -1.942,-1.266 -3.908,-2.694 -6.065,-3.972 -2.139,-1.32 -4.358,-2.688 -6.656,-4.105 -2.303,-1.413 -4.665,-2.925 -7.203,-4.293 -5.048,-2.793 -10.365,-5.906 -16.2,-8.767 -11.513,-6.085 -24.77,-11.844 -39.502,-17.491 -3.705,-1.349 -7.48,-2.765 -11.357,-4.137 -3.92,-1.247 -7.914,-2.518 -11.982,-3.813 -2.03,-0.678 -4.113,-1.227 -6.21,-1.805 -2.099,-0.579 -4.217,-1.162 -6.352,-1.749 -1.07,-0.293 -2.143,-0.589 -3.222,-0.885 l -1.622,-0.445 -1.642,-0.385 c -2.196,-0.514 -4.41,-1.032 -6.643,-1.555 -2.237,-0.522 -4.491,-1.049 -6.763,-1.579 -2.29,-0.445 -4.598,-0.894 -6.923,-1.346 -4.659,-0.874 -9.388,-1.837 -14.233,-2.479 -9.662,-1.558 -19.682,-2.666 -30.006,-3.516 -2.584,-0.173 -5.186,-0.347 -7.804,-0.521 -1.31,-0.086 -2.625,-0.173 -3.944,-0.26 l -0.99,-0.063 c -0.334,-0.006 0.047,-0.03 -0.874,-0.022 l -0.479,-0.01 -1.919,-0.04 c -5.125,-0.105 -10.313,-0.213 -15.562,-0.32 -2.554,-0.119 -5.461,0.069 -8.243,0.129 -2.815,0.093 -5.647,0.189 -8.494,0.284 -1.425,0.052 -2.855,0.102 -4.289,0.154 -1.433,0.055 -2.886,0.082 -4.279,0.23 -2.819,0.238 -5.654,0.479 -8.503,0.72 -2.854,0.246 -5.723,0.492 -8.605,0.739 l -2.168,0.187 -2.158,0.295 c -1.44,0.199 -2.885,0.4 -4.333,0.601 -2.899,0.403 -5.813,0.809 -8.74,1.216 -1.466,0.206 -2.934,0.412 -4.407,0.618 -1.477,0.188 -2.926,0.529 -4.397,0.788 -5.862,1.137 -11.813,2.194 -17.776,3.461 -5.924,1.457 -11.901,2.926 -17.929,4.41 -23.974,6.523 -48.251,15.495 -72.097,27.187 -11.934,5.816 -23.749,12.334 -35.355,19.536 -11.633,7.156 -23.019,15.052 -34.133,23.578 -1.392,1.063 -2.83,2.074 -4.188,3.185 -1.356,1.116 -2.713,2.234 -4.072,3.353 -2.718,2.243 -5.443,4.491 -8.175,6.746 -2.783,2.202 -5.343,4.665 -7.987,7.052 -2.63,2.405 -5.267,4.816 -7.91,7.232 -0.656,0.609 -1.331,1.201 -1.974,1.826 l -1.899,1.904 -3.806,3.821 c -2.539,2.555 -5.084,5.116 -7.635,7.683 -2.497,2.618 -4.889,5.345 -7.332,8.038 -2.424,2.711 -4.884,5.404 -7.29,8.154 -18.984,22.228 -35.932,46.916 -50.221,73.522 -1.762,3.34 -3.527,6.685 -5.295,10.034 -1.702,3.383 -3.246,6.852 -4.876,10.285 -1.591,3.45 -3.262,6.874 -4.785,10.368 -1.446,3.528 -2.893,7.06 -4.343,10.597 l -2.168,5.315 c -0.352,0.89 -0.732,1.77 -1.062,2.669 l -0.952,2.712 c -1.266,3.62 -2.533,7.244 -3.802,10.872 l -1.897,5.45 c -0.581,1.834 -1.104,3.687 -1.657,5.532 -1.089,3.697 -2.179,7.399 -3.271,11.103 -1.164,3.687 -1.994,7.465 -2.917,11.223 -0.898,3.766 -1.797,7.535 -2.696,11.307 -0.487,1.879 -0.795,3.795 -1.162,5.701 l -1.068,5.725 c -0.706,3.821 -1.413,7.644 -2.12,11.471 -0.521,3.855 -1.042,7.713 -1.563,11.575 l -0.775,5.796 c -0.248,1.933 -0.553,3.862 -0.677,5.809 -0.316,3.888 -0.632,7.778 -0.948,11.671 -0.282,3.894 -0.711,7.785 -0.748,11.694 -0.116,3.907 -0.232,7.814 -0.349,11.724 l -0.166,5.867 c 0,0.577 -0.029,-0.256 -0.005,1.48 l 0.014,0.683 0.028,1.367 0.057,2.732 0.226,10.937 0.061,2.735 c 0.027,0.923 0.022,1.78 0.114,2.837 l 0.431,6.073 0.9,12.15 0.232,3.038 0.358,2.927 0.73,5.846 1.476,11.694 c 0.586,3.884 1.335,7.745 2,11.619 5.564,30.941 14.544,61.292 26.814,90.104 1.621,3.562 3.242,7.123 4.861,10.681 l 2.441,5.33 1.222,2.662 c 0.41,0.886 0.885,1.74 1.324,2.612 1.799,3.463 3.598,6.925 5.395,10.385 l 2.707,5.18 c 0.931,1.709 1.946,3.372 2.916,5.058 3.948,6.707 7.727,13.501 12.086,19.92 2.117,3.246 4.232,6.49 6.346,9.731 2.186,3.19 4.514,6.28 6.764,9.415 l 3.403,4.68 c 1.147,1.549 2.231,3.144 3.465,4.624 2.408,3.005 4.814,6.006 7.216,9.004 l 3.607,4.488 c 0.59,0.757 1.212,1.486 1.855,2.198 l 1.901,2.156 c 2.537,2.87 5.072,5.736 7.603,8.6 1.287,1.41 2.501,2.886 3.848,4.238 l 3.996,4.093 c 2.664,2.721 5.326,5.44 7.983,8.154 1.304,1.381 2.714,2.653 4.1,3.947 l 4.162,3.871 c 2.778,2.572 5.551,5.139 8.32,7.702 22.69,19.919 47.186,37.145 72.75,51.348 3.202,1.761 6.398,3.518 9.586,5.272 1.575,0.91 3.244,1.644 4.864,2.462 1.632,0.795 3.263,1.589 4.891,2.382 3.258,1.579 6.508,3.154 9.751,4.726 3.312,1.42 6.616,2.836 9.912,4.25 3.303,1.392 6.573,2.837 9.88,4.168 3.343,1.239 6.679,2.474 10.005,3.707 1.665,0.609 3.328,1.218 4.988,1.825 1.668,0.585 3.298,1.265 4.995,1.754 3.366,1.051 6.723,2.099 10.071,3.144 1.673,0.52 3.343,1.04 5.011,1.558 1.671,0.511 3.324,1.068 5.021,1.471 3.373,0.872 6.737,1.741 10.09,2.608 1.677,0.429 3.35,0.858 5.022,1.286 1.674,0.418 3.333,0.88 5.028,1.189 3.37,0.684 6.731,1.366 10.082,2.046 1.673,0.338 3.345,0.675 5.014,1.012 1.673,0.315 3.324,0.723 5.009,0.94 3.355,0.508 6.699,1.014 10.033,1.518 3.333,0.491 6.646,1.028 9.963,1.451 3.329,0.324 6.647,0.648 9.953,0.969 3.302,0.318 6.593,0.634 9.873,0.949 3.286,0.214 6.569,0.325 9.833,0.489 3.263,0.145 6.514,0.291 9.752,0.436 l 2.426,0.096 2.424,-0.016 c 1.614,-0.011 3.225,-0.022 4.833,-0.033 3.213,-0.025 6.413,-0.05 9.6,-0.074 1.698,-0.019 3.392,-0.036 5.082,-0.054 1.506,-0.076 3.01,-0.152 4.51,-0.227 1.501,-0.075 2.998,-0.151 4.493,-0.226 l 2.239,-0.113 1.118,-0.057 1.199,-0.094 c 3.197,-0.26 6.381,-0.519 9.552,-0.777 3.203,-0.22 6.209,-0.643 9.284,-0.973 3.054,-0.37 6.1,-0.645 9.112,-1.128 3.014,-0.442 6.014,-0.882 9.001,-1.32 2.981,-0.462 5.931,-1.05 8.872,-1.566 1.469,-0.267 2.935,-0.533 4.397,-0.798 1.461,-0.269 2.908,-0.607 4.355,-0.906 2.891,-0.618 5.767,-1.233 8.63,-1.845 2.842,-0.697 5.669,-1.391 8.483,-2.081 1.403,-0.35 2.803,-0.7 4.199,-1.049 1.387,-0.39 2.769,-0.78 4.148,-1.169 2.753,-0.78 5.492,-1.555 8.217,-2.327 2.698,-0.852 5.383,-1.7 8.053,-2.543 1.332,-0.423 2.661,-0.846 3.987,-1.267 1.312,-0.46 2.621,-0.919 3.927,-1.377 2.605,-0.921 5.196,-1.837 7.771,-2.748 2.546,-0.987 5.078,-1.969 7.594,-2.945 1.256,-0.488 2.508,-0.975 3.757,-1.46 1.235,-0.52 2.467,-1.038 3.695,-1.554 2.449,-1.041 4.884,-2.074 7.303,-3.102 2.404,-1.059 4.76,-2.189 7.116,-3.269 4.729,-2.121 9.276,-4.474 13.784,-6.722 2.266,-1.099 4.45,-2.328 6.637,-3.506 2.18,-1.186 4.345,-2.364 6.494,-3.534 2.114,-1.231 4.213,-2.453 6.296,-3.666 2.077,-1.221 4.159,-2.39 6.158,-3.672 4.015,-2.529 8.006,-4.941 11.787,-7.551 30.615,-20.321 54.097,-42.052 71.644,-61.21 17.562,-19.213 29.296,-35.864 36.842,-47.403 1.858,-2.903 3.5,-5.468 4.917,-7.681 1.344,-2.257 2.474,-4.156 3.385,-5.685 1.804,-3.06 2.735,-4.639 2.735,-4.639 0,0 -1.19,1.395 -3.496,4.098 -1.146,1.35 -2.57,3.027 -4.262,5.021 -1.74,1.946 -3.756,4.202 -6.038,6.755 -4.59,5.072 -10.406,11.171 -17.392,18.134 -1.752,1.734 -3.635,3.471 -5.545,5.3 -1.911,1.829 -3.894,3.708 -6.006,5.58 -2.091,1.886 -4.247,3.832 -6.468,5.836 -2.274,1.938 -4.613,3.932 -7.017,5.98 -9.725,8.047 -20.729,16.606 -33.242,25.068 -12.531,8.429 -26.411,16.968 -41.826,24.869 -3.806,2.055 -7.826,3.86 -11.813,5.84 -1.987,1.004 -4.052,1.892 -6.109,2.828 -2.058,0.928 -4.131,1.864 -6.219,2.806 -2.114,0.879 -4.243,1.764 -6.388,2.656 -2.148,0.877 -4.281,1.822 -6.49,2.634 -4.395,1.673 -8.809,3.441 -13.382,4.967 -9.06,3.268 -18.527,6.072 -28.218,8.797 -2.442,0.615 -4.897,1.234 -7.366,1.856 -1.233,0.314 -2.468,0.629 -3.707,0.945 -1.248,0.279 -2.5,0.559 -3.755,0.84 -2.507,0.56 -5.029,1.122 -7.563,1.687 -2.55,0.487 -5.113,0.977 -7.689,1.469 -1.287,0.246 -2.576,0.492 -3.87,0.739 -1.301,0.207 -2.605,0.413 -3.913,0.621 -2.61,0.419 -5.234,0.841 -7.871,1.264 -2.647,0.344 -5.308,0.69 -7.981,1.037 -1.337,0.165 -2.67,0.369 -4.017,0.504 -1.347,0.132 -2.697,0.264 -4.05,0.397 -2.707,0.25 -5.415,0.571 -8.149,0.768 -2.733,0.191 -5.479,0.382 -8.237,0.574 -2.75,0.238 -5.532,0.27 -8.313,0.397 -2.768,0.086 -5.618,0.276 -8.321,0.247 -2.73,0.019 -5.473,0.039 -8.226,0.059 l -1.034,0.008 -1.119,-0.023 -2.242,-0.042 c -1.496,-0.028 -2.995,-0.057 -4.497,-0.085 -1.502,-0.029 -3.007,-0.057 -4.515,-0.085 -0.263,-10e-4 0.249,-0.017 -0.221,-0.027 l -0.536,-0.034 -1.073,-0.067 -2.148,-0.136 c -2.864,-0.177 -5.739,-0.356 -8.625,-0.535 -1.441,-0.088 -2.886,-0.176 -4.332,-0.265 l -2.171,-0.131 -2.167,-0.242 c -2.89,-0.321 -5.79,-0.643 -8.701,-0.967 -2.908,-0.332 -5.829,-0.608 -8.748,-0.983 -2.907,-0.471 -5.823,-0.943 -8.749,-1.418 -2.922,-0.469 -5.854,-0.94 -8.796,-1.413 -2.924,-0.572 -5.841,-1.233 -8.775,-1.836 -2.93,-0.614 -5.87,-1.23 -8.819,-1.848 -1.481,-0.27 -2.925,-0.729 -4.39,-1.094 -1.461,-0.385 -2.923,-0.772 -4.388,-1.158 -2.927,-0.769 -5.864,-1.54 -8.809,-2.314 -1.48,-0.351 -2.923,-0.853 -4.38,-1.309 -1.455,-0.46 -2.912,-0.921 -4.372,-1.382 -2.917,-0.914 -5.844,-1.831 -8.778,-2.75 -1.478,-0.423 -2.909,-1.001 -4.357,-1.528 -1.446,-0.536 -2.893,-1.071 -4.342,-1.607 -2.898,-1.069 -5.803,-2.14 -8.715,-3.213 -1.47,-0.498 -2.872,-1.185 -4.311,-1.775 -1.431,-0.611 -2.863,-1.223 -4.297,-1.836 -2.871,-1.211 -5.75,-2.425 -8.635,-3.642 -2.847,-1.304 -5.655,-2.714 -8.495,-4.065 -2.831,-1.365 -5.669,-2.734 -8.513,-4.106 -2.774,-1.51 -5.555,-3.024 -8.341,-4.54 l -4.185,-2.267 c -1.388,-0.771 -2.824,-1.456 -4.167,-2.316 -2.724,-1.647 -5.454,-3.296 -8.19,-4.949 -21.799,-13.331 -42.605,-29.029 -61.762,-46.925 -2.338,-2.295 -4.68,-4.592 -7.026,-6.894 l -3.519,-3.452 c -1.173,-1.152 -2.37,-2.281 -3.462,-3.517 -2.235,-2.417 -4.473,-4.838 -6.715,-7.262 l -3.368,-3.631 c -1.138,-1.197 -2.144,-2.515 -3.225,-3.767 -2.136,-2.524 -4.274,-5.052 -6.415,-7.583 l -1.608,-1.895 c -0.546,-0.625 -1.071,-1.267 -1.563,-1.935 l -3.027,-3.954 c -2.022,-2.633 -4.047,-5.269 -6.074,-7.908 -1.046,-1.293 -1.941,-2.701 -2.902,-4.06 l -2.846,-4.107 c -15.256,-21.857 -28.272,-45.481 -38.697,-70.29 -10.239,-24.885 -17.923,-50.913 -22.634,-77.501 -0.579,-3.325 -1.247,-6.636 -1.762,-9.972 l -1.286,-10.047 -0.652,-5.022 -0.322,-2.508 -0.182,-2.423 -0.761,-9.688 -0.399,-4.843 c -0.087,-0.76 -0.088,-1.729 -0.117,-2.63 l -0.078,-2.734 -0.327,-10.935 -0.081,-2.732 -0.041,-1.366 -0.02,-0.683 c 0.011,1.281 0.011,-0.008 0.017,0.114 l 0.11,-5.058 0.203,-10.113 c -0.02,-3.375 0.346,-6.724 0.557,-10.082 0.236,-3.356 0.471,-6.712 0.706,-10.064 0.07,-1.682 0.32,-3.343 0.511,-5.011 l 0.597,-4.999 c 0.393,-3.334 0.785,-6.665 1.177,-9.994 0.564,-3.303 1.127,-6.604 1.69,-9.901 l 0.838,-4.948 c 0.288,-1.646 0.516,-3.305 0.92,-4.927 0.724,-3.261 1.447,-6.52 2.169,-9.776 0.724,-3.256 1.35,-6.535 2.302,-9.727 13.263,-51.62 37.499,-99.508 69.106,-139.721 31.684,-40.209 70.545,-72.625 111.711,-96.038 20.591,-11.728 41.748,-21.267 62.909,-28.752 21.173,-7.475 42.384,-12.674 63.05,-16.235 2.586,-0.45 5.16,-0.896 7.719,-1.34 1.29,-0.253 2.539,-0.377 3.794,-0.533 1.255,-0.153 2.507,-0.305 3.755,-0.458 2.502,-0.311 4.989,-0.621 7.463,-0.928 1.239,-0.158 2.475,-0.317 3.708,-0.474 0.627,-0.07 1.208,-0.177 1.872,-0.218 l 1.966,-0.14 c 5.237,-0.373 10.412,-0.742 15.526,-1.107 l 1.915,-0.136 0.477,-0.035 c -0.602,-0.003 0.098,-0.007 0.082,-0.011 l 0.92,-0.026 c 1.225,-0.037 2.447,-0.074 3.665,-0.111 2.44,-0.076 4.864,-0.152 7.273,-0.227 9.637,-0.143 19.054,-0.023 28.203,0.477 4.589,0.125 9.082,0.573 13.525,0.937 2.223,0.182 4.43,0.364 6.62,0.542 2.182,0.26 4.346,0.517 6.494,0.773 17.195,2.021 33.231,5 47.883,8.627 3.7,0.795 7.242,1.848 10.745,2.79 3.489,0.978 6.95,1.826 10.239,2.929 3.319,1.037 6.56,2.049 9.723,3.037 3.162,1.007 6.187,2.145 9.173,3.17 11.922,4.158 22.325,8.602 31.372,12.551 8.956,4.126 16.561,7.766 22.576,10.976 6.104,3.069 10.666,5.762 13.771,7.47 C -1.603,-0.89 0,0 0,0" />
          </g>
        </g>
        <text
           xml:space="preserve"
           style="font-style:normal;font-weight:normal;font-size:25.31958771px;line-height:93.99999976%;font-family:sans-serif;letter-spacing:0px;word-spacing:0px;display:inline;fill:#373535;fill-opacity:1;stroke:none;stroke-width:0;stroke-linecap:butt;stroke-linejoin:miter;stroke-miterlimit:4;stroke-dasharray:none;stroke-dashoffset:0;stroke-opacity:1"
           x="1062.7184"
           y="-4535.79"
           id="text4610-0-3"
           sodipodi:linespacing="94%"
           transform="scale(0.84714396,1.1804369)"><tspan
             id="tspan8085"
             sodipodi:role="line"
             x="1062.7184"
             y="-4535.79"
             style="font-style:normal;font-variant:normal;font-weight:bold;font-stretch:normal;font-size:125.48226929px;line-height:93.99999976%;font-family:rubik;-inkscape-font-specification:'rubik Bold';fill:#373535;fill-opacity:1;stroke:none;stroke-width:0;stroke-miterlimit:4;stroke-dasharray:none;stroke-dashoffset:0;stroke-opacity:1"><tspan
   id="tspan8133"
   style="font-style:normal;font-variant:normal;font-weight:bold;font-stretch:normal;font-size:130.9085083px;line-height:93.99999976%;font-family:rubik;-inkscape-font-specification:'rubik Bold';fill:#373535;fill-opacity:1;stroke:none;stroke-width:0;stroke-miterlimit:4;stroke-dasharray:none;stroke-dashoffset:0;stroke-opacity:1">SOFTWARE &amp; </tspan>HARDWARE</tspan><tspan
             id="tspan8077"
             sodipodi:role="line"
             x="1062.7184"
             y="-4347.5557"
             style="font-style:normal;font-variant:normal;font-weight:bold;font-stretch:normal;font-size:218.78979492px;line-height:93.99999976%;font-family:rubik;-inkscape-font-specification:'rubik Bold';fill:#373535;fill-opacity:1;stroke:none;stroke-width:0;stroke-miterlimit:4;stroke-dasharray:none;stroke-dashoffset:0;stroke-opacity:1">DEVELOPMENT</tspan><tspan
             sodipodi:role="line"
             x="1062.7184"
             y="-4188.7036"
             style="font-style:normal;font-variant:normal;font-weight:bold;font-stretch:normal;font-size:155.6761322px;line-height:93.99999976%;font-family:rubik;-inkscape-font-specification:'rubik Bold';fill:#373535;fill-opacity:1;stroke:none;stroke-width:0;stroke-miterlimit:4;stroke-dasharray:none;stroke-dashoffset:0;stroke-opacity:1"
             id="tspan8145">FOR SOCIAL CHANGE</tspan></text>
      </g>
      <rect
         style="display:inline;fill:#c90405;fill-opacity:1;fill-rule:evenodd;stroke:#c90405;stroke-width:2.33718252;stroke-opacity:1"
         id="rect6069"
         width="3009.4739"
         height="808.56323"
         x="1.1684816"
         y="-2961.5205" />
      <g
         id="g4476"
         transform="matrix(1.7438933,0,0,-1.7434571,22.906933,460.07075)"
         style="display:inline;fill:#ffffff">
        <g
           transform="translate(297.9648,1765.6016)"
           id="g928"
           style="fill:#ffffff">
          <path
             inkscape:connector-curvature="0"
             id="path930"
             style="fill:#ffffff;fill-opacity:1;fill-rule:nonzero;stroke:none"
             d="m 0,0 0,-15.071 -49.04,0 c -1.47,0 -2.745,-0.077 -3.827,-0.232 -0.774,-0.232 -1.662,-0.695 -2.666,-1.39 -1.702,-1.549 -2.551,-3.983 -2.551,-7.305 l 0,-1.623 58.084,0.232 0,-15.187 -58.084,-0.233 0,-49.273 -19.361,0 0,49.273 -12.173,0 0,15.188 12.173,0 0,6.376 c 0,3.4 0.307,6.241 0.926,8.522 0.619,2.278 1.894,4.386 3.827,6.319 1.931,1.929 4.018,3.168 6.26,3.709 2.242,0.54 5.024,0.812 8.348,0.812 L 0,0 Z" />
        </g>
        <g
           transform="translate(337.0342,1749.1396)"
           id="g932"
           style="fill:#ffffff">
          <path
             inkscape:connector-curvature="0"
             id="path934"
             style="fill:#ffffff;fill-opacity:1;fill-rule:nonzero;stroke:none"
             d="m 0,0 c -1.933,-1.934 -2.898,-4.252 -2.898,-6.957 l 0,-15.998 c 0,-2.706 0.965,-5.024 2.898,-6.957 1.932,-1.933 4.25,-2.898 6.956,-2.898 l 49.621,0 c 2.705,0 5.024,0.965 6.956,2.898 1.931,1.933 2.899,4.251 2.899,6.957 l 0,15.998 c 0,2.705 -0.968,5.023 -2.899,6.957 -1.932,1.931 -4.251,2.898 -6.956,2.898 l -49.621,0 C 4.25,2.898 1.932,1.931 0,0 m 1.16,17.97 62.142,0 c 6.645,0 12.306,-2.338 16.984,-7.015 C 84.962,6.278 87.3,0.617 87.3,-6.029 l 0,-18.781 c 0,-6.572 -2.338,-12.213 -7.014,-16.927 -4.678,-4.715 -10.339,-7.073 -16.984,-7.073 l -62.142,0 c -6.571,0 -12.214,2.358 -16.927,7.073 -4.715,4.714 -7.073,10.355 -7.073,16.927 l 0,18.781 c 0,6.646 2.358,12.307 7.073,16.984 4.713,4.677 10.356,7.015 16.927,7.015" />
        </g>
        <g
           transform="translate(461.6641,1725.4883)"
           id="g936"
           style="fill:#ffffff">
          <path
             inkscape:connector-curvature="0"
             id="path938"
             style="fill:#ffffff;fill-opacity:1;fill-rule:nonzero;stroke:none"
             d="m 0,0 c -6.028,0 -10.917,1.758 -14.666,5.275 -3.749,3.517 -5.622,8.289 -5.622,14.319 0,7.959 3.13,13.719 9.391,17.273 3.013,1.699 6.646,2.551 10.897,2.551 l 82.084,0 0,-15.188 -78.258,0 c -4.252,0 -6.376,-1.622 -6.376,-4.869 0,-3.246 2.124,-4.869 6.376,-4.869 l 61.446,-0.116 c 6.03,0 10.917,-1.778 14.666,-5.332 3.749,-3.557 5.624,-8.348 5.624,-14.377 0,-8.114 -3.13,-13.874 -9.392,-17.274 -2.938,-1.623 -6.57,-2.436 -10.898,-2.436 l -85.56,0 0,15.189 81.734,-0.117 c 4.25,0 6.377,1.661 6.377,4.986 0,3.245 -2.127,4.87 -6.377,4.87 L 0,0 Z" />
        </g>
        <g
           transform="translate(582.1211,1725.4883)"
           id="g940"
           style="fill:#ffffff">
          <path
             inkscape:connector-curvature="0"
             id="path942"
             style="fill:#ffffff;fill-opacity:1;fill-rule:nonzero;stroke:none"
             d="m 0,0 c -6.029,0 -10.918,1.758 -14.666,5.275 -3.751,3.517 -5.623,8.289 -5.623,14.319 0,7.959 3.131,13.719 9.391,17.273 3.014,1.699 6.647,2.551 10.898,2.551 l 82.082,0 0,-15.188 -78.257,0 c -4.251,0 -6.376,-1.622 -6.376,-4.869 0,-3.246 2.125,-4.869 6.376,-4.869 l 61.446,-0.116 c 6.029,0 10.917,-1.778 14.667,-5.332 3.748,-3.557 5.623,-8.348 5.623,-14.377 0,-8.114 -3.13,-13.874 -9.391,-17.274 -2.939,-1.623 -6.57,-2.436 -10.899,-2.436 l -85.56,0 0,15.189 81.734,-0.117 c 4.25,0 6.377,1.661 6.377,4.986 0,3.245 -2.127,4.87 -6.377,4.87 L 0,0 Z" />
        </g>
        <g
           transform="translate(769.7041,1715.6338)"
           id="g944"
           style="fill:#ffffff">
          <path
             inkscape:connector-curvature="0"
             id="path946"
             style="fill:#ffffff;fill-opacity:1;fill-rule:nonzero;stroke:none"
             d="m 0,0 0,9.854 -61.91,0 c -4.098,0 -6.145,-1.662 -6.145,-4.985 C -68.055,1.623 -66.008,0 -61.91,0 L 0,0 Z m -82.895,34.085 0,15.187 77.331,0 c 7.651,0 13.717,-2.009 18.201,-6.029 2.783,-2.473 4.675,-5.372 5.68,-8.694 0.696,-2.474 1.044,-5.952 1.044,-10.434 l 0,-39.303 -86.372,0 c -6.339,0 -11.324,1.739 -14.956,5.217 -3.635,3.478 -5.449,8.348 -5.449,14.609 0,6.26 1.835,11.109 5.507,14.549 3.67,3.439 8.637,5.16 14.898,5.16 l 67.011,0 0,0.58 c 0,4.791 -1.779,7.689 -5.333,8.695 -1.084,0.307 -2.745,0.463 -4.985,0.463 l -72.577,0 z" />
        </g>
        <g
           transform="translate(829.6426,1725.4883)"
           id="g948"
           style="fill:#ffffff">
          <path
             inkscape:connector-curvature="0"
             id="path950"
             style="fill:#ffffff;fill-opacity:1;fill-rule:nonzero;stroke:none"
             d="m 0,0 c -6.029,0 -10.918,1.758 -14.666,5.275 -3.75,3.517 -5.623,8.289 -5.623,14.319 0,7.959 3.131,13.719 9.391,17.273 3.014,1.699 6.647,2.551 10.898,2.551 l 82.082,0 0,-15.188 -78.257,0 c -4.251,0 -6.376,-1.622 -6.376,-4.869 0,-3.246 2.125,-4.869 6.376,-4.869 l 61.446,-0.116 c 6.029,0 10.917,-1.778 14.667,-5.332 3.748,-3.557 5.623,-8.348 5.623,-14.377 0,-8.114 -3.13,-13.874 -9.391,-17.274 -2.939,-1.623 -6.57,-2.436 -10.899,-2.436 l -85.56,0 0,15.189 81.734,-0.117 c 4.25,0 6.377,1.661 6.377,4.986 0,3.245 -2.127,4.87 -6.377,4.87 L 0,0 Z" />
        </g>
        <path
           inkscape:connector-curvature="0"
           id="path952"
           style="fill:#ffffff;fill-opacity:1;fill-rule:nonzero;stroke:none"
           d="m 949.171,1700.445 -19.361,0 0,64.461 19.361,0 0,-64.461 z m 0,70.954 -19.361,0 0,15.419 19.361,0 0,-15.419 z" />
        <g
           transform="translate(1055.9482,1715.6338)"
           id="g954"
           style="fill:#ffffff">
          <path
             inkscape:connector-curvature="0"
             id="path956"
             style="fill:#ffffff;fill-opacity:1;fill-rule:nonzero;stroke:none"
             d="m 0,0 0,9.854 -61.91,0 c -4.098,0 -6.145,-1.662 -6.145,-4.985 C -68.055,1.623 -66.008,0 -61.91,0 L 0,0 Z m -82.895,34.085 0,15.187 77.331,0 c 7.651,0 13.717,-2.009 18.202,-6.029 2.782,-2.473 4.674,-5.372 5.68,-8.694 0.696,-2.474 1.044,-5.952 1.044,-10.434 l 0,-39.303 -86.373,0 c -6.339,0 -11.324,1.739 -14.956,5.217 -3.634,3.478 -5.449,8.348 -5.449,14.609 0,6.26 1.835,11.109 5.507,14.549 3.67,3.439 8.638,5.16 14.898,5.16 l 67.011,0 0,0.58 c 0,4.791 -1.778,7.689 -5.333,8.695 -1.083,0.307 -2.744,0.463 -4.985,0.463 l -72.577,0 z" />
        </g>
        <path
           inkscape:connector-curvature="0"
           id="path958"
           style="fill:#ffffff;fill-opacity:1;fill-rule:nonzero;stroke:none"
           d="m 1095.598,1715.865 18.666,0 0,-15.42 -18.666,0 0,15.42 z" />
        <g
           transform="translate(1157.7373,1749.1396)"
           id="g960"
           style="fill:#ffffff">
          <path
             inkscape:connector-curvature="0"
             id="path962"
             style="fill:#ffffff;fill-opacity:1;fill-rule:nonzero;stroke:none"
             d="m 0,0 c -1.933,-1.934 -2.898,-4.252 -2.898,-6.957 l 0,-15.998 c 0,-2.706 0.965,-5.024 2.898,-6.957 1.932,-1.933 4.25,-2.898 6.956,-2.898 l 49.621,0 c 2.705,0 5.024,0.965 6.956,2.898 1.932,1.933 2.899,4.251 2.899,6.957 l 0,15.998 c 0,2.705 -0.967,5.023 -2.899,6.957 -1.932,1.931 -4.251,2.898 -6.956,2.898 l -49.621,0 C 4.25,2.898 1.932,1.931 0,0 m 1.16,17.97 62.142,0 c 6.645,0 12.307,-2.338 16.984,-7.015 C 84.962,6.278 87.3,0.617 87.3,-6.029 l 0,-18.781 c 0,-6.572 -2.338,-12.213 -7.014,-16.927 -4.677,-4.715 -10.339,-7.073 -16.984,-7.073 l -62.142,0 c -6.571,0 -12.213,2.358 -16.927,7.073 -4.715,4.714 -7.073,10.355 -7.073,16.927 l 0,18.781 c 0,6.646 2.358,12.307 7.073,16.984 4.714,4.677 10.356,7.015 16.927,7.015" />
        </g>
        <g
           transform="translate(1336.2783,1742.1826)"
           id="g964"
           style="fill:#ffffff">
          <path
             inkscape:connector-curvature="0"
             id="path966"
             style="fill:#ffffff;fill-opacity:1;fill-rule:nonzero;stroke:none"
             d="m 0,0 c 0,2.164 -0.695,3.865 -2.087,5.103 -1.005,0.925 -2.55,1.39 -4.638,1.39 l -48.113,0.115 0,-48.345 -19.361,0 0,64.461 70.72,0.232 c 7.575,0 13.372,-2.127 17.391,-6.376 3.632,-3.866 5.449,-8.309 5.449,-13.333 l 0,-6.726 L 0,-3.479 0,0 Z" />
        </g>
        <g
           transform="translate(1405.7227,1748.791)"
           id="g968"
           style="fill:#ffffff">
          <path
             inkscape:connector-curvature="0"
             id="path970"
             style="fill:#ffffff;fill-opacity:1;fill-rule:nonzero;stroke:none"
             d="m 0,0 c -4.482,0 -7.883,-1.622 -10.201,-4.869 -2.011,-2.782 -3.015,-6.531 -3.015,-11.245 0,-4.716 1.004,-8.464 3.015,-11.246 2.24,-3.246 5.64,-4.869 10.201,-4.869 l 67.36,0.231 0,31.883 L 0,0 Z m 86.721,16 0,-66.2 c 0,-7.574 -2.202,-13.486 -6.609,-17.738 -4.405,-4.25 -10.048,-6.376 -16.925,-6.376 l -89.62,0.232 0,15.071 86.141,-0.115 c 3.014,0 5.101,0.888 6.261,2.666 0.927,1.392 1.391,3.671 1.391,6.839 l 0,1.275 -69.91,0 c -10.049,0 -17.721,2.842 -23.013,8.522 -5.294,5.68 -7.942,13.583 -7.942,23.71 0,10.124 2.648,18.028 7.942,23.708 5.292,5.681 12.964,8.521 23.013,8.521 L 86.721,16 Z" />
        </g>
      </g>
      <g
         transform="translate(88.582799,0)"
         id="g4253">
        <g
           id="g5151"
           transform="translate(-18.751372,0)">
          <g
             transform="matrix(0.87156805,0,0,0.87156805,209.5699,23.526384)"
             id="g5008">
            <text
               xml:space="preserve"
               style="font-style:normal;font-weight:normal;font-size:26.09012604px;line-height:101.99999809%;font-family:sans-serif;letter-spacing:0px;word-spacing:0px;display:inline;fill:#1a1a1a;fill-opacity:1;stroke:none;stroke-width:0;stroke-linecap:butt;stroke-linejoin:miter;stroke-miterlimit:4;stroke-dasharray:none;stroke-dashoffset:0;stroke-opacity:1"
               x="1814.245"
               y="-1426.7527"
               id="text4610-0-36"
               sodipodi:linespacing="102%"
               transform="scale(0.86042924,1.1622106)"><tspan
                 sodipodi:role="line"
                 x="1814.245"
                 y="-1426.7527"
                 style="font-style:normal;font-variant:normal;font-weight:bold;font-stretch:normal;font-size:181.12535095px;line-height:100.99999905%;font-family:rubik;-inkscape-font-specification:'rubik Bold';fill:#1a1a1a;fill-opacity:1;stroke:none;stroke-width:0;stroke-miterlimit:4;stroke-dasharray:none;stroke-dashoffset:0;stroke-opacity:1"
                 id="tspan5108-7">EDUCATION</tspan><tspan
                 sodipodi:role="line"
                 x="1814.245"
                 y="-1309.3253"
                 style="font-style:normal;font-variant:normal;font-weight:bold;font-stretch:normal;font-size:98.92229462px;line-height:100.99999905%;font-family:rubik;-inkscape-font-specification:'rubik Bold';fill:#1a1a1a;fill-opacity:1;stroke:none;stroke-width:0;stroke-miterlimit:4;stroke-dasharray:none;stroke-dashoffset:0;stroke-opacity:1"
                 id="tspan8139-5">CODING PROGRAMS</tspan><tspan
                 sodipodi:role="line"
                 x="1814.245"
                 y="-1209.4138"
                 style="font-style:normal;font-variant:normal;font-weight:bold;font-stretch:normal;font-size:98.92229462px;line-height:100.99999905%;font-family:rubik;-inkscape-font-specification:'rubik Bold';fill:#1a1a1a;fill-opacity:1;stroke:none;stroke-width:0;stroke-miterlimit:4;stroke-dasharray:none;stroke-dashoffset:0;stroke-opacity:1"
                 id="tspan8125-3">OPEN TECH SUMMITS</tspan><tspan
                 sodipodi:role="line"
                 x="1814.245"
                 y="-1109.5023"
                 style="font-style:normal;font-variant:normal;font-weight:bold;font-stretch:normal;font-size:98.92229462px;line-height:100.99999905%;font-family:rubik;-inkscape-font-specification:'rubik Bold';fill:#1a1a1a;fill-opacity:1;stroke:none;stroke-width:0;stroke-miterlimit:4;stroke-dasharray:none;stroke-dashoffset:0;stroke-opacity:1"
                 id="tspan4497">HACKATHONS</tspan></text>
            <path
               inkscape:connector-curvature="0"
               id="path880-5"
               style="fill:#1a1a1a;fill-opacity:0;stroke:#c90405;stroke-width:46.80612946;stroke-linecap:butt;stroke-linejoin:miter;stroke-miterlimit:10;stroke-dasharray:none;stroke-opacity:1"
               d="m 2591.2708,-1547.986 c 0,319.7504 -259.2086,578.95948 -578.9597,578.95948 -319.7501,0 -578.9585,-259.20908 -578.9585,-578.95948 0,-319.751 259.2084,-578.9596 578.9585,-578.9596 319.7511,0 578.9597,259.2086 578.9597,578.9596 z" />
          </g>
          <g
             transform="matrix(0.87156803,0,0,0.87156803,154.15221,82.60221)"
             id="g5016">
            <text
               xml:space="preserve"
               style="font-style:normal;font-weight:normal;font-size:40.81289673px;line-height:92.00000167%;font-family:sans-serif;letter-spacing:0px;word-spacing:0px;fill:#1a1a1a;fill-opacity:1;stroke:none;stroke-width:0.2;stroke-linecap:butt;stroke-linejoin:miter;stroke-miterlimit:4;stroke-dasharray:none;stroke-dashoffset:0;stroke-opacity:1"
               x="479.52628"
               y="-765.47241"
               id="text4610-6"
               sodipodi:linespacing="92.000002%"
               transform="scale(0.89211906,1.1209266)"><tspan
                 sodipodi:role="line"
                 x="479.52628"
                 y="-765.47241"
                 style="font-style:normal;font-variant:normal;font-weight:bold;font-stretch:normal;font-size:192.4440155px;line-height:92.00000167%;font-family:rubik;-inkscape-font-specification:'rubik Bold';fill:#1a1a1a;fill-opacity:1;stroke:none;stroke-width:0.2;stroke-miterlimit:4;stroke-dasharray:none;stroke-dashoffset:0;stroke-opacity:1"
                 id="tspan4504">BUSINESS</tspan><tspan
                 sodipodi:role="line"
                 x="479.52628"
                 y="-642.24152"
                 style="font-style:normal;font-variant:normal;font-weight:bold;font-stretch:normal;font-size:118.30558777px;line-height:92.00000167%;font-family:rubik;-inkscape-font-specification:'rubik Bold';fill:#1a1a1a;fill-opacity:1;stroke:none;stroke-width:0.2;stroke-miterlimit:4;stroke-dasharray:none;stroke-dashoffset:0;stroke-opacity:1"
                 id="tspan4508">OPEN SOURCE</tspan><tspan
                 sodipodi:role="line"
                 x="479.52628"
                 y="-533.40039"
                 style="font-style:normal;font-variant:normal;font-weight:bold;font-stretch:normal;font-size:118.30558777px;line-height:92.00000167%;font-family:rubik;-inkscape-font-specification:'rubik Bold';fill:#1a1a1a;fill-opacity:1;stroke:none;stroke-width:0.2;stroke-miterlimit:4;stroke-dasharray:none;stroke-dashoffset:0;stroke-opacity:1"
                 id="tspan4516">ACCELERATOR</tspan><tspan
                 id="tspan4658"
                 sodipodi:role="line"
                 x="479.52628"
                 y="-424.55923"
                 style="font-style:normal;font-variant:normal;font-weight:bold;font-stretch:normal;font-size:118.30558777px;line-height:92.00000167%;font-family:rubik;-inkscape-font-specification:'rubik Bold';fill:#1a1a1a;fill-opacity:1;stroke:none;stroke-width:0.2;stroke-miterlimit:4;stroke-dasharray:none;stroke-dashoffset:0;stroke-opacity:1">CONSULTING</tspan></text>
            <path
               inkscape:connector-curvature="0"
               id="path880-3"
               style="display:inline;fill:#1a1a1a;fill-opacity:0;stroke:#c90405;stroke-width:46.52911377;stroke-linecap:butt;stroke-linejoin:miter;stroke-miterlimit:4;stroke-dasharray:none;stroke-opacity:1"
               d="m 1444.8471,-742.88489 c 0,319.82684 -259.2706,579.09791 -579.09808,579.09791 -319.82675,0 -579.09727,-259.27107 -579.09727,-579.09791 0,-319.82771 259.27052,-579.09821 579.09727,-579.09821 319.82748,0 579.09808,259.2705 579.09808,579.09821 z" />
          </g>
        </g>
        <text
           xml:space="preserve"
           style="font-style:normal;font-weight:normal;font-size:27.08288383px;line-height:129.99999523%;font-family:sans-serif;letter-spacing:0px;word-spacing:0px;fill:#1a1a1a;fill-opacity:1;stroke:none;stroke-width:1px;stroke-linecap:butt;stroke-linejoin:miter;stroke-opacity:1"
           x="1417.4139"
           y="410.33472"
           id="text4883"
           sodipodi:linespacing="130%"><tspan
             sodipodi:role="line"
             id="tspan4885"
             x="1417.4139"
             y="410.33472"
             style="font-style:italic;font-variant:normal;font-weight:500;font-stretch:normal;font-size:169.26803589px;line-height:129.99999523%;font-family:Rubik;-inkscape-font-specification:'Rubik Medium Italic';text-align:center;text-anchor:middle;fill:#1a1a1a;fill-opacity:1">Improving People's Lives</tspan><tspan
             sodipodi:role="line"
             x="1417.4139"
             y="630.38318"
             style="font-style:italic;font-variant:normal;font-weight:500;font-stretch:normal;font-size:169.26803589px;line-height:129.99999523%;font-family:Rubik;-inkscape-font-specification:'Rubik Medium Italic';text-align:center;text-anchor:middle;fill:#1a1a1a;fill-opacity:1"
             id="tspan4887">with Open Tech</tspan></text>
      </g>
    </g>
  </g>
</svg>
