<?xml version="1.0" encoding="UTF-8" standalone="no"?>
<svg
   xmlns:dc="http://purl.org/dc/elements/1.1/"
   xmlns:cc="http://creativecommons.org/ns#"
   xmlns:rdf="http://www.w3.org/1999/02/22-rdf-syntax-ns#"
   xmlns:svg="http://www.w3.org/2000/svg"
   xmlns="http://www.w3.org/2000/svg"
   id="svg4639"
   xml:space="preserve"
   enable-background="new 0 0 1600 350"
   viewBox="0 0 1421.6562 366.87894"
   height="366.87894"
   width="1421.6561"
   y="0px"
   x="0px"
   version="1.1"><metadata
   id="metadata4645"><rdf:RDF><cc:Work
       rdf:about=""><dc:format>image/svg+xml</dc:format><dc:type
         rdf:resource="http://purl.org/dc/dcmitype/StillImage" /><dc:title></dc:title></cc:Work></rdf:RDF></metadata><defs
   id="defs4643" />
<g
   transform="translate(40.764347,27.070065)"
   id="layer1" /><g
   transform="translate(40.764347,27.070065)"
   id="Ebene_2">
</g>
<g
   transform="translate(40.764347,27.070065)"
   id="Ebene_5">
	<g
   id="g4636">
		<g
   id="g4608">
			<path
   style="fill:#ffffff"
   id="path4594"
   d="m 845.719,119.855 c 7.524,11.172 11.286,26.943 11.286,47.31 0,12.465 -1.938,23.599 -5.813,33.401 -3.876,9.805 -9.462,17.482 -16.758,23.029 -7.297,5.546 -15.811,8.321 -25.536,8.321 -12.163,0 -21.967,-4.253 -29.412,-12.769 v 55.633 l -36.024,3.876 V 106.974 h 31.692 l 1.824,13.452 c 4.71,-5.928 10.068,-10.295 16.074,-13.11 6.003,-2.811 12.044,-4.218 18.125,-4.218 15.505,0 27.018,5.586 34.542,16.757 z m -26.106,47.767 c 0,-14.286 -1.636,-24.204 -4.902,-29.754 -3.271,-5.547 -8.247,-8.322 -14.934,-8.322 -3.801,0 -7.488,1.254 -11.058,3.762 -3.573,2.508 -6.651,5.967 -9.234,10.374 v 51.072 c 4.863,7.146 11.019,10.716 18.468,10.716 14.439,-0.001 21.66,-12.616 21.66,-37.848 z" />
			
			<path
   style="fill:#ffffff"
   id="path4598"
   d="m 969.414,112.673 c 5.928,6.384 8.892,15.354 8.892,26.904 v 88.464 h -36.023 v -82.308 c 0,-6.078 -0.951,-10.295 -2.851,-12.654 -1.902,-2.355 -4.752,-3.534 -8.55,-3.534 -7.296,0 -14.289,5.244 -20.976,15.732 v 82.764 H 873.882 V 106.974 h 31.464 l 2.509,14.364 c 5.318,-6.078 10.979,-10.638 16.985,-13.68 6.003,-3.039 12.654,-4.56 19.95,-4.56 10.488,0 18.696,3.192 24.624,9.575 z" />
			<path
   style="fill:#ffffff"
   id="path4600"
   d="m 1071.557,98.766 v 129.276 h -37.392 V 98.766 H 993.352 V 70.038 h 120.84 l -3.647,28.728 z" />
			<path
   style="fill:#ffffff"
   id="path4602"
   d="m 1215.197,178.109 h -74.783 c 1.062,10.186 3.876,17.329 8.436,21.432 4.56,4.103 10.865,6.156 18.924,6.156 4.863,0 9.576,-0.873 14.136,-2.622 4.561,-1.745 9.498,-4.446 14.82,-8.095 l 14.82,20.064 c -14.136,11.25 -29.868,16.872 -47.196,16.872 -19.607,0 -34.656,-5.774 -45.144,-17.328 -10.488,-11.55 -15.732,-27.054 -15.732,-46.512 0,-12.312 2.202,-23.37 6.612,-33.174 4.406,-9.804 10.865,-17.556 19.38,-23.256 8.511,-5.7 18.696,-8.55 30.552,-8.55 17.478,0 31.158,5.472 41.04,16.416 9.879,10.944 14.82,26.145 14.82,45.6 0,5.017 -0.229,9.349 -0.685,12.997 z m -34.655,-23.255 c -0.307,-18.543 -6.841,-27.816 -19.608,-27.816 -6.234,0 -11.022,2.244 -14.364,6.726 -3.345,4.485 -5.472,12.048 -6.384,22.686 h 40.356 z" />
			<path
   style="fill:#ffffff"
   id="path4604"
   d="m 1311.639,106.746 c 6.687,2.433 12.995,6.156 18.924,11.172 l -15.732,21.66 c -7.296,-5.928 -14.898,-8.892 -22.8,-8.892 -8.059,0 -14.136,2.964 -18.24,8.892 -4.104,5.928 -6.156,15.504 -6.156,28.728 0,12.768 2.053,21.813 6.156,27.132 4.104,5.322 10.032,7.979 17.784,7.979 4.254,0 8.055,-0.685 11.4,-2.052 3.341,-1.368 7.067,-3.648 11.172,-6.84 l 16.416,23.027 c -12.01,9.576 -25.614,14.364 -40.813,14.364 -12.312,0 -22.953,-2.622 -31.92,-7.866 -8.971,-5.244 -15.885,-12.615 -20.748,-22.115 -4.866,-9.498 -7.296,-20.635 -7.296,-33.402 0,-12.768 2.43,-24.09 7.296,-33.972 4.863,-9.879 11.777,-17.592 20.748,-23.142 8.967,-5.547 19.38,-8.322 31.236,-8.322 8.358,0.001 15.882,1.219 22.573,3.649 z" />
			
		</g>
		<g
   id="g4612">
			<path
   style="fill:#ffffff"
   id="path4610"
   d="m 101.942,236.816 c -47.929,0 -86.922,-38.993 -86.922,-86.922 0,-47.929 38.993,-86.922 86.922,-86.922 47.929,0 86.922,38.993 86.922,86.922 0,47.929 -38.993,86.922 -86.922,86.922 z m 0,-132.145 c -24.936,0 -45.222,20.287 -45.222,45.222 0,24.936 20.287,45.223 45.222,45.223 24.935,0 45.222,-20.287 45.222,-45.223 0,-24.935 -20.287,-45.222 -45.222,-45.222 z" />
		</g>
		<path
   style="fill:#ffffff"
   id="path4614"
   d="m 640.489,65.692 c -39.317,0 -72.418,27.091 -81.639,63.584 h 41.434 c 7.508,-14.582 22.706,-24.584 40.205,-24.584 24.924,0 45.202,20.278 45.202,45.202 0,24.924 -20.278,45.202 -45.202,45.202 -17.499,0 -32.697,-10.002 -40.205,-24.584 H 558.85 c 9.221,36.493 42.322,63.584 81.639,63.584 46.429,0 84.202,-37.772 84.202,-84.202 0,-46.429 -37.773,-84.202 -84.202,-84.202 z" />
		
		<path
   style="fill:#ffffff"
   id="path4632"
   d="m 362.187,170.512 c 0,20.71 -16.789,37.495 -37.497,37.495 -20.709,0 -37.497,-16.785 -37.497,-37.495 h 26.655 v -41.236 h -26.655 v -28.578 c 0,-43.796 -35.631,-79.427 -79.427,-79.427 v 41.7 c 20.803,0 37.727,16.924 37.727,37.727 v 28.578 h -26.601 v 41.236 h 26.601 c 0,43.148 35.104,78.254 78.252,78.254 43.148,0 78.251,-35.105 78.251,-78.254 z" />
		<path
   style="fill:#ffffff"
   id="path4634"
   d="m 425.79,65.683 c -35.065,0 -63.593,28.528 -63.593,63.593 h 39.8 c 0,-13.354 10.827,-24.183 24.183,-24.183 13.355,0 24.183,10.828 24.183,24.183 h 39.022 C 489.384,94.21 460.856,65.683 425.79,65.683 Z" />
	</g>
</g>
</svg>