<?xml version="1.0" encoding="UTF-8" standalone="no"?>
<!-- Created with Inkscape (http://www.inkscape.org/) -->

<svg
   xmlns:svg="http://www.w3.org/2000/svg"
   xmlns="http://www.w3.org/2000/svg"
   version="1.1"
   width="404"
   height="301"
   viewBox="0 0 404 301"
   id="svg2"
   style="overflow:visible">
  <defs
     id="defs36" />
  <path
     d="M 66.521241,93.254144 V 217.67993 c 0,3.37109 -0.37403,5.05664 0.74951,6.74218 0.56201,1.12696 1.68554,1.68555 2.62304,1.68555 1.31055,0 2.43653,-0.55859 3.18458,-1.86914 1.12451,-1.6875 0.93798,-3.37694 0.93798,-6.93359 V 93.254144 h 5.8086 V 220.11352 c 0,8.61719 -3.18555,12.92773 -9.93116,12.92773 -2.81152,0 -5.24658,-0.93359 -7.1206,-2.99413 -1.87402,-2.06445 -2.81152,-5.25 -2.81152,-9.74414 V 93.254144 h 6.55957 l 0,0 z"
     id="path10"
     style="fill:#000000;fill-rule:evenodd" />
  <path
     d="m 376.54443,381.79346 -9.36914,-85.44678 0,85.44678 -5.05957,0 0,-139.03907 6.74561,0 0,0 9.55566,80.20118 0,-80.20118 4.31153,0 0,139.03907 z"
     transform="translate(-247.99975,-149.50024)"
     id="polygon12"
     style="fill:#000000;fill-rule:evenodd" />
  <path
     d="m 433.32275,305.34033 0,4.87305 -9.18164,0 0,65.77344 10.49317,0 0,5.80664 -18.73926,0 0,-139.03907 17.42773,0 0,5.99707 0,0 -9.18164,0 0,56.58887 z"
     transform="translate(-247.99975,-149.50024)"
     id="polygon14"
     style="fill:#000000;fill-rule:evenodd" />
  <path
     d="m 615.27344,223.0791 0,11.62061 -327.36133,0 0,-11.62061 0,0 z"
     transform="translate(-247.99975,-149.50024)"
     id="polygon16"
     style="fill:#000000;fill-rule:evenodd" />
  <path
     d="m 615.27344,392.10205 0,11.61524 -327.36133,0 0,-11.61524 0,0 z"
     transform="translate(-247.99975,-149.50024)"
     id="polygon18"
     style="fill:#000000;fill-rule:evenodd" />
  <path
     d="m 633.26172,415.52197 0,11.6211 -366.33643,0 0,-11.6211 0,0 z"
     transform="translate(-247.99975,-149.50024)"
     id="polygon20"
     style="fill:#000000;fill-rule:evenodd" />
  <path
     d="m 651.625,438.1958 0,11.80469 -403.25049,0 0,-11.80469 0,0 z"
     transform="translate(-247.99975,-149.50024)"
     id="polygon22"
     style="fill:#000000;fill-rule:evenodd" />
  <path
     d="m 449.99854,150 164.52099,46.84766 0,12.3667 -166.02002,-45.15967 -161.33691,45.90771 0,0 0,-12.36621 z"
     transform="translate(-247.99975,-149.50024)"
     id="polygon24"
     style="fill:#000000;fill-rule:evenodd" />
  <path
     d="m 577.23438,209.9624 -33.91993,0 -92.0039,-24.9209 -91.81592,24.17286 -35.04346,0.74804 0,0 127.23242,-36.53906 z"
     transform="translate(-247.99975,-149.50024)"
     id="polygon26"
     style="fill:#000000;fill-rule:evenodd" />
  <path
     d="m 231.98071,133.35523 h 7.1211 v -26.98438 c 0,0 -0.18945,-7.870116 -2.06445,-10.116706 -1.8711,-2.0625 -4.11914,-3.9375 -8.99219,-3.9375 -4.68359,0.18946 -5.81054,1.50098 -7.49609,3.56104 -1.875,2.06201 -2.62306,5.620616 -2.62306,9.371086 0,3.74561 0.18945,20.42383 0.74806,26.04395 0.5625,5.43652 5.81055,27.54541 8.80859,38.229 2.8125,10.86719 4.12305,16.30274 4.3125,19.30078 0.18555,3.18164 0.5586,13.86524 0.18555,19.11134 -0.18555,5.2461 0,12.55274 0,12.55274 0,0 0.37305,5.81054 -2.99805,5.81054 -3.56054,0 -3.1875,-5.81054 -3.1875,-5.81054 V 187.51 h -7.12109 v 32.79297 c 0,0 -1.87111,11.99024 9.37109,11.99024 11.43164,0 11.43164,-10.67969 11.43164,-10.67969 v -29.98241 c 0,0 -0.56445,-9.93164 -2.43945,-16.86328 -1.8711,-6.74806 -7.86914,-28.29542 -9.18164,-34.29347 -1.49609,-6.36815 -2.06055,-15.74022 -2.06055,-24.17089 0,-8.43115 0.18946,-13.67822 0.18946,-13.67822 0,0 -0.18946,-3.935066 2.99804,-3.935066 2.99805,0 2.8125,4.122076 2.8125,4.122076 l 0.18555,30.54297 0,0 z"
     id="path28"
     style="fill:#000000;fill-rule:evenodd" />
  <path
     d="m 286.50806,133.72925 h 6.1836 v -32.41797 c 0,-5.057136 -2.8086,-10.117186 -9.7461,-10.117186 -6.36719,0 -10.11328,4.68359 -10.11328,10.304206 v 121.80273 c 0,5.42969 3.74609,10.11914 10.11328,10.11914 6.9375,0 9.7461,-4.87305 9.7461,-9.93555 v -36.53711 h -6.1836 v 36.35352 c 0,1.875 0.18945,4.11914 -3.5625,4.11914 -3.93359,0 -3.55469,-3.37109 -3.55469,-4.68359 V 101.87476 c 0,-1.31152 -0.3789,-4.685556 3.55469,-4.685556 3.75195,0 3.5625,2.436531 3.5625,4.309096 v 32.23095 l 0,0 z"
     id="path30"
     style="fill:#000000;fill-rule:evenodd" />
  <path
     d="m 338.22681,91.194094 c -6.36915,0 -10.86719,4.68359 -10.86719,10.304206 v 121.80272 c 0,5.42969 4.49804,10.11914 10.86719,10.11914 6.93164,0 10.49414,-4.87305 10.49414,-9.93555 V 101.31128 c 0,-5.057136 -3.5625,-10.117186 -10.49414,-10.117186 l 0,0 z m 4.3086,132.106926 c 0,1.875 -0.5586,4.11914 -4.3086,4.11914 -3.93555,0 -4.30859,-3.37109 -4.30859,-4.68359 V 101.87476 c 0,-1.31152 0.37304,-4.685556 4.30859,-4.685556 3.75,0 4.3086,2.436531 4.3086,4.309096 v 121.80272 l 0,0 z"
     id="path32"
     style="fill:#000000;fill-rule:evenodd" />
</svg>
