<svg xmlns="http://www.w3.org/2000/svg" width="261" height="50" viewBox="0 0 261 50">
  <path fill="#DA3940" fill-rule="evenodd" d="M97.053,30.359 L95.501,35.623 L79.611,35.623 L79.611,34.881 L81.668,33.463 L81.668,16.527 L79.611,15.109 L79.611,14.367 L96.243,14.367 L96.614,14.738 L95.569,19.496 L94.827,19.496 C94.152,16.56 93.173,16.156 88.315,16.156 L85.987,16.156 L85.987,23.949 L93.645,23.477 L93.814,23.611 L93.105,26.108 L92.903,26.176 L85.987,25.502 L85.987,33.834 L88.18,33.834 C92.127,33.834 94.186,33.228 96.311,30.09 L97.053,30.359 Z M260.715,15.109 L258.657,16.527 L258.657,35.352 L258.388,35.623 L255.115,35.623 L243.036,18.923 L243.036,33.463 L245.466,34.881 L245.466,35.623 L238.785,35.623 L238.785,34.881 L240.844,33.463 L240.844,16.46 L238.482,15.109 L238.482,14.367 L244.858,14.367 L256.464,30.494 L256.464,16.527 L254.035,15.109 L254.035,14.367 L260.715,14.367 L260.715,15.109 Z M225.965,33.463 L228.394,34.881 L228.394,35.623 L219.623,35.623 L219.623,34.881 L221.681,33.463 L221.681,16.527 L219.623,15.109 L219.623,14.367 L228.53,14.367 C234.737,14.367 237.942,16.493 237.942,20.575 C237.942,25.231 233.422,28.403 226.708,28.403 C226.404,28.403 226.134,28.403 225.965,28.368 L225.965,33.463 Z M217.936,15.109 L215.844,16.493 L208.894,35.623 L204.879,35.623 L197.49,16.594 L195.332,15.109 L195.332,14.367 L204.036,14.367 L204.036,15.109 L201.911,16.56 L207.916,31.978 L208.152,31.978 L213.213,16.527 L211.053,15.109 L211.053,14.367 L217.936,14.367 L217.936,15.109 Z M225.965,26.615 C230.688,26.75 233.556,24.489 233.556,20.678 C233.556,17.539 231.938,15.954 228.698,15.954 C227.787,15.954 226.742,16.189 225.965,16.56 L225.965,26.615 Z M136.358,26.817 C136.358,32.114 132.815,35.893 127.855,35.893 C126.405,35.893 125.19,35.521 124.01,35.016 L124.01,40.211 L126.439,41.628 L126.439,42.37 L117.835,42.37 L117.835,41.628 L119.928,40.211 L119.928,21.723 L117.835,20.474 L117.835,19.731 L123.402,18.618 L124.01,19.024 L124.01,21.385 C125.326,19.698 127.417,18.653 129.577,18.653 C133.591,18.653 136.358,22.161 136.358,26.817 L136.358,26.817 Z M149.954,22.364 L149.212,22.364 C148.672,22.026 148.098,21.857 147.524,21.857 C146.277,21.857 145.096,22.33 144.05,23.24 L144.05,33.463 L146.547,34.881 L146.547,35.623 L137.842,35.623 L137.842,34.881 L139.934,33.463 L139.934,21.723 L137.842,20.474 L137.842,19.731 L143.442,18.618 L144.05,19.024 L144.05,21.688 C145.129,19.934 147.019,18.686 148.908,18.686 C149.786,18.686 150.528,18.923 151.135,19.36 L149.954,22.364 Z M162.639,27.019 C160.379,27.019 157.849,26.952 155.083,26.851 C155.454,30.63 157.511,32.822 160.885,32.822 C162.909,32.822 164.225,32.316 165.338,31.372 L166.047,31.912 C164.934,34.576 162.437,36.027 159.198,36.027 C154.239,36.027 150.899,32.62 150.899,27.424 C150.899,22.465 154.205,18.618 159.232,18.618 C161.56,18.618 163.314,19.36 164.563,20.812 C165.811,22.263 166.418,24.151 166.385,26.479 L165.878,26.986 C165.204,27.019 164.124,27.019 162.639,27.019 L162.639,27.019 Z M169.319,30.832 L170.028,30.832 C171.344,32.991 173.267,34.239 174.92,34.239 C176.405,34.239 177.316,33.463 177.316,32.249 C177.316,30.865 176.506,30.123 174.481,29.348 L172.963,28.774 C170.096,27.694 168.375,25.974 168.375,23.713 C168.375,20.913 171.007,18.754 174.92,18.754 C177.18,18.754 179.339,19.294 180.926,20.238 L179.306,23.005 L178.631,23.005 C177.518,21.284 176.135,20.407 174.515,20.407 C173.065,20.407 172.12,21.216 172.12,22.33 C172.12,23.544 172.997,24.286 175.595,25.299 L177.316,25.974 C179.947,26.986 181.094,28.572 181.094,30.63 C181.094,33.868 178.496,35.893 174.549,35.893 C172.12,35.893 169.657,35.252 167.869,34.139 L169.319,30.832 Z M184.13,30.832 L184.839,30.832 C186.155,32.991 188.078,34.239 189.73,34.239 C191.215,34.239 192.126,33.463 192.126,32.249 C192.126,30.865 191.317,30.123 189.292,29.348 L187.774,28.774 C184.906,27.694 183.186,25.974 183.186,23.713 C183.186,20.913 185.817,18.754 189.73,18.754 C191.992,18.754 194.15,19.294 195.736,20.238 L194.117,23.005 L193.441,23.005 C192.328,21.284 190.946,20.407 189.326,20.407 C187.875,20.407 186.93,21.216 186.93,22.33 C186.93,23.544 187.808,24.286 190.406,25.299 L192.126,25.974 C194.758,26.986 195.905,28.572 195.905,30.63 C195.905,33.868 193.307,35.893 189.359,35.893 C186.93,35.893 184.468,35.252 182.679,34.139 L184.13,30.832 Z M109.368,27.087 L114.327,33.463 L116.182,34.881 L116.182,35.623 L107.782,35.623 L107.782,34.881 L109.537,33.564 L106.162,28.977 L102.923,33.564 L104.88,34.881 L104.88,35.623 L98.2,35.623 L98.2,34.881 L100.259,33.497 L105.083,27.56 L100.157,21.284 L98.268,19.8 L98.268,19.058 L106.634,19.058 L106.634,19.8 L104.914,21.115 L108.254,25.67 L111.493,21.115 L109.537,19.8 L109.537,19.058 L116.216,19.058 L116.216,19.8 L114.158,21.183 L109.368,27.087 Z M162.099,24.826 C161.728,21.857 160.346,20.44 158.49,20.44 C156.466,20.44 155.116,22.431 155.015,25.266 L162.099,24.826 Z M132.309,28.537 C132.309,24.793 130.488,21.688 127.552,21.688 C126.338,21.688 125.157,22.094 124.01,22.937 L124.01,31.81 C124.955,33.261 126.405,33.97 128.125,33.97 C130.69,33.97 132.309,31.945 132.309,28.537 L132.309,28.537 Z M16.158,50 C9.175,50 4.721,46.077 4.721,40.625 C4.721,38.829 5.253,36.636 7.314,32.181 L0,32.181 L6.715,17.818 L53.458,17.818 C54.522,17.818 55.253,17.021 55.253,16.091 C55.253,15.159 54.522,14.361 53.458,14.361 L15.625,14.361 L18.95,7.247 C21.011,2.859 25.466,0 30.319,0 L46.211,0 C55.386,0 62.168,6.316 62.168,14.56 C62.168,24.335 53.192,32.181 42.82,32.181 L12.102,32.181 C11.17,34.109 12.234,35.639 14.495,35.639 L38.963,35.639 C43.019,35.639 46.144,38.497 46.144,42.154 C46.144,46.343 42.089,50 37.5,50 L16.158,50 L16.158,50 Z"/>
</svg>
