<svg xmlns="http://www.w3.org/2000/svg" viewBox="0 0 444.01 111.54"><defs><style>.cls-1{fill:#002fa7;}.cls-2{fill:#fff;}</style></defs><g id="图层_2" data-name="图层 2"><g id="图层_1-2" data-name="图层 1"><path class="cls-1" d="M46.87.52,1.94,26.46A3.9,3.9,0,0,0,0,29.83V81.71a3.9,3.9,0,0,0,1.94,3.37L46.87,111a3.91,3.91,0,0,0,3.89,0L95.69,85.08a3.89,3.89,0,0,0,2-3.37V29.83a3.89,3.89,0,0,0-2-3.37L50.76.52A3.91,3.91,0,0,0,46.87.52Z"/><path class="cls-2" d="M83.4,36.9c-4.09-1.06-9,0-11.17,2.28S71.31,44.67,75.5,46c4.4,1.41,9.93.3,12.08-2.42S87.66,38,83.4,36.9Z"/><path class="cls-2" d="M57.2,67.86a12.31,12.31,0,0,0-13.78,2.65c-3.55,3.79-3.16,9.12,1.25,11.88,4.69,2.93,11.7,1.64,15.2-2.83C63.2,75.33,61.83,70.12,57.2,67.86Z"/><path class="cls-2" d="M65.69,32.33a12.41,12.41,0,0,0-6.14.12,11.46,11.46,0,0,1-4.76-.15,3.65,3.65,0,0,1-2.66-1.92A1.6,1.6,0,0,0,52,30v-.06h0a3.35,3.35,0,0,0-2.44-1.73l-.14,0A10.16,10.16,0,0,0,44.64,28c-3.56.66-6.16,2.71-5.82,4.58a10.21,10.21,0,0,1-.06,1A4.38,4.38,0,0,1,37,36.09a8.44,8.44,0,0,1-3.21,1.69,14.83,14.83,0,0,1-2,.26,19.55,19.55,0,0,0-2.81.17A5.78,5.78,0,0,0,25.8,39.8a3.83,3.83,0,0,0-.88,3A5.5,5.5,0,0,1,25,44.07h0a5.55,5.55,0,0,1-2.37,3.67,12.85,12.85,0,0,1-5.42,2.49h0a13.63,13.63,0,0,0-5.88,2.6C7.94,55.48,7.16,59,9.79,60.61c1.54,1,3.9,1.06,6.3.41a8,8,0,0,1,5.15.72A4.36,4.36,0,0,1,23,63.55a3.6,3.6,0,0,1,.33,1,5.25,5.25,0,0,1,.07.79h0a4.92,4.92,0,0,0,2.25,5.21c3.58,2.23,9.61,1.07,13.16-2.55,3.39-3.46,3-7.64-.64-9.4a10,10,0,0,0-6.92-.37A8.81,8.81,0,0,1,26,57.55a3.55,3.55,0,0,1-2.15-3.24,6.78,6.78,0,0,1,.42-1.65,10,10,0,0,1,2.16-3.14,9.62,9.62,0,0,1,4.45-2.36,20.63,20.63,0,0,1,2-.42,10.7,10.7,0,0,1,4.94.4c1.41.58,2.45,1.51,2.54,2.66a4.47,4.47,0,0,0,2.81,4A11.58,11.58,0,0,0,55.08,51.4c2.71-2.77,1.8-6-1.78-7.25a11.33,11.33,0,0,0-6.51-.08,10.13,10.13,0,0,1-5-.35c-1.46-.55-2.42-1.44-2.47-2.49a5.57,5.57,0,0,1,1.78-3.87,11.74,11.74,0,0,1,3.9-2A11.55,11.55,0,0,1,46.85,35a11.85,11.85,0,0,1,4.7.18c1.4.42,2.68,1.2,2.72,2,.06,1.1,1.15,2.41,3.13,3.05,3.56,1.13,8.49.12,10.79-2.22S69.19,33.23,65.69,32.33Z"/><path d="M370,31.22h7.18a.93.93,0,0,1,.92.93v47a.93.93,0,0,1-.92.93H370a.93.93,0,0,1-.93-.93v-47A.93.93,0,0,1,370,31.22Z"/><path d="M329.91,39.39V32.15a.94.94,0,0,0-.94-.93H299.2a.93.93,0,0,0-.93.93v47a.93.93,0,0,0,.93.94H329a.94.94,0,0,0,.94-.94V71.89A.94.94,0,0,0,329,71H308.82a.93.93,0,0,1-.93-.93V59a.93.93,0,0,1,.93-.93H327a.94.94,0,0,0,.94-.93V50.1a.94.94,0,0,0-.94-.94H308.82a.93.93,0,0,1-.93-.93v-7a.94.94,0,0,1,.93-.94H329A.93.93,0,0,0,329.91,39.39Z"/><path d="M441.49,43.46a14.83,14.83,0,0,0-7.24,3.67.12.12,0,0,1-.2-.09V43.32a.93.93,0,0,0-.93-.93h-6.67a.93.93,0,0,0-.93.93v36a.92.92,0,0,0,.93.93h6.67a.93.93,0,0,0,.93-.93V70.51c0-.44,0-7.1,0-9.34,0-2.51.51-4.09,2-5.71a12.42,12.42,0,0,1,7.4-4.12.55.55,0,0,0,.53-.58V43.67a.46.46,0,0,0-.49-.47A14.28,14.28,0,0,0,441.49,43.46Z"/><path d="M211.45,51.94a18.47,18.47,0,0,0-7-6.95,19,19,0,0,0-9.57-2.56,17.74,17.74,0,0,0-10.22,3.15.47.47,0,0,1-.74-.39v-.77a.92.92,0,0,0-.92-.92h-7.12a.92.92,0,0,0-.92.92V92a.92.92,0,0,0,.92.92H183a.92.92,0,0,0,.92-.92V77.71a.45.45,0,0,1,.71-.37,17.77,17.77,0,0,0,10.28,3.11,19,19,0,0,0,9.63-2.51,18.42,18.42,0,0,0,6.89-7A19,19,0,0,0,214,61.41,18.77,18.77,0,0,0,211.45,51.94Zm-9.26,16.69A9.78,9.78,0,0,1,195,71.44,9.65,9.65,0,0,1,188,68.66a9.79,9.79,0,0,1-2.81-7.27,9.64,9.64,0,0,1,9.94-10,9.74,9.74,0,0,1,7.16,2.77,9.63,9.63,0,0,1,2.81,7.18A9.71,9.71,0,0,1,202.19,68.63Z"/><path d="M244.6,68.46a10.47,10.47,0,0,1-14.25,0,9.14,9.14,0,0,1-2.34-4,.47.47,0,0,1,.45-.6h26.89a.94.94,0,0,0,.93-.85c.05-.59.08-1.18.08-1.79a18.69,18.69,0,0,0-2.51-9.47,18.49,18.49,0,0,0-7-6.94,19,19,0,0,0-9.58-2.56,18,18,0,0,0-12.46,4.92,18.3,18.3,0,0,0-6.19,14.12,18.44,18.44,0,0,0,5.47,13.44,17.92,17.92,0,0,0,13.22,5.53,19,19,0,0,0,9.62-2.51,18,18,0,0,0,5.84-5.37.58.58,0,0,0-.24-.86l-7.23-3.26A.63.63,0,0,0,244.6,68.46ZM230.38,54.07a10.56,10.56,0,0,1,14.27,0,8.78,8.78,0,0,1,1.54,2.07.47.47,0,0,1-.41.69H229.26a.47.47,0,0,1-.41-.69A9.08,9.08,0,0,1,230.38,54.07Z"/><path d="M277.52,42.46a15.69,15.69,0,0,0-15.65,15.72v21a1,1,0,0,0,.94.95H270a1,1,0,0,0,.95-.95v-21a6.61,6.61,0,1,1,13.21,0v21a1,1,0,0,0,.94.95h7.16a1,1,0,0,0,.95-.95v-21A15.69,15.69,0,0,0,277.52,42.46Z"/><path d="M348.5,80.1a15.7,15.7,0,0,0,15.66-15.73v-21a1,1,0,0,0-1-.95h-7.14a.94.94,0,0,0-.95.95v21a6.61,6.61,0,1,1-13.21,0v-21a1,1,0,0,0-1-.95H333.8a.94.94,0,0,0-.95.95v21A15.7,15.7,0,0,0,348.5,80.1Z"/><path d="M145,30.83,125.32,42.16a2.63,2.63,0,0,0-1.3,2.26V67.08a2.62,2.62,0,0,0,1.3,2.26L145,80.67a2.59,2.59,0,0,0,2.61,0l19.62-11.33a2.6,2.6,0,0,0,1.31-2.26V44.42a2.62,2.62,0,0,0-1.31-2.26L147.56,30.83A2.59,2.59,0,0,0,145,30.83Zm13.82,32.7-12,7a1,1,0,0,1-.95,0l-12-7a1,1,0,0,1-.48-.83V48.8a1,1,0,0,1,.48-.83l12-6.95a1,1,0,0,1,.95,0l12,6.95a1,1,0,0,1,.48.83V62.7A1,1,0,0,1,158.77,63.53Z"/><path d="M408.91,68.46a9.75,9.75,0,0,1-7.15,2.82,9.65,9.65,0,0,1-7.09-2.78,9,9,0,0,1-2.34-4,.47.47,0,0,1,.45-.6h26.89a.94.94,0,0,0,.93-.85c0-.59.08-1.18.08-1.79a18.8,18.8,0,0,0-2.51-9.47,18.51,18.51,0,0,0-7-6.94,19,19,0,0,0-9.57-2.56,18,18,0,0,0-12.47,4.92A18.32,18.32,0,0,0,383,61.31a18.4,18.4,0,0,0,5.47,13.44,17.89,17.89,0,0,0,13.21,5.53,19,19,0,0,0,9.63-2.51,18,18,0,0,0,5.84-5.37.58.58,0,0,0-.24-.86l-7.24-3.26A.64.64,0,0,0,408.91,68.46ZM394.7,54.07A10.55,10.55,0,0,1,409,54a8.51,8.51,0,0,1,1.54,2.07.47.47,0,0,1-.41.69H393.58a.46.46,0,0,1-.41-.69A8.51,8.51,0,0,1,394.7,54.07Z"/></g></g></svg>