<?xml version="1.0" encoding="utf-8"?>
<!-- Generator: Adobe Illustrator 19.2.1, SVG Export Plug-In . SVG Version: 6.00 Build 0)  -->
<svg version="1.1" id="レイヤー_1" xmlns="http://www.w3.org/2000/svg" xmlns:xlink="http://www.w3.org/1999/xlink" x="0px"
	 y="0px" viewBox="0 0 11974.5 3000" style="enable-background:new 0 0 11974.5 3000;" xml:space="preserve">
<style type="text/css">
	.st0{fill-rule:evenodd;clip-rule:evenodd;fill:#E72121;}
	.st1{fill:#55BEEE;}
	.st2{fill:#FFFFFF;}
	.st3{fill:#212222;}
</style>
<g>
	<path class="st0" d="M2812.3,821.2v1379.5c0,21.6-3,42.9-8.9,63.7c-6,20.8-14.7,40.4-26.2,58.7c-11.5,18.3-25.3,34.7-41.4,49.2
		c-16.1,14.5-33.9,26.4-53.3,35.8l-1169.9,563.4c-31.8,15.6-65.4,23.4-100.8,23.4s-69-7.8-100.8-23.4l-687.9-335.2l-473.4-233.3
		c-19.5-9.5-37.2-21.6-53.3-36.1c-16.1-14.5-29.9-31-41.4-49.4c-11.5-18.4-20.2-38-26.2-58.9c-6-20.8-9-42.1-9-63.8V815.4
		c0.1-21.4,3.1-42.5,9.1-63.1c5.9-20.6,14.6-40,25.9-58.2c11.3-18.2,24.9-34.5,40.8-48.9c15.9-14.4,33.4-26.4,52.6-35.9l1165.6-580
		C1346.4,13.2,1380.8,5,1417.2,5c36.4,0,70.8,8.2,103.3,24.5l1164.1,584.3c19.2,9.6,36.8,21.7,52.6,36.2
		c15.9,14.5,29.4,31,40.7,49.3c11.3,18.3,19.8,37.8,25.7,58.6C2809.4,778.5,2812.3,799.7,2812.3,821.2z"/>
	<path class="st1" d="M3005.2,854.2c0,41.1-4,81.9-12,122.2c-8,40.4-19.9,79.5-35.6,117.5c-15.7,38-35,74.1-57.9,108.3
		c-22.8,34.2-48.8,65.9-77.9,95c-29.1,29.1-60.7,55.1-94.9,77.9c-34.2,22.9-70.3,42.2-108.3,57.9c-38,15.7-77.1,27.6-117.5,35.7
		c-40.3,8-81,12-122.2,12c-41.1,0-81.8-4-122.2-12c-40.3-8-79.5-19.9-117.5-35.7c-38-15.7-74.1-35-108.3-57.9
		c-34.2-22.9-65.8-48.8-94.9-77.9c-29.1-29.1-55-60.7-77.9-95c-22.8-34.2-42.1-70.3-57.9-108.3c-15.7-38-27.6-77.2-35.6-117.5
		c-8-40.4-12-81.1-12-122.2c0-41.1,4-81.9,12-122.2c8-40.4,19.9-79.5,35.6-117.5c15.7-38,35-74.1,57.9-108.3
		c22.8-34.2,48.8-65.9,77.9-95c29.1-29.1,60.7-55.1,94.9-77.9c34.2-22.9,70.3-42.2,108.3-57.9c38-15.7,77.1-27.6,117.5-35.7
		c40.3-8,81-12,122.2-12s81.8,4,122.2,12c40.3,8,79.5,19.9,117.5,35.7c38,15.7,74.1,35,108.3,57.9c34.2,22.9,65.8,48.8,94.9,77.9
		c29.1,29.1,55,60.7,77.9,95c22.8,34.2,42.1,70.3,57.9,108.3c15.7,38,27.6,77.2,35.6,117.5C3001.2,772.3,3005.2,813,3005.2,854.2z"
		/>
	<path class="st2" d="M402.3,1998.3l-121.9-59.6v-363.2c0-105.5,59.5-215.3,182.9-199.5c51.3,8.7,97.4,29,138.5,60.9
		c41.1,31.9,72.1,71.7,93.2,119.3c18.7-17.6,40.4-29.9,65.1-36.9c24.7-7,49.6-7.8,74.8-2.6c62.4,8.6,300.5,96.9,300.5,419.2v430.7
		l-134.8-66.8v-400.5c1.8-25.7-0.9-51-8.1-75.7c-7.2-24.8-18.6-47.5-34-68.2c-15.4-20.7-33.9-38-55.5-52.1
		c-21.6-14-45-23.8-70.2-29.5c-40.2-4.3-71.7,28-76,96.9c-4.3,68.9,0,407,0,407l-122.7-59.6v-379.7c0-167.2-108.3-219.6-154.9-223.9
		c-27.3,0-76.7,12.9-76.7,99.1V1998.3z"/>
	<rect x="11654" y="1014.3" class="st3" width="285.5" height="1223.1"/>
	<path class="st3" d="M8592,2001.9c-239.6,0-380.1-148.6-380.1-358.9s108.3-375.4,358.6-375.4c132.4,1.1,257.9,31,376.6,89.7v-267
		c-122-51.6-249.2-77.7-381.6-78.2c-388.8,0-635.5,267.7-635.5,630.9s269.7,602.9,655.6,602.9c134.6-0.8,264.2-26.6,388.8-77.5
		v-260.6C8853.3,1965.3,8725.8,1996.6,8592,2001.9L8592,2001.9z"/>
	<path class="st3" d="M4869.4,1014.3c-37.4-1-74.4,2.5-110.9,10.5c-36.6,8-71.6,20.3-105.2,36.9c-33.6,16.6-64.6,36.9-93.2,61.1
		c-28.6,24.2-53.9,51.4-75.8,81.7c-23-30.1-49.2-57.2-78.6-81.2c-29.4-24-61.1-44.2-95.3-60.8c-34.1-16.5-69.7-28.9-106.8-37
		c-37-8.2-74.5-11.9-112.4-11.2c-311.3,0-525.8,234.7-525.8,546.9V2238h281.2v-704.8c-1.6-16.9-1.4-33.7,0.6-50.6
		c2-16.8,5.7-33.3,11.2-49.3c5.5-16,12.5-31.3,21.2-45.9c8.7-14.5,18.8-28,30.4-40.4c11.6-12.4,24.3-23.5,38.2-33.2
		c13.9-9.7,28.6-17.9,44.2-24.5c15.6-6.6,31.7-11.5,48.4-14.7c16.6-3.2,33.4-4.6,50.4-4.2c17.2-0.5,34.2,0.7,51.2,3.7
		c16.9,3,33.4,7.8,49.3,14.3c15.9,6.5,31,14.5,45.3,24.1c14.3,9.6,27.4,20.6,39.3,33c12,12.4,22.5,25.8,31.6,40.4
		c9.1,14.6,16.7,29.9,22.6,46.1c5.9,16.2,10.1,32.7,12.6,49.8c2.5,17,3.1,34.1,2,51.3V2238h276.9v-704.8c-1.4-17-0.9-33.9,1.2-50.7
		s6.1-33.3,11.7-49.4c5.6-16,12.9-31.3,21.7-45.9c8.8-14.5,19.1-28,30.7-40.4c11.7-12.4,24.5-23.4,38.4-33.1
		c14-9.7,28.8-17.8,44.5-24.4c15.7-6.6,31.9-11.5,48.6-14.6c16.7-3.2,33.5-4.6,50.5-4.2c17.2-0.5,34.4,0.7,51.3,3.8
		c17,3,33.5,7.8,49.5,14.2c16,6.5,31.2,14.5,45.5,24.1c14.3,9.6,27.5,20.6,39.6,32.9c12.1,12.3,22.7,25.8,32,40.4
		c9.3,14.6,17,29.9,23.1,46.1c6.1,16.2,10.5,32.8,13.1,49.8c2.7,17.1,3.5,34.2,2.6,51.5V2238H5408v-676.8c1.3-35.9-1-71.6-7-107.1
		c-6-35.5-15.5-70-28.5-103.5c-13-33.5-29.3-65.4-48.8-95.6c-19.5-30.2-41.9-58.1-67.1-83.7c-25.2-25.6-52.8-48.4-82.7-68.4
		c-29.9-20-61.5-36.7-94.8-50.2c-33.3-13.5-67.6-23.5-103-30C4940.9,1016.3,4905.3,1013.4,4869.4,1014.3L4869.4,1014.3z"/>
	<path class="st3" d="M11954.5,722.1c0,20.9-4,41.1-12,60.4c-8,19.3-19.4,36.4-34.2,51.2c-14.8,14.8-31.9,26.2-51.2,34.2
		c-19.3,8-39.5,12-60.4,12c-20.9,0-41.1-4-60.4-12c-19.3-8-36.4-19.4-51.2-34.2c-14.8-14.8-26.2-31.9-34.2-51.2
		c-8-19.3-12-39.5-12-60.4c0-20.9,4-41.1,12-60.4c8-19.3,19.4-36.4,34.2-51.2c14.8-14.8,31.9-26.2,51.2-34.2c19.3-8,39.5-12,60.4-12
		c20.9,0,41.1,4,60.4,12c19.3,8,36.4,19.4,51.2,34.2c14.8,14.8,26.2,31.9,34.2,51.2C11950.5,681,11954.5,701.2,11954.5,722.1z"/>
	<path class="st3" d="M9819.9,1998.3c-205.9,0-334.2-143.6-334.2-368.2c0-210.3,143.5-368.9,334.2-368.9
		c203.7,0,329.2,143.6,329.2,368.9c-2.9,178.7-114,368.2-332.1,368.2H9819.9z M9819.9,1014.3c-20.4-0.8-40.8-0.5-61.2,0.8
		c-20.4,1.3-40.7,3.6-60.8,7c-20.2,3.4-40.1,7.8-59.8,13.2c-19.7,5.4-39.1,11.9-58.1,19.3c-19,7.4-37.7,15.8-55.8,25.1
		c-18.2,9.3-35.8,19.6-53,30.7c-17.1,11.1-33.7,23.1-49.6,36c-15.9,12.8-31.1,26.5-45.6,40.9c-14.5,14.4-28.2,29.5-41.2,45.3
		c-13,15.8-25.1,32.2-36.4,49.3c-11.3,17.1-21.6,34.6-31.1,52.8c-9.5,18.1-18,36.7-25.6,55.7c-7.6,19-14.1,38.3-19.7,58
		c-5.6,19.7-10.1,39.6-13.7,59.7c-3.5,20.1-6.1,40.4-7.5,60.8c-1.5,20.4-1.9,40.8-1.3,61.3c0,358.9,244.6,615.1,594.6,615.1
		c36.3,1.4,72.1-2.3,107.3-11.1c35.2-8.8,68.5-22.4,99.9-40.7c31.4-18.3,59.6-40.6,84.6-67c25-26.3,45.9-55.7,62.5-88V2238h281.2
		v-607.9C10429.6,1256.1,10191.5,1014.3,9819.9,1014.3z"/>
	<path class="st3" d="M7644.5,1270.5c-154.2,0-244.6,128.5-244.6,298.6v669H7118v-676.8c0-312.2,215.2-546.9,526.5-546.9h101.1
		v255.5L7644.5,1270.5z"/>
	<path class="st3" d="M11261.6,1270.5c-153.5,0-244.6,128.5-244.6,298.6v669h-281.2v-676.8c0-312.2,215.2-546.9,525.8-546.9h101.9
		v255.5L11261.6,1270.5z"/>
	<path class="st3" d="M5956,1508.8c3.1-18,7.8-35.6,14-52.8c6.2-17.2,13.9-33.7,23-49.5c9.1-15.8,19.5-30.8,31.3-44.8
		c11.7-14,24.6-26.9,38.6-38.7c14-11.8,28.9-22.2,44.7-31.4c15.8-9.1,32.3-16.8,49.5-23.1c17.2-6.3,34.7-11,52.7-14.2
		c18-3.2,36.1-4.8,54.4-4.8c18.3,0,36.4,1.6,54.4,4.8c18,3.2,35.6,7.9,52.7,14.2c17.2,6.3,33.6,14,49.5,23.1
		c15.8,9.1,30.7,19.6,44.7,31.4c14,11.8,26.8,24.6,38.6,38.7c11.7,14,22.1,28.9,31.3,44.8c9.1,15.8,16.8,32.3,23,49.5
		c6.2,17.2,10.9,34.8,14,52.8H5956z M6276.7,1013.5c-40.3-0.2-80.3,3.6-119.8,11.4c-39.6,7.8-77.9,19.5-115.1,35.1
		c-37.2,15.6-72.5,34.7-105.8,57.3c-33.4,22.7-64.1,48.4-92.3,77.3c-28.2,28.9-53.2,60.3-75.1,94.2c-21.9,33.9-40.1,69.6-54.8,107.2
		c-14.7,37.6-25.5,76.3-32.4,116c-6.9,39.8-9.8,79.8-8.6,120.1c0,384.7,276.1,613,655.6,613c152.9-0.9,301.4-27,445.4-78.2v-246.2
		c-138.3,55.1-281.7,85.9-430.4,92.6c-210.9,0-358.6-94-385.2-282.1h855c6-45,8.9-90.2,8.6-135.7c1.4-37.1-0.8-73.9-6.7-110.6
		c-5.9-36.6-15.3-72.3-28.3-107.1c-13-34.8-29.2-67.9-48.8-99.5c-19.5-31.5-42-60.8-67.3-87.9c-25.4-27.1-53.1-51.4-83.3-72.9
		c-30.2-21.6-62.2-39.9-96-55.1c-33.8-15.2-68.8-26.9-105-35.2C6350.3,1019.1,6313.7,1014.5,6276.7,1013.5L6276.7,1013.5z"/>
</g>
</svg>
