<svg width="104" height="70" viewBox="0 0 104 70" fill="none" xmlns="http://www.w3.org/2000/svg">
<path fill-rule="evenodd" clip-rule="evenodd" d="M49.0024 46.706L29.2613 37.6434C27.5796 36.8523 27.5796 35.6295 29.2613 34.9103L36.1341 31.7456L48.9293 37.6434C50.6109 38.4346 53.3162 38.4346 54.9247 37.6434L67.7198 31.7456L74.5927 34.9103C76.2743 35.7015 76.2743 36.9242 74.5927 37.6434L54.8516 46.706C53.3162 47.4252 50.6109 47.4252 49.0024 46.706Z" fill="url(#paint0_linear)"/>
<path fill-rule="evenodd" clip-rule="evenodd" d="M49.0024 35.5575L29.2613 26.495C27.5796 25.7038 27.5796 24.4811 29.2613 23.7618L35.9879 20.6691L49.0024 26.6388C50.684 27.43 53.3893 27.43 54.9978 26.6388L68.0123 20.6691L74.7389 23.7618C76.4206 24.553 76.4206 25.7757 74.7389 26.495L54.9978 35.5575C53.3162 36.3487 50.6109 36.3487 49.0024 35.5575Z" fill="url(#paint1_linear)"/>
<path fill-rule="evenodd" clip-rule="evenodd" d="M49.0023 24.697L29.2612 15.6344C27.5796 14.8433 27.5796 13.6205 29.2612 12.9013L49.0023 3.83874C50.684 3.04757 53.3892 3.04757 54.9978 3.83874L74.7388 12.9013C76.4205 13.6925 76.4205 14.9152 74.7388 15.6344L54.9978 24.697C53.3161 25.4162 50.6109 25.4162 49.0023 24.697Z" fill="url(#paint2_linear)"/>
<path d="M0 63.3068C0 61.1188 0.634249 59.4675 1.94503 58.3941C3.21353 57.2795 4.73573 56.7428 6.46935 56.7428C8.20297 56.7428 9.68289 57.2795 10.9514 58.3941C12.2199 59.5088 12.8541 61.1188 12.8541 63.3481C12.8541 65.5361 12.2199 67.1874 10.9514 68.2607C9.68289 69.3754 8.16068 69.912 6.46935 69.912C4.73573 69.912 3.25582 69.3754 1.94503 68.2607C0.634249 67.1461 0 65.4948 0 63.3068ZM2.7907 63.3068C2.7907 64.8342 3.08668 65.9076 3.63637 66.6094C4.22833 67.3112 4.86258 67.7653 5.53912 67.9305C5.70825 67.9717 5.8351 68.013 6.00423 68.013C6.13108 68.013 6.30022 68.0543 6.42707 68.0543C6.5962 68.0543 6.72305 68.0543 6.89218 68.013C7.06132 68.013 7.18817 67.9717 7.3573 67.9305C8.03383 67.7653 8.66808 67.3112 9.21777 66.6094C9.76745 65.9076 10.0634 64.793 10.0634 63.3481C10.0634 61.8619 9.76745 60.7885 9.21777 60.0867C8.66808 59.3849 8.03383 58.9308 7.3573 58.7657C7.18817 58.7244 7.01903 58.6831 6.89218 58.6831C6.72305 58.6831 6.5962 58.6418 6.42707 58.6418C6.25793 58.6418 6.13108 58.6418 6.00423 58.6831C5.87738 58.6831 5.70825 58.7244 5.53912 58.7657C4.86258 58.9308 4.22833 59.3849 3.63637 60.0867C3.08668 60.706 2.7907 61.8206 2.7907 63.3068Z" fill="#666666"/>
<path d="M14.2496 56.8661H17.7168L22.2834 64.9575L22.9599 66.7327H23.0022L22.9599 64.4209V56.8661H25.6238V69.7464H22.1566L17.59 61.3246L16.9134 59.8797H16.8711L16.9134 62.1503V69.7464H14.2496V56.8661Z" fill="#666666"/>
<path d="M28.3721 56.8661H31.036V67.5584H36.2791V69.7464H28.3721V56.8661Z" fill="#666666"/>
<path d="M34.63 56.8661H37.7167L40.4228 61.3659L40.8456 62.2741H40.9302L41.353 61.3659L44.1015 56.8661H46.9344L42.1564 64.5034V69.7464H39.4926V64.4621L34.63 56.8661Z" fill="#666666"/>
<path d="M46.5961 63.3062C46.5961 61.1182 47.2304 59.4669 48.5412 58.3935C49.8097 57.2789 51.3319 56.7422 53.0655 56.7422C54.7991 56.7422 56.279 57.2789 57.5475 58.3935C58.816 59.5081 59.4503 61.1182 59.4503 63.3475C59.4503 65.5354 58.816 67.1868 57.5475 68.2601C56.279 69.3748 54.7568 69.9114 53.0655 69.9114C51.3319 69.9114 49.8519 69.3748 48.5412 68.2601C47.2727 67.1455 46.5961 65.4942 46.5961 63.3062ZM49.3868 63.3062C49.3868 64.8336 49.6828 65.907 50.2325 66.6088C50.8245 67.3106 51.4164 67.7647 52.1352 67.9299C52.3044 67.9711 52.4312 68.0124 52.6004 68.0124C52.7272 68.0124 52.8963 68.0537 53.0232 68.0537C53.1923 68.0537 53.3192 68.0537 53.4883 68.0124C53.6574 68.0124 53.7843 67.9711 53.9534 67.9299C54.63 67.7647 55.2642 67.3106 55.8139 66.6088C56.3636 65.907 56.6596 64.7924 56.6596 63.3475C56.6596 61.8613 56.3636 60.7879 55.8139 60.0861C55.2642 59.3843 54.63 58.9302 53.9534 58.7651C53.7843 58.7238 53.6152 58.6825 53.4883 58.6825C53.3192 58.6825 53.1923 58.6412 53.0232 58.6412C52.8541 58.6412 52.7272 58.6412 52.6004 58.6825C52.4735 58.6825 52.3044 58.7238 52.1352 58.7651C51.4587 58.9302 50.8245 59.3843 50.2325 60.0861C49.6828 60.7053 49.3868 61.82 49.3868 63.3062Z" fill="#333333"/>
<path d="M61.3107 56.8661H68.668V59.0128H63.9745V62.1503H68.4566V64.3383H63.9745V69.7464H61.3107V56.8661Z" fill="#333333"/>
<path d="M70.6553 56.8661H78.0126V59.0128H73.3192V62.1503H77.8012V64.3383H73.3192V69.7464H70.6553V56.8661Z" fill="#333333"/>
<path d="M79.5773 69.7464V56.8661H82.2411V69.7464H79.5773Z" fill="#333333"/>
<path d="M93.9786 57.1551V59.3844C93.5135 59.2192 93.0484 59.0954 92.541 59.0128C92.0336 58.9303 91.4416 58.889 90.8497 58.889C89.4543 58.889 88.3972 59.3018 87.6361 60.1687C86.875 60.9944 86.4945 62.0678 86.4945 63.3475C86.4945 64.586 86.8327 65.6181 87.5516 66.4437C88.2704 67.2694 89.2852 67.7235 90.596 67.7235C91.0611 67.7235 91.5262 67.6822 92.0759 67.6409C92.6256 67.5584 93.1752 67.4345 93.7672 67.1868L93.9363 69.3748C93.8518 69.4161 93.7249 69.4574 93.5981 69.4987C93.4289 69.54 93.2598 69.5812 93.0484 69.6225C92.7101 69.7051 92.2873 69.7464 91.7799 69.8289C91.2725 69.8702 90.7651 69.9115 90.2154 69.9115C90.1308 69.9115 90.0463 69.9115 90.004 69.9115C89.9194 69.9115 89.8349 69.9115 89.7926 69.9115C88.2704 69.8289 86.875 69.251 85.6065 68.2602C84.338 67.2281 83.7038 65.6181 83.7038 63.4714C83.7038 61.3659 84.338 59.7146 85.5643 58.5587C86.7905 57.4028 88.4818 56.8248 90.5537 56.8248C91.1034 56.8248 91.6108 56.8248 92.0336 56.8661C92.4987 56.9074 92.9215 56.99 93.3867 57.0725C93.4712 57.1138 93.5981 57.1138 93.6826 57.1551C93.7672 57.1138 93.8518 57.1551 93.9786 57.1551Z" fill="#333333"/>
<path d="M96.0931 56.8666H104V58.8894H98.7992V62.1095H103.493V64.0911H98.7992V67.724H104V69.7468H96.0931V56.8666Z" fill="#333333"/>
<defs>
<linearGradient id="paint0_linear" x1="51.9831" y1="55.2962" x2="51.9831" y2="22.2099" gradientUnits="userSpaceOnUse">
<stop stop-color="#FCC2B1"/>
<stop offset="0.8848" stop-color="#D9420B"/>
</linearGradient>
<linearGradient id="paint1_linear" x1="51.9831" y1="40.9707" x2="51.9831" y2="19.2108" gradientUnits="userSpaceOnUse">
<stop stop-color="#DEEDC9"/>
<stop offset="0.6606" stop-color="#8BBA25"/>
</linearGradient>
<linearGradient id="paint2_linear" x1="51.983" y1="32.1597" x2="51.983" y2="2.5492" gradientUnits="userSpaceOnUse">
<stop stop-color="#C2EBFA"/>
<stop offset="1" stop-color="#26A8DE"/>
</linearGradient>
</defs>
</svg>
