<svg width="160" height="30" viewBox="0 0 160 30" fill="none" xmlns="http://www.w3.org/2000/svg">
<path fill-rule="evenodd" clip-rule="evenodd" d="M14.2892 29.6322L0.858097 23.4532C-0.286032 22.9138 -0.286032 22.0801 0.858097 21.5897L5.53411 19.432L14.2394 23.4532C15.3836 23.9927 17.2241 23.9927 18.3185 23.4532L27.0238 19.432L31.6999 21.5897C32.844 22.1292 32.844 22.9629 31.6999 23.4532L18.2688 29.6322C17.2241 30.1226 15.3836 30.1226 14.2892 29.6322Z" fill="url(#paint0_linear)"/>
<path fill-rule="evenodd" clip-rule="evenodd" d="M14.2892 22.0311L0.858097 15.8521C-0.286032 15.3126 -0.286032 14.479 0.858097 13.9886L5.43462 11.8799L14.2892 15.9502C15.4333 16.4896 17.2739 16.4896 18.3683 15.9502L27.2228 11.8799L31.7993 13.9886C32.9435 14.528 32.9435 15.3617 31.7993 15.8521L18.3683 22.0311C17.2241 22.5705 15.3836 22.5705 14.2892 22.0311Z" fill="url(#paint1_linear)"/>
<path fill-rule="evenodd" clip-rule="evenodd" d="M14.2892 14.626L0.858097 8.44705C-0.286032 7.90762 -0.286032 7.07395 0.858097 6.58355L14.2892 0.404576C15.4333 -0.134859 17.2739 -0.134859 18.3683 0.404576L31.7993 6.58355C32.9435 7.12299 32.9435 7.95666 31.7993 8.44705L18.3683 14.626C17.2241 15.1164 15.3836 15.1164 14.2892 14.626Z" fill="url(#paint2_linear)"/>
<path d="M38.791 14.6665C38.791 12.111 39.5302 10.1823 41.0579 8.92867C42.5363 7.62682 44.3104 7 46.3309 7C48.3513 7 50.0762 7.62682 51.5546 8.92867C53.033 10.2305 53.7722 12.111 53.7722 14.7147C53.7722 17.2702 53.033 19.1989 51.5546 20.4525C50.0762 21.7544 48.3021 22.3812 46.3309 22.3812C44.3104 22.3812 42.5856 21.7544 41.0579 20.4525C39.5302 19.1506 38.791 17.222 38.791 14.6665ZM42.0435 14.6665C42.0435 16.4505 42.3885 17.7041 43.0291 18.5238C43.719 19.3435 44.4582 19.8739 45.2467 20.0668C45.4438 20.115 45.5917 20.1632 45.7888 20.1632C45.9366 20.1632 46.1337 20.2114 46.2816 20.2114C46.4787 20.2114 46.6265 20.2114 46.8237 20.1632C47.0208 20.1632 47.1686 20.115 47.3657 20.0668C48.1542 19.8739 48.8934 19.3435 49.5341 18.5238C50.1747 17.7041 50.5197 16.4023 50.5197 14.7147C50.5197 12.9789 50.1747 11.7253 49.5341 10.9056C48.8934 10.0859 48.1542 9.55549 47.3657 9.36263C47.1686 9.31441 46.9715 9.26619 46.8237 9.26619C46.6265 9.26619 46.4787 9.21798 46.2816 9.21798C46.0845 9.21798 45.9366 9.21798 45.7888 9.26619C45.6409 9.26619 45.4438 9.31441 45.2467 9.36263C44.4582 9.55549 43.719 10.0859 43.0291 10.9056C42.3885 11.6288 42.0435 12.9307 42.0435 14.6665Z" fill="#666666"/>
<path d="M55.3983 7.14429H59.4393L64.7615 16.5948L65.55 18.6681H65.5993L65.55 15.968V7.14429H68.6546V22.1879H64.6137L59.2914 12.3517L58.503 10.6641H58.4537L58.503 13.316V22.1879H55.3983V7.14429Z" fill="#666666"/>
<path d="M71.8579 7.14429H74.9626V19.6324H81.0733V22.1879H71.8579V7.14429Z" fill="#666666"/>
<path d="M79.1514 7.14429H82.7488L85.9027 12.3999L86.3955 13.4607H86.4941L86.9869 12.3999L90.1901 7.14429H93.4919L87.9232 16.0644V22.1879H84.8186V16.0162L79.1514 7.14429Z" fill="#666666"/>
<path d="M93.0977 14.6665C93.0977 12.111 93.8369 10.1823 95.3645 8.92867C96.8429 7.62682 98.617 7 100.638 7C102.658 7 104.383 7.62682 105.861 8.92867C107.34 10.2305 108.079 12.111 108.079 14.7147C108.079 17.2702 107.34 19.1989 105.861 20.4525C104.383 21.7544 102.609 22.3812 100.638 22.3812C98.617 22.3812 96.8922 21.7544 95.3645 20.4525C93.8861 19.1506 93.0977 17.222 93.0977 14.6665ZM96.3501 14.6665C96.3501 16.4505 96.6951 17.7041 97.3357 18.5238C98.0257 19.3435 98.7156 19.8739 99.5533 20.0668C99.7505 20.115 99.8983 20.1632 100.095 20.1632C100.243 20.1632 100.44 20.2114 100.588 20.2114C100.785 20.2114 100.933 20.2114 101.13 20.1632C101.327 20.1632 101.475 20.115 101.672 20.0668C102.461 19.8739 103.2 19.3435 103.841 18.5238C104.481 17.7041 104.826 16.4023 104.826 14.7147C104.826 12.9789 104.481 11.7253 103.841 10.9056C103.2 10.0859 102.461 9.55549 101.672 9.36263C101.475 9.31441 101.278 9.26619 101.13 9.26619C100.933 9.26619 100.785 9.21798 100.588 9.21798C100.391 9.21798 100.243 9.21798 100.095 9.26619C99.9476 9.26619 99.7505 9.31441 99.5533 9.36263C98.7649 9.55549 98.0257 10.0859 97.3357 10.9056C96.6951 11.6288 96.3501 12.9307 96.3501 14.6665Z" fill="#333333"/>
<path d="M110.247 7.14429H118.822V9.65156H113.352V13.316H118.575V15.8715H113.352V22.1879H110.247V7.14429Z" fill="#333333"/>
<path d="M121.138 7.14429H129.713V9.65156H124.243V13.316H129.466V15.8715H124.243V22.1879H121.138V7.14429Z" fill="#333333"/>
<path d="M131.536 22.1879V7.14429H134.641V22.1879H131.536Z" fill="#333333"/>
<path d="M148.32 7.48193V10.0856C147.778 9.89277 147.236 9.74812 146.645 9.65168C146.054 9.55525 145.364 9.50703 144.674 9.50703C143.048 9.50703 141.816 9.9892 140.928 11.0018C140.041 11.9661 139.598 13.2197 139.598 14.7145C139.598 16.161 139.992 17.3664 140.83 18.3307C141.668 19.2951 142.85 19.8254 144.378 19.8254C144.92 19.8254 145.462 19.7772 146.103 19.729C146.744 19.6326 147.384 19.4879 148.074 19.1986L148.271 21.7541C148.173 21.8023 148.025 21.8505 147.877 21.8988C147.68 21.947 147.483 21.9952 147.236 22.0434C146.842 22.1398 146.349 22.1881 145.758 22.2845C145.167 22.3327 144.575 22.3809 143.935 22.3809C143.836 22.3809 143.737 22.3809 143.688 22.3809C143.59 22.3809 143.491 22.3809 143.442 22.3809C141.668 22.2845 140.041 21.6095 138.563 20.4523C137.085 19.2468 136.345 17.3664 136.345 14.8591C136.345 12.4 137.085 10.4714 138.514 9.1213C139.943 7.77123 141.914 7.09619 144.329 7.09619C144.969 7.09619 145.561 7.09619 146.054 7.14441C146.596 7.19263 147.088 7.28906 147.631 7.38549C147.729 7.43371 147.877 7.43371 147.976 7.48193C148.074 7.43371 148.173 7.48193 148.32 7.48193Z" fill="#333333"/>
<path d="M150.784 7.14441H160V9.50703H153.938V13.2679H159.408V15.5824H153.938V19.8254H160V22.1881H150.784V7.14441Z" fill="#333333"/>
<defs>
<linearGradient id="paint0_linear" x1="16.3171" y1="35.4892" x2="16.3171" y2="12.9304" gradientUnits="userSpaceOnUse">
<stop stop-color="#FCC2B1"/>
<stop offset="0.8848" stop-color="#D9420B"/>
</linearGradient>
<linearGradient id="paint1_linear" x1="16.3171" y1="25.7219" x2="16.3171" y2="10.8856" gradientUnits="userSpaceOnUse">
<stop stop-color="#DEEDC9"/>
<stop offset="0.6606" stop-color="#8BBA25"/>
</linearGradient>
<linearGradient id="paint2_linear" x1="16.3171" y1="19.7143" x2="16.3171" y2="-0.474653" gradientUnits="userSpaceOnUse">
<stop stop-color="#C2EBFA"/>
<stop offset="1" stop-color="#26A8DE"/>
</linearGradient>
</defs>
</svg>
