<svg xmlns="http://www.w3.org/2000/svg" viewBox="0 0 233.58 172.91"><defs><style>.cls-1{fill:#002fa7;}.cls-2{fill:#fff;}</style></defs><g id="图层_2" data-name="图层 2"><g id="图层_1-2" data-name="图层 1"><path class="cls-1" d="M114.87.52,70,26.43a3.87,3.87,0,0,0-1.94,3.36V81.6A3.9,3.9,0,0,0,70,85l44.87,25.9a3.91,3.91,0,0,0,3.89,0L163.63,85a3.9,3.9,0,0,0,1.94-3.37V29.79a3.87,3.87,0,0,0-1.94-3.36L118.76.52A3.91,3.91,0,0,0,114.87.52Z"/><path class="cls-2" d="M151.35,36.85c-4.08-1.06-9-.05-11.16,2.28s-.92,5.49,3.27,6.82c4.39,1.4,9.92.3,12.07-2.42S155.61,38,151.35,36.85Z"/><path class="cls-2" d="M125.19,67.77a12.32,12.32,0,0,0-13.77,2.64c-3.54,3.79-3.15,9.12,1.26,11.87,4.68,2.93,11.67,1.64,15.18-2.82A7.39,7.39,0,0,0,125.19,67.77Z"/><path class="cls-2" d="M133.67,32.28a12.49,12.49,0,0,0-6.13.12,11.3,11.3,0,0,1-4.76-.14,3.68,3.68,0,0,1-2.66-1.92,1.58,1.58,0,0,0-.1-.43s0,0,0-.06h0a3.38,3.38,0,0,0-2.45-1.72.61.61,0,0,0-.13,0,10.14,10.14,0,0,0-4.78-.17c-3.55.66-6.15,2.71-5.81,4.58a10.21,10.21,0,0,1-.06,1A4.34,4.34,0,0,1,105,36a8.39,8.39,0,0,1-3.2,1.69,14.83,14.83,0,0,1-2,.26,19.55,19.55,0,0,0-2.81.17,5.75,5.75,0,0,0-3.17,1.59,3.78,3.78,0,0,0-.88,3A5.5,5.5,0,0,1,93,44h0a5.55,5.55,0,0,1-2.37,3.67,12.93,12.93,0,0,1-5.41,2.49h0a13.54,13.54,0,0,0-5.87,2.6c-3.38,2.64-4.16,6.12-1.53,7.76,1.54,1,3.89,1.06,6.29.41a8,8,0,0,1,5.15.72,4.42,4.42,0,0,1,1.78,1.81,3.24,3.24,0,0,1,.32,1,4.12,4.12,0,0,1,.07.78h0a4.91,4.91,0,0,0,2.25,5.21c3.57,2.22,9.6,1.06,13.14-2.55,3.38-3.45,3-7.63-.64-9.39a10.13,10.13,0,0,0-6.91-.37,8.66,8.66,0,0,1-5.24-.66,3.54,3.54,0,0,1-2.14-3.24,6.83,6.83,0,0,1,.42-1.64,9.92,9.92,0,0,1,2.16-3.13,9.55,9.55,0,0,1,4.44-2.36c.68-.18,1.79-.41,2-.43a10.64,10.64,0,0,1,4.93.41c1.41.57,2.45,1.5,2.54,2.66a4.47,4.47,0,0,0,2.8,4,11.61,11.61,0,0,0,11.84-2.37c2.7-2.76,1.8-6-1.78-7.24a11.39,11.39,0,0,0-6.5-.08,10,10,0,0,1-5-.35c-1.46-.55-2.42-1.44-2.47-2.48a5.59,5.59,0,0,1,1.77-3.87,11.79,11.79,0,0,1,3.91-2,12.63,12.63,0,0,1,1.85-.43,11.79,11.79,0,0,1,4.69.19c1.4.42,2.68,1.19,2.72,2,.06,1.1,1.15,2.41,3.13,3,3.55,1.14,8.47.13,10.77-2.21S137.16,33.19,133.67,32.28Z"/><path d="M179.58,127.91h5.24a.67.67,0,0,1,.67.67v34.33a.67.67,0,0,1-.67.67h-5.24a.67.67,0,0,1-.67-.67V128.58A.67.67,0,0,1,179.58,127.91Z"/><path d="M150.29,133.87v-5.28a.68.68,0,0,0-.69-.68H127.87a.68.68,0,0,0-.68.68V162.9a.68.68,0,0,0,.68.68H149.6a.68.68,0,0,0,.69-.68v-5.31a.69.69,0,0,0-.69-.68H134.9a.67.67,0,0,1-.68-.68v-8a.67.67,0,0,1,.68-.68h13.25a.68.68,0,0,0,.68-.68v-5.17a.68.68,0,0,0-.68-.68H134.9a.67.67,0,0,1-.68-.68v-5.09a.68.68,0,0,1,.68-.68h14.7A.68.68,0,0,0,150.29,133.87Z"/><path d="M231.73,136.84a10.85,10.85,0,0,0-5.28,2.68.09.09,0,0,1-.15-.06v-2.72a.67.67,0,0,0-.67-.68h-4.88a.67.67,0,0,0-.67.68V163a.67.67,0,0,0,.67.68h4.88a.67.67,0,0,0,.67-.68v-6.45c0-.33,0-5.19,0-6.82a5.5,5.5,0,0,1,1.49-4.17,9,9,0,0,1,5.4-3,.41.41,0,0,0,.39-.42V137a.35.35,0,0,0-.36-.34A11,11,0,0,0,231.73,136.84Z"/><path d="M63.82,143A13.45,13.45,0,0,0,58.71,138a13.91,13.91,0,0,0-7-1.87,13,13,0,0,0-7.47,2.3.34.34,0,0,1-.53-.28v-.57a.67.67,0,0,0-.67-.67h-5.2a.67.67,0,0,0-.67.67v34.7a.67.67,0,0,0,.67.67h5.2a.67.67,0,0,0,.67-.67v-10.4a.33.33,0,0,1,.51-.27,13,13,0,0,0,7.51,2.27,13.82,13.82,0,0,0,7-1.83,13.36,13.36,0,0,0,5-5.08,13.94,13.94,0,0,0,1.84-7A13.69,13.69,0,0,0,63.82,143Zm-6.76,12.18a7.23,7.23,0,0,1-12.44-5.28,7,7,0,0,1,2.07-5.22,7.38,7.38,0,0,1,10.37,10.5Z"/><path d="M88,155.09a7.13,7.13,0,0,1-5.22,2,7,7,0,0,1-5.18-2,6.57,6.57,0,0,1-1.71-2.94.35.35,0,0,1,.33-.44H95.87a.67.67,0,0,0,.67-.61c0-.43.06-.87.06-1.31a13.69,13.69,0,0,0-1.83-6.91,13.49,13.49,0,0,0-5.1-5.07,14,14,0,0,0-7-1.87,13.16,13.16,0,0,0-9.1,3.59,14,14,0,0,0-.52,20.12,13.08,13.08,0,0,0,9.64,4,13.89,13.89,0,0,0,7-1.83A13.14,13.14,0,0,0,94,158a.42.42,0,0,0-.18-.62L88.53,155A.45.45,0,0,0,88,155.09Zm-10.38-10.5a7.7,7.7,0,0,1,10.41,0,6.55,6.55,0,0,1,1.13,1.51.34.34,0,0,1-.3.5H76.82a.34.34,0,0,1-.3-.5A6.56,6.56,0,0,1,77.64,144.59Z"/><path d="M112.05,136.11a11.46,11.46,0,0,0-11.43,11.48v15.3a.69.69,0,0,0,.69.69h5.23a.69.69,0,0,0,.69-.69v-15.3a4.82,4.82,0,1,1,9.64,0v15.3a.69.69,0,0,0,.69.69h5.23a.69.69,0,0,0,.69-.69v-15.3A11.46,11.46,0,0,0,112.05,136.11Z"/><path d="M163.86,163.58a11.46,11.46,0,0,0,11.43-11.48V136.81a.7.7,0,0,0-.7-.7h-5.21a.7.7,0,0,0-.7.7V152.1a4.82,4.82,0,1,1-9.64,0V136.81a.7.7,0,0,0-.7-.7h-5.21a.7.7,0,0,0-.7.7V152.1A11.46,11.46,0,0,0,163.86,163.58Z"/><path d="M15.28,127.62,1,135.89A1.9,1.9,0,0,0,0,137.54v16.54a1.9,1.9,0,0,0,1,1.65L15.28,164a1.87,1.87,0,0,0,1.91,0l14.32-8.27a1.9,1.9,0,0,0,.95-1.65V137.54a1.9,1.9,0,0,0-.95-1.65l-14.32-8.27A1.92,1.92,0,0,0,15.28,127.62Zm10.09,23.87-8.79,5.07a.68.68,0,0,1-.7,0L7.1,151.49a.68.68,0,0,1-.35-.6V140.74a.71.71,0,0,1,.35-.61l8.78-5.07a.73.73,0,0,1,.7,0l8.79,5.07a.73.73,0,0,1,.35.61v10.15A.7.7,0,0,1,25.37,151.49Z"/><path d="M208,155.09a7.13,7.13,0,0,1-5.22,2,7,7,0,0,1-5.18-2,6.57,6.57,0,0,1-1.71-2.94.35.35,0,0,1,.33-.44h19.63a.67.67,0,0,0,.67-.61c0-.43.06-.87.06-1.31a13.69,13.69,0,0,0-1.83-6.91,13.49,13.49,0,0,0-5.1-5.07,14,14,0,0,0-7-1.87,13.16,13.16,0,0,0-9.1,3.59,14,14,0,0,0-.52,20.12,13.08,13.08,0,0,0,9.64,4,13.89,13.89,0,0,0,7-1.83,13.14,13.14,0,0,0,4.26-3.93.42.42,0,0,0-.18-.62L208.47,155A.45.45,0,0,0,208,155.09Zm-10.38-10.5a7.7,7.7,0,0,1,10.41,0,6.55,6.55,0,0,1,1.13,1.51.34.34,0,0,1-.3.5H196.76a.34.34,0,0,1-.3-.5A6.56,6.56,0,0,1,197.58,144.59Z"/></g></g></svg>