<?xml version="1.0" encoding="UTF-8"?><svg id="_层_1" xmlns="http://www.w3.org/2000/svg" viewBox="0 0 3040.37 1644.09"><defs><style>.cls-1{fill:#201e27;}.cls-2{fill:#106ab1;fill-rule:evenodd;}</style></defs><g><g><path class="cls-1" d="M300.95,1245.93h-72.35v132.13h-34.31v-132.13H110.73c-1.14,16.3-3.17,30.63-6.11,42.97-2.95,12.34-7.3,23.89-13.08,34.65-5.77,10.76-13.14,21.23-22.08,31.42-8.95,10.19-19.99,21.06-33.12,32.61l-25.81-25.81c11.77-9.97,21.68-19.19,29.72-27.68,8.04-8.49,14.55-17.15,19.53-25.98,4.98-8.83,8.71-18.17,11.21-28.02,2.49-9.85,4.19-21.23,5.1-34.14H0v-33.29H77.11v-85.94H17.32v-33.29H283.28v33.29h-54.69v85.94h72.35v33.29Zm-106.66-33.29v-85.94H111.75v85.94h82.54Z"/><path class="cls-1" d="M576.08,1287.71c19.02,23.55,43.36,45.4,73.03,65.56l-20.38,31.25c-14.49-10.42-27.8-21.23-39.91-32.44-12.12-11.21-23.16-23.04-33.12-35.5-9.74,12-20.78,23.55-33.12,34.65-12.35,11.09-26.32,22.42-41.95,33.97l-20.04-23.78c-3.17,2.49-7.25,4.36-12.23,5.6-4.98,1.24-10.76,2.21-17.32,2.89l-18.68,2.04-9.85-34.99,17.32-2.04c7.92-.9,13.36-2.77,16.3-5.6,2.94-2.83,4.64-7.53,5.1-14.1,.22-1.81,.45-4.92,.68-9.34,.22-4.42,.51-9.51,.85-15.29,.34-5.77,.68-11.89,1.02-18.34,.34-6.45,.68-12.57,1.02-18.34,.34-5.77,.62-10.87,.85-15.28,.22-4.42,.34-7.53,.34-9.34h-38.04c-.91,18.57-2.38,34.65-4.42,48.23-2.04,13.59-4.81,26.04-8.32,37.36-3.51,11.33-8.04,22.25-13.59,32.78-5.55,10.53-12.17,22.02-19.87,34.48l-29.21-20.04c8.15-12.23,14.89-23.72,20.21-34.48,5.32-10.75,9.68-22.53,13.08-35.33,3.4-12.79,5.89-27.45,7.47-43.99,1.58-16.53,2.6-36.68,3.06-60.46,.22-4.08,.45-9,.68-14.78,.22-5.77,.45-11.6,.68-17.49h-28.19v-33.63h60.46c-1.82-7.02-3.85-14.78-6.11-23.27-2.27-8.49-4.3-15.23-6.11-20.21l31.25-4.42c.9,2.72,1.98,6,3.23,9.85,1.24,3.85,2.55,7.93,3.91,12.23,1.36,4.3,2.6,8.72,3.74,13.25,1.13,4.53,2.26,8.72,3.4,12.57h51.63v33.63h-84.58c0,3.62-.06,7.3-.17,11.04-.12,3.74-.23,7.3-.34,10.7-.12,3.4-.23,6.45-.34,9.17-.12,2.72-.17,4.87-.17,6.45v2.72h64.88c4.98-7.92,10.13-16.92,15.46-27,5.32-10.07,10.24-20.6,14.78-31.59,4.53-10.98,8.6-22.08,12.23-33.29,3.62-11.21,6.45-21.91,8.49-32.1l33.97,5.43c-2.04,7.93-4.25,15.85-6.62,23.78-2.38,7.93-4.92,15.74-7.64,23.44h96.81v34.65h-26.49c-3.17,26.27-7.76,49.82-13.76,70.65-6,20.84-14.44,40.2-25.31,58.08Zm-105.64,59.44c26.72-19.02,48.34-38.83,64.88-59.44-7.25-12.23-13.59-24.68-19.02-37.36-5.43-12.68-9.74-25.93-12.91-39.74l-9.51,13.59-15.96-18.34c-.23,4.98-.51,11.1-.85,18.34-.34,7.25-.63,15-.85,23.27-.23,8.27-.51,16.59-.85,24.97-.34,8.38-.63,16.25-.85,23.61-.23,7.36-.46,13.76-.68,19.19-.23,5.44-.34,9.29-.34,11.55-.46,8.15-1.48,14.95-3.06,20.38Zm60.8-188.18l-5.1,10.53c2.26,16.3,5.83,31.71,10.7,46.2,4.87,14.49,10.92,28.19,18.17,41.1,7.24-13.81,13.08-28.7,17.49-44.67,4.42-15.96,7.75-33.68,10.02-53.16h-51.29Z"/><path class="cls-1" d="M886.87,1270.72v69.63c0,7.47-.63,13.53-1.87,18.17-1.25,4.64-3.46,8.38-6.62,11.21-3.17,2.83-7.36,4.92-12.57,6.28-5.21,1.36-11.89,2.38-20.04,3.06l-22.42,2.04-9.51-32.95,18.68-2.04c4.53-.45,8.09-1.02,10.7-1.7,2.6-.68,4.59-1.7,5.94-3.06,1.36-1.36,2.26-3.17,2.72-5.43,.45-2.26,.68-5.1,.68-8.49v-56.72h-75.75v-127.04h61.82c1.58-4.3,3.11-8.54,4.59-12.74,1.47-4.19,2.77-8.43,3.91-12.74h-95.45v82.88c0,22.88-.8,42.97-2.38,60.29-1.59,17.32-4.13,33.12-7.64,47.38-3.51,14.27-7.98,27.51-13.42,39.74-5.43,12.23-12,24.8-19.7,37.7l-30.23-23.44c7.47-12.91,13.7-24.63,18.68-35.16,4.98-10.53,9-21.68,12.06-33.46,3.06-11.77,5.27-24.91,6.62-39.4,1.36-14.49,2.04-32.04,2.04-52.65v-115.49h264.26v31.59h-120.58l20.72,4.08c-.91,3.17-1.93,6.57-3.06,10.19-1.14,3.62-2.27,7.36-3.4,11.21h84.58v127.04h-73.37Zm-59.44,27.85c-3.85,5.66-8.38,11.78-13.59,18.34-5.21,6.57-10.7,13.25-16.47,20.04s-11.72,13.42-17.83,19.87c-6.11,6.45-12.01,12.51-17.66,18.17l-22.08-26.15c11.55-10.64,22.7-22.08,33.46-34.31,10.75-12.23,20.09-23.89,28.02-34.99l26.15,19.02Zm-18.68-126.7v21.4h120.24v-21.4h-120.24Zm0,71.33h120.24v-21.06h-120.24v21.06Zm113.79,38.38c4.98,3.85,10.36,8.27,16.13,13.25,5.77,4.98,11.6,10.19,17.49,15.62,5.89,5.43,11.6,10.99,17.15,16.64,5.55,5.66,10.7,11.1,15.46,16.3l-20.72,26.49c-4.53-4.98-9.74-10.59-15.62-16.81-5.89-6.23-11.95-12.45-18.17-18.68-6.23-6.23-12.29-12.11-18.17-17.66-5.89-5.55-11.1-10.24-15.62-14.1l22.08-21.06Z"/><path class="cls-1" d="M1323.69,1244.91h-129.07v87.29c0,8.38-.63,15.23-1.87,20.55-1.25,5.32-3.57,9.56-6.96,12.74-3.4,3.17-8.1,5.55-14.1,7.13-6,1.58-13.76,2.83-23.27,3.74l-29.55,2.72-11.55-34.99,29.89-2.04c4.98-.22,8.94-.73,11.89-1.53,2.94-.79,5.21-1.98,6.79-3.57,1.58-1.58,2.6-3.74,3.06-6.45,.45-2.72,.68-6.23,.68-10.53v-75.07h-130.09v-33.29h130.09v-28.87l87.3-58.08h-189.2v-33.29h247.96v33.97l-111.07,73.03v13.25h129.07v33.29Z"/><path class="cls-1" d="M1667.77,1245.93h-72.35v132.13h-34.31v-132.13h-83.56c-1.14,16.3-3.17,30.63-6.11,42.97-2.95,12.34-7.3,23.89-13.08,34.65-5.77,10.76-13.14,21.23-22.08,31.42-8.95,10.19-19.99,21.06-33.12,32.61l-25.82-25.81c11.77-9.97,21.68-19.19,29.72-27.68,8.04-8.49,14.55-17.15,19.53-25.98,4.98-8.83,8.71-18.17,11.21-28.02,2.49-9.85,4.19-21.23,5.1-34.14h-76.09v-33.29h77.1v-85.94h-59.78v-33.29h265.96v33.29h-54.69v85.94h72.35v33.29Zm-106.66-33.29v-85.94h-82.54v85.94h82.54Z"/><path class="cls-1" d="M1765.25,1227.25c-3.85-4.08-8.21-8.38-13.08-12.91-4.87-4.53-9.85-9.05-14.95-13.59-5.09-4.53-10.14-8.83-15.12-12.91-4.98-4.08-9.4-7.47-13.25-10.19l16.64-24.8c4.08,2.72,8.71,5.94,13.93,9.68,5.21,3.74,10.47,7.76,15.79,12.06,5.32,4.3,10.41,8.55,15.29,12.74,4.87,4.19,9.22,8.1,13.08,11.72l-18.34,28.19Zm11.21,25.48c-.46,2.27-1.42,6.68-2.89,13.25-1.48,6.57-3.29,14.16-5.43,22.76-2.15,8.61-4.42,17.78-6.79,27.51-2.38,9.74-4.64,18.85-6.79,27.34-2.15,8.49-4.08,15.85-5.77,22.08-1.7,6.23-2.78,10.24-3.23,12.06l-31.25-8.49c.9-2.49,2.21-6.85,3.91-13.08,1.7-6.23,3.68-13.47,5.94-21.74,2.26-8.26,4.53-17.04,6.79-26.32,2.26-9.28,4.42-18.11,6.45-26.49,2.04-8.38,3.79-15.85,5.27-22.42,1.47-6.57,2.43-11.32,2.89-14.27l30.91,7.81Zm-.68-101.56c-3.17-3.4-7.02-7.3-11.55-11.72-4.53-4.42-9.34-8.83-14.44-13.25-5.1-4.42-10.14-8.66-15.12-12.74-4.98-4.08-9.4-7.58-13.25-10.53l18.34-24.12c3.85,2.5,8.21,5.55,13.08,9.17,4.87,3.62,9.79,7.42,14.78,11.38,4.98,3.96,9.79,7.93,14.44,11.89,4.64,3.96,8.66,7.53,12.06,10.7l-18.34,29.21Zm159.31,125.68v63.18c0,7.47-.63,13.53-1.87,18.17-1.25,4.64-3.4,8.43-6.45,11.38-3.06,2.94-7.02,5.04-11.89,6.28-4.87,1.24-10.82,2.21-17.83,2.89l-16.64,1.36-9.85-31.25,15.62-1.36c3.85-.23,6.91-.68,9.17-1.36,2.26-.68,3.96-1.7,5.09-3.06,1.13-1.36,1.87-3.34,2.21-5.94,.34-2.6,.51-5.94,.51-10.02v-50.27h-55.71v-127.72h45.86c1.58-4.98,3.06-9.85,4.42-14.61,1.36-4.75,2.6-9.62,3.74-14.61h-72.01v81.86c0,21.06-.63,39.69-1.87,55.88-1.25,16.19-3.34,31.31-6.28,45.35-2.95,14.04-6.85,27.57-11.72,40.59-4.87,13.02-10.93,26.66-18.17,40.93l-30.57-14.27c7.47-14.27,13.59-27.51,18.34-39.74,4.76-12.23,8.49-24.74,11.21-37.53,2.72-12.79,4.59-26.38,5.61-40.76,1.02-14.38,1.53-30.85,1.53-49.42v-114.47h210.26v31.59h-87.97l13.93,2.38c-1.14,3.85-2.32,8.15-3.57,12.91-1.25,4.75-2.66,9.4-4.25,13.93h63.52v127.72h-54.35Zm-51.63,26.16c-3.17,5.89-6.74,12.06-10.7,18.51-3.96,6.45-8.1,12.85-12.4,19.19-4.3,6.34-8.66,12.51-13.08,18.51-4.42,6-8.66,11.49-12.74,16.47l-23.1-19.02c8.83-10.64,17.44-21.85,25.82-33.63,8.38-11.77,15.4-23.44,21.06-34.99l25.14,14.95Zm-4.42-126.7v23.78h78.8v-23.78h-78.8Zm0,73.03h78.8v-22.76h-78.8v22.76Zm94.09,39.06c3.17,3.85,6.9,8.49,11.21,13.93,4.3,5.43,8.66,11.21,13.08,17.32,4.42,6.11,8.6,12.17,12.57,18.17,3.96,6,7.3,11.38,10.02,16.13l-23.78,19.7c-2.72-4.76-6.11-10.36-10.19-16.81-4.08-6.45-8.27-12.96-12.57-19.53-4.3-6.57-8.55-12.74-12.74-18.51-4.19-5.77-7.87-10.58-11.04-14.44l23.44-15.96Z"/><path class="cls-1" d="M2218.03,1319.98v28.53h115.83v26.49h-265.96v-26.49h116.85v-28.53h-61.14v-21.74c-18.12,14.72-39.29,27.97-63.52,39.74l-13.93-30.57c17.66-7.7,33.4-16.08,47.21-25.13,13.81-9.05,25.48-18.79,34.99-29.21h-73.37v-25.48h55.71v-100.54h-44.84v-25.82h44.84v-24.79l32.61,1.36v23.44h116.17v-24.79l32.27,1.36v23.44h44.84v25.82h-44.84v100.54h56.05v25.48h-74.05c10.64,11.78,22.64,21.57,36,29.38,13.36,7.81,28.75,15.34,46.2,22.59l-13.93,30.23c-12.68-5.89-24.29-11.94-34.82-18.17-10.53-6.23-20.44-12.96-29.72-20.21v23.1h-59.44Zm-33.29-26.49v-27.85l33.29,1.36v26.49h55.03c-6.79-5.89-13.25-12.11-19.36-18.68-6.11-6.57-11.89-13.81-17.32-21.74h-70.65c-8.83,14.04-20.95,27.51-36.34,40.42h55.37Zm-41.44-166.44v15.62h116.17v-15.62h-116.17Zm0,58.08h116.17v-18h-116.17v18Zm0,42.46h116.17v-19.02h-116.17v19.02Z"/><path class="cls-1" d="M2560.42,1340.02h123.64v31.25h-280.91v-31.25h123.64v-73.03h-66.24c2.72,2.95,5.94,6.4,9.68,10.36,3.74,3.96,7.53,8.15,11.38,12.57,3.85,4.42,7.58,8.83,11.21,13.25,3.62,4.42,6.68,8.55,9.17,12.4l-21.74,24.46c-2.72-4.08-6.06-8.6-10.02-13.59-3.96-4.98-7.98-10.02-12.06-15.12-4.08-5.09-8.1-9.9-12.06-14.44-3.96-4.53-7.42-8.26-10.36-11.21l20.38-18.68h-34.99v-31.59h105.64v-34.31h-68.27v-22.08c-16.3,9.97-34.2,19.48-53.67,28.53l-14.27-32.27c32.38-13.81,60-29.09,82.88-45.86,22.87-16.76,41.78-35.78,56.72-57.06h28.53c14.95,20.84,33.97,39.57,57.06,56.21,23.1,16.64,50.04,31.2,80.84,43.65l-13.25,32.95c-9.51-3.85-18.8-8.15-27.85-12.91-9.06-4.76-18-9.73-26.83-14.95v23.78h-68.27v34.31h105.64v31.59h-34.31l19.02,15.29c-3.17,4.53-6.51,9.29-10.02,14.27-3.51,4.98-7.19,9.97-11.04,14.95-3.85,4.98-7.76,9.85-11.72,14.61-3.96,4.75-7.87,9.06-11.72,12.91l-24.46-20.72c2.94-3.4,6.23-7.25,9.85-11.55,3.62-4.3,7.3-8.66,11.04-13.08,3.74-4.42,7.3-8.94,10.7-13.59,3.4-4.64,6.45-9,9.17-13.08h-62.16v73.03Zm-16.3-235.39c-8.38,11.55-18.63,22.82-30.74,33.8-12.12,10.99-25.87,21.57-41.27,31.76h145.38c-14.95-9.73-28.76-20.09-41.44-31.08-12.68-10.98-23.33-22.47-31.93-34.48Z"/><path class="cls-1" d="M2900.42,1068.96c14.49,21.29,33.74,41.39,57.74,60.29,24,18.91,51.4,35.95,82.2,51.12l-14.95,33.29c-17.44-9.05-34.31-19.02-50.61-29.89v22.08h-178.33v-21.4c-16.3,10.42-33.4,20.5-51.29,30.23l-14.95-32.95c31.02-15.17,58.59-32.32,82.71-51.46,24.12-19.13,43.65-39.57,58.59-61.31h28.87Zm-154.21,173.23h278.19v31.25h-145.72c-9.06,12.46-18.46,24.29-28.19,35.5-9.74,11.21-18.57,19.99-26.49,26.32l117.53-4.76c-5.21-6.34-10.25-12.23-15.12-17.66-4.87-5.44-9.12-9.96-12.74-13.59l26.49-21.06c4.76,4.98,10.13,10.82,16.13,17.49,6,6.68,12.17,13.7,18.51,21.06,6.34,7.36,12.62,14.83,18.85,22.42,6.23,7.58,11.94,14.78,17.15,21.57l-24.46,26.15c-2.49-3.4-5.26-7.25-8.32-11.55-3.06-4.3-6.51-8.83-10.36-13.59-6.34,.22-14.49,.51-24.46,.85-9.97,.34-20.89,.79-32.78,1.36-11.89,.56-24.29,1.19-37.19,1.87-12.91,.68-25.53,1.36-37.87,2.04-12.34,.68-24.06,1.47-35.16,2.38-11.1,.9-20.61,1.7-28.53,2.38l-6.79-31.93c5.21-2.26,8.83-4.19,10.87-5.77,2.04-1.58,3.96-3.17,5.77-4.75,4.08-3.4,8.43-7.25,13.08-11.55,4.64-4.3,9.28-8.94,13.93-13.93,4.64-4.98,9.28-10.13,13.93-15.45,4.64-5.32,9-10.58,13.08-15.8h-89.33v-31.25Zm216.37-66.92c-15.85-11.55-30.46-23.49-43.82-35.84-13.36-12.34-24.34-24.74-32.95-37.19-8.61,12.68-19.42,25.14-32.44,37.36-13.02,12.23-27.57,24.12-43.65,35.67h152.85Z"/></g><g><path class="cls-1" d="M81.37,1644.09c-12.48,0-23.54-1.33-33.19-3.99-9.65-2.66-17.72-7.36-24.21-14.1-6.49-6.74-11.44-15.85-14.85-27.33-3.41-11.48-5.12-26.04-5.12-43.67s1.7-31.94,5.12-43.42c3.41-11.48,8.36-20.59,14.85-27.33,6.49-6.74,14.56-11.48,24.21-14.22,9.65-2.75,20.71-4.12,33.19-4.12s23.5,1.37,33.07,4.12c9.56,2.75,17.63,7.49,24.21,14.22,6.57,6.74,11.52,15.85,14.85,27.33,3.33,11.48,4.99,25.95,4.99,43.42s-1.66,32.19-4.99,43.67c-3.33,11.48-8.28,20.59-14.85,27.33-6.57,6.74-14.64,11.44-24.21,14.1-9.57,2.66-20.59,3.99-33.07,3.99Zm0-27.45c8.82,0,16.01-1.12,21.59-3.37,5.57-2.25,9.94-5.78,13.1-10.61,3.16-4.82,5.32-11.14,6.49-18.97,1.16-7.82,1.75-17.38,1.75-28.7s-.59-20.42-1.75-28.33c-1.17-7.9-3.33-14.35-6.49-19.34-3.16-4.99-7.53-8.65-13.1-10.98-5.58-2.33-12.77-3.49-21.59-3.49s-16.06,1.17-21.71,3.49c-5.66,2.33-10.07,5.99-13.23,10.98-3.16,4.99-5.33,11.44-6.49,19.34-1.17,7.9-1.75,17.34-1.75,28.33s.58,20.88,1.75,28.7c1.16,7.82,3.33,14.14,6.49,18.97,3.16,4.83,7.57,8.36,13.23,10.61,5.65,2.25,12.89,3.37,21.71,3.37Z"/><path class="cls-1" d="M194.92,1468.4h55.4c12.64,0,23.25,1.09,31.82,3.25,8.57,2.16,15.43,5.58,20.59,10.23,5.15,4.66,8.82,10.65,10.98,17.97,2.16,7.32,3.24,16.06,3.24,26.2,0,10.98-1.25,20.21-3.74,27.7-2.5,7.49-6.45,13.6-11.85,18.34-5.41,4.74-12.31,8.15-20.71,10.23-8.4,2.08-18.51,3.12-30.32,3.12h-22.71v56.15h-32.69v-173.2Zm51.41,90.59c6.99,0,12.85-.5,17.59-1.5,4.74-1,8.57-2.75,11.48-5.24,2.91-2.5,4.99-5.82,6.24-9.98,1.25-4.16,1.87-9.4,1.87-15.72,0-11.81-2.75-20.05-8.24-24.71-5.49-4.66-15.14-6.99-28.95-6.99h-18.72v64.14h18.72Z"/><path class="cls-1" d="M456.95,1612.89v28.7h-107.06v-173.2h102.57v28.45h-69.88v41.93h64.89v27.2h-64.89v46.92h74.37Z"/><path class="cls-1" d="M489.64,1468.4h50.16l62.89,130.52h1.5v-130.52h31.94v173.2h-44.42l-68.38-138.76h-1.5v138.76h-32.19v-173.2Z"/><path class="cls-1" d="M780.63,1595.67h-72.37l-16.47,45.92h-33.69l64.89-173.2h43.92l64.39,173.2h-34.69l-15.97-45.92Zm-9.73-27.45l-24.71-70.62h-2.99l-25.21,70.62h52.91Z"/><path class="cls-1" d="M963.8,1497.1h-47.17v144.5h-32.69v-144.5h-46.92v-28.7h126.78v28.7Z"/><path class="cls-1" d="M1061.13,1644.09c-12.48,0-23.54-1.33-33.19-3.99-9.65-2.66-17.72-7.36-24.21-14.1-6.49-6.74-11.44-15.85-14.85-27.33-3.41-11.48-5.12-26.04-5.12-43.67s1.7-31.94,5.12-43.42c3.41-11.48,8.36-20.59,14.85-27.33,6.49-6.74,14.56-11.48,24.21-14.22,9.65-2.75,20.71-4.12,33.19-4.12s23.5,1.37,33.07,4.12c9.56,2.75,17.63,7.49,24.21,14.22,6.57,6.74,11.52,15.85,14.85,27.33,3.33,11.48,4.99,25.95,4.99,43.42s-1.66,32.19-4.99,43.67c-3.33,11.48-8.28,20.59-14.85,27.33-6.57,6.74-14.64,11.44-24.21,14.1-9.57,2.66-20.59,3.99-33.07,3.99Zm0-27.45c8.82,0,16.01-1.12,21.59-3.37,5.57-2.25,9.94-5.78,13.1-10.61,3.16-4.82,5.32-11.14,6.49-18.97,1.16-7.82,1.75-17.38,1.75-28.7s-.59-20.42-1.75-28.33c-1.17-7.9-3.33-14.35-6.49-19.34-3.16-4.99-7.53-8.65-13.1-10.98-5.58-2.33-12.77-3.49-21.59-3.49s-16.06,1.17-21.71,3.49c-5.66,2.33-10.07,5.99-13.23,10.98-3.16,4.99-5.33,11.44-6.49,19.34-1.17,7.9-1.75,17.34-1.75,28.33s.58,20.88,1.75,28.7c1.16,7.82,3.33,14.14,6.49,18.97,3.16,4.83,7.57,8.36,13.23,10.61,5.65,2.25,12.89,3.37,21.71,3.37Z"/><path class="cls-1" d="M1174.68,1468.4h52.91l33.94,102.32h1.5l34.94-102.32h51.41v173.2h-32.19v-141.25h-1.5l-37.18,106.31h-33.44l-36.93-106.31h-1.5v141.25h-31.94v-173.2Z"/><path class="cls-1" d="M1487.12,1496.85v45.67h64.89v28.45h-64.89v70.63h-32.69v-173.2h102.57v28.45h-69.88Z"/><path class="cls-1" d="M1660.57,1644.09c-12.48,0-23.54-1.33-33.19-3.99-9.65-2.66-17.72-7.36-24.21-14.1-6.49-6.74-11.44-15.85-14.85-27.33-3.41-11.48-5.12-26.04-5.12-43.67s1.7-31.94,5.12-43.42c3.41-11.48,8.36-20.59,14.85-27.33,6.49-6.74,14.56-11.48,24.21-14.22,9.65-2.75,20.71-4.12,33.19-4.12s23.5,1.37,33.07,4.12c9.56,2.75,17.63,7.49,24.21,14.22,6.57,6.74,11.52,15.85,14.85,27.33,3.33,11.48,4.99,25.95,4.99,43.42s-1.67,32.19-4.99,43.67c-3.33,11.48-8.28,20.59-14.85,27.33-6.57,6.74-14.64,11.44-24.21,14.1-9.57,2.66-20.59,3.99-33.07,3.99Zm0-27.45c8.82,0,16.01-1.12,21.59-3.37,5.57-2.25,9.94-5.78,13.1-10.61,3.16-4.82,5.32-11.14,6.49-18.97,1.16-7.82,1.75-17.38,1.75-28.7s-.59-20.42-1.75-28.33c-1.17-7.9-3.33-14.35-6.49-19.34-3.16-4.99-7.53-8.65-13.1-10.98-5.58-2.33-12.77-3.49-21.59-3.49s-16.06,1.17-21.71,3.49c-5.66,2.33-10.07,5.99-13.23,10.98-3.16,4.99-5.33,11.44-6.49,19.34-1.17,7.9-1.75,17.34-1.75,28.33s.58,20.88,1.75,28.7c1.16,7.82,3.33,14.14,6.49,18.97,3.16,4.83,7.57,8.36,13.23,10.61,5.65,2.25,12.89,3.37,21.71,3.37Z"/><path class="cls-1" d="M1843.24,1644.09c-11.32,0-21.3-1-29.95-2.99-8.65-2-15.93-5.32-21.84-9.98-5.91-4.66-10.4-10.77-13.48-18.34-3.08-7.57-4.62-16.93-4.62-28.08v-116.3h32.69v111.8c0,6.32,.58,11.73,1.75,16.22,1.16,4.49,3.2,8.15,6.11,10.98,2.91,2.83,6.74,4.95,11.48,6.36,4.74,1.42,10.77,2.12,18.09,2.12s13.68-.7,18.59-2.12c4.91-1.41,8.77-3.62,11.6-6.61,2.83-2.99,4.78-6.74,5.86-11.23,1.08-4.49,1.62-9.73,1.62-15.72v-111.8h32.44v116.3c0,21.13-6.03,36.31-18.09,45.54-12.06,9.23-29.49,13.85-52.28,13.85Z"/><path class="cls-1" d="M1953.79,1468.4h50.16l62.89,130.52h1.5v-130.52h31.94v173.2h-44.42l-68.38-138.76h-1.5v138.76h-32.19v-173.2Z"/><path class="cls-1" d="M2197.36,1468.4c12.64,0,24.12,1.12,34.44,3.37,10.31,2.25,19.13,6.53,26.45,12.85,7.32,6.33,13.02,15.14,17.09,26.45,4.08,11.32,6.11,25.95,6.11,43.92,0,16.81-2.04,30.74-6.11,41.8-4.08,11.07-9.78,19.93-17.09,26.58-7.32,6.66-16.14,11.35-26.45,14.1-10.32,2.75-21.8,4.12-34.44,4.12h-56.15v-173.2h56.15Zm-1.5,145c8.32,0,15.72-.91,22.21-2.75,6.49-1.83,11.94-4.95,16.35-9.36,4.41-4.41,7.74-10.36,9.98-17.84,2.25-7.49,3.37-16.97,3.37-28.45s-1.17-21.79-3.49-29.45c-2.33-7.65-5.74-13.68-10.23-18.09-4.49-4.41-9.94-7.4-16.35-8.98-6.41-1.58-13.69-2.37-21.84-2.37h-21.96v117.29h21.96Z"/><path class="cls-1" d="M2421.46,1595.67h-72.37l-16.47,45.92h-33.69l64.88-173.2h43.92l64.39,173.2h-34.69l-15.97-45.92Zm-9.73-27.45l-24.71-70.62h-3l-25.21,70.62h52.91Z"/><path class="cls-1" d="M2604.64,1497.1h-47.17v144.5h-32.69v-144.5h-46.92v-28.7h126.78v28.7Z"/><path class="cls-1" d="M2629.34,1468.4h32.69v173.2h-32.69v-173.2Z"/><path class="cls-1" d="M2775.59,1644.09c-12.48,0-23.54-1.33-33.19-3.99-9.65-2.66-17.72-7.36-24.21-14.1-6.49-6.74-11.44-15.85-14.85-27.33-3.41-11.48-5.12-26.04-5.12-43.67s1.7-31.94,5.12-43.42c3.41-11.48,8.36-20.59,14.85-27.33,6.49-6.74,14.56-11.48,24.21-14.22,9.65-2.75,20.71-4.12,33.19-4.12s23.5,1.37,33.07,4.12c9.57,2.75,17.63,7.49,24.21,14.22,6.57,6.74,11.52,15.85,14.85,27.33,3.33,11.48,4.99,25.95,4.99,43.42s-1.67,32.19-4.99,43.67c-3.33,11.48-8.28,20.59-14.85,27.33-6.57,6.74-14.64,11.44-24.21,14.1-9.57,2.66-20.59,3.99-33.07,3.99Zm0-27.45c8.82,0,16.01-1.12,21.59-3.37,5.57-2.25,9.94-5.78,13.1-10.61,3.16-4.82,5.32-11.14,6.49-18.97,1.16-7.82,1.75-17.38,1.75-28.7s-.58-20.42-1.75-28.33c-1.17-7.9-3.33-14.35-6.49-19.34-3.16-4.99-7.53-8.65-13.1-10.98-5.58-2.33-12.77-3.49-21.59-3.49s-16.06,1.17-21.71,3.49c-5.66,2.33-10.07,5.99-13.23,10.98-3.16,4.99-5.33,11.44-6.49,19.34-1.17,7.9-1.75,17.34-1.75,28.33s.58,20.88,1.75,28.7c1.16,7.82,3.33,14.14,6.49,18.97,3.16,4.83,7.57,8.36,13.23,10.61,5.65,2.25,12.89,3.37,21.71,3.37Z"/><path class="cls-1" d="M2889.13,1468.4h50.16l62.89,130.52h1.5v-130.52h31.94v173.2h-44.42l-68.38-138.76h-1.5v138.76h-32.19v-173.2Z"/></g></g><path class="cls-2" d="M1552.82,482.68v338.16l5.44-.27c87.64-8.9,166.3-48.19,225.28-107.16l16.96-18.66-122.43-212.06h-125.25Zm-190.52,0l-122.43,212.06,16.96,18.66c58.97,58.97,137.63,98.26,225.28,107.16l5.44,.27V482.68h-125.25Zm157.89-273.47l-120.2,208.2h240.41l-120.2-208.2h0Zm.43-131.59l23.88,43.16h0l297.75,515.72,5.43-8.93c28.67-52.77,44.95-113.25,44.95-177.53,0-192.84-146.56-351.45-334.37-370.52l-37.65-1.9Zm-.74,0l-37.76,1.91c-187.81,19.07-334.37,177.68-334.37,370.52,0,64.28,16.28,124.76,44.95,177.53l5.43,8.93L1495.87,120.78l.09,.05,23.91-43.21h0Zm.32-63.9c240.98,0,436.33,195.35,436.33,436.33s-195.35,436.33-436.33,436.33-436.33-195.35-436.33-436.33S1279.2,13.71,1520.18,13.71h0Z"/></svg>