<svg xmlns="http://www.w3.org/2000/svg" viewBox="0 0 252.82 252.82"><defs><style>.cls-1{fill:none;stroke:#b2b2b2;stroke-miterlimit:10;stroke-width:0.61px;}.cls-2{fill:#fff;}</style></defs><g id="图层_2" data-name="图层 2"><g id="图层_1-2" data-name="图层 1"><rect class="cls-1" x="0.31" y="0.31" width="252.21" height="252.21"/><path d="M124.61,45.45,82.33,69.85A3.68,3.68,0,0,0,80.5,73v48.82A3.66,3.66,0,0,0,82.33,125l42.28,24.41a3.68,3.68,0,0,0,3.66,0L170.54,125a3.64,3.64,0,0,0,1.83-3.17V73a3.66,3.66,0,0,0-1.83-3.17l-42.27-24.4A3.63,3.63,0,0,0,124.61,45.45Z"/><path class="cls-2" d="M159,79.67c-3.84-1-8.45,0-10.51,2.15s-.86,5.17,3.08,6.43c4.14,1.32,9.35.28,11.37-2.28S163,80.71,159,79.67Z"/><path class="cls-2" d="M134.33,108.81a11.62,11.62,0,0,0-13,2.49c-3.33,3.57-3,8.59,1.19,11.18,4.41,2.76,11,1.54,14.3-2.66A7,7,0,0,0,134.33,108.81Z"/><path class="cls-2" d="M142.31,75.37a11.88,11.88,0,0,0-5.77.11,10.69,10.69,0,0,1-4.49-.13,3.47,3.47,0,0,1-2.5-1.81,1.38,1.38,0,0,0-.1-.4v-.06h0a3.15,3.15,0,0,0-2.3-1.63l-.12,0a9.43,9.43,0,0,0-4.51-.15c-3.34.62-5.79,2.55-5.47,4.3a7,7,0,0,1-.06,1,4.11,4.11,0,0,1-1.69,2.36,8,8,0,0,1-3,1.58,12,12,0,0,1-1.86.25,18.47,18.47,0,0,0-2.64.16,5.48,5.48,0,0,0-3,1.5,3.6,3.6,0,0,0-.83,2.84,5.59,5.59,0,0,1,.08,1.17h0a5.16,5.16,0,0,1-2.23,3.46,12.18,12.18,0,0,1-5.1,2.34h0a12.75,12.75,0,0,0-5.53,2.45c-3.18,2.48-3.93,5.76-1.45,7.31a7.7,7.7,0,0,0,5.93.38,7.59,7.59,0,0,1,4.85.68,4.18,4.18,0,0,1,1.68,1.71,3.19,3.19,0,0,1,.3.91,4.67,4.67,0,0,1,.07.74h0a4.61,4.61,0,0,0,2.12,4.9c3.36,2.1,9,1,12.38-2.4,3.19-3.25,2.79-7.19-.6-8.84a9.47,9.47,0,0,0-6.51-.35A8.24,8.24,0,0,1,105,99.1a3.33,3.33,0,0,1-2-3,6.57,6.57,0,0,1,.4-1.55,9.65,9.65,0,0,1,2-3,9,9,0,0,1,4.19-2.22c.64-.17,1.68-.38,1.91-.4a10,10,0,0,1,4.65.38c1.33.55,2.3,1.42,2.38,2.51a4.22,4.22,0,0,0,2.65,3.73,10.91,10.91,0,0,0,11.15-2.23c2.55-2.6,1.69-5.63-1.67-6.82a10.64,10.64,0,0,0-6.13-.07,9.52,9.52,0,0,1-4.71-.34c-1.38-.52-2.28-1.36-2.33-2.34a5.25,5.25,0,0,1,1.67-3.64,11.28,11.28,0,0,1,3.68-1.86,12.17,12.17,0,0,1,1.75-.4A11.15,11.15,0,0,1,129,78c1.33.4,2.53,1.13,2.57,1.93.06,1,1.08,2.27,3,2.87,3.35,1.06,8,.12,10.14-2.09S145.61,76.22,142.31,75.37Z"/><path d="M185.58,165.47h4.93a.64.64,0,0,1,.64.64v32.34a.64.64,0,0,1-.64.63h-4.93a.63.63,0,0,1-.64-.63V166.11A.64.64,0,0,1,185.58,165.47Z"/><path d="M158,171.09v-5a.64.64,0,0,0-.64-.64H136.85a.64.64,0,0,0-.64.64v32.33a.64.64,0,0,0,.64.64h20.48a.63.63,0,0,0,.64-.64v-5a.64.64,0,0,0-.64-.64H143.47a.64.64,0,0,1-.64-.64V184.6a.64.64,0,0,1,.64-.64H156a.64.64,0,0,0,.64-.64v-4.87a.64.64,0,0,0-.64-.64H143.47a.64.64,0,0,1-.64-.64v-4.8a.64.64,0,0,1,.64-.64h13.86A.64.64,0,0,0,158,171.09Z"/><path d="M234.71,173.89a10.19,10.19,0,0,0-5,2.52.08.08,0,0,1-.14-.06v-2.56a.64.64,0,0,0-.64-.64h-4.59a.64.64,0,0,0-.64.64v24.78a.64.64,0,0,0,.64.64H229a.64.64,0,0,0,.64-.64v-6.08c0-.3,0-4.88,0-6.42a5.17,5.17,0,0,1,1.4-3.93,8.54,8.54,0,0,1,5.08-2.84.37.37,0,0,0,.37-.39V174a.32.32,0,0,0-.34-.32A9.76,9.76,0,0,0,234.71,173.89Z"/><path d="M76.5,179.72a12.69,12.69,0,0,0-4.81-4.78,13.08,13.08,0,0,0-6.58-1.76,12.17,12.17,0,0,0-7,2.17.33.33,0,0,1-.51-.27v-.54a.63.63,0,0,0-.63-.63H52a.63.63,0,0,0-.63.63v32.7a.63.63,0,0,0,.63.63h4.9a.63.63,0,0,0,.63-.63v-9.79a.31.31,0,0,1,.49-.26,12.26,12.26,0,0,0,7.07,2.13,13,13,0,0,0,6.62-1.72,12.61,12.61,0,0,0,4.74-4.79,13.09,13.09,0,0,0,1.74-6.58A12.79,12.79,0,0,0,76.5,179.72ZM70.14,191.2a6.72,6.72,0,0,1-4.92,1.93,6.65,6.65,0,0,1-4.88-1.91,6.76,6.76,0,0,1-1.93-5,6.61,6.61,0,0,1,2-4.92,7,7,0,0,1,9.78,9.9Z"/><path d="M99.3,191.08A6.73,6.73,0,0,1,94.38,193a6.66,6.66,0,0,1-4.88-1.91,6.19,6.19,0,0,1-1.6-2.77.32.32,0,0,1,.3-.41h18.5a.64.64,0,0,0,.64-.58c0-.41,0-.82,0-1.23a12.89,12.89,0,0,0-1.72-6.51,12.69,12.69,0,0,0-4.81-4.78,13.12,13.12,0,0,0-6.59-1.76,12.39,12.39,0,0,0-8.57,3.38,13.21,13.21,0,0,0-.49,19,12.34,12.34,0,0,0,9.08,3.8,13,13,0,0,0,6.62-1.72,12.5,12.5,0,0,0,4-3.7.4.4,0,0,0-.17-.59l-5-2.24A.42.42,0,0,0,99.3,191.08Zm-9.77-9.89a6.66,6.66,0,0,1,4.88-1.93,6.77,6.77,0,0,1,4.93,1.9,6.39,6.39,0,0,1,1.06,1.43.33.33,0,0,1-.29.47H88.75a.32.32,0,0,1-.28-.48A6.1,6.1,0,0,1,89.53,181.19Z"/><path d="M122,173.2A10.79,10.79,0,0,0,111.18,184v14.42a.65.65,0,0,0,.65.65h4.92a.65.65,0,0,0,.65-.65V184a4.55,4.55,0,1,1,9.09,0v14.42a.65.65,0,0,0,.65.65h4.92a.65.65,0,0,0,.65-.65V184A10.79,10.79,0,0,0,122,173.2Z"/><path d="M170.76,199.08a10.79,10.79,0,0,0,10.77-10.81V173.85a.66.66,0,0,0-.66-.65H176a.66.66,0,0,0-.66.65v14.42a4.54,4.54,0,1,1-9.08,0V173.85a.66.66,0,0,0-.66-.65h-4.91a.65.65,0,0,0-.65.65v14.42A10.79,10.79,0,0,0,170.76,199.08Z"/><path d="M30.77,165.2,17.27,173a1.82,1.82,0,0,0-.9,1.56v15.58a1.82,1.82,0,0,0,.9,1.56l13.5,7.79a1.81,1.81,0,0,0,1.8,0l13.49-7.79a1.8,1.8,0,0,0,.9-1.56V174.55a1.8,1.8,0,0,0-.9-1.56L32.57,165.2A1.81,1.81,0,0,0,30.77,165.2Zm9.5,22.49L32,192.47a.65.65,0,0,1-.66,0l-8.28-4.78a.64.64,0,0,1-.33-.57v-9.56a.65.65,0,0,1,.33-.57l8.28-4.78a.65.65,0,0,1,.66,0L40.27,177a.65.65,0,0,1,.33.57v9.56A.64.64,0,0,1,40.27,187.69Z"/><path d="M212.31,191.08a6.73,6.73,0,0,1-4.92,1.94,6.66,6.66,0,0,1-4.88-1.91,6.19,6.19,0,0,1-1.6-2.77.32.32,0,0,1,.3-.41h18.5a.63.63,0,0,0,.63-.58q.06-.61.06-1.23a12.79,12.79,0,0,0-1.73-6.51,12.55,12.55,0,0,0-4.81-4.78,13.08,13.08,0,0,0-6.58-1.76,12.39,12.39,0,0,0-8.57,3.38,13.21,13.21,0,0,0-.49,19,12.32,12.32,0,0,0,9.08,3.8,13,13,0,0,0,6.62-1.72,12.6,12.6,0,0,0,4-3.7.4.4,0,0,0-.17-.59l-5-2.24A.42.42,0,0,0,212.31,191.08Zm-9.78-9.89a7.24,7.24,0,0,1,9.81,0,5.83,5.83,0,0,1,1.06,1.43.32.32,0,0,1-.28.47H201.76a.32.32,0,0,1-.28-.48A6.35,6.35,0,0,1,202.53,181.19Z"/></g></g></svg>