<?xml version="1.0" encoding="utf-8"?>
<!-- Generator: Adobe Illustrator 20.1.0, SVG Export Plug-In . SVG Version: 6.00 Build 0)  -->
<svg version="1.1" id="Layer_1" xmlns="http://www.w3.org/2000/svg" xmlns:xlink="http://www.w3.org/1999/xlink" x="0px" y="0px"
	 viewBox="0 0 1000 698.256" style="enable-background:new 0 0 1000 698.256;" xml:space="preserve">
<style type="text/css">
	.st0{fill:#EF5843;}
</style>
<g>
	<g>
		<path class="st0" d="M789.81,212.314C789.81,95.244,682.477,0,550.552,0C371.425,0,199.988,182.001,192.778,189.747
			l-21.001,22.567l21.001,22.567c4.831,5.188,83.377,88.506,188.526,142.992v6.18c0,42.81,28.275,76.35,64.373,76.35h122.621
			c27.355,0,50.191-19.281,59.661-47.245C721.998,384.543,789.81,305.349,789.81,212.314z M550.552,358.375
			c-115.93,0-236.256-99.509-285.813-145.647c158.927,45.109,337.961,44.491,458.786-0.873c0,0.153,0.03,0.306,0.03,0.46
			C723.555,292.853,645.95,358.375,550.552,358.375z"/>
		<path class="st0" d="M292.883,66.748c-19.843-23.648-61.027-29.611-87.217-7.632c-26.189,21.975-27.475,63.568-7.627,87.217
			L292.883,66.748z"/>
		<path class="st0" d="M205.666,364.559c26.193,21.98,67.374,16.021,87.217-7.632l-94.848-79.585
			C178.191,300.991,179.473,342.579,205.666,364.559z"/>
	</g>
	<g>
		<path class="st0" d="M146.771,597.772v60.925h-25.517v-59.142c0-11.671-5.933-18.792-16.617-18.792
			c-11.275,0-18.396,7.517-18.396,22.354v55.583H60.725V599.56c0-11.671-5.933-18.792-16.617-18.792
			c-10.879,0-18.592,7.517-18.592,22.354v55.583H0v-98.913h25.517v10.483c5.537-8.308,14.833-13.254,27.496-13.254
			c12.267,0,21.363,5.142,26.904,14.242c6.129-8.904,16.021-14.242,29.471-14.242C131.938,557.026,146.771,573.047,146.771,597.772z
			"/>
		<path class="st0" d="M159.787,609.243c0-29.475,23.146-52.221,52.221-52.221s52.421,22.746,52.421,52.221
			c0,29.475-23.342,52.221-52.421,52.221S159.787,638.718,159.787,609.243z M238.908,609.243c0-16.021-11.671-27.3-26.9-27.3
			c-15.033,0-26.704,11.275-26.704,27.3s11.671,27.3,26.704,27.3C227.237,636.543,238.908,625.268,238.908,609.243z"/>
		<path class="st0" d="M311.619,584.322v41.146c0,10.679,7.717,10.879,22.354,10.087v23.146
			c-35.804,3.954-47.871-6.529-47.871-33.229v-41.146h-17.208v-24.525h17.208v-19.979l25.517-7.717v27.692h22.354v24.525
			L311.619,584.322L311.619,584.322z"/>
		<path class="st0" d="M444.008,597.972v60.725h-25.517v-57.563c0-13.45-8.108-20.375-19.583-20.375
			c-12.463,0-21.758,7.321-21.758,24.529v53.408h-25.517V520.235h25.517v50.638c5.933-8.904,16.221-13.846,29.475-13.846
			C427.591,557.026,444.008,571.66,444.008,597.972z"/>
		<path class="st0" d="M514.289,638.322c9.892,0,17.804-4.15,22.154-9.887l20.575,11.867c-9.296,13.45-24.133,21.167-43.125,21.167
			c-33.229,0-54.196-22.746-54.196-52.221c0-29.475,21.167-52.221,52.221-52.221c29.275,0,50.046,23.142,50.046,52.221
			c0,3.758-0.396,7.121-0.987,10.483h-74.575C489.959,632.785,500.839,638.322,514.289,638.322z M536.443,599.947
			c-3.162-14.242-13.846-19.979-24.525-19.979c-13.646,0-22.946,7.317-25.913,19.979H536.443z"/>
		<path class="st0" d="M633.049,557.814v28.488c-13.254-1.583-30.067,4.35-30.067,25.121v47.275h-25.517v-98.904h25.517v17.008
			C608.124,563.356,620.59,557.814,633.049,557.814z"/>
		<path class="st0" d="M719.631,629.818c0,21.363-18.596,31.65-39.758,31.65c-19.779,0-34.417-8.308-41.542-23.537l22.154-12.463
			c2.771,8.108,9.492,12.854,19.383,12.854c8.108,0,13.646-2.771,13.646-8.504c0-14.442-51.033-6.525-51.033-41.342
			c0-20.175,17.208-31.45,37.583-31.45c16.021,0,29.867,7.317,37.583,20.967l-21.763,11.871
			c-2.967-6.329-8.504-10.088-15.825-10.088c-6.329,0-11.471,2.771-11.471,8.108C668.598,602.522,719.631,593.418,719.631,629.818z"
			/>
		<path class="st0" d="M825.533,597.972v60.725h-25.517v-57.563c0-13.45-8.108-20.375-19.583-20.375
			c-12.463,0-21.763,7.321-21.763,24.529v53.408h-25.517V520.235h25.517v50.638c5.933-8.904,16.221-13.846,29.475-13.846
			C809.116,557.026,825.533,571.66,825.533,597.972z"/>
		<path class="st0" d="M843.593,532.297c0-8.508,7.121-15.825,15.629-15.825c8.704,0,15.825,7.317,15.825,15.825
			c0,8.504-7.121,15.629-15.825,15.629C850.713,547.926,843.593,540.805,843.593,532.297z M846.559,559.793h25.517v98.904h-25.517
			V559.793z"/>
		<path class="st0" d="M1000,609.243c0,29.475-21.758,52.221-48.263,52.221c-14.442,0-24.925-5.342-32.046-14.442v51.234h-25.517
			V559.793h25.517v11.671c7.121-9.1,17.608-14.442,32.046-14.442C978.242,557.026,1000,579.772,1000,609.243z M974.483,609.243
			c0-16.617-11.671-27.892-27.496-27.892c-15.629,0-27.3,11.275-27.3,27.892s11.671,27.888,27.3,27.888
			C962.812,637.135,974.483,625.86,974.483,609.243z"/>
	</g>
</g>
</svg>
