<?xml version="1.0" encoding="UTF-8" standalone="no"?>
<!-- Created with Inkscape (http://www.inkscape.org/) -->

<svg
   xmlns:dc="http://purl.org/dc/elements/1.1/"
   xmlns:cc="http://creativecommons.org/ns#"
   xmlns:rdf="http://www.w3.org/1999/02/22-rdf-syntax-ns#"
   xmlns:svg="http://www.w3.org/2000/svg"
   xmlns="http://www.w3.org/2000/svg"
   xmlns:sodipodi="http://sodipodi.sourceforge.net/DTD/sodipodi-0.dtd"
   xmlns:inkscape="http://www.inkscape.org/namespaces/inkscape"
   width="86.424591mm"
   height="17.54117mm"
   viewBox="0 0 306.22887 62.153752"
   id="svg3672"
   version="1.1"
   inkscape:version="0.91 r13725"
   sodipodi:docname="platformsh.svg">
  <defs
     id="defs3674" />
  <sodipodi:namedview
     id="base"
     pagecolor="#ffffff"
     bordercolor="#666666"
     borderopacity="1.0"
     inkscape:pageopacity="0.0"
     inkscape:pageshadow="2"
     inkscape:zoom="0.98994949"
     inkscape:cx="17.871154"
     inkscape:cy="69.797348"
     inkscape:document-units="px"
     inkscape:current-layer="layer1"
     showgrid="false"
     fit-margin-top="0"
     fit-margin-left="0"
     fit-margin-right="0"
     fit-margin-bottom="0"
     inkscape:window-width="1366"
     inkscape:window-height="715"
     inkscape:window-x="0"
     inkscape:window-y="0"
     inkscape:window-maximized="1" />
  <metadata
     id="metadata3677">
    <rdf:RDF>
      <cc:Work
         rdf:about="">
        <dc:format>image/svg+xml</dc:format>
        <dc:type
           rdf:resource="http://purl.org/dc/dcmitype/StillImage" />
        <dc:title></dc:title>
      </cc:Work>
    </rdf:RDF>
  </metadata>
  <g
     inkscape:label="Layer 1"
     inkscape:groupmode="layer"
     id="layer1"
     transform="translate(-395.45699,-609.85676)">
    <g
       id="g3625"
       transform="matrix(1.25,0,0,-1.25,47.692115,890.79451)">
      <path
         inkscape:connector-curvature="0"
         id="path116"
         style="fill:#2cace2;fill-opacity:1;fill-rule:nonzero;stroke:none"
         d="m 523.195,224.452 -38.771,0 0,-15.416 38.771,0 0,15.416 z" />
      <path
         inkscape:connector-curvature="0"
         id="path118"
         style="fill:#2cace2;fill-opacity:1;fill-rule:nonzero;stroke:none"
         d="m 523.195,190.915 -38.771,0 0,-5.238 38.771,0 0,5.238 z" />
      <path
         inkscape:connector-curvature="0"
         id="path120"
         style="fill:#2cace2;fill-opacity:1;fill-rule:nonzero;stroke:none"
         d="m 523.195,204.06 -38.771,0 0,-7.911 38.771,0 0,7.911 z" />
      <g
         transform="translate(285.5059,200.0332)"
         id="g122">
        <path
           inkscape:connector-curvature="0"
           id="path124"
           style="fill:#000000;fill-opacity:1;fill-rule:nonzero;stroke:none"
           d="m 0,0 c 0,-3.132 0.621,-5.444 1.863,-6.94 1.242,-1.496 2.755,-2.244 4.539,-2.244 1.715,0 3.14,0.687 4.277,2.06 1.137,1.373 1.706,3.625 1.706,6.757 0,2.921 -0.587,5.09 -1.758,6.507 C 9.455,7.557 8.003,8.265 6.271,8.265 4.469,8.265 2.974,7.569 1.784,6.179 0.595,4.788 0,2.729 0,0 m -7.294,13.46 6.874,0 0,-4.093 c 0.893,1.4 2.099,2.536 3.621,3.411 1.522,0.874 3.21,1.312 5.064,1.312 3.236,0 5.983,-1.269 8.239,-3.805 2.257,-2.536 3.385,-6.07 3.385,-10.6 0,-4.654 -1.137,-8.27 -3.411,-10.85 -2.274,-2.58 -5.029,-3.87 -8.265,-3.87 -1.54,0 -2.935,0.306 -4.185,0.919 -1.251,0.611 -2.568,1.661 -3.949,3.148 l 0,-14.038 -7.373,0 0,38.466 z" />
      </g>
      <path
         inkscape:connector-curvature="0"
         id="path126"
         style="fill:#000000;fill-opacity:1;fill-rule:nonzero;stroke:none"
         d="m 309.957,224.094 7.373,0 0,-38.466 -7.373,0 0,38.466 z" />
      <g
         transform="translate(338.9722,199.0098)"
         id="g128">
        <path
           inkscape:connector-curvature="0"
           id="path130"
           style="fill:#000000;fill-opacity:1;fill-rule:nonzero;stroke:none"
           d="m 0,0 c -0.944,-0.315 -2.44,-0.691 -4.487,-1.128 -2.046,-0.437 -3.385,-0.866 -4.014,-1.286 -0.962,-0.683 -1.443,-1.548 -1.443,-2.598 0,-1.032 0.384,-1.925 1.154,-2.676 0.769,-0.752 1.749,-1.128 2.939,-1.128 1.329,0 2.598,0.437 3.805,1.312 0.892,0.664 1.478,1.478 1.757,2.44 C -0.096,-4.435 0,-3.236 0,-1.47 L 0,0 Z m -9.866,5.982 -6.691,1.207 c 0.752,2.694 2.047,4.688 3.884,5.983 1.837,1.294 4.565,1.941 8.186,1.941 3.289,0 5.737,-0.389 7.347,-1.168 C 4.469,13.167 5.602,12.179 6.258,10.98 6.914,9.782 7.242,7.583 7.242,4.382 L 7.163,-4.225 c 0,-2.449 0.118,-4.254 0.355,-5.418 0.235,-1.164 0.677,-2.41 1.324,-3.739 l -7.294,0 c -0.193,0.489 -0.429,1.216 -0.708,2.178 -0.123,0.437 -0.21,0.725 -0.263,0.866 -1.259,-1.225 -2.606,-2.143 -4.04,-2.755 -1.435,-0.612 -2.965,-0.919 -4.592,-0.919 -2.869,0 -5.13,0.779 -6.783,2.335 -1.653,1.558 -2.479,3.526 -2.479,5.905 0,1.574 0.376,2.977 1.128,4.21 0.751,1.234 1.806,2.178 3.162,2.834 1.355,0.657 3.31,1.229 5.864,1.719 C -3.717,3.638 -1.33,4.241 0,4.802 L 0,5.536 C 0,6.953 -0.35,7.963 -1.049,8.566 -1.75,9.17 -3.07,9.472 -5.012,9.472 -6.323,9.472 -7.347,9.214 -8.082,8.698 -8.816,8.182 -9.411,7.276 -9.866,5.982" />
      </g>
      <g
         transform="translate(364.8188,213.4932)"
         id="g132">
        <path
           inkscape:connector-curvature="0"
           id="path134"
           style="fill:#000000;fill-opacity:1;fill-rule:nonzero;stroke:none"
           d="m 0,0 0,-5.877 -5.038,0 0,-11.23 c 0,-2.275 0.048,-3.6 0.144,-3.976 0.097,-0.376 0.315,-0.687 0.657,-0.931 0.341,-0.245 0.756,-0.367 1.246,-0.367 0.682,0 1.67,0.235 2.965,0.708 l 0.63,-5.72 c -1.715,-0.735 -3.657,-1.102 -5.825,-1.102 -1.33,0 -2.529,0.224 -3.595,0.669 -1.067,0.446 -1.85,1.023 -2.349,1.732 -0.498,0.708 -0.844,1.666 -1.036,2.873 -0.157,0.857 -0.236,2.588 -0.236,5.196 l 0,12.148 -3.385,0 0,5.877 3.385,0 0,5.537 7.399,4.303 0,-9.84 L 0,0 Z" />
      </g>
      <g
         transform="translate(366.4395,213.4932)"
         id="g136">
        <path
           inkscape:connector-curvature="0"
           id="path138"
           style="fill:#000000;fill-opacity:1;fill-rule:nonzero;stroke:none"
           d="m 0,0 4.093,0 0,2.1 c 0,2.343 0.249,4.092 0.748,5.247 0.498,1.155 1.417,2.094 2.755,2.821 1.338,0.726 3.03,1.089 5.077,1.089 2.099,0 4.155,-0.316 6.166,-0.944 L 17.842,5.169 c -1.172,0.28 -2.3,0.42 -3.384,0.42 C 13.39,5.589 12.625,5.34 12.162,4.842 11.698,4.343 11.466,3.385 11.466,1.968 l 0,-1.968 5.51,0 0,-5.799 -5.51,0 0,-22.066 -7.373,0 0,22.066 L 0,-5.799 0,0 Z" />
      </g>
      <g
         transform="translate(392.0693,199.5605)"
         id="g140">
        <path
           inkscape:connector-curvature="0"
           id="path142"
           style="fill:#000000;fill-opacity:1;fill-rule:nonzero;stroke:none"
           d="m 0,0 c 0,-2.764 0.656,-4.88 1.968,-6.35 1.312,-1.469 2.929,-2.204 4.853,-2.204 1.924,0 3.539,0.735 4.842,2.204 1.303,1.47 1.955,3.604 1.955,6.403 0,2.728 -0.652,4.828 -1.955,6.297 C 10.36,7.819 8.745,8.554 6.821,8.554 4.897,8.554 3.28,7.819 1.968,6.35 0.656,4.881 0,2.764 0,0 m -7.557,0.394 c 0,2.449 0.603,4.819 1.81,7.111 1.207,2.291 2.917,4.04 5.13,5.247 2.213,1.207 4.684,1.811 7.413,1.811 4.215,0 7.67,-1.37 10.363,-4.107 C 19.854,7.719 21.2,4.26 21.2,0.079 c 0,-4.216 -1.359,-7.71 -4.08,-10.482 -2.721,-2.773 -6.144,-4.16 -10.271,-4.16 -2.555,0 -4.991,0.578 -7.308,1.732 -2.318,1.155 -4.081,2.848 -5.288,5.078 -1.207,2.23 -1.81,4.945 -1.81,8.147" />
      </g>
      <g
         transform="translate(423.6904,185.6279)"
         id="g144">
        <path
           inkscape:connector-curvature="0"
           id="path146"
           style="fill:#000000;fill-opacity:1;fill-rule:nonzero;stroke:none"
           d="m 0,0 -7.373,0 0,27.865 6.849,0 0,-3.962 c 1.171,1.872 2.225,3.105 3.162,3.701 0.935,0.593 1.998,0.891 3.187,0.891 1.68,0 3.297,-0.464 4.855,-1.391 L 8.396,20.676 C 7.154,21.48 6,21.883 4.934,21.883 3.9,21.883 3.026,21.599 2.31,21.03 1.592,20.462 1.027,19.434 0.617,17.947 0.206,16.46 0,13.347 0,8.606 L 0,0 Z" />
      </g>
      <g
         transform="translate(435.6494,213.4932)"
         id="g148">
        <path
           inkscape:connector-curvature="0"
           id="path150"
           style="fill:#000000;fill-opacity:1;fill-rule:nonzero;stroke:none"
           d="m 0,0 6.796,0 0,-3.805 c 2.432,2.956 5.327,4.435 8.685,4.435 1.785,0 3.332,-0.367 4.645,-1.102 1.312,-0.735 2.388,-1.845 3.227,-3.333 1.224,1.488 2.545,2.598 3.961,3.333 1.417,0.735 2.931,1.102 4.54,1.102 2.046,0 3.779,-0.416 5.196,-1.246 1.417,-0.831 2.474,-2.051 3.175,-3.66 0.506,-1.191 0.76,-3.115 0.76,-5.773 l 0,-17.816 -7.373,0 0,15.927 c 0,2.763 -0.254,4.547 -0.76,5.352 -0.683,1.05 -1.733,1.574 -3.149,1.574 -1.033,0 -2.004,-0.314 -2.913,-0.944 -0.909,-0.63 -1.565,-1.553 -1.968,-2.768 -0.402,-1.216 -0.603,-3.135 -0.603,-5.759 l 0,-13.382 -7.373,0 0,15.27 c 0,2.712 -0.131,4.461 -0.394,5.248 -0.263,0.787 -0.669,1.373 -1.22,1.758 -0.551,0.385 -1.298,0.577 -2.244,0.577 -1.136,0 -2.16,-0.305 -3.069,-0.918 C 9.009,-6.542 8.357,-7.425 7.964,-8.58 7.57,-9.734 7.373,-11.649 7.373,-14.326 l 0,-13.539 -7.373,0 L 0,0 Z" />
      </g>
    </g>
  </g>
</svg>
