<?xml version="1.0" encoding="utf-8"?>
<!-- Generator: Adobe Illustrator 16.0.0, SVG Export Plug-In . SVG Version: 6.00 Build 0)  -->
<!DOCTYPE svg PUBLIC "-//W3C//DTD SVG 1.1//EN" "http://www.w3.org/Graphics/SVG/1.1/DTD/svg11.dtd">
<svg version="1.1" xmlns="http://www.w3.org/2000/svg" xmlns:xlink="http://www.w3.org/1999/xlink" x="0px" y="0px" width="1600px"
	 height="350px" viewBox="0 0 1600 350" enable-background="new 0 0 1600 350" xml:space="preserve">
<g id="Ebene_2">
	<g>
		<path d="M845.719,119.855c7.524,11.172,11.286,26.943,11.286,47.31c0,12.465-1.938,23.599-5.813,33.401
			c-3.876,9.805-9.462,17.482-16.758,23.029c-7.297,5.546-15.811,8.321-25.536,8.321c-12.163,0-21.967-4.253-29.412-12.769v55.633
			l-36.024,3.876V106.974h31.692l1.824,13.452c4.71-5.928,10.068-10.295,16.074-13.11c6.003-2.811,12.044-4.218,18.125-4.218
			C826.682,103.098,838.195,108.684,845.719,119.855z M819.613,167.622c0-14.286-1.636-24.204-4.902-29.754
			c-3.271-5.547-8.247-8.322-14.934-8.322c-3.801,0-7.488,1.254-11.058,3.762c-3.573,2.508-6.651,5.967-9.234,10.374v51.072
			c4.863,7.146,11.019,10.716,18.468,10.716C812.392,205.469,819.613,192.854,819.613,167.622z"/>
		<path d="M984.453,178.109H909.67c1.062,10.186,3.876,17.329,8.436,21.432s10.865,6.156,18.924,6.156
			c4.863,0,9.576-0.873,14.136-2.622c4.561-1.745,9.498-4.446,14.82-8.095l14.82,20.064c-14.136,11.25-29.868,16.872-47.196,16.872
			c-19.607,0-34.656-5.774-45.144-17.328c-10.488-11.55-15.732-27.054-15.732-46.512c0-12.312,2.202-23.37,6.612-33.174
			c4.406-9.804,10.865-17.556,19.38-23.256c8.511-5.7,18.696-8.55,30.552-8.55c17.478,0,31.158,5.472,41.04,16.416
			c9.879,10.944,14.82,26.145,14.82,45.6C985.138,170.129,984.909,174.461,984.453,178.109z M949.798,154.854
			c-0.307-18.543-6.841-27.816-19.608-27.816c-6.234,0-11.022,2.244-14.364,6.726c-3.345,4.485-5.472,12.048-6.384,22.686h40.356
			V154.854z"/>
		<path d="M1101.414,112.673c5.928,6.384,8.892,15.354,8.892,26.904v88.464h-36.023v-82.308c0-6.078-0.951-10.295-2.851-12.654
			c-1.902-2.355-4.752-3.534-8.55-3.534c-7.296,0-14.289,5.244-20.976,15.732v82.764h-36.024V106.974h31.464l2.509,14.364
			c5.318-6.078,10.979-10.638,16.985-13.68c6.003-3.039,12.654-4.56,19.95-4.56C1087.278,103.098,1095.486,106.29,1101.414,112.673z
			"/>
		<path d="M1203.557,98.766v129.276h-37.392V98.766h-40.813V70.038h120.84l-3.647,28.728H1203.557z"/>
		<path d="M1347.197,178.109h-74.783c1.062,10.186,3.876,17.329,8.436,21.432s10.865,6.156,18.924,6.156
			c4.863,0,9.576-0.873,14.136-2.622c4.561-1.745,9.498-4.446,14.82-8.095l14.82,20.064c-14.136,11.25-29.868,16.872-47.196,16.872
			c-19.607,0-34.656-5.774-45.144-17.328c-10.488-11.55-15.732-27.054-15.732-46.512c0-12.312,2.202-23.37,6.612-33.174
			c4.406-9.804,10.865-17.556,19.38-23.256c8.511-5.7,18.696-8.55,30.552-8.55c17.478,0,31.158,5.472,41.04,16.416
			c9.879,10.944,14.82,26.145,14.82,45.6C1347.882,170.129,1347.653,174.461,1347.197,178.109z M1312.542,154.854
			c-0.307-18.543-6.841-27.816-19.608-27.816c-6.234,0-11.022,2.244-14.364,6.726c-3.345,4.485-5.472,12.048-6.384,22.686h40.356
			V154.854z"/>
		<path d="M1443.639,106.746c6.687,2.433,12.995,6.156,18.924,11.172l-15.732,21.66c-7.296-5.928-14.898-8.892-22.8-8.892
			c-8.059,0-14.136,2.964-18.24,8.892c-4.104,5.928-6.156,15.504-6.156,28.728c0,12.768,2.053,21.813,6.156,27.132
			c4.104,5.322,10.032,7.979,17.784,7.979c4.254,0,8.055-0.685,11.4-2.052c3.341-1.368,7.067-3.648,11.172-6.84l16.416,23.027
			c-12.01,9.576-25.614,14.364-40.813,14.364c-12.312,0-22.953-2.622-31.92-7.866c-8.971-5.244-15.885-12.615-20.748-22.115
			c-4.866-9.498-7.296-20.635-7.296-33.402c0-12.768,2.43-24.09,7.296-33.972c4.863-9.879,11.777-17.592,20.748-23.142
			c8.967-5.547,19.38-8.322,31.236-8.322C1429.424,103.098,1436.948,104.316,1443.639,106.746z"/>
		<path d="M1573.367,112.673c5.928,6.384,8.892,15.354,8.892,26.904v88.464h-36.023v-82.308c0-6.078-0.99-10.295-2.964-12.654
			c-1.978-2.355-4.788-3.534-8.437-3.534c-7.296,0-14.289,5.169-20.976,15.504v82.992h-36.024V58.866l36.024-3.648v64.524
			c5.016-5.622,10.335-9.804,15.96-12.54c5.621-2.736,11.931-4.104,18.924-4.104C1559.231,103.098,1567.439,106.29,1573.367,112.673
			z"/>
	</g>
	<g>
		<path d="M101.942,236.816c-47.929,0-86.922-38.993-86.922-86.922s38.993-86.922,86.922-86.922s86.922,38.993,86.922,86.922
			S149.871,236.816,101.942,236.816z M101.942,104.671c-24.936,0-45.222,20.287-45.222,45.222c0,24.936,20.287,45.223,45.222,45.223
			s45.222-20.287,45.222-45.223C147.164,124.958,126.877,104.671,101.942,104.671z"/>
	</g>
	<path d="M640.489,65.692c-39.317,0-72.418,27.091-81.639,63.584h41.434c7.508-14.582,22.706-24.584,40.205-24.584
		c24.924,0,45.202,20.278,45.202,45.202s-20.278,45.202-45.202,45.202c-17.499,0-32.697-10.002-40.205-24.584H558.85
		c9.221,36.493,42.322,63.584,81.639,63.584c46.429,0,84.202-37.772,84.202-84.202C724.691,103.465,686.918,65.692,640.489,65.692z"
		/>
	<g>
		<g>
			<path d="M897.019,312.346c0,5.963-2.146,10.66-6.437,14.092c-4.291,3.434-10.261,5.149-17.908,5.149
				c-7.046,0-13.278-1.324-18.698-3.975v-13.008c4.455,1.987,8.227,3.388,11.313,4.2c3.086,0.813,5.909,1.22,8.469,1.22
				c3.071,0,5.427-0.587,7.068-1.762c1.641-1.174,2.462-2.92,2.462-5.239c0-1.294-0.361-2.445-1.084-3.455
				c-0.723-1.009-1.784-1.979-3.185-2.913c-1.4-0.933-4.253-2.424-8.559-4.472c-4.035-1.896-7.062-3.718-9.079-5.465
				c-2.018-1.746-3.628-3.778-4.832-6.098c-1.205-2.318-1.807-5.028-1.807-8.13c0-5.841,1.979-10.433,5.939-13.775
				c3.959-3.343,9.432-5.014,16.418-5.014c3.432,0,6.707,0.407,9.823,1.22s6.375,1.958,9.778,3.433l-4.517,10.885
				c-3.522-1.445-6.437-2.453-8.739-3.026c-2.304-0.571-4.57-0.857-6.798-0.857c-2.65,0-4.683,0.617-6.098,1.852
				c-1.415,1.235-2.122,2.846-2.122,4.833c0,1.234,0.285,2.311,0.857,3.229s1.483,1.807,2.732,2.664
				c1.249,0.858,4.208,2.402,8.875,4.63c6.173,2.951,10.403,5.91,12.692,8.875C895.874,304.405,897.019,308.042,897.019,312.346z"/>
			<path d="M1032.942,264.651v42.728c0,4.878-1.092,9.154-3.275,12.827c-2.184,3.674-5.337,6.489-9.462,8.446
				c-4.126,1.957-9.004,2.936-14.634,2.936c-8.491,0-15.086-2.175-19.783-6.526c-4.697-4.351-7.045-10.305-7.045-17.863v-42.547
				h13.956v40.424c0,5.089,1.023,8.823,3.071,11.201c2.047,2.379,5.435,3.568,10.162,3.568c4.576,0,7.896-1.197,9.959-3.591
				s3.094-6.149,3.094-11.269v-40.334H1032.942z"/>
			<path d="M1147.277,330.684l-15.898-51.806h-0.407c0.572,10.539,0.858,17.569,0.858,21.093v30.713h-12.511v-66.033h19.061
				l15.627,50.496h0.271l16.575-50.496h19.061v66.033h-13.054v-31.255c0-1.475,0.023-3.177,0.068-5.104s0.248-7.046,0.609-15.356
				h-0.406l-17.027,51.715H1147.277z"/>
			<path d="M1304.7,330.684l-15.898-51.806h-0.406c0.571,10.539,0.857,17.569,0.857,21.093v30.713h-12.511v-66.033h19.06
				l15.628,50.496h0.271l16.576-50.496h19.061v66.033h-13.053v-31.255c0-1.475,0.022-3.177,0.067-5.104s0.248-7.046,0.609-15.356
				h-0.406l-17.027,51.715H1304.7z"/>
			<path d="M1434.166,330.684v-66.033h14.001v66.033H1434.166z"/>
			<path d="M1560.469,330.684h-14.001v-54.38h-17.932v-11.653h49.863v11.653h-17.931V330.684z"/>
		</g>
	</g>
</g>
<g id="Ebene_5">
	<path d="M362.187,170.512c0,20.71-16.789,37.495-37.497,37.495c-20.709,0-37.497-16.785-37.497-37.495h26.655v-41.236h-26.655
		v-28.578c0-43.796-35.631-79.427-79.427-79.427v41.7c20.803,0,37.727,16.924,37.727,37.727v28.578h-26.601v41.236h26.601
		c0,43.148,35.104,78.254,78.252,78.254c43.148,0,78.251-35.105,78.251-78.254H362.187z"/>
	<path d="M425.79,65.683c-35.065,0-63.593,28.528-63.593,63.593h39.8c0-13.354,10.827-24.183,24.183-24.183
		c13.355,0,24.183,10.828,24.183,24.183h39.022C489.384,94.21,460.856,65.683,425.79,65.683z"/>
</g>
</svg>
