<?xml version="1.0" encoding="UTF-8" standalone="no"?>
<!-- Generator: Adobe Illustrator 19.1.0, SVG Export Plug-In . SVG Version: 6.00 Build 0)  -->

<svg
   xmlns:dc="http://purl.org/dc/elements/1.1/"
   xmlns:cc="http://creativecommons.org/ns#"
   xmlns:rdf="http://www.w3.org/1999/02/22-rdf-syntax-ns#"
   xmlns:svg="http://www.w3.org/2000/svg"
   xmlns="http://www.w3.org/2000/svg"
   xmlns:sodipodi="http://sodipodi.sourceforge.net/DTD/sodipodi-0.dtd"
   xmlns:inkscape="http://www.inkscape.org/namespaces/inkscape"
   version="1.1"
   id="Layer_1"
   x="0px"
   y="0px"
   viewBox="524 177 1123.5063 440"
   xml:space="preserve"
   sodipodi:docname="Logo_OpenTecSummit_TXT_o_v2-1.svg"
   inkscape:version="0.92.3 (2405546, 2018-03-11)"
   width="1123.5063"
   height="440"><metadata
   id="metadata37"><rdf:RDF><cc:Work
       rdf:about=""><dc:format>image/svg+xml</dc:format><dc:type
         rdf:resource="http://purl.org/dc/dcmitype/StillImage" /><dc:title></dc:title></cc:Work></rdf:RDF></metadata><defs
   id="defs35">
	

		
		
		
		
		
	</defs><sodipodi:namedview
   pagecolor="#ffffff"
   bordercolor="#666666"
   borderopacity="1"
   objecttolerance="10"
   gridtolerance="10"
   guidetolerance="10"
   inkscape:pageopacity="0"
   inkscape:pageshadow="2"
   inkscape:window-width="1366"
   inkscape:window-height="740"
   id="namedview33"
   showgrid="false"
   inkscape:zoom="0.18861103"
   inkscape:cx="-376.73609"
   inkscape:cy="220.2"
   inkscape:window-x="0"
   inkscape:window-y="0"
   inkscape:window-maximized="1"
   inkscape:current-layer="Layer_1"
   fit-margin-top="0"
   fit-margin-left="0"
   fit-margin-right="0"
   fit-margin-bottom="0" />
<style
   type="text/css"
   id="style2">
	.st0{fill:#FF8700;}
	.st1{fill:#FFFFFF;}
</style>
<g
   id="Ebene_2"
   transform="matrix(0.67721904,0,0,1,168.93407,-0.19999695)">
	<rect
   x="524.29999"
   y="177.2"
   class="st0"
   width="1659"
   height="440"
   id="rect4"
   style="fill:#ff8700" />
</g>
<g
   id="g874"
   transform="translate(-539.09681,-0.19999695)"><g
     id="g17">
			<path
   style="fill:#ffffff"
   inkscape:connector-curvature="0"
   id="path7"
   d="m 1525.8,382.6 c 7.5,11.2 11.3,26.9 11.3,47.3 0,12.5 -1.9,23.6 -5.8,33.4 -3.9,9.8 -9.5,17.5 -16.8,23 -7.3,5.5 -15.8,8.3 -25.5,8.3 -12.2,0 -22,-4.3 -29.4,-12.8 v 55.6 l -36,3.9 V 369.7 h 31.7 l 1.8,13.5 c 4.7,-5.9 10.1,-10.3 16.1,-13.1 6,-2.8 12,-4.2 18.1,-4.2 15.5,0 27,5.6 34.5,16.7 z m -26,47.8 c 0,-14.3 -1.6,-24.2 -4.9,-29.8 -3.3,-5.5 -8.2,-8.3 -14.9,-8.3 -3.8,0 -7.5,1.3 -11.1,3.8 -3.6,2.5 -6.7,6 -9.2,10.4 v 51.1 c 4.9,7.1 11,10.7 18.5,10.7 14.3,-0.1 21.6,-12.7 21.6,-37.9 z"
   class="st1" />
			<path
   style="fill:#ffffff"
   inkscape:connector-curvature="0"
   id="path9"
   d="m 1649.5,375.4 c 5.9,6.4 8.9,15.4 8.9,26.9 v 88.5 h -36 v -82.3 c 0,-6.1 -1,-10.3 -2.9,-12.7 -1.9,-2.4 -4.8,-3.5 -8.5,-3.5 -7.3,0 -14.3,5.2 -21,15.7 v 82.8 h -36 V 369.7 h 31.5 l 2.5,14.4 c 5.3,-6.1 11,-10.6 17,-13.7 6,-3 12.7,-4.6 20,-4.6 10.3,0.1 18.5,3.3 24.5,9.6 z"
   class="st1" />
			<path
   style="fill:#ffffff"
   inkscape:connector-curvature="0"
   id="path11"
   d="m 1751.6,361.5 v 129.3 h -37.4 V 361.5 h -40.8 v -28.7 h 120.8 l -3.6,28.7 z"
   class="st1" />
			<path
   style="fill:#ffffff"
   inkscape:connector-curvature="0"
   id="path13"
   d="m 1895.3,440.9 h -74.8 c 1.1,10.2 3.9,17.3 8.4,21.4 4.6,4.1 10.9,6.2 18.9,6.2 4.9,0 9.6,-0.9 14.1,-2.6 4.6,-1.7 9.5,-4.4 14.8,-8.1 l 14.8,20.1 c -14.1,11.3 -29.9,16.9 -47.2,16.9 -19.6,0 -34.7,-5.8 -45.1,-17.3 -10.5,-11.5 -15.7,-27.1 -15.7,-46.5 0,-12.3 2.2,-23.4 6.6,-33.2 4.4,-9.8 10.9,-17.6 19.4,-23.3 8.5,-5.7 18.7,-8.6 30.6,-8.6 17.5,0 31.2,5.5 41,16.4 9.9,10.9 14.8,26.1 14.8,45.6 -0.1,5 -0.1,9.3 -0.6,13 z m -34.7,-23.3 c -0.3,-18.5 -6.8,-27.8 -19.6,-27.8 -6.2,0 -11,2.2 -14.4,6.7 -3.3,4.5 -5.5,12 -6.4,22.7 h 40.4 z"
   class="st1" />
			<path
   style="fill:#ffffff"
   inkscape:connector-curvature="0"
   id="path15"
   d="m 1991.8,369.5 c 6.7,2.4 13,6.2 18.9,11.2 l -15.7,21.7 c -7.3,-5.9 -14.9,-8.9 -22.8,-8.9 -8.1,0 -14.1,3 -18.2,8.9 -4.1,5.9 -6.2,15.5 -6.2,28.7 0,12.8 2.1,21.8 6.2,27.1 4.1,5.3 10,8 17.8,8 4.3,0 8.1,-0.7 11.4,-2.1 3.3,-1.4 7.1,-3.6 11.2,-6.8 l 16.4,23 c -12,9.6 -25.6,14.4 -40.8,14.4 -12.3,0 -23,-2.6 -31.9,-7.9 -9,-5.2 -15.9,-12.6 -20.7,-22.1 -4.9,-9.5 -7.3,-20.6 -7.3,-33.4 0,-12.8 2.4,-24.1 7.3,-34 4.9,-9.9 11.8,-17.6 20.7,-23.1 9,-5.5 19.4,-8.3 31.2,-8.3 8.2,0 15.7,1.2 22.5,3.6 z"
   class="st1" />
		</g><path
     style="fill:#ffffff"
     inkscape:connector-curvature="0"
     id="path23"
     d="m 1320.5,328.5 c -39.3,0 -72.4,27.1 -81.6,63.6 h 41.4 c 7.5,-14.6 22.7,-24.6 40.2,-24.6 24.9,0 45.2,20.3 45.2,45.2 0,24.9 -20.3,45.2 -45.2,45.2 -17.5,0 -32.7,-10 -40.2,-24.6 h -41.4 c 9.2,36.5 42.3,63.6 81.6,63.6 46.4,0 84.2,-37.8 84.2,-84.2 0,-46.4 -37.7,-84.2 -84.2,-84.2 z"
     class="st1" /></g>
</svg>