<?xml version="1.0" encoding="UTF-8" standalone="no"?>
<!-- Generator: Adobe Illustrator 26.3.1, SVG Export Plug-In . SVG Version: 6.00 Build 0)  -->

<svg
   version="1.1"
   id="svg3181"
   inkscape:export-filename="/home/opntec/git/fossasia-artwork/summit-24/T-shirt-2024/fossasia-drawing.png"
   x="0px"
   y="0px"
   viewBox="0 0 1122.5197 793.70077"
   xml:space="preserve"
   sodipodi:docname="fossasia-front.svg"
   inkscape:version="1.1.2 (0a00cf5339, 2022-02-04)"
   width="297mm"
   height="210mm"
   inkscape:export-xdpi="100"
   inkscape:export-ydpi="100"
   xmlns:inkscape="http://www.inkscape.org/namespaces/inkscape"
   xmlns:sodipodi="http://sodipodi.sourceforge.net/DTD/sodipodi-0.dtd"
   xmlns="http://www.w3.org/2000/svg"
   xmlns:svg="http://www.w3.org/2000/svg"><defs
   id="defs157" />
<style
   type="text/css"
   id="style2">
	.st0{fill:#D40000;}
	.st1{fill:#D40000;stroke:#373535;stroke-width:1.1963;stroke-miterlimit:9.5705;}
	.st2{fill:#D40000;stroke:#373535;stroke-width:1.1963;stroke-miterlimit:9.5705;stroke-dasharray:3.2803,2.1869;}
	.st3{fill:none;stroke:#FFFFFF;stroke-width:3;stroke-miterlimit:10;}
	.st4{fill:#FFFFFF;}
	.st5{font-family:'BitstreamVeraSans-Bold';}
	.st6{font-size:69.9038px;}
	.st7{font-family:'BitstreamVeraSans-Roman';}
	.st8{font-size:26.0515px;}
</style>
<sodipodi:namedview
   bordercolor="#666666"
   borderlayer="true"
   borderopacity="1.0"
   id="namedview3183"
   inkscape:current-layer="layer1"
   inkscape:cx="165.72815"
   inkscape:cy="174.56699"
   inkscape:document-units="mm"
   inkscape:pagecheckerboard="0"
   inkscape:pageopacity="0.0"
   inkscape:pageshadow="2"
   inkscape:window-height="683"
   inkscape:window-maximized="1"
   inkscape:window-width="1280"
   inkscape:window-x="0"
   inkscape:window-y="0"
   inkscape:zoom="0.22627417"
   pagecolor="#ffffff"
   showgrid="false"
   units="mm">
	</sodipodi:namedview>
<g
   id="layer1"
   inkscape:groupmode="layer"
   inkscape:label="Layer 1">
	
		<g
   id="g10790-0-6-8-3-6"
   transform="matrix(1.2099674,0,0,-1.2099674,-314.51117,2017.9962)"
   inkscape:export-xdpi="100"
   inkscape:export-ydpi="100"
   inkscape:export-filename="/home/opntec/git/fossasia-artwork/summit-24/T-shirt-2024/fossasia-front1.png">
		<g
   id="g20-2-6-5-3-4"
   transform="translate(702.7842,1580.7189)">
			<path
   id="path22-3-4-0-3-6"
   inkscape:connector-curvature="0"
   class="st0"
   d="m 830.8,306.7 c 0,0 134.1,-4.8 305.6,-380.7 l 51,-91.6 c 0,0 -236.2,-327.8 -395.2,-356.7 l -110.8,250.7 -135,322.9 149.4,255.4 z" />
		</g>
		<g
   id="g24-7-9-9-8-2"
   transform="translate(702.7842,1580.7189)">
			<path
   id="path26-5-5-6-6-5"
   inkscape:connector-curvature="0"
   class="st1"
   d="m 830.8,306.7 c 0,0 134.1,-4.8 305.6,-380.7 l 51,-91.6 c 0,0 -236.2,-327.8 -395.2,-356.7 l -110.8,250.7 -135,322.9 149.4,255.4 z" />
		</g>
		<g
   id="g28-9-0-3-0-8"
   transform="translate(131.4102,1580.7189)">
			<path
   id="path30-2-4-8-4-6"
   inkscape:connector-curvature="0"
   class="st0"
   d="m -217.4,306.7 c 0,0 -134.1,-4.8 -305.6,-380.7 l -51,-91.6 c 0,0 236.2,-327.8 395.2,-356.7 L -68,-271.6 66.9,51.2 -82.5,306.7 Z" />
		</g>
		<g
   id="g32-2-8-5-8-2"
   transform="translate(131.4102,1580.7189)">
			<path
   id="path34-8-7-6-8-8"
   inkscape:connector-curvature="0"
   class="st1"
   d="m -217.4,306.7 c 0,0 -134.1,-4.8 -305.6,-380.7 l -51,-91.6 c 0,0 236.2,-327.8 395.2,-356.7 L -68,-271.6 66.9,51.2 -82.5,306.7 Z" />
		</g>
		<g
   id="g36-9-1-1-8-4"
   transform="translate(671.6025,850.27747)">
			<path
   id="path38-7-7-1-9-7"
   inkscape:connector-curvature="0"
   class="st0"
   d="M 773.6,-1033.4 741.4,438.8 c -81.9,395.2 134.9,597.6 134.9,597.6 l -465.1,219.9 -15.4,3.8 -42.4,26.9 c -92.5,-53.7 -205.7,-92.1 -301.2,-92.3 -95.5,0.2 -208.7,38.6 -301.2,92.3 l -45.8,-28.5 -14.1,-3.3 -463,-218.9 c 0,0 216.9,-202.4 135,-597.6 l -32.2,-1472.2 H 773.6 Z" />
		</g>
		<g
   id="g40-3-2-5-7-2"
   transform="translate(671.6025,850.27747)">
			<path
   id="path42-6-7-9-7-4"
   inkscape:connector-curvature="0"
   class="st1"
   d="M 773.6,-1062.7 741.4,409.5 c -81.9,395.2 134.9,597.6 134.9,597.6 l -465.1,219.9 -15.4,3.8 -42.4,26.9 c -92.5,-53.7 -205.7,-92.1 -301.2,-92.3 -95.5,0.2 -208.7,38.6 -301.2,92.3 l -45.8,-28.5 -14.1,-3.3 -463,-218.9 c 0,0 216.9,-202.4 135,-597.6 l -32.2,-1472.2 z" />
		</g>
		<g
   id="g44-1-2-8-6-0"
   transform="translate(296.1182,1659.7893)">
			<path
   id="path46-2-2-4-4-6"
   inkscape:connector-curvature="0"
   class="st0"
   d="m 84.7,451.8 c 107.9,-62.6 231.5,-75.4 343,-75.7 111.4,0.3 235,13.1 342.9,75.7 0,0 1.1,0.2 3,0.4 l -9.3,2.3 -41.5,26.3 c -91.7,-44.5 -201.5,-47.9 -295.1,-48.1 -93.6,0.2 -199.1,4.4 -295.1,48.1 l -44.9,-27.9 -4.2,-1 z" />
		</g>
		<g
   id="g48-9-6-8-3-2"
   transform="translate(296.1182,1659.7893)">
			<path
   id="path50-3-1-1-0-9"
   inkscape:connector-curvature="0"
   class="st1"
   d="m 84.7,451.8 c 107.9,-62.6 231.5,-75.4 343,-75.7 111.4,0.3 235,13.1 342.9,75.7 0,0 1.1,0.2 3,0.4 l -9.3,2.3 -41.5,26.3 c -91.7,-44.5 -201.5,-47.9 -295.1,-48.1 -93.6,0.2 -199.1,4.4 -295.1,48.1 l -44.9,-27.9 -4.2,-1 z" />
		</g>
		<g
   id="g52-1-0-0-3-9"
   transform="translate(426.5693,1579.132)">
			<path
   id="path54-9-6-3-0-0"
   inkscape:connector-curvature="0"
   class="st0"
   d="M 324.1,303.8 C 255.5,299.9 23.9,460.8 -1.3,560.2 L -43.5,534 c 1.7,-69.4 198.5,-232.1 312.3,-276.7 22.3,-8.8 55.3,46.5 55.3,46.5" />
		</g>
		<g
   id="g56-4-1-0-9-8"
   transform="translate(426.5693,1579.132)">
			<path
   id="path58-7-5-4-2-1"
   inkscape:connector-curvature="0"
   class="st1"
   d="M 324.1,303.8 C 255.5,299.9 23.9,460.8 -1.3,560.2 L -43.5,534 c 1.7,-69.4 198.5,-232.1 312.3,-276.7 22.3,-8.8 55.3,46.5 55.3,46.5 z" />
		</g>
		<g
   id="g60-8-9-4-5-3"
   transform="translate(388.5063,1571.6872)">
			<path
   id="path62-4-4-4-4-1"
   inkscape:connector-curvature="0"
   class="st0"
   d="m 254.2,290.1 c 98.4,-4.5 353.8,178.2 379,277.5 l 42.1,-26.2 C 673.2,458.5 399.9,254.3 314.9,250.7 Z" />
		</g>
		<g
   id="g64-5-9-4-0-1"
   transform="translate(388.5063,1571.6872)">
			<path
   id="path66-0-0-7-5-0"
   inkscape:connector-curvature="0"
   class="st1"
   d="m 254.2,290.1 c 98.4,-4.5 353.8,178.2 379,277.5 l 42.1,-26.2 C 673.2,458.5 399.9,254.3 314.9,250.7 Z" />
		</g>
		<g
   id="g68-3-9-6-9-3"
   transform="translate(11.1265,1423.3327)">
			<path
   id="path70-6-1-3-4-4"
   inkscape:connector-curvature="0"
   class="st2"
   d="m -438.1,17.9 c 0,0 236.1,-327.7 395.2,-356.6" />
		</g>
		<g
   id="g72-1-7-1-6-0"
   transform="translate(823.4795,1423.3327)">
			<path
   id="path74-0-7-7-9-3"
   inkscape:connector-curvature="0"
   class="st2"
   d="m 1052.3,17.9 c 0,0 -236.2,-327.7 -395.2,-356.6" />
		</g>
		<g
   id="g76-6-1-5-2-9"
   transform="translate(162.4893,859.73547)">
			<path
   id="path78-3-1-9-2-1"
   inkscape:connector-curvature="0"
   class="st2"
   d="M -160.4,-1016.1 H 1282.4" />
		</g>
	</g>
</g>





<g
   id="g45222"
   transform="translate(-11.303316,30.26108)"><g
     id="g130"
     transform="matrix(1.5430429,0,0,1.5430429,39.420229,40.775805)">
	<path
   class="st3"
   d="M 154.9,66.1 V 89.9 H 84.1 c 0,0 -5.3,0.3 -9.2,-3.6 10.7,-0.5 23.4,-20.1 23.4,-20.1 h 56.6 z"
   id="path37" />
	<path
   class="st3"
   d="M 154.9,8.1 V 42.7 H 85.5 c 0,0 -7,0.4 -11.4,-10 0,0 6.5,4 20.7,-2.1 12.4,-5.3 38.7,-22.4 38.7,-22.4 h 21.4 z"
   id="path39" />
	<path
   class="st3"
   d="m 47,366.8 v -49.2 c 0,-6.5 1.9,-13 5.7,-18.7 3.3,-4.9 7.5,-9.8 11.1,-9.9 3.8,0 8.3,5.3 11.9,10.3 3.7,5.3 5.6,11.4 5.6,17.5 v 50 z"
   id="path41" />
	<rect
   x="37.5"
   y="273.39999"
   class="st3"
   width="53.200001"
   height="93.400002"
   id="rect43" />
	<rect
   x="114.5"
   y="273.39999"
   class="st3"
   width="40.599998"
   height="93.400002"
   id="rect45" />
	<path
   class="st3"
   d="m 155.1,366.7 h -29.5 v -49.2 c 0,-6.5 3.3,-13 9.9,-18.7 5.7,-4.9 13,-9.8 19.2,-9.9"
   id="path47" />
	<path
   class="st3"
   d="m 59.9,235.1 v -34.7 c 0,-4.6 1.3,-9.2 4,-13.2 2.3,-3.5 5.3,-6.9 7.8,-6.9 2.7,0 5.9,3.7 8.3,7.3 2.6,3.7 3.9,8 3.9,12.3 v 35.2 z"
   id="path49" />
	<rect
   x="53.299999"
   y="169.3"
   class="st3"
   width="37.5"
   height="65.699997"
   id="rect51" />
	<polygon
   class="st3"
   points="126.6,235.1 126.6,169.3 154.9,169.3 155.1,235.1 "
   id="polygon53" />
	<path
   class="st3"
   d="m 156,235.1 h -19.9 v -34.7 c 0,-4.6 2.1,-9.2 6.4,-13.2 3.7,-3.5 8.4,-6.9 12.4,-7"
   id="path55" />
	<rect
   x="98"
   y="42.599998"
   class="st3"
   width="57"
   height="23.4"
   id="rect57" />
	
		<rect
   id="XMLID_00000130647477545582989690000007937619340401360768_"
   x="24.6"
   y="135.39999"
   class="st3"
   width="66.099998"
   height="21.5" />
	<rect
   x="15.4"
   y="235.10001"
   class="st3"
   width="139.7"
   height="24.799999"
   id="rect60" />
	<rect
   x="15.4"
   y="262"
   class="st3"
   width="139.7"
   height="104.8"
   id="rect62" />
	<rect
   x="9.8999996"
   y="366.70001"
   class="st3"
   width="145.2"
   height="16.1"
   id="rect64" />
	<polygon
   class="st3"
   points="5.3,414.2 5.3,382.9 155.1,382.9 154.9,414.2 "
   id="polygon66" />
	<polyline
   class="st3"
   points="156,159.1 25,159.1 25,162.6 25,227.7  "
   id="polyline68" />
	<rect
   x="19"
   y="155.7"
   class="st4"
   width="137"
   height="7"
   id="rect70" />
	<rect
   x="9.8999996"
   y="258.5"
   class="st4"
   width="146.10001"
   height="7"
   id="rect72" />
	<rect
   x="84.599998"
   y="88.400002"
   class="st4"
   width="71.800003"
   height="7"
   id="rect74" />
	<line
   class="st3"
   x1="125.6"
   y1="366.79999"
   x2="125.6"
   y2="414.20001"
   id="line76" />
	<line
   class="st3"
   x1="125.3"
   y1="398.60001"
   x2="154.89999"
   y2="398.60001"
   id="line78" />
	<path
   class="st3"
   d="m 154.9,133.1 c -8,0 -14.5,-6.5 -14.5,-14.5 0,-8 6.5,-14.5 14.5,-14.5 z"
   id="path80" />
	<rect
   x="112.9"
   y="243.3"
   class="st3"
   width="42.200001"
   height="10"
   id="rect82" />
	<rect
   x="30.200001"
   y="243.3"
   class="st3"
   width="70.599998"
   height="10"
   id="rect84" />
	<rect
   x="28.799999"
   y="393.70001"
   class="st3"
   width="70.599998"
   height="10"
   id="rect86" />
	<polygon
   class="st3"
   points="27.6,135.4 27.6,132.5 30.4,128.1 39.7,128.1 42.5,132.2 42.5,135.4 "
   id="polygon88" />
	<polygon
   class="st3"
   points="17.2,235.1 17.2,232.1 20,227.7 29.2,227.7 32,231.8 32,235.1 "
   id="polygon90" />
	<polygon
   class="st3"
   points="99.4,235.1 99.4,232.1 102.2,227.7 111.5,227.7 114.3,231.8 114.3,235.1 "
   id="polygon92" />
	<polygon
   class="st3"
   points="102.8,382.2 102.8,379.3 105.6,374.8 114.8,374.8 117.6,378.9 117.6,382.2 "
   id="polygon94" />
	<polygon
   class="st3"
   points="74.9,135.4 74.9,132.5 77.7,128.1 87,128.1 89.8,132.2 89.8,135.4 "
   id="polygon96" />
	<g
   id="g104">
		<polyline
   class="st3"
   points="85,128.1 85,95.8 85,89.9 156,89.9   "
   id="polyline98" />
		<line
   class="st3"
   x1="156"
   y1="146.2"
   x2="90.699997"
   y2="146.2"
   id="line100" />
		<line
   class="st3"
   x1="154.89999"
   y1="6.5999999"
   x2="154.89999"
   y2="415.5"
   id="line102" />
	</g>
	<line
   class="st3"
   x1="42.5"
   y1="140.8"
   x2="42.5"
   y2="151.60001"
   id="line106" />
	<line
   class="st3"
   x1="49"
   y1="140.8"
   x2="49"
   y2="151.60001"
   id="line108" />
	<line
   class="st3"
   x1="55.400002"
   y1="140.8"
   x2="55.400002"
   y2="151.60001"
   id="line110" />
	<line
   class="st3"
   x1="61.900002"
   y1="140.8"
   x2="61.900002"
   y2="151.60001"
   id="line112" />
	<line
   class="st3"
   x1="68.400002"
   y1="140.8"
   x2="68.400002"
   y2="151.60001"
   id="line114" />
	<line
   class="st3"
   x1="74.900002"
   y1="140.8"
   x2="74.900002"
   y2="151.60001"
   id="line116" />
	<g
   id="g128">
		<line
   class="st3"
   x1="154.89999"
   y1="16.700001"
   x2="154.89999"
   y2="42.599998"
   id="line118" />
		<line
   class="st3"
   x1="140.7"
   y1="21.4"
   x2="140.7"
   y2="42.599998"
   id="line120" />
		<line
   class="st3"
   x1="126.5"
   y1="26.200001"
   x2="126.5"
   y2="42.599998"
   id="line122" />
		<line
   class="st3"
   x1="112.2"
   y1="30.9"
   x2="112.2"
   y2="42.599998"
   id="line124" />
		<line
   class="st3"
   x1="98"
   y1="35.700001"
   x2="98"
   y2="42.599998"
   id="line126" />
	</g>
</g><g
     id="g148"
     transform="matrix(1.4639389,0,0,1.4639389,51.808664,53.44312)">
	<path
   class="st4"
   d="M 293.5,8.2 V 29 h -60.3 c -1.8,0 -3.4,0.1 -4.7,0.3 -1,0.3 -2,1 -3.3,1.9 -2.1,2.1 -3.1,5.5 -3.1,10.1 v 2.2 l 71.4,-0.3 v 21 L 222,64.5 v 68 h -23.8 v -68 h -15 v -21 h 15 v -8.8 c 0,-4.7 0.4,-8.6 1.1,-11.7 0.8,-3.2 2.3,-6.1 4.7,-8.8 2.4,-2.7 4.9,-4.4 7.7,-5.1 C 214.5,8.4 218,8 222,8 l 71.5,0.2"
   id="path132" />
	<path
   class="st4"
   d="m 332.2,6.1 h 76.4 c 8.2,0 15.1,3.3 20.8,9.8 5.8,6.4 8.7,14.2 8.7,23.4 v 25.9 c 0,9.1 -2.9,16.9 -8.7,23.4 -5.7,6.5 -12.6,9.8 -20.8,9.8 h -76.4 c -8.1,0 -15,-3.3 -20.8,-9.8 -5.8,-6.5 -8.7,-14.3 -8.7,-23.4 v -26 c 0,-9.2 2.9,-17 8.7,-23.4 5.8,-6.5 12.7,-9.7 20.8,-9.7 m 7.1,20.8 c -3.3,0 -6.2,1.3 -8.6,4 -2.4,2.7 -3.6,5.9 -3.6,9.6 v 22.1 c 0,3.7 1.2,6.9 3.6,9.6 2.4,2.7 5.2,4 8.6,4 h 61 c 3.3,0 6.2,-1.3 8.6,-4 2.4,-2.7 3.6,-5.9 3.6,-9.6 V 40.5 c 0,-3.7 -1.2,-6.9 -3.6,-9.6 -2.4,-2.7 -5.2,-4 -8.6,-4 h -61"
   id="path134" />
	<path
   class="st4"
   d="m 473.2,63.5 c -7.4,0 -13.5,-2.4 -18.1,-7.2 -4.6,-4.9 -6.8,-11.5 -6.8,-19.8 0,-11 3.8,-18.9 11.5,-23.8 3.7,-2.3 8.2,-3.5 13.4,-3.5 h 100.9 v 21 h -96.2 c -5.2,0 -7.8,2.2 -7.8,6.7 0,4.5 2.6,6.7 7.8,6.7 l 75.6,0.2 c 7.4,0 13.4,2.5 18,7.4 4.7,4.9 7,11.5 7,19.8 0,11.2 -3.9,19.1 -11.6,23.8 -3.6,2.2 -8.1,3.4 -13.4,3.4 H 448.3 v -21 l 100.5,0.2 c 5.2,0 7.8,-2.3 7.8,-6.9 0,-4.5 -2.6,-6.7 -7.8,-6.7 l -75.6,-0.3"
   id="path136" />
	<path
   class="st4"
   d="m 610.6,63.5 c -7.4,0 -13.4,-2.4 -18.1,-7.2 -4.6,-4.9 -6.8,-11.5 -6.8,-19.8 0,-11 3.8,-18.9 11.5,-23.8 3.7,-2.3 8.2,-3.5 13.4,-3.5 h 100.9 v 21 h -96.2 c -5.2,0 -7.8,2.2 -7.8,6.7 0,4.5 2.6,6.7 7.8,6.7 l 75.6,0.2 c 7.4,0 13.4,2.5 18,7.4 4.7,4.9 7,11.5 7,19.8 0,11.2 -3.8,19.1 -11.5,23.8 -3.6,2.2 -8.1,3.4 -13.4,3.4 H 585.6 v -21 l 100.5,0.2 c 5.2,0 7.8,-2.3 7.8,-6.9 0,-4.5 -2.6,-6.7 -7.8,-6.7 l -75.5,-0.3"
   id="path138" />
	<path
   class="st4"
   d="m 196.5,160.8 v -19.6 h 99.9 c 9.9,0 17.7,2.6 23.5,7.8 3.6,3.2 6,6.9 7.3,11.2 0.9,3.2 1.3,7.7 1.3,13.5 v 50.7 H 217 c -8.2,0 -14.6,-2.2 -19.3,-6.7 -4.7,-4.5 -7,-10.8 -7,-18.9 0,-8.1 2.3,-14.3 7,-18.7 4.8,-4.5 11.2,-6.7 19.3,-6.7 h 86.5 v -0.8 c 0,-6.2 -2.3,-9.9 -6.9,-11.2 -1.4,-0.4 -3.5,-0.6 -6.4,-0.6 h -93.7 m 107,44 v -12.7 h -79.9 c -5.3,0 -7.9,2.1 -7.9,6.4 0,4.2 2.6,6.3 7.9,6.3 h 79.9"
   id="path140" />
	<path
   class="st4"
   d="m 386.2,192.1 c -7.8,0 -14.1,-2.2 -19,-6.7 -4.8,-4.6 -7.2,-10.8 -7.2,-18.6 0,-10.3 4,-17.7 12.1,-22.3 3.9,-2.2 8.6,-3.3 14.1,-3.3 h 106 v 19.6 h -101 c -5.5,0 -8.2,2.1 -8.2,6.3 0,4.2 2.7,6.3 8.2,6.3 l 79.3,0.1 c 7.8,0 14.1,2.3 18.9,6.9 4.9,4.6 7.3,10.8 7.3,18.6 0,10.5 -4,17.9 -12.1,22.3 -3.8,2.1 -8.5,3.1 -14.1,3.1 H 360 v -19.6 l 105.5,0.1 c 5.5,0 8.2,-2.1 8.2,-6.4 0,-4.2 -2.7,-6.3 -8.2,-6.3 l -79.3,-0.1"
   id="path142" />
	<path
   class="st4"
   d="m 546,224.4 h -25 v -83.2 h 25 v 83.2 m 0,-91.6 h -25 v -19.9 h 25 v 19.9"
   id="path144" />
	<path
   class="st4"
   d="M 582.2,160.8 V 141.2 H 682 c 9.9,0 17.7,2.6 23.5,7.8 3.6,3.2 6,6.9 7.3,11.2 0.9,3.2 1.3,7.7 1.3,13.5 v 50.7 H 602.7 c -8.2,0 -14.6,-2.2 -19.3,-6.7 -4.7,-4.5 -7,-10.8 -7,-18.9 0,-8.1 2.3,-14.3 7,-18.7 4.8,-4.5 11.2,-6.7 19.3,-6.7 h 86.5 v -0.8 c 0,-6.2 -2.3,-9.9 -6.9,-11.2 -1.4,-0.4 -3.5,-0.6 -6.4,-0.6 h -93.7 m 107,44 v -12.7 h -79.9 c -5.3,0 -7.9,2.1 -7.9,6.4 0,4.2 2.6,6.3 7.9,6.3 h 79.9"
   id="path146" />
</g><text
     xml:space="preserve"
     style="font-size:100.402px;line-height:1.25;font-family:'Bitstream Vera Sans Mono';-inkscape-font-specification:'Bitstream Vera Sans Mono';word-spacing:0px;stroke-width:2.51004"
     x="321.67551"
     y="507.168"
     id="text4376"><tspan
       sodipodi:role="line"
       id="tspan4374"
       x="321.67551"
       y="507.168"
       style="font-style:normal;font-variant:normal;font-weight:bold;font-stretch:normal;font-family:'Bitstream Vera Sans';-inkscape-font-specification:'Bitstream Vera Sans Bold';fill:#ffffff;stroke-width:2.51004">SUMMIT 2024</tspan></text><g
     id="g44916"
     transform="matrix(1.0443564,0,0,1.0443564,-14.588028,-16.898855)"><text
       xml:space="preserve"
       style="font-size:41.8064px;line-height:1.25;font-family:'Bitstream Vera Sans Mono';-inkscape-font-specification:'Bitstream Vera Sans Mono';word-spacing:0px;stroke-width:1.04516"
       x="326.61618"
       y="601.91028"
       id="text24757"><tspan
         sodipodi:role="line"
         id="tspan24755"
         x="326.61618"
         y="601.91028"
         style="font-style:normal;font-variant:normal;font-weight:normal;font-stretch:normal;font-family:'Bitstream Vera Sans';-inkscape-font-specification:'Bitstream Vera Sans';fill:#ffffff;stroke-width:1.04516">summit.fossasia.org</tspan></text><text
       xml:space="preserve"
       style="font-size:41.8064px;line-height:1.25;font-family:'Bitstream Vera Sans Mono';-inkscape-font-specification:'Bitstream Vera Sans Mono';word-spacing:0px;stroke-width:1.04516"
       x="324.77896"
       y="660.72827"
       id="text33449"><tspan
         sodipodi:role="line"
         id="tspan33447"
         x="324.77896"
         y="660.72827"
         style="font-style:normal;font-variant:normal;font-weight:normal;font-stretch:normal;font-family:'Bitstream Vera Sans';-inkscape-font-specification:'Bitstream Vera Sans';fill:#ffffff;stroke-width:1.04516">Hà Nội, Việt Nam, April 08-10</tspan></text></g></g></svg>
