<?xml version="1.0" encoding="UTF-8" standalone="no"?>
<!-- Generator: Adobe Illustrator 26.3.1, SVG Export Plug-In . SVG Version: 6.00 Build 0)  -->

<svg
   version="1.1"
   id="svg3181"
   inkscape:version="1.1.2 (0a00cf5339, 2022-02-04)"
   sodipodi:docname="fossasia-back.svg"
   x="0px"
   y="0px"
   viewBox="0 0 603.9 131.6"
   style="enable-background:new 0 0 603.9 131.6;"
   xml:space="preserve"
   xmlns:inkscape="http://www.inkscape.org/namespaces/inkscape"
   xmlns:sodipodi="http://sodipodi.sourceforge.net/DTD/sodipodi-0.dtd"
   xmlns="http://www.w3.org/2000/svg"
   xmlns:svg="http://www.w3.org/2000/svg"><defs
   id="defs38" />
<style
   type="text/css"
   id="style2">
	.st0{fill:#D40000;}
	.st1{fill:#D40000;stroke:#373535;stroke-width:1.1903;stroke-miterlimit:5.3333;}
	.st2{fill:#D40000;stroke:#373535;stroke-width:1.1903;stroke-miterlimit:5.3333;stroke-dasharray:3.2638,2.1759;}
	.st3{fill:#FFFFFF;}
	.st4{font-family:'BitstreamVeraSans-Roman';}
	.st5{font-size:43.207px;}
	.st6{font-family:'Spaceman';}
	.st7{font-size:78.7463px;}
</style>
<sodipodi:namedview
   bordercolor="#666666"
   borderlayer="true"
   borderopacity="1.0"
   id="namedview3183"
   inkscape:current-layer="text_00000051371670114554234170000011140015643317845137_"
   inkscape:cx="650.53106"
   inkscape:cy="133.95307"
   inkscape:document-units="mm"
   inkscape:pagecheckerboard="0"
   inkscape:pageopacity="0.0"
   inkscape:pageshadow="2"
   inkscape:window-height="683"
   inkscape:window-maximized="1"
   inkscape:window-width="1280"
   inkscape:window-x="0"
   inkscape:window-y="0"
   inkscape:zoom="0.72786686"
   pagecolor="#ffffff"
   showgrid="false">
	</sodipodi:namedview>
<g
   id="_x32__00000034785619178757919310000005796253898661895555_">
	<g
   id="tshirt_00000046317187713922625900000013078869916359219375_"
   transform="translate(930.36463,-2641.8276)">
		<g
   id="g20-2-6-5-3-9-2_00000168112116737754336570000017718610617091412650_"
   transform="translate(702.7842,1580.7189)">
			
				<path
   id="path22-3-4-0-3-9-2_00000029762704401139608250000002225684200456852904_"
   inkscape:connector-curvature="0"
   class="st0"
   d="     M-651.3,940.1c0,0,112.6,4.1,256.7,319.8l42.9,76.9c0,0-198.3,275.3-331.9,299.5l-93.1-210.5l-113.4-271.2l125.5-214.5H-651.3z" />
		</g>
		<g
   id="g24-7-9-9-8-6-2_00000152984214045191398290000005141527870185091227_"
   transform="translate(702.7842,1580.7189)">
			
				<path
   id="path26-5-5-6-6-0-0_00000084527707876918183580000004150101035879303101_"
   inkscape:connector-curvature="0"
   class="st1"
   d="     M-651.3,940.1c0,0,112.6,4.1,256.7,319.8l42.9,76.9c0,0-198.3,275.3-331.9,299.5l-93.1-210.5l-113.4-271.2l125.5-214.5H-651.3z" />
		</g>
		<g
   id="g28-9-0-3-0-2-5_00000074438477887613062520000012448620489774890387_"
   transform="translate(131.4102,1580.7189)">
			
				<path
   id="path30-2-4-8-4-7-5_00000118395468578464458360000014655557606532981393_"
   inkscape:connector-curvature="0"
   class="st0"
   d="     M-1440.2,940.1c0,0-112.6,4.1-256.7,319.8l-42.9,76.9c0,0,198.3,275.3,331.9,299.5l93.1-210.5l113.3-271.2l-125.5-214.5H-1440.2z     " />
		</g>
		<g
   id="g32-2-8-5-8-6-2_00000181809233802002564530000016441394335488831622_"
   transform="translate(131.4102,1580.7189)">
			
				<path
   id="path34-8-7-6-8-1-9_00000119820119010854948800000003104168376927054465_"
   inkscape:connector-curvature="0"
   class="st1"
   d="     M-1440.2,940.1c0,0-112.6,4.1-256.7,319.8l-42.9,76.9c0,0,198.3,275.3,331.9,299.5l93.1-210.5l113.3-271.2l-125.5-214.5H-1440.2z     " />
		</g>
		<g
   id="g36-9-1-1-8-3-0_00000085943457177352365890000005954008339908664723_"
   transform="translate(671.6025,850.27747)">
			
				<path
   id="path38-7-7-1-9-2-2_00000085218219184613341460000014756758448340570814_"
   inkscape:connector-curvature="0"
   class="st0"
   d="     M-694.4,3409.4L-721.4,2173c-68.8-331.9,113.3-501.9,113.3-501.9l-390.6-184.7l-12.9-3.2l-35.6-22.6     c-77.7,45.1-172.8,77.3-253,77.5c-80.2-0.2-175.3-32.4-253-77.5l-38.5,23.9l-11.9,2.8l-388.8,183.8c0,0,182.1,170,113.3,501.9     l-27,1236.4H-694.4z" />
		</g>
		<g
   id="g40-3-2-5-7-1-8_00000144301822851448483270000010144743631579280569_"
   transform="translate(671.6025,850.27747)">
			
				<path
   id="path42-6-7-9-7-5-3_00000069397696708640268630000011075314206619960727_"
   inkscape:connector-curvature="0"
   class="st1"
   d="     M-694.4,3434.1l-27.1-1236.4c-68.8-331.9,113.3-501.9,113.3-501.9l-390.6-184.7l-12.9-3.2l-35.6-22.6     c-77.7,45.1-172.8,77.3-253,77.5c-80.2-0.2-175.3-32.4-253-77.5l-38.5,23.9l-11.9,2.8l-388.8,183.8c0,0,182.1,170,113.3,501.9     l-27,1236.4H-694.4z" />
		</g>
		<g
   id="g44-1-2-8-6-9-8_00000170959058859274050220000017317979261418829981_"
   transform="translate(296.1182,1659.7893)">
			
				<path
   id="path46-2-2-4-4-9-0_00000063606631225130682230000010456991480049966255_"
   inkscape:connector-curvature="0"
   class="st0"
   d="     M-1211.1,671.8c90.6,52.5,192.8,64.3,286.4,64.6c93.5-0.2,196.2-10.7,286.8-63.3l-4.1-2.6l-34.9-22.1     c-77,37.4-169.3,40.2-247.8,40.4c-78.6-0.2-167.2-3.7-247.8-40.4L-1211.1,671.8z" />
		</g>
		<g
   id="g48-9-6-8-3-1-4_00000121969436741064075710000007865424798074894223_"
   transform="translate(296.1182,1659.7893)">
			
				<path
   id="path50-3-1-1-0-4-0_00000029758598654879489740000001238170457091515803_"
   inkscape:connector-curvature="0"
   class="st1"
   d="     M-1210.2,671.4c90.6,52.5,191.9,64.7,285.5,64.9c93.5-0.2,194.2-12.4,284.9-64.9l-2.2-1l-34.9-22.1     c-77,37.4-169.3,40.2-247.8,40.4c-78.6-0.2-167.2-3.7-247.8-40.4L-1210.2,671.4z" />
		</g>
		<g
   id="g56-4-1-0-9-5-9_00000165944273903724037640000002954267250778951810_"
   transform="translate(426.5693,1579.132)">
			<path
   inkscape:connector-curvature="0"
   class="st1"
   d="M-1055,852.8c-87.5,0.5-232.9-100.2-248.7-123.4l-37.7,22.7     c0.7,29.1,176.7,151.2,286.1,151.2c124.7,0,287.6-147.8,284.9-151.2c-1.1-1.5-37.1-23.1-37.1-23.1S-956.7,852.2-1055,852.8z"
   id="path21" />
		</g>
		<g
   id="g68-3-9-6-9-0-9_00000136388623611161259420000003873044758567975566_"
   transform="translate(11.1265,1423.3327)">
			
				<path
   id="path70-6-1-3-4-42-9_00000103981030976307880720000008038531308409896073_"
   inkscape:connector-curvature="0"
   class="st2"
   d="     M-1606.2,1472.2c0,0,198.3,275.2,331.9,299.5" />
		</g>
		<g
   id="g72-1-7-1-6-9-3_00000148631648407687641880000017481533840422699661_"
   transform="translate(823.4795,1423.3327)">
			
				<path
   id="path74-0-7-7-9-6-6_00000136409069804528659200000003526252998390341543_"
   inkscape:connector-curvature="0"
   class="st2"
   d="     M-484.7,1472.2c0,0-198.3,275.2-331.9,299.5" />
		</g>
		<g
   id="g76-6-1-5-2-1-0_00000010291863108280374210000011579681474118195591_"
   transform="translate(162.4893,859.73547)">
			
				<path
   id="path78-3-1-9-2-0-5_00000168810416778799932460000014794902411614654105_"
   inkscape:connector-curvature="0"
   class="st2"
   d="     M-1397.3,3377.5h1211.7" />
		</g>
	</g>
	
		<g
   id="text_00000051371670114554234170000011140015643317845137_"
   transform="translate(-260.8212,-115.78581)"
   inkscape:groupmode="layer"
   inkscape:label="tshirt">
		<text
   transform="matrix(1 0 0 1 264.4167 156.7059)"
   class="st3 st4 st5"
   id="text31"
   style="-inkscape-font-specification:'Bitstream Vera Sans';font-family:'Bitstream Vera Sans';font-weight:normal;font-style:normal;font-stretch:normal;font-variant:normal">Free Open Source Solutions</text>
		<text
   transform="matrix(1 0 0 1 268.6579 223.367)"
   class="st3 st6 st7"
   id="text33">fossasia</text>
	</g>
</g>
</svg>
