<?xml version="1.0" encoding="UTF-8" standalone="no"?>
<!-- Created with Inkscape (http://www.inkscape.org/) -->

<svg
   xmlns:dc="http://purl.org/dc/elements/1.1/"
   xmlns:cc="http://creativecommons.org/ns#"
   xmlns:rdf="http://www.w3.org/1999/02/22-rdf-syntax-ns#"
   xmlns:svg="http://www.w3.org/2000/svg"
   xmlns="http://www.w3.org/2000/svg"
   xmlns:sodipodi="http://sodipodi.sourceforge.net/DTD/sodipodi-0.dtd"
   xmlns:inkscape="http://www.inkscape.org/namespaces/inkscape"
   width="746.66669"
   height="128"
   id="svg6016"
   version="1.1"
   inkscape:version="0.92.3 (2405546, 2018-03-11)"
   sodipodi:docname="fossasia-oneline-dark-path.svg"
   inkscape:export-filename="/home/makerspace/Dropbox/Logos/fossasia/fossasia-dark.png"
   inkscape:export-xdpi="150"
   inkscape:export-ydpi="150">
  <defs
     id="defs6018">
    <inkscape:perspective
       sodipodi:type="inkscape:persp3d"
       inkscape:vp_x="0 : 561.25983 : 1"
       inkscape:vp_y="0 : 1066.6667 : 0"
       inkscape:vp_z="793.70078 : 561.25983 : 1"
       inkscape:persp3d-origin="396.85039 : 374.17322 : 1"
       id="perspective6024" />
  </defs>
  <sodipodi:namedview
     id="base"
     pagecolor="#ffffff"
     bordercolor="#666666"
     borderopacity="1.0"
     inkscape:pageopacity="0.0"
     inkscape:pageshadow="2"
     inkscape:zoom="0.6216286"
     inkscape:cx="161.11386"
     inkscape:cy="2.5013484"
     inkscape:document-units="px"
     inkscape:current-layer="layer1"
     showgrid="false"
     inkscape:window-width="1366"
     inkscape:window-height="740"
     inkscape:window-x="0"
     inkscape:window-y="0"
     inkscape:window-maximized="1"
     inkscape:snap-object-midpoints="false"
     inkscape:snap-center="true"
     inkscape:snap-page="true"
     height="3543.31px"
     fit-margin-top="0"
     fit-margin-left="0"
     fit-margin-right="0"
     fit-margin-bottom="0"
     borderlayer="true">
    <inkscape:grid
       type="xygrid"
       id="grid2863"
       empspacing="5"
       visible="true"
       enabled="true"
       snapvisiblegridlinesonly="true"
       originx="-18.693311"
       originy="-82.05728"
       spacingx="1.0666667"
       spacingy="1.0666667" />
  </sodipodi:namedview>
  <metadata
     id="metadata6021">
    <rdf:RDF>
      <cc:Work
         rdf:about="">
        <dc:format>image/svg+xml</dc:format>
        <dc:type
           rdf:resource="http://purl.org/dc/dcmitype/StillImage" />
        <dc:title></dc:title>
      </cc:Work>
    </rdf:RDF>
  </metadata>
  <g
     inkscape:label="Layer 1"
     inkscape:groupmode="layer"
     id="layer1"
     transform="translate(-81.971689,-867.67033)">
    <rect
       style="fill:#d40000;fill-opacity:1;stroke:#ffffff;stroke-width:0;stroke-linecap:butt;stroke-linejoin:round;stroke-miterlimit:0;stroke-dasharray:none;stroke-opacity:0;paint-order:normal"
       id="rect858"
       width="921.84271"
       height="327.70197"
       x="-29.097546"
       y="765.62946" />
    <flowRoot
       xml:space="preserve"
       id="flowRoot6032"
       style="font-style:normal;font-variant:normal;font-weight:normal;font-stretch:normal;font-size:12.80000019px;line-height:0.01%;font-family:Ethnocentric;-inkscape-font-specification:Ethnocentric;fill:#000000;fill-opacity:1;stroke:none;stroke-width:1.06666672"><flowRegion
         id="flowRegion6034"
         style="stroke-width:1.06666672"><rect
           id="rect6036"
           width="984.71545"
           height="342.11383"
           x="-176.91057"
           y="110.48715"
           style="stroke-width:1.13777781" /></flowRegion><flowPara
         id="flowPara6038"
         style="font-size:76.80000305px;line-height:1.25;stroke-width:1.06666672"> </flowPara></flowRoot>    <flowRoot
       xml:space="preserve"
       id="flowRoot6046"
       style="font-style:normal;font-variant:normal;font-weight:normal;font-stretch:normal;font-size:12.80000019px;line-height:0.01%;font-family:Ethnocentric;-inkscape-font-specification:Ethnocentric;fill:#000000;fill-opacity:1;stroke:none;stroke-width:1.06666672"><flowRegion
         id="flowRegion6048"
         style="stroke-width:1.06666672"><rect
           id="rect6050"
           width="978.21136"
           height="286.17886"
           x="29.918699"
           y="81.869255"
           style="stroke-width:1.13777781" /></flowRegion><flowPara
         id="flowPara6052"
         style="font-size:76.80000305px;line-height:1.25;stroke-width:1.06666672"> </flowPara></flowRoot>    <flowRoot
       xml:space="preserve"
       id="flowRoot6054"
       style="font-style:normal;font-variant:normal;font-weight:normal;font-stretch:normal;font-size:12.80000019px;line-height:0.01%;font-family:Ethnocentric;-inkscape-font-specification:Ethnocentric;fill:#000000;fill-opacity:1;stroke:none;stroke-width:1.06666672"><flowRegion
         id="flowRegion6056"
         style="stroke-width:1.06666672"><rect
           id="rect6058"
           width="760.97559"
           height="158.69919"
           x="27.317074"
           y="87.07251"
           style="stroke-width:1.13777781" /></flowRegion><flowPara
         id="flowPara6060"
         style="font-size:76.80000305px;line-height:1.25;stroke-width:1.06666672"> </flowPara></flowRoot>    <flowRoot
       xml:space="preserve"
       id="flowRoot6062"
       style="font-style:normal;font-variant:normal;font-weight:normal;font-stretch:normal;font-size:12.80000019px;line-height:0.01%;font-family:Ethnocentric;-inkscape-font-specification:Ethnocentric;fill:#000000;fill-opacity:1;stroke:none;stroke-width:1.06666672"><flowRegion
         id="flowRegion6064"
         style="stroke-width:1.06666672"><rect
           id="rect6066"
           width="737.56097"
           height="123.57724"
           x="50.731705"
           y="128.69853"
           style="stroke-width:1.13777781" /></flowRegion><flowPara
         id="flowPara6068"
         style="font-size:76.80000305px;line-height:1.25;stroke-width:1.06666672"> </flowPara></flowRoot>    <flowRoot
       xml:space="preserve"
       id="flowRoot6070"
       style="font-style:normal;font-variant:normal;font-weight:normal;font-stretch:normal;font-size:12.80000019px;line-height:0.01%;font-family:Ethnocentric;-inkscape-font-specification:Ethnocentric;fill:#000000;fill-opacity:1;stroke:none;stroke-width:1.06666672"><flowRegion
         id="flowRegion6072"
         style="stroke-width:1.06666672"><rect
           id="rect6074"
           width="1151.2195"
           height="390.24393"
           x="-97.560982"
           y="77.966797"
           style="stroke-width:1.13777781" /></flowRegion><flowPara
         id="flowPara6076"
         style="font-size:76.80000305px;line-height:1.25;stroke-width:1.06666672"> </flowPara></flowRoot>    <g
       id="g856"
       style="fill:#ffffff">
      <path
         style="stroke-width:1.06666672;fill:#ffffff"
         inkscape:connector-curvature="0"
         id="path3135"
         d="m 105.86305,962.51197 v -25.30986 h -5.14776 -5.147773 v -7.29267 -7.29267 h 5.024673 5.02466 l 0.58529,-7.75313 c 0.65322,-8.6531 1.47944,-11.47492 4.22236,-14.4209 4.07175,-4.37316 4.47248,-4.42277 35.72013,-4.42277 h 29.2133 v 7.29267 7.29267 h -24.06192 -24.06192 l -2.1059,2.1059 c -1.6147,1.6147 -2.10591,3.01047 -2.10591,5.98394 v 3.87804 l 26.16782,-0.54528 26.16783,-0.54527 v 7.85973 7.85974 H 149.1901 123.02228 v 25.30986 25.30986 h -8.57961 -8.57962 z" />
      <path
         inkscape:connector-curvature="0"
         id="path3153"
         d="m 105.86305,962.51197 v -25.30986 h -5.14776 -5.147773 v -7.29267 -7.29267 h 5.024673 5.02466 l 0.58529,-7.75313 c 0.65322,-8.6531 1.47944,-11.47492 4.22236,-14.4209 4.07175,-4.37316 4.47248,-4.42277 35.72013,-4.42277 h 29.2133 v 7.29267 7.29267 h -23.92787 c -27.83592,0 -27.46236,-0.0997 -28.19522,7.52723 l -0.42425,4.41529 26.27367,-0.53158 26.27367,-0.53157 v 7.85872 7.85871 H 149.1901 123.02228 v 25.30986 25.30986 h -8.57961 -8.57962 z"
         style="fill:#ffffff;stroke-width:1.06666672" />
      <path
         inkscape:connector-curvature="0"
         id="path3155"
         d="m 105.86305,962.51197 v -25.30986 h -5.14776 -5.147773 v -7.29267 -7.29267 h 5.095203 5.09519 l 0.44444,-3.64634 c 0.24444,-2.00548 0.67549,-5.73364 0.95788,-8.2848 0.59278,-5.35515 1.89906,-8.21903 5.12404,-11.23382 2.23095,-2.08555 2.74954,-2.16049 18.74217,-2.70828 9.04626,-0.30986 22.72158,-0.59943 30.38961,-0.64347 l 13.94188,-0.0801 v 7.25554 7.25554 l -24.83925,0.25162 c -26.65282,0.27 -26.81086,0.29764 -27.1466,4.74918 -0.0982,1.30138 -0.46712,3.4885 -0.81994,4.86028 l -0.64148,2.49415 26.72363,-0.49137 26.72364,-0.49138 v 7.64929 7.6493 H 149.1901 123.02228 v 25.30986 25.30985 h -8.57961 -8.57962 z"
         style="fill:#ffffff;stroke-width:1.06666672" />
      <path
         inkscape:connector-curvature="0"
         id="path3157"
         d="m 193.56264,960.2634 c -4.32385,-2.14027 -8.84061,-7.35821 -11.05031,-12.76575 -1.33014,-3.25511 -1.57765,-6.28368 -1.57765,-19.30413 0,-14.89393 0.08,-15.61117 2.2501,-20.16209 2.69265,-5.64686 6.8014,-9.98648 11.47728,-12.1222 3.12162,-1.42581 6.26263,-1.56877 34.74743,-1.58156 18.09237,-0.008 32.60724,0.34476 34.37453,0.8357 4.30241,1.1952 9.89719,6.27392 12.62762,11.46284 2.22536,4.22911 2.33128,5.02522 2.60865,19.60872 0.34701,18.24537 -0.50201,22.27071 -6.0194,28.5388 -6.47979,7.36142 -5.93255,7.269 -43.16242,7.28974 -31.50578,0.0176 -32.7261,-0.043 -36.27583,-1.80007 z m 64.36054,-16.1251 2.80191,-2.50138 0.24508,-12.72743 c 0.2226,-11.55863 0.0847,-12.98546 -1.50182,-15.53719 -0.96081,-1.54537 -2.73708,-3.18622 -3.94729,-3.64634 -1.24162,-0.47206 -12.80144,-0.83657 -26.53058,-0.83657 h -24.33022 l -2.62421,2.20813 c -3.72989,3.13849 -4.60934,7.04786 -4.24914,18.88836 0.24228,7.96421 0.64012,10.68484 1.80298,12.32986 2.92796,4.14197 3.77357,4.26121 30.44954,4.29355 l 25.08184,0.0304 z"
         style="fill:#ffffff;stroke-width:1.06666672" />
      <path
         inkscape:connector-curvature="0"
         id="path3159"
         d="m 285.17698,954.79032 v -7.29267 h 38.4753 c 36.75641,0 38.54141,-0.0731 39.95554,-1.63567 2.17996,-2.40883 1.51129,-7.04157 -1.21431,-8.41317 -1.59917,-0.80473 -9.8944,-1.08738 -32.60254,-1.11085 -27.75994,-0.0287 -30.76159,-0.17178 -33.88947,-1.61539 -6.74386,-3.1125 -10.01585,-8.98916 -10.05998,-18.06826 -0.0308,-6.34713 1.64523,-11.19134 5.17222,-14.94877 4.53881,-4.83537 4.46342,-4.82761 46.90031,-4.82761 h 39.0648 v 7.29267 7.29267 H 340.7064 c -39.80893,0 -40.10109,0.0363 -40.07297,4.98193 0.0337,5.93635 1.39346,6.17157 35.67567,6.17157 24.75004,0 30.08952,0.2165 32.74946,1.32789 7.17181,2.99657 10.79031,8.99365 10.84647,17.97624 0.0458,7.31758 -1.23584,11.25969 -4.87589,14.99797 -5.10111,5.23877 -4.3918,5.16412 -49.07144,5.16412 h -40.78072 z"
         style="fill:#ffffff;stroke-width:1.06666672" />
      <path
         inkscape:connector-curvature="0"
         id="path3161"
         d="m 384.7005,954.79032 v -7.29267 h 38.04631 c 35.76904,0 38.1313,-0.0939 39.46622,-1.56899 2.08216,-2.30075 1.82671,-6.6284 -0.4869,-8.24892 -1.64025,-1.14888 -6.23257,-1.33559 -32.84973,-1.33559 -30.38609,0 -31.01157,-0.0347 -34.75954,-1.93041 -2.19224,-1.10881 -4.88533,-3.46871 -6.32755,-5.54471 -2.12433,-3.05785 -2.57136,-4.65861 -2.90357,-10.39738 -0.46164,-7.97456 0.60138,-11.89598 4.39648,-16.21836 4.77508,-5.43852 4.21937,-5.37536 47.29739,-5.37536 h 39.0648 v 7.29267 7.29267 h -36.46336 c -35.31941,0 -36.51719,0.0538 -38.17928,1.71592 -2.15521,2.15522 -2.17977,4.38447 -0.0769,6.98314 l 1.63902,2.02546 32.53376,0.42898 32.53376,0.42898 3.08873,2.35743 c 4.42615,3.37821 6.57826,6.78186 7.7151,12.20179 1.97593,9.42033 -1.92429,19.22763 -9.01082,22.65816 -3.66807,1.77568 -4.74214,1.81986 -44.24162,1.81986 h -40.4823 z"
         style="fill:#ffffff;stroke-width:1.06666672" />
      <path
         inkscape:connector-curvature="0"
         id="path3163"
         d="m 493.23262,960.46141 c -6.92082,-3.19417 -9.86655,-8.66707 -9.86655,-18.33116 0,-7.54517 2.13997,-12.46736 7.15655,-16.46088 l 3.29574,-2.62362 34.02558,-0.42898 c 18.71407,-0.23594 33.92907,-0.71854 33.8111,-1.07245 -0.11798,-0.35391 -0.21449,-1.81927 -0.21449,-3.25636 0,-1.63022 -0.792,-3.40487 -2.10591,-4.71878 l -2.10591,-2.10591 h -35.21541 -35.21541 v -7.29267 -7.29267 h 38.01082 38.01083 l 4.38842,2.18684 c 2.41363,1.20276 5.46064,3.59258 6.77111,5.31071 4.0573,5.3194 4.62068,9.55383 4.62068,34.72953 v 22.97798 l -40.96765,-0.0189 c -37.99474,-0.0175 -41.2167,-0.13377 -44.3995,-1.60273 z M 562.2985,941.9209 v -5.57675 h -29.40875 c -32.95983,0 -33.22242,0.0441 -33.22242,5.57675 0,5.53267 0.26259,5.57675 33.22242,5.57675 h 29.40875 z"
         style="fill:#ffffff;stroke-width:1.06666672" />
      <path
         inkscape:connector-curvature="0"
         id="path3165"
         d="m 588.03735,954.79032 v -7.29267 h 38.118 c 42.21546,0 40.81445,0.18993 40.81445,-5.53298 0,-5.20227 0.32985,-5.14965 -35.23444,-5.62052 l -32.40049,-0.42898 -3.64193,-2.57388 c -5.56042,-3.92974 -7.22661,-7.88604 -7.22661,-17.15923 0,-8.84822 1.20104,-11.74195 6.72807,-16.21031 l 3.29622,-2.66484 40.24531,-0.23896 40.24533,-0.23896 v 7.31714 7.31714 h -36.29937 c -27.71876,0 -36.63126,0.25351 -37.70335,1.07245 -2.32938,1.77935 -2.67787,5.20328 -0.76962,7.56141 l 1.6918,2.09066 32.46495,0.42898 c 32.00904,0.42295 32.50316,0.45623 35.1857,2.36966 4.39639,3.1359 6.87899,6.66907 8.01583,11.40797 2.38761,9.9527 -1.152,19.80443 -8.51212,23.69157 l -3.78128,1.99702 h -40.61823 -40.61822 z"
         style="fill:#ffffff;stroke-width:1.06666672" />
      <path
         inkscape:connector-curvature="0"
         id="path3167"
         d="m 689.2768,929.48046 v -32.60253 h 8.15063 8.15063 v 32.60253 32.60253 h -8.15063 -8.15063 z"
         style="fill:#ffffff;stroke-width:1.06666672" />
      <path
         inkscape:connector-curvature="0"
         id="path3169"
         d="m 689.2768,881.43462 v -7.72165 h 8.15063 8.15063 v 7.72165 7.72165 h -8.15063 -8.15063 z"
         style="fill:#ffffff;stroke-width:1.06666672" />
      <path
         inkscape:connector-curvature="0"
         id="path3171"
         d="m 723.13077,960.47031 c -6.8628,-3.11734 -9.81759,-8.83402 -9.82627,-19.01109 -0.005,-6.82579 2.30791,-11.93392 7.15203,-15.78985 l 3.296,-2.62362 34.33244,-0.24294 34.33245,-0.24294 -0.5099,-1.90196 c -0.28044,-1.04608 -0.51516,-2.59516 -0.5216,-3.4424 -0.006,-0.84724 -0.95937,-2.48809 -2.11762,-3.64633 l -2.10591,-2.10591 h -35.21542 -35.21541 v -7.29267 -7.29267 h 38.01083 38.01082 l 4.38842,2.18684 c 2.41363,1.20276 5.46063,3.59258 6.77111,5.31071 4.05731,5.3194 4.62069,9.55383 4.62069,34.72953 v 22.97798 l -40.96766,-0.0189 c -37.89079,-0.0174 -41.22807,-0.13713 -44.435,-1.59383 z m 69.10139,-18.54941 v -5.57675 h -29.59967 c -28.45571,0 -29.66599,0.0663 -31.31559,1.71592 -2.33168,2.33168 -2.23576,6.40228 0.19091,8.10199 1.63578,1.14575 6.08694,1.33559 31.31558,1.33559 h 29.40877 z"
         style="fill:#ffffff;stroke-width:1.06666672" />
    </g>
  </g>
</svg>
