<?xml version="1.0" encoding="UTF-8" standalone="no"?>
<!-- Created with Inkscape (http://www.inkscape.org/) -->

<svg
   xmlns:dc="http://purl.org/dc/elements/1.1/"
   xmlns:cc="http://creativecommons.org/ns#"
   xmlns:rdf="http://www.w3.org/1999/02/22-rdf-syntax-ns#"
   xmlns:svg="http://www.w3.org/2000/svg"
   xmlns="http://www.w3.org/2000/svg"
   xmlns:sodipodi="http://sodipodi.sourceforge.net/DTD/sodipodi-0.dtd"
   xmlns:inkscape="http://www.inkscape.org/namespaces/inkscape"
   id="svg4155"
   version="1.1"
   inkscape:version="0.91 r13725"
   xml:space="preserve"
   width="210mm"
   height="210mm"
   viewBox="0 0 744.09449 744.09448"
   sodipodi:docname="FOSSASIA-Summit-2018-Icon.svg"
   inkscape:export-filename="/home/opntec/Downloads/FOSSASIA CMYK Bleeding/FOSSASIA-Summit-2018-Icon.png"
   inkscape:export-xdpi="96"
   inkscape:export-ydpi="96"><metadata
     id="metadata4161"><rdf:RDF><cc:Work
         rdf:about=""><dc:format>image/svg+xml</dc:format><dc:type
           rdf:resource="http://purl.org/dc/dcmitype/StillImage" /><dc:title></dc:title></cc:Work></rdf:RDF></metadata><defs
     id="defs4159"><clipPath
       clipPathUnits="userSpaceOnUse"
       id="clipPath4171"><path
         d="m 0,425.197 303.307,0 L 303.307,0 0,0 0,425.197 Z"
         id="path4173"
         inkscape:connector-curvature="0" /></clipPath><clipPath
       clipPathUnits="userSpaceOnUse"
       id="clipPath4179"><path
         d="m -11.0989,435.5 316.9819,0 0,-335.5416 -316.9819,0 0,335.5416 z"
         id="path4181"
         inkscape:connector-curvature="0" /></clipPath></defs><sodipodi:namedview
     pagecolor="#ffffff"
     bordercolor="#666666"
     borderopacity="1"
     objecttolerance="10"
     gridtolerance="10"
     guidetolerance="10"
     inkscape:pageopacity="0"
     inkscape:pageshadow="2"
     inkscape:window-width="1366"
     inkscape:window-height="742"
     id="namedview4157"
     showgrid="false"
     units="mm"
     inkscape:zoom="0.74236754"
     inkscape:cx="252.94155"
     inkscape:cy="377.07782"
     inkscape:window-x="0"
     inkscape:window-y="0"
     inkscape:window-maximized="1"
     inkscape:current-layer="g4163"
     borderlayer="true" /><g
     id="g4163"
     inkscape:groupmode="layer"
     inkscape:label="FOSSASIA-Summit-2018-Flyer-MASTER-Fosdem-FRONT"
     transform="matrix(1.25,0,0,-1.25,0,744.09448)"><path
       d="m 0,-5.3743325e-6 595.27559,0 L 595.27559,595.27559 0,595.27559 0,-5.3743325e-6 Z"
       style="fill:#cc0000;fill-opacity:1;fill-rule:nonzero;stroke:none"
       id="path4165"
       inkscape:connector-curvature="0" /><g
       id="g4177"
       transform="matrix(1.989794,0,0,1.989794,12.063258,-264.02216)" /><g
       id="g4183"
       transform="matrix(1.8880094,0,0,1.8880094,-50.103172,-241.9779)"><g
         style="opacity:0.258286"
         id="g4185"
         clip-path="url(#clipPath4179)"><g
           id="g4187"
           transform="translate(222.4365,127.5635)"><path
             inkscape:connector-curvature="0"
             id="path4189"
             style="fill:#e07790;fill-opacity:1;fill-rule:nonzero;stroke:none"
             d="m 0,0 c -0.144,0.144 -0.299,0.277 -0.454,0.402 l 28.516,44.813 c 0.181,-0.101 0.363,-0.202 0.565,-0.273 0.74,-0.255 1.494,-0.226 2.188,-0.006 0.914,1.104 1.805,2.238 2.684,3.381 0.047,0.444 0,0.888 -0.096,1.315 0.939,-0.108 1.914,0.043 2.828,0.531 2.04,1.095 3.063,3.438 2.694,5.701 l 18.91,6.855 c 0.206,-0.424 0.463,-0.829 0.761,-1.197 L 0,0.004 0,0 Z m -93.347,-20 c -0.042,0.165 -0.1,0.322 -0.155,0.48 l 36.088,12.303 c 0.501,-1.386 1.548,-2.536 2.987,-3.036 2.542,-0.874 5.281,0.587 6.119,3.276 0.307,0.98 0.307,1.984 0.071,2.907 l 7.037,2.434 c 0.037,-0.094 0.071,-0.189 0.113,-0.279 1.267,-2.645 4.326,-3.704 6.829,-2.357 1.456,0.776 2.391,2.192 2.681,3.755 l 22.121,-3.837 c 0,-0.597 0.081,-1.184 0.24,-1.744 L -93.347,-20 Z m -86.533,42.361 c 0.269,0.413 0.501,0.854 0.677,1.34 l 31.859,-6.564 c -0.033,-1.147 0.413,-2.252 1.2,-3.018 0.462,-0.29 0.925,-0.589 1.397,-0.868 1.262,-0.427 2.583,-0.091 3.53,0.752 l 15.12,-12.817 c -0.08,-0.948 0.05,-1.919 0.483,-2.826 1.133,-2.36 3.696,-3.447 6.013,-2.693 l 16.298,-13.827 c -0.147,-0.217 -0.294,-0.434 -0.417,-0.671 l -76.16,41.192 z m -7.557,8.429 -38.904,81.291 c 0.619,0.189 1.204,0.492 1.721,0.888 l 17.846,-25.82 c -0.453,-0.528 -0.815,-1.147 -1.038,-1.86 -0.838,-2.683 0.541,-5.575 3.088,-6.452 1.599,-0.553 3.274,-0.168 4.506,0.85 l 6.413,-21.095 c -0.126,-0.06 -0.256,-0.091 -0.374,-0.154 -2.508,-1.346 -3.513,-4.575 -2.247,-7.218 1.06,-2.207 3.363,-3.287 5.554,-2.812 l 4.217,-17.198 c -0.265,-0.119 -0.53,-0.253 -0.782,-0.42 m -25.816,178.136 c 1.316,-0.16 2.625,0.183 3.698,0.913 l 8.231,-12.222 -15.797,-50.698 c -0.98,0.133 -2.003,-0.031 -2.954,-0.539 -2.503,-1.339 -3.509,-4.57 -2.247,-7.217 0.506,-1.057 1.305,-1.854 2.243,-2.351 l -5.672,-13.527 c -0.126,0.06 -0.244,0.133 -0.374,0.182 -0.085,0.029 -0.174,0.032 -0.258,0.06 l 13.13,85.399 z m 63.696,71.618 c 0.593,-0.608 1.309,-1.101 2.146,-1.391 2.963,-1.026 6.152,0.684 7.124,3.812 0.08,0.251 0.13,0.503 0.172,0.755 l 13.538,-1.99 c -0.068,-0.805 0.047,-1.626 0.336,-2.419 l -23.593,-11.367 c -0.565,1.144 -1.528,2.06 -2.773,2.493 -2.547,0.878 -5.287,-0.587 -6.123,-3.273 -0.77,-2.465 0.349,-5.081 2.503,-6.179 l -3.307,-8.347 -26.157,-19.962 c -1.431,2.143 -4.149,2.919 -6.43,1.703 -2.508,-1.347 -3.514,-4.574 -2.247,-7.218 0.017,-0.053 0.051,-0.091 0.071,-0.137 l -13.647,-8.841 c -0.134,0.211 -0.281,0.413 -0.441,0.602 l 58.828,61.759 z m 92.097,19.655 c 0.525,-1.77 1.81,-3.26 3.609,-3.879 2.008,-0.696 4.095,-0.112 5.543,1.305 l 8.442,-12.53 c -1.107,-0.934 -1.78,-2.302 -1.899,-3.753 l -58.953,0.115 c -0.212,1.917 -1.431,3.627 -3.287,4.267 -2.538,0.878 -5.278,-0.592 -6.115,-3.274 -0.101,-0.322 -0.168,-0.65 -0.21,-0.975 l -6.123,0.01 c -0.029,0.752 -0.193,1.5 -0.53,2.21 -1.267,2.648 -4.33,3.708 -6.838,2.365 -1.455,-0.784 -2.386,-2.204 -2.676,-3.774 l -13.55,1.989 c 0.067,0.77 0.009,1.532 -0.194,2.242 l 82.781,13.682 z m 86.831,-41.753 c -0.104,-0.235 -0.219,-0.462 -0.298,-0.717 -0.029,-0.094 -0.038,-0.189 -0.059,-0.283 l -14.13,3.34 c -0.093,2.056 -1.347,3.938 -3.308,4.615 -2.542,0.879 -5.285,-0.59 -6.123,-3.276 -0.062,-0.203 -0.088,-0.402 -0.126,-0.605 l -17.989,2.399 -19.377,14.946 c 0.55,1.396 0.563,3.019 -0.132,4.47 -1.269,2.648 -4.325,3.7 -6.828,2.36 -0.152,-0.083 -0.296,-0.178 -0.435,-0.268 l -8.492,12.6 c 0.413,0.49 0.771,1.045 1.024,1.679 l 76.273,-41.26 z m 7.819,-7.736 37.856,-79.112 c -0.064,-0.038 -0.118,-0.09 -0.181,-0.129 L 53.888,203.89 c 0.361,0.312 0.648,0.732 0.807,1.235 0.438,1.41 -0.29,2.931 -1.624,3.392 -0.164,0.056 -0.332,0.095 -0.501,0.116 l -15.813,41.846 c 0.143,0.077 0.29,0.15 0.433,0.231 M 63.523,71.335 c -0.769,0.098 -1.527,0.004 -2.246,-0.216 l -5.041,15.572 c 1.271,0.55 2.327,1.64 2.79,3.126 0.627,2.005 0.016,4.113 -1.384,5.425 l 0.47,0.454 c 0.022,0.063 0.042,0.123 0.064,0.186 0.075,0.251 0.146,0.503 0.223,0.755 l -1.141,-1.098 c -0.328,0.248 -0.682,0.458 -1.069,0.619 l 20.106,64.536 c 0.311,-0.09 0.619,-0.153 0.934,-0.186 L 63.523,71.335 Z M 38.478,57.378 c -0.5,1.057 -1.304,1.818 -2.222,2.315 L 51.72,87.188 c 0.366,-0.259 0.755,-0.49 1.196,-0.644 0.951,-0.329 1.927,-0.325 2.827,-0.055 L 60.776,70.95 C 59.27,70.317 58.033,69.023 57.485,67.271 57.057,65.894 57.146,64.474 57.62,63.232 L 38.827,56.42 c -0.092,0.325 -0.202,0.646 -0.349,0.958 M -51.393,-0.527 c -2.515,0.871 -5.213,-0.557 -6.085,-3.186 l -16.929,4.122 32.79,-0.062 c 0.017,-0.49 0.093,-0.98 0.236,-1.458 l -7.033,-2.431 c -0.504,1.378 -1.548,2.521 -2.979,3.015 M -118.784,-4 c 0.451,0.245 0.846,0.546 1.195,0.898 l 14.081,-14.167 -15.519,13.171 c 0.079,0.038 0.163,0.059 0.243,0.098 m -22.012,18.426 15.044,-11.603 c -0.123,-0.318 -0.211,-0.643 -0.277,-0.986 l -14.797,12.558 c 0.009,0.014 0.018,0.021 0.03,0.031 m -59.338,73.217 4.785,7.585 c 0.421,-0.34 0.884,-0.626 1.414,-0.808 2.492,-0.86 5.163,0.539 6.055,3.13 l 28.632,-9.645 c 0.198,-0.987 0.762,-1.864 1.578,-2.438 l -18.495,-34.082 c -0.243,0.16 -0.5,0.297 -0.786,0.394 -1.616,0.56 -3.32,-0.129 -4.238,-1.539 l -0.244,-0.436 c -0.084,-0.175 -0.172,-0.351 -0.235,-0.549 -0.106,-0.34 -0.148,-0.687 -0.168,-1.032 l -0.005,-0.507 c 0.029,-0.392 0.118,-0.777 0.252,-1.14 l -5.841,4.5 c 0.779,1.504 0.868,3.362 0.089,5.001 -1.127,2.347 -3.657,3.431 -5.971,2.71 l -6.476,21.326 c 0.513,0.549 0.934,1.21 1.182,1.997 0.64,2.064 -0.033,4.235 -1.523,5.533 m 7.86,137.234 c 0.665,-0.381 1.402,-0.598 2.164,-0.64 l -0.089,-37.947 c -0.837,-0.042 -1.624,-0.329 -2.318,-0.791 l -8.223,12.212 8.466,27.166 z m 38.143,31.195 5.091,-24.435 c -0.614,-0.192 -1.17,-0.556 -1.62,-1.042 l -0.307,-0.374 c -0.248,-0.343 -0.459,-0.717 -0.594,-1.144 -0.294,-0.954 -0.215,-1.934 0.13,-2.784 l -20.484,-10.977 c -0.324,0.538 -0.761,0.99 -1.3,1.315 l 14.109,35.642 4.975,3.799 z m -1.512,4.64 c 0.19,-0.066 0.38,-0.094 0.572,-0.132 l 0.468,-2.253 0.349,-1.66 -4.46,-3.407 2.967,7.501 c 0.037,-0.014 0.071,-0.038 0.104,-0.049 m 29.604,18.08 c 0.076,-0.14 0.164,-0.272 0.243,-0.406 l -21.291,-16.25 -2.395,2.049 c 0.298,1.112 0.219,2.238 -0.152,3.245 l 23.595,11.362 z m 104.732,-13.715 c 0.111,1.748 -0.895,3.42 -2.545,3.99 -1.418,0.489 -2.903,0.027 -3.863,-1.043 l -5.853,8.687 c 0.542,0.455 0.988,1.008 1.308,1.623 l 18.507,-14.268 -7.554,1.011 z m 38.596,-24.945 -15.393,-5.06 c -0.441,0.842 -1.165,1.521 -2.094,1.842 -0.257,0.091 -0.515,0.143 -0.775,0.172 -0.446,1.531 -1.556,2.818 -3.101,3.353 -0.657,0.228 -1.326,0.29 -1.97,0.228 l -16.479,21.751 c 0.463,0.444 0.838,1.004 1.048,1.675 0.051,0.161 0.072,0.326 0.102,0.49 l 8.407,-1.125 30.255,-23.326 z m 13.635,11.096 -2.777,-5.34 c -0.047,0.021 -0.09,0.049 -0.134,0.067 -0.607,0.209 -1.23,0.121 -1.755,-0.169 l -0.119,0.182 0.08,-0.21 c -0.126,-0.07 -0.248,-0.161 -0.358,-0.258 l -12.08,11.789 c 0.373,0.475 0.681,1.031 0.874,1.657 0.131,0.42 0.191,0.846 0.215,1.266 L 28.896,256.9 c -0.362,-2.174 0.442,-4.339 2.033,-5.672 m 20.089,-42.941 -12.91,19.555 c 0.227,1.148 0.126,2.372 -0.413,3.501 -0.774,1.616 -2.217,2.63 -3.796,2.874 l -5.095,7.726 c 0.282,0.269 0.513,0.609 0.644,1.025 0.311,1.007 -0.055,2.066 -0.834,2.654 l 2.748,5.277 c 0.405,-0.272 0.829,-0.518 1.305,-0.682 1.221,-0.423 2.47,-0.36 3.598,0.056 l 15.742,-41.644 c -0.354,-0.042 -0.687,-0.16 -0.989,-0.342 m 23.27,-46.506 -11.05,-16.104 c -0.53,0.382 -1.119,0.644 -1.742,0.795 l 0.813,23.629 c 1.931,0.046 3.707,1.339 4.346,3.382 0.804,2.588 -0.527,5.378 -2.979,6.225 -0.914,0.314 -1.857,0.314 -2.719,0.06 l -7.591,23.766 c 0.025,0.017 0.058,0.024 0.088,0.042 l 20.974,-32.429 c -0.889,-0.703 -1.609,-1.668 -1.983,-2.871 -0.757,-2.427 0.063,-4.987 1.843,-6.495 M 35.781,59.935 l 11.93,38.282 3.441,-3.08 c -0.585,-0.571 -1.055,-1.284 -1.325,-2.141 -0.639,-2.056 0.026,-4.221 1.511,-5.522 L 35.835,59.913 c -0.021,0.004 -0.038,0.015 -0.054,0.022 M -100.012,32.006 c 0.055,0.138 0.126,0.259 0.173,0.409 0.185,0.588 0.214,1.183 0.143,1.752 l 50.088,10.618 c 0.315,-1.249 1.194,-2.305 2.441,-2.735 0.815,-0.279 1.657,-0.235 2.415,0.055 l 6.977,-36.401 c -0.363,-0.098 -0.716,-0.22 -1.061,-0.405 -1.137,-0.61 -1.948,-1.61 -2.391,-2.763 l -58.785,29.47 z m -75.933,12.835 26.296,-22.896 -28.724,22.151 c 0.874,-0.059 1.733,0.213 2.428,0.745 m 18.687,40.382 c 0.152,-0.084 0.307,-0.165 0.472,-0.224 0.53,-0.183 1.069,-0.224 1.582,-0.161 l 5.121,-30.582 5.593,-33.423 c -0.704,-0.182 -1.343,-0.577 -1.839,-1.144 l -29.251,25.477 c 0.439,0.441 0.805,0.982 1.006,1.638 0.501,1.604 -0.033,3.293 -1.203,4.293 l 18.519,34.126 z m 2.218,26.931 0.278,18.944 c 1.502,0.084 2.87,1.109 3.371,2.71 0.138,0.447 0.181,0.902 0.177,1.357 l 10.536,1.077 15.987,1.644 c 0.075,-1.018 0.521,-1.969 1.24,-2.64 l -15.498,-22.204 -14.652,-20.987 c -0.26,0.179 -0.538,0.336 -0.85,0.442 -0.29,0.101 -0.58,0.15 -0.875,0.174 l 0.286,19.483 z m -23.586,30.372 c 0.682,0.389 1.237,0.994 1.586,1.763 l 18.566,-8.001 c -0.005,-0.015 -0.012,-0.021 -0.016,-0.032 -0.644,-2.074 0.424,-4.301 2.382,-4.976 0.289,-0.101 0.585,-0.151 0.879,-0.175 l -0.21,-14.135 -0.354,-24.288 c -0.404,-0.025 -0.783,-0.122 -1.154,-0.269 l -21.679,50.113 z m -12.834,33.804 c 0.585,-0.203 1.178,-0.259 1.754,-0.231 l 7.978,-26.452 c -0.504,-0.207 -0.967,-0.524 -1.351,-0.941 l -0.298,-0.392 c -0.227,-0.325 -0.424,-0.681 -0.552,-1.088 -0.117,-0.384 -0.159,-0.772 -0.168,-1.157 l -29.556,-1.384 c -0.265,0.384 -0.56,0.741 -0.896,1.031 l 21.945,31.226 c 0.353,-0.249 0.728,-0.465 1.144,-0.612 m 14.993,23.777 -1.952,-25.453 -7.579,3.617 c 0.265,0.405 0.5,0.843 0.656,1.335 0.733,2.354 -0.24,4.869 -2.205,6.037 l 11.248,23.843 c 0.03,-0.01 0.054,-0.025 0.08,-0.035 0.151,-0.052 0.303,-0.074 0.458,-0.105 l -0.706,-9.239 z m 12.287,-29.975 c -0.5,-0.275 -0.904,-0.748 -1.094,-1.36 -0.038,-0.115 -0.059,-0.23 -0.075,-0.35 l -12.616,6.019 1.906,24.833 0.762,10.006 c 0.295,-0.022 0.58,0 0.858,0.053 l 10.259,-39.201 z m 74.36,96.078 28.799,-28.163 c -0.159,-0.262 -0.298,-0.546 -0.395,-0.856 -0.244,-0.78 -0.24,-1.585 -0.042,-2.319 l -41.812,-6.589 c -0.269,1.322 -1.161,2.462 -2.469,2.913 -0.337,0.116 -0.681,0.168 -1.023,0.179 l -0.778,31.117 -0.299,12.1 18.019,-8.382 z m -11.849,11.585 10.653,-10.414 -16.835,7.833 -0.03,1.18 c 0.265,-0.154 0.547,-0.29 0.85,-0.396 2.015,-0.696 4.15,0.102 5.362,1.797 m 22.971,-16.146 -11,5.117 -11.698,11.439 c 0.193,0.332 0.362,0.682 0.484,1.067 0.033,0.112 0.042,0.227 0.066,0.342 l 24.58,-15.58 c -1.026,-0.462 -1.898,-1.284 -2.432,-2.385 m 25.126,-11.994 c -0.068,-0.134 -0.131,-0.263 -0.173,-0.407 -0.496,-1.591 0.177,-3.284 1.519,-4.063 l -3.497,-6.009 c -0.298,0.224 -0.614,0.417 -0.975,0.539 -1.508,0.521 -3.098,-0.031 -4.049,-1.258 l -5.816,5.686 -21.936,21.455 9.591,-4.462 c -0.026,-0.071 -0.068,-0.134 -0.089,-0.207 -0.838,-2.682 0.547,-5.571 3.084,-6.449 2.542,-0.877 5.281,0.587 6.119,3.273 0.186,0.602 0.248,1.218 0.224,1.819 l 0.301,0.032 15.697,-9.949 z m 25.31,13.732 -19.613,-13.474 c -0.387,0.699 -0.993,1.255 -1.775,1.525 -1.411,0.49 -2.9,-0.112 -3.696,-1.354 l -15.143,9.6 40.009,4.224 c 0.068,-0.175 0.13,-0.353 0.218,-0.521 m 12.192,-24.955 c -0.859,-0.399 -1.558,-1.126 -1.945,-2.092 l -26.821,9.81 -2.739,1.004 c 0.239,0.79 0.18,1.598 -0.093,2.315 l 19.655,13.499 c 0.442,-0.633 1.065,-1.137 1.83,-1.399 0.742,-0.259 1.506,-0.248 2.214,-0.031 l 7.899,-23.106 z m 5.879,-1.266 c -0.253,-0.804 -0.279,-1.623 -0.162,-2.406 l -0.516,0.038 c 0.013,1.672 -0.972,3.232 -2.555,3.778 -0.745,0.258 -1.507,0.251 -2.209,0.034 l -3.501,10.236 -4.401,12.873 c 0.231,0.109 0.45,0.231 0.652,0.385 l 16.319,-21.542 c -1.641,-0.368 -3.069,-1.595 -3.627,-3.396 m 12.257,-21.71 3.598,-19.07 C 5.462,196.34 5.268,196.281 5.079,196.204 l -2.096,4.176 -15.629,31.107 c 0.729,0.472 1.314,1.192 1.604,2.116 0.071,0.23 0.113,0.464 0.144,0.699 l 0.629,-0.05 c 0.41,-1.607 1.55,-2.979 3.165,-3.539 0.96,-0.328 1.953,-0.324 2.858,-0.045 0.43,-0.563 1.006,-1.01 1.713,-1.255 0.664,-0.228 1.342,-0.235 1.977,-0.081 l 2.622,-13.876 z m 23.439,26.851 c 0.269,-0.385 0.643,-0.696 1.106,-0.857 0.442,-0.154 0.893,-0.15 1.309,-0.028 l 3.005,-7.697 c -0.018,-0.007 -0.038,-0.011 -0.064,-0.025 -0.821,-0.437 -1.46,-1.09 -1.931,-1.849 l -10.536,8.123 7.111,2.333 z m 5.917,-8.38 -2.934,7.509 4.738,-7.176 c -0.606,0.011 -1.212,-0.102 -1.804,-0.333 m 26.969,-56.117 -9.603,2.794 -6.722,22.126 7.841,2.279 c 0.256,-0.734 0.813,-1.346 1.573,-1.608 0.463,-0.157 0.939,-0.164 1.381,-0.049 l 7.612,-23.781 c -0.833,-0.356 -1.557,-0.961 -2.082,-1.761 m 0.77,-31.346 -7.907,26.015 6.884,0.144 c 0.547,-1.053 1.452,-1.896 2.613,-2.298 0.341,-0.119 0.686,-0.182 1.026,-0.217 L 60.97,146.573 c -0.593,0.07 -1.208,0.049 -1.809,-0.109 M 44.117,102.089 c 1.03,0.605 1.867,1.592 2.263,2.868 0.838,2.686 -0.546,5.578 -3.088,6.456 -2.5,0.863 -5.18,-0.55 -6.064,-3.151 l -7.692,6.888 -3.812,3.411 c 0.244,0.335 0.442,0.703 0.572,1.119 0.261,0.829 0.236,1.675 -0.004,2.444 l 15.426,6.487 15.616,6.571 c 0.22,-0.49 0.534,-0.933 0.935,-1.297 L 47.433,99.12 44.117,102.089 Z M 31.648,59.739 c -1.153,-0.62 -1.973,-1.643 -2.416,-2.823 l -0.87,8.901 -5,51.215 c 0.788,0.144 1.512,0.542 2.063,1.147 l 6.067,-5.434 5.601,-5.016 c -0.585,-2.562 0.761,-5.21 3.17,-6.042 1.156,-0.399 2.346,-0.294 3.386,0.168 L 47.273,98.61 35.28,60.113 c -1.175,0.336 -2.462,0.255 -3.632,-0.374 M -22.387,32.395 -42.635,44.138 c 0.058,0.147 0.134,0.287 0.181,0.437 0.113,0.374 0.155,0.744 0.168,1.119 L 25.673,48.293 -6.905,23.432 -22.387,32.395 Z M -42.862,43.701 -7.326,23.11 -32.558,3.854 c -1.14,1.518 -2.97,2.243 -4.763,1.949 l -6.998,36.485 c 0.593,0.315 1.09,0.805 1.457,1.413 m 10.049,37.56 4.531,12.414 c 1.422,-0.462 2.903,0.011 3.859,1.101 L 26.771,50.961 c -0.214,-0.312 -0.4,-0.653 -0.517,-1.039 -0.118,-0.377 -0.16,-0.748 -0.168,-1.122 l -68.372,-2.606 c -0.126,1.361 -0.934,2.581 -2.163,3.18 l 11.636,31.887 z M -49.226,47.778 -74.17,60.952 -106.312,77.914 c 0.042,0.101 0.098,0.195 0.131,0.3 0.185,0.595 0.215,1.196 0.139,1.777 l 75.277,16.412 c 0.283,-1.099 1.023,-2.039 2.049,-2.532 L -33.29,81.334 -44.878,49.563 c -1.692,0.555 -3.485,-0.221 -4.348,-1.785 m -59.736,27.821 c 1.014,0.23 1.919,0.884 2.453,1.86 L -49.423,47.33 c -0.038,-0.104 -0.089,-0.194 -0.122,-0.303 -0.185,-0.589 -0.22,-1.182 -0.143,-1.752 L -99.78,34.653 c -0.316,1.249 -1.192,2.309 -2.432,2.74 -0.497,0.17 -0.998,0.223 -1.477,0.181 l -5.273,38.025 z m -43.107,11.928 c 0.021,0.074 0.029,0.161 0.051,0.237 l 38.591,-7.826 c -0.185,-1.497 0.467,-2.958 1.645,-3.784 L -121.309,58.599 -141.97,20.54 c -0.152,0.076 -0.306,0.163 -0.471,0.224 -0.53,0.181 -1.069,0.223 -1.587,0.153 l -5.621,33.594 -5.088,30.417 c 1.208,0.312 2.247,1.253 2.668,2.599 m 29.932,46.917 c 0.609,-0.209 1.232,-0.227 1.821,-0.111 l 6.448,-34.195 3.18,-16.891 c -1.178,-0.333 -2.18,-1.264 -2.588,-2.581 -0.025,-0.081 -0.029,-0.161 -0.051,-0.242 l -38.591,7.826 c 0.169,1.347 -0.336,2.669 -1.296,3.519 l 14.497,20.769 15.65,22.413 c 0.281,-0.206 0.588,-0.388 0.93,-0.507 m -24.311,21.973 -14.9,10.25 c 0.135,0.192 0.248,0.402 0.32,0.637 0.046,0.15 0.079,0.3 0.097,0.454 l 23.043,2.787 22.34,2.707 c 0.232,-1.374 1.124,-2.57 2.466,-3.046 l -7.062,-27.879 -0.075,-0.284 c -1.329,0.288 -2.671,-0.202 -3.538,-1.234 l -22.691,15.608 z m 32.218,20.591 c -0.543,-0.462 -0.973,-1.088 -1.208,-1.836 -0.147,-0.475 -0.189,-0.954 -0.173,-1.426 l -45.312,-5.487 c -0.079,0.895 -0.639,1.696 -1.494,2.007 l 13.673,53.73 c 0.95,-0.2 1.901,0 2.688,0.514 l 31.826,-47.502 z m 37.278,19.57 c -0.223,-0.322 -0.42,-0.674 -0.543,-1.077 -0.248,-0.797 -0.239,-1.612 -0.033,-2.357 l -16.151,-8.893 -15.026,-8.271 c -0.446,0.78 -1.132,1.413 -2.017,1.718 -0.188,0.066 -0.382,0.101 -0.568,0.129 l 4.259,45.696 c 0.985,-0.034 1.927,0.343 2.638,1.036 l 27.441,-27.981 z m 15.554,30.433 -11.918,-28.859 c -1.254,0.227 -2.499,-0.241 -3.345,-1.186 l -27.399,27.939 c 0.303,0.381 0.547,0.818 0.702,1.319 0.165,0.521 0.216,1.055 0.174,1.57 l 41.903,6.602 c 0.383,-0.937 1.101,-1.703 2.061,-2.098 l -2.178,-5.287 z M 2.849,193.763 C 2.765,193.494 2.71,193.224 2.685,192.952 l -67.926,1.57 -4.987,0.115 c -0.067,0.728 -0.323,1.413 -0.724,1.99 l 14.708,9.894 38.641,25.983 c 0.443,-0.647 1.07,-1.158 1.844,-1.426 0.925,-0.319 1.877,-0.224 2.701,0.167 L 4.646,196.005 C 3.824,195.543 3.16,194.767 2.849,193.763 M -26.81,155.687 c -0.353,0.303 -0.756,0.559 -1.22,0.716 -1.388,0.482 -2.844,0.042 -3.808,-0.986 l -0.585,0.541 -38.73,35.71 c 0.324,0.395 0.589,0.857 0.753,1.381 0.11,0.364 0.152,0.731 0.164,1.092 l 17.127,-0.396 55.785,-1.287 c 0.017,-1.01 0.4,-1.972 1.069,-2.685 L -26.81,155.687 Z m 34.165,33.04 3.303,-13.089 c -1.072,-0.389 -1.977,-1.274 -2.36,-2.497 -0.274,-0.886 -0.227,-1.784 0.059,-2.596 l -19.091,-8.956 -15.155,-7.11 c -0.154,0.312 -0.357,0.595 -0.588,0.854 l 30.571,34.108 c 0.333,-0.277 0.708,-0.508 1.132,-0.655 0.715,-0.248 1.448,-0.251 2.129,-0.059 m 2.698,3.148 c 0.093,0.518 0.076,1.039 -0.03,1.531 l 31.531,9.174 6.623,-21.802 -38.124,11.097 z m 48.005,-45.827 c -1.83,-0.979 -2.844,-2.963 -2.778,-4.99 l -10.818,7.76 -29.406,21.091 c 0.131,0.245 0.249,0.5 0.333,0.783 0.108,0.347 0.155,0.7 0.173,1.046 l 14.361,0.301 c 0.548,-0.643 1.241,-1.158 2.075,-1.445 1.94,-0.671 3.989,0.032 5.226,1.595 l 13.478,0.28 7.953,-26.177 c -0.198,-0.076 -0.399,-0.143 -0.597,-0.244 m -83.769,7.97 34.245,16.07 c 0.433,-0.882 1.178,-1.592 2.142,-1.924 0.589,-0.203 1.182,-0.227 1.759,-0.129 L 21.7,124.684 c -0.828,-0.258 -1.548,-0.825 -2.045,-1.605 l -45.526,27.83 c 0.075,0.168 0.16,0.34 0.215,0.521 0.273,0.882 0.226,1.787 -0.055,2.588 m -3.109,-5.284 c 1.072,0.122 2.049,0.734 2.671,1.682 l 45.544,-27.834 c -0.072,-0.146 -0.143,-0.29 -0.194,-0.451 -0.252,-0.804 -0.236,-1.63 -0.017,-2.378 l -43.157,-20.29 c -0.446,0.787 -1.136,1.42 -2.024,1.728 -0.357,0.122 -0.715,0.167 -1.077,0.178 l -1.746,47.365 z m -6.759,-42.371 -19.93,20.301 c 0.177,0.283 0.333,0.58 0.439,0.919 0.404,1.297 0.139,2.655 -0.602,3.658 l 23.645,18.846 c 0.429,-0.528 0.984,-0.951 1.662,-1.185 0.256,-0.088 0.513,-0.14 0.77,-0.168 l 1.75,-47.435 c -0.681,-0.137 -1.313,-0.469 -1.821,-0.963 l -5.913,6.027 z m -62.439,-15.86 36.653,35.653 c 0.421,-0.486 0.942,-0.874 1.582,-1.094 1.481,-0.511 3.047,0.01 4.001,1.192 l 19.799,-20.178 5.984,-6.085 c -0.312,-0.381 -0.552,-0.822 -0.711,-1.322 -0.186,-0.598 -0.215,-1.204 -0.139,-1.776 l -37.392,-8.16 -37.889,-8.256 c -0.135,0.532 -0.374,1.018 -0.703,1.448 l 8.815,8.578 z m -19.402,46.47 c 0.08,0.252 0.13,0.514 0.159,0.77 l 55.012,-8.111 c -0.227,-1.104 0.004,-2.21 0.589,-3.088 l -36.718,-35.72 -8.775,-8.54 c -0.387,0.4 -0.863,0.718 -1.41,0.906 -0.555,0.193 -1.124,0.224 -1.658,0.144 l -3.252,17.237 -6.388,33.873 c 1.111,0.368 2.049,1.27 2.441,2.529 m 8.298,34.339 19.664,-16.409 28.08,-23.456 c -0.324,-0.377 -0.577,-0.822 -0.749,-1.332 l -55.125,8.127 c -0.013,1.631 -0.976,3.137 -2.512,3.686 l 7.141,28.17 c 1.313,-0.276 2.634,0.203 3.501,1.214 m 49.608,-38.682 c -0.564,-0.151 -1.077,-0.441 -1.519,-0.84 l -7.507,6.271 -40.296,33.652 c 0.193,0.308 0.37,0.637 0.488,1.011 0.299,0.965 0.219,1.958 -0.143,2.818 l 31.135,17.137 c 0.413,-0.983 1.194,-1.791 2.238,-2.151 0.442,-0.153 0.888,-0.199 1.331,-0.185 l 14.273,-57.713 z m 27.208,17.856 -23.686,-18.882 c -0.4,0.417 -0.883,0.756 -1.455,0.956 -0.534,0.182 -1.077,0.224 -1.605,0.157 l -2.688,10.869 -11.576,46.82 c 0.673,0.126 1.3,0.444 1.814,0.919 l 38.873,-35.835 0.484,-0.451 c -0.252,-0.343 -0.463,-0.727 -0.598,-1.157 -0.37,-1.193 -0.168,-2.424 0.437,-3.396 M 28.892,55.557 c -0.084,-0.739 -0.004,-1.501 0.218,-2.246 l 0.073,-0.745 c -0.808,-0.147 -1.562,-0.563 -2.121,-1.211 l -51.196,43.813 c 0.212,0.318 0.401,0.661 0.519,1.049 0.273,0.882 0.219,1.787 -0.064,2.592 l 43.12,20.266 c 0.433,-0.878 1.178,-1.588 2.137,-1.92 0.443,-0.15 0.884,-0.203 1.322,-0.182 l 5.667,-58.067 0.325,-3.349 z m 28.274,80.087 -31.043,-13.058 c -0.425,0.944 -1.191,1.717 -2.209,2.067 -0.585,0.202 -1.183,0.226 -1.755,0.129 l -9.266,43.35 c 0.746,0.231 1.401,0.714 1.885,1.375 l 40.575,-29.104 c 0.08,-0.53 0.214,-1.066 0.458,-1.572 0.303,-0.631 0.714,-1.156 1.191,-1.592 -0.047,-0.546 0.004,-1.088 0.164,-1.595 m -6.611,37.318 -12.99,-0.269 c 0.219,0.36 0.416,0.745 0.547,1.171 0.837,2.686 -0.543,5.578 -3.085,6.452 -2.542,0.882 -5.281,-0.587 -6.118,-3.273 -0.496,-1.591 -0.198,-3.242 0.644,-4.518 l -13.988,-0.287 c -0.114,1.535 -1.082,2.917 -2.553,3.424 -0.636,0.22 -1.288,0.234 -1.895,0.098 l -3.264,12.918 -0.056,0.22 c 0.976,0.424 1.789,1.269 2.146,2.414 0.004,0.024 0.009,0.048 0.013,0.073 l 38.395,-11.174 2.204,-7.246 0,-0.003 z m 7.364,0.15 -6.817,-0.14 -2.142,7.065 9.161,-2.662 c -0.135,-0.266 -0.257,-0.532 -0.349,-0.825 -0.362,-1.171 -0.274,-2.378 0.147,-3.438 m -8.138,32.38 -7.861,-2.286 -6.379,20.985 c 0.636,0.361 1.161,0.844 1.587,1.406 l 13.338,-17.765 c -0.265,-0.287 -0.487,-0.629 -0.61,-1.036 -0.138,-0.44 -0.152,-0.884 -0.075,-1.304 m -14.728,18.476 6.353,-20.909 -31.517,-9.173 c -0.16,0.465 -0.401,0.895 -0.716,1.266 l 21.103,29.358 c 1.369,-0.983 3.157,-1.238 4.777,-0.542 m -89.374,10.771 c 0.017,0.059 0.02,0.122 0.033,0.182 l 35.979,-0.311 c 0.03,-0.598 0.186,-1.173 0.458,-1.686 l -0.736,-0.487 -52.684,-35.429 c -0.408,0.448 -0.913,0.811 -1.511,1.018 -0.021,0.004 -0.047,0.007 -0.067,0.014 l 12.078,29.257 2.006,4.854 c 1.876,-0.489 3.826,0.612 4.444,2.588 m 2.642,10.19 c 1.557,-0.538 3.215,0.252 3.918,1.763 l 29.587,-10.82 c -0.063,-0.251 -0.11,-0.507 -0.127,-0.766 l -25.8,0.224 -10.082,0.084 c 0.182,1.304 -0.273,2.595 -1.165,3.462 l 3.552,6.11 c 0.042,-0.014 0.079,-0.042 0.117,-0.057 m -92.614,-17.363 28.783,-0.273 4.889,-0.045 c 0.068,-1.584 1.04,-3.029 2.547,-3.55 0.193,-0.066 0.387,-0.101 0.576,-0.133 l -3.063,-32.823 -1.199,-12.87 c -0.746,0.024 -1.465,-0.185 -2.079,-0.587 l -31.83,47.501 c 0.543,0.462 0.976,1.088 1.208,1.839 0.101,0.312 0.143,0.626 0.168,0.941 m -34.918,-77.821 c -0.21,0.073 -0.42,0.115 -0.636,0.15 l 1.836,23.952 12.632,-6.026 c 0.046,-0.566 0.295,-1.091 0.682,-1.483 l -13.495,-17.164 c -0.304,0.242 -0.64,0.437 -1.019,0.571 m -7.111,28.065 7.856,-3.743 -1.851,-24.144 c -0.308,0.003 -0.61,-0.042 -0.906,-0.112 l -7.944,26.358 c 1.094,0.195 2.104,0.759 2.845,1.641 m 8.499,-28.95 7.125,9.071 6.367,8.103 c 0.151,-0.097 0.311,-0.182 0.479,-0.241 0.274,-0.095 0.552,-0.129 0.821,-0.108 l 6.506,-25.407 0.391,-1.528 c -0.926,-0.333 -1.704,-1.042 -2.151,-2.008 l -18.561,7.998 c 0.005,0.011 0.008,0.022 0.013,0.035 0.467,1.497 0.025,3.071 -0.99,4.085 m 53.14,-10.477 -26.582,-2.724 c -0.214,1.412 -1.132,2.643 -2.508,3.118 -0.64,0.221 -1.289,0.239 -1.907,0.102 l -6.884,26.886 c 0.337,0.094 0.64,0.28 0.9,0.527 l 37.628,-25.881 c -0.196,-0.301 -0.366,-0.626 -0.479,-0.99 -0.106,-0.342 -0.152,-0.692 -0.168,-1.038 m 17.749,-105.94 -27.689,-11.45 -5.609,-2.321 c -0.287,0.654 -0.745,1.21 -1.326,1.622 l 27.597,50.852 2.587,4.763 c 0.152,-0.077 0.308,-0.16 0.476,-0.22 0.489,-0.168 0.988,-0.227 1.478,-0.178 l 5.267,-38.029 c -1.258,-0.286 -2.348,-1.23 -2.781,-2.615 -0.256,-0.825 -0.232,-1.661 0,-2.424 m 158.435,63.033 -3.631,3.255 10.845,34.808 c 0.252,-0.168 0.521,-0.318 0.819,-0.419 0.131,-0.046 0.262,-0.064 0.393,-0.096 L 54.768,96.497 C 53.58,96.581 52.424,96.214 51.501,95.476 M 75.799,160.879 55.685,96.333 c -0.153,0.042 -0.303,0.077 -0.451,0.105 l 5.155,36.506 c 1.683,-0.147 3.312,0.924 3.863,2.7 0.079,0.252 0.13,0.507 0.156,0.762 l -0.548,1.011 c 1.566,1.599 2.058,4.12 1.032,6.27 -0.312,0.655 -0.749,1.196 -1.242,1.64 l 11.072,16.133 c 0.333,-0.227 0.686,-0.423 1.077,-0.581 m -28.463,52.002 -9.901,13.2 c 0.201,0.335 0.366,0.684 0.492,1.055 l 9.409,-14.255 z m -45.245,21.736 15.671,5.148 10.885,-8.393 c -0.722,-1.48 -0.798,-3.288 -0.033,-4.886 0.324,-0.679 0.775,-1.242 1.292,-1.693 L 8.846,195.512 c -0.354,0.339 -0.788,0.601 -1.281,0.772 -0.479,0.165 -0.966,0.22 -1.438,0.182 l -4.423,23.452 -1.801,9.558 c 1.039,0.402 1.903,1.269 2.277,2.468 0.282,0.91 0.222,1.848 -0.089,2.673 m -121.325,41.863 c 1.006,0.54 1.763,1.389 2.23,2.379 l 8.69,-4.043 0.601,-24.225 0.481,-19.219 c -0.918,-0.088 -1.777,-0.539 -2.404,-1.253 l -37.017,31.653 21.149,16.143 c 1.473,-1.945 4.082,-2.605 6.27,-1.435 m -27.819,-15.012 37.127,-31.744 c -0.214,-0.319 -0.404,-0.661 -0.527,-1.053 -0.091,-0.308 -0.142,-0.615 -0.163,-0.926 l -5.168,0.049 -28.505,0.265 c -0.075,1.581 -1.043,3.019 -2.55,3.54 -0.58,0.199 -1.174,0.224 -1.737,0.132 l -5.134,24.655 6.657,5.082 z m -2.592,2.22 2.166,-1.857 -6.357,-4.847 -0.261,1.249 -0.468,2.252 c 2.097,-0.196 4.112,1.08 4.92,3.203 m -22.033,-48.798 20.459,10.96 c 0.446,-0.788 1.133,-1.424 2.02,-1.739 l -13.673,-53.73 c -0.294,0.039 -0.592,0.014 -0.87,-0.069 l -10.238,39.118 c 1.132,0.364 2.079,1.273 2.479,2.55 0.307,0.997 0.214,2.028 -0.177,2.91 m -15.861,9.914 c 0.375,0.192 0.699,0.44 0.998,0.713 l 8.718,-9.711 c -0.104,-0.127 -0.205,-0.259 -0.298,-0.399 l -0.248,-0.427 c -0.081,-0.174 -0.165,-0.356 -0.227,-0.552 -0.152,-0.493 -0.207,-0.997 -0.174,-1.487 l 0.068,-0.493 c 0.215,-1.15 0.901,-2.172 1.919,-2.735 l -11.248,-23.84 c -0.135,0.06 -0.256,0.137 -0.399,0.186 -0.413,0.144 -0.825,0.199 -1.238,0.223 l 0.093,37.955 c 0.69,0.032 1.38,0.213 2.036,0.567 M -201.694,88.562 c -0.236,0.081 -0.475,0.126 -0.716,0.165 l -14.466,47.609 c 0.466,0.092 0.938,0.231 1.384,0.466 2.508,1.346 3.513,4.577 2.25,7.218 -0.033,0.066 -0.079,0.115 -0.108,0.178 l 29.262,1.378 c 0.122,-1.217 0.775,-2.329 1.793,-2.962 l -9.817,-38.249 c -2.151,0.144 -4.205,-1.233 -4.907,-3.493 -0.606,-1.934 -0.046,-3.962 1.262,-5.28 l -4.809,-7.621 c -0.35,0.238 -0.716,0.448 -1.128,0.591 m 42.358,-0.171 -28.434,9.533 c 0.69,2.619 -0.665,5.364 -3.135,6.218 -0.269,0.091 -0.551,0.15 -0.825,0.192 l 9.86,38.063 c 0.109,-0.053 0.206,-0.108 0.323,-0.15 0.847,-0.294 1.722,-0.231 2.492,0.087 l 21.68,-50.121 c -0.821,-0.461 -1.473,-1.238 -1.784,-2.238 -0.165,-0.528 -0.223,-1.063 -0.177,-1.584 m 35.974,-82.816 c -0.963,-0.511 -1.696,-1.301 -2.172,-2.228 l -14.959,11.534 c 0.173,0.28 0.325,0.573 0.429,0.906 0.009,0.031 0.009,0.063 0.022,0.094 l 61.209,-14.902 -37.165,0.067 c -0.034,0.734 -0.198,1.476 -0.534,2.172 -1.267,2.647 -4.327,3.704 -6.835,2.357 M -41.6,0.903 -76.721,0.969 -139.945,16.367 c 0.1,0.636 0.058,1.26 -0.119,1.843 l 3.346,1.382 29.952,12.387 c 0.421,-0.958 1.196,-1.736 2.214,-2.088 1.662,-0.575 3.434,0.165 4.322,1.668 L -41.377,2.092 C -41.491,1.707 -41.566,1.309 -41.6,0.903 m 9.573,2.071 c -0.072,0.146 -0.164,0.272 -0.244,0.409 l 25.455,19.423 3.412,-1.969 C -3.505,20.619 -3.61,20.406 -3.682,20.172 -4.048,18.997 -3.969,17.787 -3.573,16.721 L -32.027,2.974 Z M 26.961,46.142 16.621,35.574 3.914,22.593 C 3.479,22.952 2.992,23.257 2.436,23.449 0.27,24.197 -2.032,23.231 -3.181,21.271 l -3.212,1.86 32.537,24.826 c 0.123,-0.671 0.4,-1.294 0.817,-1.815 M 8.546,255.672 c 1.764,-0.611 3.615,-0.069 4.865,1.215 L 25.509,245.08 c -0.135,-0.193 -0.248,-0.406 -0.323,-0.641 -0.182,-0.583 -0.131,-1.174 0.079,-1.688 l -7.344,-2.414 -29.801,22.976 17.127,-2.282 c -0.223,-2.337 1.103,-4.599 3.299,-5.359 m -42.967,20.445 c 0.155,0.08 0.285,0.178 0.424,0.269 l 5.938,-8.82 c -0.207,-0.307 -0.383,-0.643 -0.501,-1.021 -0.218,-0.706 -0.223,-1.42 -0.076,-2.091 l -40.615,-4.287 -0.434,0.275 c -0.353,1.708 -1.51,3.18 -3.198,3.764 -0.95,0.329 -1.932,0.325 -2.828,0.056 l -25.02,15.863 c 0.029,0.259 0.037,0.514 0.033,0.769 l 58.921,-0.108 c 0.012,-0.78 0.173,-1.567 0.526,-2.308 1.267,-2.644 4.321,-3.701 6.83,-2.361 m -82.045,4.808 6.128,-0.013 c -0.022,-1.647 0.715,-3.201 1.978,-4.169 l 0.033,-1.308 -8.466,3.938 c 0.172,0.497 0.29,1.018 0.327,1.552 m -68.825,-48.911 c -0.03,0.068 -0.076,0.123 -0.114,0.189 l 25.484,19.444 -13.769,-34.782 c -0.067,0.032 -0.126,0.067 -0.193,0.087 -0.724,0.252 -1.47,0.249 -2.155,0.049 l -0.441,-0.174 c -0.354,-0.154 -0.675,-0.368 -0.964,-0.63 l -8.715,9.712 c 1.439,1.601 1.865,4.028 0.867,6.105 m -22.379,-14.31 13.651,8.845 c 0.357,-0.539 0.799,-0.989 1.289,-1.347 l -8.388,-26.924 -8.007,11.904 c 0.845,0.699 1.523,1.648 1.889,2.812 0.508,1.636 0.299,3.318 -0.434,4.71 m 6.729,-20.654 7.983,-11.862 c -0.715,-0.602 -1.28,-1.416 -1.587,-2.406 -0.64,-2.053 0.025,-4.218 1.506,-5.519 l -21.944,-31.233 c -0.501,0.346 -1.04,0.616 -1.616,0.76 l 15.658,50.26 z m -24.327,-73.985 5.668,13.517 c 0.691,-0.281 1.44,-0.4 2.188,-0.34 l 14.426,-47.449 c -1.258,0.056 -2.466,-0.402 -3.396,-1.259 l -17.816,25.781 c 0.744,0.682 1.338,1.57 1.67,2.637 0.875,2.808 -0.345,5.788 -2.74,7.113 m 46.217,-98.826 c 0.766,3.025 -0.807,6.19 -3.661,7.176 -1.166,0.402 -2.361,0.36 -3.442,-0.003 l -4.203,17.136 c 0.256,0.087 0.512,0.179 0.765,0.31 0.787,0.424 1.401,1.04 1.864,1.752 l 6.964,-5.36 c 0.274,-0.297 0.594,-0.549 0.956,-0.745 l 33.029,-25.462 c -0.157,-0.253 -0.287,-0.512 -0.38,-0.809 -0.054,-0.177 -0.097,-0.36 -0.126,-0.538 l -31.766,6.543 z m 82.052,-40.223 c -2.05,0.706 -4.183,0.093 -5.644,-1.378 l -14.58,14.663 c 0.72,0.898 1.141,2.021 1.208,3.185 l 39.5,-0.077 18.92,-4.608 c -0.194,-0.847 -0.194,-1.697 0.004,-2.488 l -36.13,-12.316 c -0.639,1.378 -1.784,2.501 -3.282,3.019 m 87.825,13.46 c -0.131,-0.423 -0.197,-0.846 -0.236,-1.27 l -22.079,3.833 c 0.072,0.809 -0.046,1.629 -0.336,2.416 L -3.37,16.207 c 0.567,-1.138 1.527,-2.057 2.772,-2.487 0.08,-0.029 0.157,-0.029 0.232,-0.052 L -2.883,1.477 C -5.584,1.956 -8.295,0.312 -9.178,-2.524 m 7.128,3.808 c -0.104,0.039 -0.21,0.042 -0.311,0.073 l 2.512,12.192 c 2.311,-0.389 4.613,1.021 5.37,3.444 0.601,1.927 0.042,3.956 -1.25,5.27 l 13.217,13.509 9.788,10.006 c 0.106,-0.097 0.232,-0.174 0.34,-0.258 L -0.892,0.714 c -0.357,0.234 -0.746,0.431 -1.158,0.57 m 66.655,69.8 c -0.185,0.066 -0.378,0.09 -0.563,0.132 l 13.726,89.283 c 2.381,-0.011 4.607,1.559 5.395,4.077 0.972,3.127 -0.632,6.49 -3.594,7.512 -1.388,0.479 -2.815,0.339 -4.048,-0.238 l -37.885,79.161 c 0.976,0.714 1.755,1.739 2.155,3.018 0.973,3.126 -0.636,6.487 -3.599,7.512 -2.545,0.877 -5.251,-0.266 -6.581,-2.595 l -76.32,41.284 c 0.913,3.099 -0.682,6.399 -3.614,7.41 -2.958,1.022 -6.149,-0.682 -7.12,-3.808 -0.325,-1.035 -0.341,-2.092 -0.139,-3.084 l -82.86,-13.692 c -0.598,1.563 -1.801,2.857 -3.438,3.42 -2.959,1.025 -6.153,-0.685 -7.124,-3.812 -0.641,-2.046 -0.152,-4.189 1.081,-5.71 l -58.824,-61.764 c -0.577,0.574 -1.274,1.039 -2.083,1.315 -2.962,1.026 -6.152,-0.685 -7.124,-3.808 -0.977,-3.126 0.635,-6.49 3.593,-7.512 0.194,-0.066 0.392,-0.09 0.585,-0.136 l -13.128,-85.407 c -2.719,0.51 -5.459,-1.133 -6.346,-3.986 -0.977,-3.131 0.635,-6.491 3.593,-7.512 0.934,-0.322 1.877,-0.347 2.778,-0.172 l 38.992,-81.483 c -0.881,-0.71 -1.583,-1.693 -1.953,-2.883 -0.972,-3.126 0.639,-6.49 3.598,-7.51 2.242,-0.778 4.607,0.02 6.051,1.803 l 76.253,-41.245 c -0.059,-0.15 -0.135,-0.29 -0.186,-0.451 -0.976,-3.13 0.632,-6.486 3.594,-7.512 2.959,-1.02 6.148,0.679 7.125,3.812 0.307,0.987 0.327,1.994 0.164,2.948 L -9.013,-6.63 c 0.601,-1.559 1.795,-2.847 3.433,-3.414 2.958,-1.02 6.148,0.69 7.124,3.816 0.652,2.099 0.123,4.291 -1.182,5.823 l 58.601,61.522 c 0.589,-0.595 1.296,-1.07 2.112,-1.354 2.962,-1.024 6.153,0.682 7.128,3.808 0.973,3.13 -0.64,6.492 -3.602,7.513" /></g></g></g><g
       id="g28358"
       transform="matrix(0.90644783,0,0,0.92335836,-3.4409112,-40.03828)"><g
         transform="translate(23.707933,0)"
         id="g28342"><g
           id="g4379"
           transform="matrix(2.5732068,0,0,2.5732068,462.93453,561.85264)"><path
             d="m 0,0 c 3.772,-25.571 -18.867,-50.472 -51.703,-58.486 -0.525,-2.1 1.182,-7.852 5.873,-13.909 -19.639,0.21 -21.503,11.419 -25.031,11.318 -32.791,-0.964 -60.497,16.133 -64.186,41.146 -4.088,27.705 22.826,54.627 60.121,60.128 C -37.636,45.703 -4.091,27.707 0,0"
             style="fill:#ffffff;fill-opacity:1;fill-rule:nonzero;stroke:none"
             id="path4381"
             inkscape:connector-curvature="0" /></g></g><g
         style="fill:#cc0000;fill-opacity:1"
         transform="matrix(2.5732068,0,0,2.5732068,395.96237,365.23705)"
         id="g4383"><path
           inkscape:connector-curvature="0"
           id="path4385"
           style="fill:#cc0000;fill-opacity:1;fill-rule:nonzero;stroke:none"
           d="m 0,0 c -0.064,0.061 -0.131,0.117 -0.202,0.173 l 12.727,18.99 c 0.079,-0.041 0.162,-0.082 0.251,-0.112 0.33,-0.109 0.668,-0.097 0.975,-0.004 0.41,0.47 0.807,0.95 1.201,1.433 0.019,0.187 0,0.379 -0.042,0.559 0.417,-0.049 0.852,0.019 1.261,0.225 0.911,0.461 1.364,1.458 1.203,2.415 l 8.438,2.906 c 0.093,-0.18 0.206,-0.352 0.341,-0.506 L 0,0 Z m -41.656,-8.479 c -0.018,0.073 -0.045,0.139 -0.071,0.207 l 16.106,5.212 c 0.222,-0.587 0.69,-1.076 1.335,-1.286 1.133,-0.371 2.355,0.248 2.727,1.388 0.138,0.416 0.138,0.84 0.034,1.234 l 3.138,1.032 c 0.019,-0.042 0.034,-0.079 0.053,-0.12 0.563,-1.123 1.931,-1.569 3.049,-0.999 0.649,0.331 1.064,0.931 1.192,1.594 l 9.874,-1.627 c 0,-0.256 0.037,-0.503 0.109,-0.743 L -41.656,-8.479 Z M -80.274,9.478 c 0.12,0.175 0.221,0.362 0.303,0.569 l 14.218,-2.782 c -0.016,-0.488 0.183,-0.956 0.531,-1.283 0.211,-0.12 0.417,-0.248 0.627,-0.364 0.563,-0.183 1.151,-0.041 1.574,0.319 l 6.748,-5.434 c -0.035,-0.401 0.022,-0.814 0.217,-1.199 0.506,-1.002 1.646,-1.46 2.681,-1.141 l 7.275,-5.861 c -0.067,-0.09 -0.13,-0.184 -0.187,-0.285 L -80.274,9.478 Z m -3.375,3.573 -17.359,34.456 c 0.277,0.082 0.536,0.21 0.769,0.378 l 7.965,-10.946 c -0.206,-0.221 -0.368,-0.484 -0.466,-0.787 -0.374,-1.137 0.244,-2.363 1.377,-2.735 0.712,-0.235 1.462,-0.07 2.013,0.361 l 2.862,-8.944 c -0.057,-0.023 -0.113,-0.037 -0.169,-0.064 -1.117,-0.569 -1.568,-1.938 -1.001,-3.06 0.472,-0.934 1.5,-1.391 2.478,-1.189 l 1.883,-7.293 c -0.12,-0.049 -0.24,-0.106 -0.352,-0.177 m -11.52,75.508 c 0.588,-0.068 1.173,0.079 1.65,0.386 l 3.675,-5.179 -7.051,-21.491 c -0.438,0.056 -0.893,-0.012 -1.316,-0.23 -1.121,-0.565 -1.568,-1.934 -1.005,-3.059 0.225,-0.446 0.582,-0.784 1.001,-0.994 l -2.531,-5.734 c -0.056,0.026 -0.109,0.057 -0.168,0.075 -0.038,0.015 -0.076,0.015 -0.113,0.027 l 5.858,36.199 z m 28.425,30.357 c 0.266,-0.259 0.585,-0.465 0.96,-0.589 1.32,-0.435 2.745,0.289 3.18,1.616 0.034,0.105 0.056,0.211 0.075,0.319 l 6.042,-0.844 c -0.03,-0.34 0.022,-0.69 0.15,-1.023 l -10.531,-4.819 c -0.251,0.484 -0.679,0.873 -1.237,1.057 -1.132,0.371 -2.359,-0.251 -2.73,-1.388 -0.346,-1.045 0.154,-2.156 1.118,-2.62 l -1.478,-3.537 -11.675,-8.46 c -0.637,0.907 -1.848,1.234 -2.868,0.72 -1.118,-0.57 -1.568,-1.939 -1.002,-3.06 0.008,-0.022 0.024,-0.038 0.03,-0.056 l -6.089,-3.747 c -0.061,0.086 -0.124,0.173 -0.195,0.251 l 26.25,26.18 z m 41.101,8.332 c 0.236,-0.749 0.81,-1.383 1.613,-1.645 0.896,-0.293 1.826,-0.045 2.471,0.555 l 3.769,-5.311 c -0.495,-0.398 -0.796,-0.978 -0.848,-1.594 l -26.311,0.049 c -0.093,0.814 -0.637,1.538 -1.466,1.812 -1.133,0.37 -2.355,-0.252 -2.726,-1.391 -0.046,-0.136 -0.075,-0.275 -0.093,-0.413 l -2.735,0.003 c -0.011,0.319 -0.086,0.638 -0.236,0.937 -0.566,1.125 -1.931,1.572 -3.053,1.002 -0.649,-0.329 -1.064,-0.929 -1.192,-1.598 l -6.049,0.844 c 0.03,0.327 0.004,0.649 -0.086,0.949 l 36.942,5.801 z m 38.753,-17.7 c -0.048,-0.098 -0.101,-0.194 -0.135,-0.304 -0.015,-0.041 -0.015,-0.079 -0.026,-0.12 l -6.303,1.418 c -0.042,0.87 -0.604,1.668 -1.478,1.954 -1.137,0.375 -2.359,-0.248 -2.734,-1.388 -0.026,-0.086 -0.038,-0.169 -0.057,-0.255 l -8.028,1.017 -8.644,6.333 c 0.243,0.593 0.251,1.279 -0.06,1.898 -0.566,1.121 -1.932,1.567 -3.049,0.997 -0.067,-0.034 -0.132,-0.075 -0.195,-0.112 l -3.788,5.34 c 0.184,0.206 0.345,0.442 0.458,0.713 L 13.11,109.548 Z m 3.488,-3.277 16.894,-33.534 C 33.465,72.719 33.44,72.7 33.413,72.682 L 24.05,86.425 c 0.161,0.132 0.288,0.307 0.36,0.521 0.194,0.6 -0.128,1.245 -0.724,1.441 -0.075,0.022 -0.151,0.037 -0.226,0.049 l -7.057,17.737 c 0.067,0.03 0.131,0.064 0.195,0.098 M 28.351,30.238 c -0.345,0.041 -0.683,0 -1.002,-0.09 l -2.254,6.6 c 0.571,0.232 1.043,0.693 1.249,1.324 0.278,0.847 0.004,1.743 -0.618,2.298 l 0.209,0.191 c 0.008,0.027 0.02,0.053 0.027,0.08 0.038,0.109 0.067,0.213 0.101,0.321 l -0.51,-0.464 c -0.146,0.105 -0.303,0.191 -0.476,0.263 l 8.974,27.353 c 0.138,-0.038 0.274,-0.065 0.416,-0.079 L 28.351,30.238 Z M 17.171,24.32 c -0.221,0.45 -0.581,0.772 -0.99,0.983 l 6.901,11.655 c 0.165,-0.109 0.337,-0.21 0.532,-0.274 0.428,-0.139 0.863,-0.139 1.264,-0.022 l 2.247,-6.589 c -0.672,-0.267 -1.227,-0.818 -1.471,-1.556 -0.191,-0.586 -0.15,-1.186 0.06,-1.715 L 17.33,23.916 c -0.042,0.138 -0.091,0.273 -0.159,0.404 M -22.936,-0.225 c -1.121,0.369 -2.325,-0.236 -2.714,-1.349 l -7.553,1.747 14.633,-0.026 c 0.008,-0.207 0.041,-0.417 0.104,-0.619 l -3.138,-1.027 c -0.225,0.581 -0.69,1.064 -1.332,1.274 m -30.071,-1.469 c 0.198,0.1 0.375,0.228 0.532,0.379 l 6.282,-6.005 -6.927,5.585 c 0.038,0.015 0.075,0.022 0.113,0.041 m -9.825,7.812 6.712,-4.921 c -0.052,-0.135 -0.094,-0.274 -0.124,-0.416 l -6.604,5.321 c 0.004,0.004 0.012,0.008 0.016,0.016 m -26.48,31.031 2.134,3.213 c 0.187,-0.142 0.393,-0.261 0.63,-0.341 1.114,-0.363 2.306,0.229 2.704,1.328 l 12.776,-4.087 c 0.09,-0.421 0.341,-0.791 0.705,-1.035 l -8.254,-14.446 c -0.108,0.068 -0.224,0.128 -0.352,0.169 -0.72,0.237 -1.482,-0.056 -1.89,-0.657 l -0.109,-0.183 c -0.037,-0.075 -0.079,-0.147 -0.105,-0.232 -0.049,-0.143 -0.068,-0.289 -0.075,-0.439 l 0,-0.214 c 0.011,-0.165 0.048,-0.33 0.113,-0.484 l -2.607,1.909 c 0.345,0.637 0.386,1.425 0.038,2.119 -0.503,0.993 -1.631,1.455 -2.663,1.151 l -2.891,9.038 c 0.229,0.232 0.416,0.514 0.525,0.847 0.288,0.875 -0.011,1.793 -0.679,2.344 m 3.51,58.172 c 0.296,-0.161 0.626,-0.256 0.964,-0.271 l -0.041,-16.088 c -0.371,-0.018 -0.724,-0.138 -1.031,-0.333 l -3.672,5.174 3.78,11.518 z m 17.022,13.222 2.269,-10.357 c -0.275,-0.079 -0.521,-0.237 -0.72,-0.443 l -0.139,-0.158 c -0.109,-0.146 -0.203,-0.303 -0.262,-0.483 -0.136,-0.406 -0.098,-0.821 0.055,-1.181 l -9.142,-4.654 c -0.143,0.228 -0.338,0.419 -0.582,0.558 l 6.297,15.109 2.224,1.609 z m -0.676,1.965 c 0.083,-0.026 0.169,-0.037 0.256,-0.056 l 0.206,-0.952 0.158,-0.706 -1.992,-1.443 1.324,3.179 c 0.019,-0.004 0.033,-0.014 0.048,-0.022 m 13.212,7.665 c 0.034,-0.059 0.072,-0.116 0.109,-0.172 l -9.502,-6.889 -1.07,0.87 c 0.132,0.472 0.098,0.949 -0.067,1.376 l 10.53,4.815 z m 46.737,-5.812 c 0.049,0.739 -0.397,1.447 -1.136,1.691 -0.629,0.206 -1.294,0.011 -1.721,-0.443 l -2.614,3.683 c 0.244,0.191 0.442,0.428 0.585,0.686 l 8.258,-6.045 -3.372,0.428 z M 7.718,101.786 0.848,99.641 c -0.196,0.36 -0.517,0.644 -0.934,0.783 -0.113,0.038 -0.228,0.06 -0.345,0.071 -0.198,0.649 -0.694,1.196 -1.384,1.422 -0.293,0.097 -0.593,0.124 -0.881,0.097 l -7.35,9.218 c 0.202,0.191 0.375,0.427 0.464,0.712 0.023,0.068 0.034,0.136 0.045,0.207 l 3.754,-0.476 13.501,-9.889 z m 6.086,4.702 -1.237,-2.261 c -0.023,0.007 -0.042,0.018 -0.065,0.026 -0.269,0.09 -0.546,0.053 -0.779,-0.071 l -0.056,0.078 0.037,-0.09 c -0.056,-0.029 -0.109,-0.067 -0.158,-0.108 l -5.392,4.995 c 0.165,0.202 0.304,0.439 0.39,0.705 0.06,0.176 0.086,0.357 0.098,0.536 l 6.254,-1.402 c -0.161,-0.923 0.199,-1.842 0.908,-2.408 m 8.967,-18.199 -5.764,8.288 c 0.101,0.487 0.055,1.005 -0.184,1.485 -0.345,0.686 -0.99,1.113 -1.691,1.219 l -2.277,3.274 c 0.127,0.112 0.229,0.258 0.289,0.434 0.139,0.428 -0.026,0.874 -0.372,1.126 l 1.227,2.235 c 0.18,-0.117 0.368,-0.219 0.581,-0.289 0.545,-0.177 1.103,-0.154 1.605,0.025 L 23.209,88.432 C 23.052,88.417 22.905,88.363 22.771,88.289 M 33.155,68.575 28.223,61.75 c -0.236,0.161 -0.502,0.273 -0.776,0.337 l 0.36,10.017 c 0.862,0.018 1.657,0.566 1.939,1.432 0.36,1.099 -0.233,2.28 -1.328,2.636 -0.408,0.136 -0.829,0.136 -1.214,0.027 l -3.388,10.076 c 0.012,0.004 0.027,0.007 0.038,0.015 l 9.36,-13.744 C 32.821,72.25 32.498,71.838 32.333,71.327 31.996,70.3 32.36,69.212 33.155,68.575 m -17.184,-43.172 5.321,16.228 1.535,-1.306 c -0.259,-0.24 -0.469,-0.543 -0.589,-0.907 -0.285,-0.87 0.012,-1.789 0.675,-2.34 L 15.994,25.396 c -0.012,0 -0.019,0.007 -0.026,0.007 M -44.633,13.564 c 0.026,0.061 0.059,0.114 0.079,0.177 0.082,0.248 0.096,0.499 0.063,0.742 l 22.354,4.501 c 0.139,-0.529 0.533,-0.976 1.088,-1.159 0.363,-0.12 0.739,-0.102 1.08,0.022 L -16.857,2.42 c -0.161,-0.046 -0.318,-0.095 -0.476,-0.173 -0.506,-0.259 -0.866,-0.683 -1.064,-1.174 l -26.236,12.491 z m -33.886,5.442 11.737,-9.705 -12.821,9.39 c 0.39,-0.026 0.772,0.09 1.084,0.315 m 8.34,17.115 c 0.068,-0.034 0.139,-0.067 0.21,-0.093 0.236,-0.075 0.476,-0.094 0.705,-0.067 l 2.287,-12.964 2.495,-14.168 C -64.793,8.754 -65.079,8.585 -65.3,8.345 l -13.054,10.8 c 0.195,0.187 0.356,0.416 0.446,0.694 0.225,0.679 -0.015,1.395 -0.536,1.822 l 8.265,14.46 z m 0.99,11.42 0.124,8.028 c 0.671,0.034 1.282,0.47 1.504,1.148 0.063,0.191 0.082,0.383 0.079,0.577 l 4.702,0.455 7.136,0.696 c 0.03,-0.431 0.233,-0.832 0.552,-1.117 l -6.915,-9.412 -6.541,-8.895 c -0.117,0.074 -0.24,0.142 -0.378,0.187 -0.128,0.041 -0.26,0.064 -0.39,0.074 l 0.127,8.259 z m -10.526,12.874 c 0.303,0.165 0.551,0.42 0.708,0.746 l 8.284,-3.394 c 0,-0.004 -0.004,-0.007 -0.007,-0.011 -0.286,-0.878 0.191,-1.823 1.064,-2.108 0.128,-0.045 0.26,-0.064 0.391,-0.075 l -0.094,-5.992 -0.157,-10.295 c -0.181,-0.01 -0.349,-0.052 -0.514,-0.116 l -9.675,21.245 z m -5.726,14.329 c 0.261,-0.087 0.524,-0.113 0.783,-0.102 L -81.1,63.43 c -0.224,-0.087 -0.43,-0.222 -0.603,-0.398 l -0.131,-0.165 c -0.102,-0.139 -0.192,-0.289 -0.248,-0.462 -0.052,-0.161 -0.071,-0.325 -0.074,-0.49 l -13.19,-0.586 c -0.12,0.162 -0.251,0.312 -0.402,0.435 l 9.797,13.238 c 0.153,-0.105 0.321,-0.199 0.51,-0.258 m 6.69,10.076 -0.875,-10.789 -3.378,1.533 c 0.116,0.173 0.221,0.358 0.293,0.567 0.325,0.997 -0.106,2.063 -0.987,2.557 l 5.022,10.107 c 0.014,-0.003 0.022,-0.007 0.037,-0.015 0.067,-0.018 0.135,-0.03 0.202,-0.041 l -0.314,-3.919 z m 5.481,-12.705 c -0.22,-0.116 -0.4,-0.319 -0.486,-0.578 -0.015,-0.049 -0.027,-0.097 -0.035,-0.146 l -5.628,2.55 0.847,10.527 0.342,4.241 c 0.13,-0.008 0.258,0 0.382,0.022 l 4.578,-16.616 z m 33.186,40.726 12.854,-11.937 c -0.071,-0.112 -0.134,-0.232 -0.179,-0.363 -0.105,-0.331 -0.105,-0.672 -0.02,-0.983 l -18.655,-2.794 c -0.121,0.558 -0.518,1.042 -1.104,1.234 -0.149,0.048 -0.303,0.071 -0.457,0.075 l -0.344,13.193 -0.136,5.126 8.041,-3.551 z m -5.288,4.912 4.755,-4.418 -7.511,3.323 -0.016,0.499 c 0.12,-0.064 0.244,-0.123 0.379,-0.169 0.9,-0.292 1.853,0.046 2.393,0.765 m 10.253,-6.847 -4.91,2.171 -5.22,4.848 c 0.087,0.139 0.162,0.289 0.215,0.45 0.014,0.05 0.018,0.099 0.033,0.147 l 10.969,-6.604 c -0.461,-0.195 -0.851,-0.544 -1.087,-1.012 m 11.212,-5.082 c -0.03,-0.056 -0.056,-0.112 -0.079,-0.173 -0.221,-0.674 0.079,-1.391 0.679,-1.721 l -1.56,-2.55 c -0.134,0.095 -0.274,0.177 -0.435,0.229 -0.671,0.222 -1.384,-0.011 -1.807,-0.532 l -2.596,2.411 -9.791,9.094 4.283,-1.894 c -0.012,-0.03 -0.03,-0.056 -0.041,-0.085 -0.372,-1.137 0.243,-2.363 1.38,-2.735 1.132,-0.371 2.355,0.248 2.726,1.387 0.086,0.256 0.113,0.518 0.101,0.773 l 0.135,0.012 7.005,-4.216 z m 11.296,5.82 -8.753,-5.711 c -0.173,0.296 -0.443,0.533 -0.791,0.645 -0.631,0.206 -1.294,-0.045 -1.65,-0.574 l -6.758,4.069 17.855,1.793 c 0.029,-0.075 0.059,-0.15 0.097,-0.222 m 5.441,-10.579 c -0.382,-0.169 -0.694,-0.476 -0.866,-0.885 l -11.974,4.159 -1.219,0.424 c 0.105,0.334 0.079,0.679 -0.041,0.979 l 8.771,5.722 c 0.195,-0.265 0.472,-0.48 0.814,-0.592 0.334,-0.109 0.675,-0.105 0.99,-0.011 l 3.525,-9.796 z m 2.622,-0.536 c -0.11,-0.341 -0.124,-0.69 -0.072,-1.02 l -0.229,0.015 c 0.004,0.709 -0.435,1.372 -1.139,1.605 -0.334,0.109 -0.676,0.105 -0.987,0.012 l -1.564,4.338 -1.961,5.457 c 0.101,0.044 0.198,0.101 0.289,0.165 l 7.282,-9.132 c -0.731,-0.157 -1.369,-0.675 -1.619,-1.44 M 0.923,91.326 2.528,83.245 C 2.441,83.223 2.351,83.201 2.269,83.166 l -0.938,1.77 -6.971,13.186 c 0.323,0.199 0.585,0.506 0.712,0.896 0.034,0.098 0.053,0.198 0.064,0.296 l 0.281,-0.019 c 0.185,-0.682 0.694,-1.263 1.414,-1.499 0.427,-0.143 0.87,-0.14 1.275,-0.02 0.191,-0.239 0.45,-0.431 0.765,-0.532 0.297,-0.098 0.6,-0.101 0.881,-0.038 l 1.171,-5.88 z m 10.462,11.382 c 0.116,-0.165 0.285,-0.296 0.491,-0.364 0.199,-0.063 0.398,-0.063 0.585,-0.011 l 1.343,-3.262 c -0.011,-0.004 -0.019,-0.004 -0.031,-0.012 -0.366,-0.184 -0.651,-0.461 -0.861,-0.783 l -4.703,3.442 3.176,0.99 z m 2.636,-3.551 -1.304,3.183 2.111,-3.041 c -0.27,0.004 -0.54,-0.045 -0.807,-0.142 m 12.038,-23.787 -4.287,1.185 -3,9.379 3.5,0.963 c 0.116,-0.311 0.364,-0.57 0.705,-0.678 0.206,-0.068 0.416,-0.071 0.615,-0.022 l 3.397,-10.08 c -0.371,-0.151 -0.697,-0.409 -0.93,-0.747 m 0.346,-13.287 -3.53,11.026 3.072,0.059 c 0.243,-0.442 0.645,-0.802 1.166,-0.97 0.15,-0.049 0.304,-0.079 0.458,-0.094 l -0.36,-9.976 c -0.267,0.031 -0.541,0.023 -0.806,-0.045 m -6.717,-18.81 c 0.461,0.258 0.836,0.675 1.012,1.215 0.372,1.14 -0.243,2.366 -1.379,2.738 -1.114,0.363 -2.31,-0.233 -2.705,-1.336 l -3.435,2.918 -1.698,1.447 c 0.105,0.143 0.195,0.297 0.254,0.473 0.114,0.353 0.102,0.713 -0.004,1.039 l 6.886,2.749 6.968,2.786 c 0.098,-0.21 0.24,-0.397 0.416,-0.551 L 21.169,42.017 19.688,43.273 Z M 14.127,25.321 c -0.518,-0.262 -0.881,-0.697 -1.08,-1.196 l -0.391,3.772 -2.227,21.709 c 0.348,0.061 0.671,0.23 0.919,0.488 l 2.707,-2.306 2.498,-2.122 c -0.26,-1.088 0.341,-2.209 1.418,-2.562 0.513,-0.172 1.045,-0.127 1.511,0.071 L 21.098,41.8 15.747,25.482 c -0.526,0.139 -1.099,0.106 -1.62,-0.161 M -9.99,13.733 -19.028,18.71 c 0.03,0.06 0.06,0.12 0.082,0.184 0.053,0.157 0.069,0.314 0.076,0.476 L 11.456,20.469 -3.083,9.931 -9.99,13.733 Z M -19.129,18.522 -3.27,9.796 -14.528,1.633 c -0.51,0.644 -1.327,0.952 -2.126,0.828 l -3.124,15.465 c 0.267,0.131 0.487,0.338 0.649,0.596 m 4.485,15.923 2.021,5.262 c 0.637,-0.195 1.298,0.003 1.725,0.468 L 11.948,21.601 C 11.854,21.47 11.772,21.323 11.715,21.159 11.663,21.001 11.645,20.843 11.641,20.686 L -18.87,19.58 c -0.057,0.578 -0.417,1.095 -0.964,1.346 l 5.19,13.519 z m -7.324,-14.194 -11.131,5.584 -14.343,7.193 c 0.018,0.041 0.041,0.078 0.056,0.124 0.082,0.254 0.097,0.51 0.064,0.753 l 33.593,6.961 c 0.127,-0.469 0.458,-0.866 0.915,-1.076 l -2.04,-5.314 -5.172,-13.468 c -0.757,0.237 -1.556,-0.092 -1.942,-0.757 m -26.66,11.794 c 0.454,0.098 0.859,0.375 1.096,0.788 l 25.478,-12.769 c -0.019,-0.045 -0.042,-0.086 -0.056,-0.132 -0.082,-0.247 -0.098,-0.498 -0.064,-0.742 l -22.354,-4.501 c -0.139,0.53 -0.53,0.98 -1.088,1.159 -0.221,0.075 -0.443,0.094 -0.656,0.079 l -2.356,16.118 z M -67.866,37.1 c 0.012,0.034 0.016,0.067 0.023,0.101 l 17.224,-3.319 c -0.082,-0.633 0.21,-1.252 0.736,-1.601 l -4.253,-7.443 -9.221,-16.133 c -0.068,0.033 -0.136,0.071 -0.21,0.097 -0.237,0.075 -0.477,0.094 -0.709,0.064 l -2.51,14.239 -2.268,12.893 c 0.54,0.135 1.001,0.532 1.188,1.102 m 13.362,19.887 c 0.271,-0.086 0.548,-0.094 0.81,-0.045 l 2.877,-14.498 1.421,-7.159 c -0.525,-0.139 -0.971,-0.536 -1.155,-1.095 -0.011,-0.029 -0.011,-0.067 -0.023,-0.101 l -17.219,3.319 c 0.07,0.57 -0.155,1.129 -0.582,1.492 l 6.472,8.802 6.983,9.502 c 0.124,-0.089 0.262,-0.164 0.416,-0.217 m -10.848,9.315 -6.653,4.343 c 0.059,0.082 0.112,0.172 0.142,0.27 0.023,0.064 0.037,0.127 0.045,0.195 l 10.283,1.181 9.972,1.148 c 0.1,-0.585 0.501,-1.091 1.098,-1.29 l -3.15,-11.821 -0.033,-0.12 c -0.597,0.12 -1.193,-0.086 -1.58,-0.521 l -10.124,6.615 z m 14.373,8.727 c -0.24,-0.195 -0.431,-0.462 -0.536,-0.777 -0.068,-0.202 -0.086,-0.405 -0.078,-0.607 L -71.814,71.32 c -0.038,0.378 -0.289,0.72 -0.667,0.851 l 6.101,22.778 c 0.424,-0.086 0.847,-0.004 1.2,0.214 l 14.201,-20.134 z m 16.635,8.294 c -0.096,-0.134 -0.183,-0.284 -0.239,-0.453 -0.113,-0.338 -0.105,-0.682 -0.015,-1.001 l -7.208,-3.769 -6.705,-3.506 c -0.198,0.329 -0.507,0.6 -0.9,0.728 -0.087,0.03 -0.169,0.04 -0.256,0.055 l 1.902,19.37 c 0.439,-0.016 0.859,0.146 1.177,0.439 l 12.244,-11.863 z m 6.942,12.901 -5.313,-12.232 c -0.563,0.096 -1.118,-0.102 -1.497,-0.504 l -12.225,11.844 c 0.134,0.161 0.244,0.349 0.311,0.558 0.075,0.222 0.097,0.446 0.079,0.668 l 18.698,2.798 c 0.172,-0.398 0.495,-0.724 0.922,-0.889 l -0.975,-2.243 z M 1.271,82.131 C 1.234,82.019 1.212,81.902 1.2,81.79 l -30.315,0.664 -2.225,0.048 c -0.03,0.308 -0.142,0.601 -0.322,0.844 l 6.562,4.193 17.244,11.014 c 0.198,-0.274 0.48,-0.491 0.825,-0.604 0.412,-0.135 0.836,-0.094 1.203,0.072 L 2.074,83.083 C 1.706,82.885 1.411,82.555 1.271,82.131 m -13.233,-16.14 c -0.158,0.131 -0.338,0.237 -0.545,0.303 -0.622,0.207 -1.271,0.02 -1.702,-0.415 l -0.259,0.228 -17.283,15.135 c 0.142,0.169 0.262,0.364 0.333,0.59 0.052,0.153 0.068,0.307 0.075,0.46 L -23.701,82.124 1.196,81.58 C 1.204,81.149 1.372,80.744 1.672,80.44 L -11.962,65.991 Z M 3.282,79.998 4.759,74.447 C 4.279,74.286 3.874,73.908 3.705,73.39 3.581,73.015 3.604,72.633 3.731,72.291 l -8.52,-3.799 -6.765,-3.011 c -0.068,0.131 -0.157,0.251 -0.259,0.36 l 13.639,14.46 c 0.15,-0.12 0.319,-0.218 0.506,-0.281 0.32,-0.101 0.645,-0.104 0.95,-0.022 m 1.207,1.335 c 0.038,0.217 0.034,0.438 -0.015,0.648 l 14.07,3.889 2.959,-9.244 -17.014,4.707 z M 25.909,61.907 C 25.095,61.491 24.642,60.65 24.672,59.792 l -4.826,3.29 -13.126,8.939 c 0.06,0.104 0.109,0.21 0.15,0.33 0.049,0.15 0.067,0.296 0.075,0.447 l 6.409,0.123 c 0.248,-0.27 0.555,-0.487 0.927,-0.611 0.865,-0.285 1.781,0.014 2.331,0.679 l 6.016,0.116 3.551,-11.097 C 26.09,61.979 26,61.949 25.909,61.907 m -37.384,3.379 15.286,6.81 C 4.005,71.725 4.335,71.421 4.767,71.282 5.029,71.196 5.295,71.185 5.55,71.226 L 9.687,52.851 C 9.315,52.742 8.993,52.502 8.771,52.172 l -20.314,11.793 c 0.035,0.073 0.068,0.143 0.094,0.223 0.124,0.374 0.101,0.757 -0.026,1.098 m -1.388,-2.243 c 0.48,0.053 0.915,0.316 1.193,0.717 L 8.655,51.961 C 8.625,51.898 8.591,51.838 8.569,51.767 8.456,51.43 8.464,51.077 8.562,50.761 L -10.699,42.16 c -0.199,0.333 -0.506,0.603 -0.9,0.73 -0.161,0.053 -0.318,0.075 -0.484,0.075 l -0.78,20.078 z m -3.014,-17.959 -8.892,8.606 c 0.079,0.121 0.145,0.244 0.195,0.391 0.18,0.547 0.06,1.125 -0.27,1.549 l 10.552,7.987 c 0.191,-0.221 0.439,-0.401 0.743,-0.498 0.113,-0.037 0.229,-0.064 0.341,-0.076 l 0.78,-20.104 c -0.3,-0.06 -0.585,-0.199 -0.809,-0.409 l -2.64,2.554 z m -27.864,-6.723 16.358,15.113 c 0.188,-0.203 0.42,-0.368 0.705,-0.462 0.66,-0.217 1.358,0.004 1.785,0.507 l 8.835,-8.555 2.67,-2.58 c -0.138,-0.161 -0.247,-0.348 -0.315,-0.562 -0.083,-0.252 -0.097,-0.51 -0.064,-0.75 l -16.688,-3.458 -16.908,-3.502 c -0.061,0.224 -0.165,0.431 -0.311,0.614 l 3.933,3.635 z m -8.658,19.699 c 0.033,0.108 0.055,0.217 0.07,0.326 l 24.548,-3.439 c -0.097,-0.466 0.004,-0.938 0.263,-1.308 l -16.384,-15.14 -3.915,-3.618 c -0.176,0.168 -0.387,0.303 -0.63,0.382 -0.248,0.082 -0.502,0.094 -0.742,0.059 l -1.448,7.31 -2.85,14.355 c 0.495,0.158 0.911,0.54 1.088,1.073 m 3.7,14.557 8.776,-6.956 12.533,-9.941 c -0.143,-0.161 -0.259,-0.353 -0.334,-0.567 L -52.325,58.6 c -0.008,0.689 -0.435,1.327 -1.121,1.56 l 3.187,11.94 c 0.586,-0.117 1.175,0.086 1.56,0.517 m 22.141,-16.399 c -0.251,-0.063 -0.48,-0.187 -0.678,-0.356 l -3.35,2.659 -17.985,14.265 c 0.09,0.131 0.169,0.27 0.218,0.427 0.134,0.41 0.097,0.829 -0.061,1.197 l 13.895,7.264 c 0.183,-0.421 0.532,-0.761 0.997,-0.915 0.195,-0.064 0.397,-0.082 0.592,-0.076 l 6.372,-24.465 z m 12.142,7.568 -10.571,-8.003 c -0.18,0.18 -0.394,0.323 -0.648,0.405 -0.24,0.079 -0.48,0.097 -0.717,0.067 l -1.199,4.61 -5.168,19.845 c 0.303,0.052 0.581,0.187 0.81,0.386 l 17.347,-15.187 0.218,-0.191 c -0.113,-0.143 -0.206,-0.309 -0.266,-0.492 -0.165,-0.503 -0.075,-1.027 0.194,-1.44 M 12.893,23.548 c -0.034,-0.311 0,-0.634 0.101,-0.949 l 0.03,-0.316 C 12.664,22.22 12.327,22.043 12.075,21.77 L -10.77,40.34 c 0.094,0.136 0.18,0.278 0.232,0.443 0.124,0.375 0.098,0.758 -0.026,1.098 l 19.242,8.593 c 0.191,-0.372 0.525,-0.673 0.952,-0.815 0.199,-0.063 0.394,-0.086 0.589,-0.075 L 12.75,24.969 12.893,23.548 Z M 25.512,57.497 11.659,51.961 c -0.187,0.402 -0.532,0.728 -0.986,0.879 -0.262,0.085 -0.529,0.093 -0.783,0.052 L 5.756,71.268 c 0.331,0.096 0.622,0.303 0.841,0.584 L 24.702,59.515 c 0.037,-0.226 0.097,-0.454 0.206,-0.668 0.135,-0.266 0.319,-0.491 0.533,-0.675 -0.023,-0.233 0,-0.461 0.071,-0.675 m -2.948,15.818 -5.801,-0.116 c 0.101,0.154 0.187,0.319 0.248,0.498 0.37,1.137 -0.244,2.363 -1.377,2.734 -1.136,0.375 -2.359,-0.247 -2.734,-1.388 -0.221,-0.675 -0.087,-1.372 0.289,-1.912 L 6.949,73.007 C 6.896,73.656 6.465,74.245 5.809,74.458 5.524,74.553 5.235,74.557 4.961,74.5 L 3.502,79.975 3.48,80.069 c 0.435,0.18 0.799,0.539 0.957,1.023 0.003,0.012 0.007,0.023 0.007,0.03 l 17.134,-4.732 0.986,-3.075 z m 3.286,0.063 -3.041,-0.059 -0.957,2.996 4.087,-1.129 c -0.06,-0.112 -0.116,-0.225 -0.153,-0.352 -0.166,-0.496 -0.124,-1.005 0.064,-1.456 m -3.635,13.726 -3.506,-0.972 -2.846,8.896 c 0.281,0.154 0.517,0.36 0.709,0.596 l 5.951,-7.53 c -0.12,-0.12 -0.218,-0.266 -0.273,-0.439 -0.061,-0.187 -0.064,-0.374 -0.035,-0.551 m -6.569,7.83 2.834,-8.861 -14.066,-3.889 c -0.072,0.195 -0.176,0.378 -0.319,0.537 l 9.417,12.445 c 0.611,-0.419 1.41,-0.524 2.134,-0.232 m -39.886,4.567 c 0.008,0.023 0.008,0.05 0.014,0.076 l 16.055,-0.132 c 0.015,-0.255 0.086,-0.494 0.206,-0.712 l -0.33,-0.211 -23.509,-15.014 c -0.185,0.191 -0.409,0.341 -0.675,0.431 -0.012,0.003 -0.02,0.003 -0.031,0.007 l 5.389,12.398 0.896,2.058 c 0.836,-0.205 1.707,0.26 1.985,1.099 m 1.18,4.321 c 0.695,-0.229 1.433,0.104 1.745,0.746 l 13.207,-4.587 c -0.03,-0.108 -0.048,-0.217 -0.059,-0.326 l -11.513,0.098 -4.501,0.034 c 0.083,0.555 -0.12,1.098 -0.521,1.466 l 1.587,2.591 c 0.018,-0.007 0.037,-0.018 0.055,-0.022 m -41.332,-7.362 12.843,-0.116 2.183,-0.019 c 0.03,-0.671 0.465,-1.283 1.137,-1.503 0.085,-0.03 0.171,-0.046 0.258,-0.057 l -1.369,-13.916 -0.536,-5.453 c -0.33,0.011 -0.652,-0.078 -0.926,-0.247 l -14.206,20.133 c 0.244,0.196 0.435,0.458 0.54,0.777 0.045,0.135 0.064,0.266 0.076,0.401 M -79.974,63.475 c -0.097,0.03 -0.192,0.048 -0.285,0.063 l 0.818,10.151 5.636,-2.553 c 0.022,-0.24 0.135,-0.461 0.307,-0.63 l -6.022,-7.275 c -0.136,0.101 -0.285,0.187 -0.454,0.244 m -3.177,11.895 3.507,-1.586 -0.826,-10.234 c -0.138,0 -0.273,-0.019 -0.404,-0.049 l -3.544,11.172 c 0.487,0.082 0.938,0.322 1.267,0.697 m 3.796,-12.27 3.176,3.843 2.842,3.435 c 0.067,-0.041 0.139,-0.078 0.218,-0.104 0.12,-0.038 0.244,-0.053 0.364,-0.045 l 2.902,-10.767 0.177,-0.649 c -0.413,-0.142 -0.762,-0.442 -0.96,-0.852 l -8.284,3.392 c 0,0.003 0.003,0.007 0.003,0.014 0.21,0.634 0.015,1.301 -0.438,1.733 m 23.711,-4.444 -11.861,-1.152 c -0.094,0.597 -0.507,1.118 -1.118,1.321 -0.285,0.093 -0.577,0.1 -0.851,0.041 l -3.072,11.396 c 0.151,0.042 0.285,0.12 0.401,0.225 l 16.791,-10.972 c -0.087,-0.124 -0.162,-0.263 -0.211,-0.417 -0.049,-0.146 -0.071,-0.293 -0.079,-0.442 M -47.723,13.752 -60.076,8.9 -62.582,7.914 c -0.127,0.277 -0.329,0.513 -0.592,0.689 l 13.47,23.573 c 0.072,-0.033 0.14,-0.067 0.214,-0.094 0.218,-0.071 0.443,-0.093 0.66,-0.075 l 2.352,-16.117 c -0.563,-0.124 -1.05,-0.526 -1.242,-1.11 -0.116,-0.349 -0.105,-0.705 0,-1.028 m 70.704,26.716 -1.619,1.38 4.841,14.756 c 0.112,-0.071 0.232,-0.134 0.364,-0.18 0.059,-0.019 0.116,-0.026 0.176,-0.037 L 24.443,40.903 c -0.532,0.037 -1.046,-0.12 -1.459,-0.435 m 10.842,27.724 -8.974,-27.36 c -0.068,0.018 -0.135,0.034 -0.202,0.045 l 2.302,15.477 c 0.75,-0.065 1.477,0.389 1.725,1.143 0.033,0.105 0.056,0.214 0.067,0.322 L 28.5,58.247 c 0.699,0.678 0.919,1.748 0.462,2.659 -0.143,0.278 -0.334,0.506 -0.555,0.694 l 4.938,6.84 c 0.151,-0.098 0.308,-0.18 0.481,-0.248 m -12.701,22.043 -4.418,5.596 c 0.09,0.142 0.165,0.289 0.221,0.446 l 4.197,-6.042 z m -20.191,9.214 6.994,2.183 4.86,-3.559 c -0.323,-0.627 -0.36,-1.395 -0.016,-2.071 0.144,-0.288 0.342,-0.524 0.575,-0.716 L 3.949,82.874 c -0.157,0.142 -0.352,0.254 -0.574,0.327 -0.213,0.07 -0.428,0.092 -0.638,0.078 l -1.975,9.937 -0.803,4.055 c 0.461,0.168 0.848,0.535 1.016,1.046 0.124,0.386 0.098,0.784 -0.041,1.132 m -54.144,17.746 c 0.45,0.228 0.787,0.588 0.994,1.008 l 3.881,-1.714 0.266,-10.271 0.214,-8.145 c -0.409,-0.037 -0.791,-0.229 -1.072,-0.532 l -16.519,13.417 9.439,6.845 c 0.656,-0.826 1.822,-1.103 2.797,-0.608 m -12.413,-6.364 16.568,-13.456 c -0.097,-0.134 -0.179,-0.281 -0.236,-0.446 -0.042,-0.131 -0.063,-0.262 -0.071,-0.394 l -2.307,0.023 -12.72,0.112 c -0.038,0.668 -0.469,1.279 -1.14,1.5 -0.259,0.082 -0.525,0.094 -0.777,0.057 l -2.29,10.448 2.973,2.156 z m -1.159,0.94 0.968,-0.787 -2.839,-2.055 -0.116,0.529 -0.207,0.956 c 0.935,-0.082 1.834,0.458 2.194,1.357 m -9.832,-20.685 9.132,4.646 c 0.198,-0.333 0.502,-0.603 0.899,-0.734 L -72.684,72.22 c -0.131,0.019 -0.263,0.008 -0.39,-0.03 l -4.568,16.582 c 0.506,0.154 0.927,0.541 1.106,1.081 0.14,0.424 0.098,0.862 -0.078,1.233 m -7.076,4.204 c 0.165,0.079 0.307,0.188 0.442,0.3 l 3.893,-4.113 c -0.049,-0.057 -0.094,-0.11 -0.135,-0.169 l -0.109,-0.184 c -0.037,-0.075 -0.075,-0.15 -0.102,-0.233 -0.071,-0.209 -0.093,-0.423 -0.078,-0.63 l 0.029,-0.21 c 0.098,-0.488 0.402,-0.919 0.855,-1.158 l -5.016,-10.107 c -0.061,0.026 -0.117,0.06 -0.181,0.079 -0.183,0.06 -0.367,0.087 -0.551,0.097 l 0.041,16.088 c 0.308,0.012 0.615,0.09 0.908,0.24 m -6.315,-57.751 c -0.105,0.034 -0.215,0.053 -0.319,0.071 l -6.458,20.18 c 0.21,0.041 0.42,0.097 0.619,0.198 1.118,0.571 1.568,1.939 1.005,3.06 -0.015,0.027 -0.033,0.049 -0.049,0.075 l 13.058,0.585 c 0.056,-0.517 0.349,-0.989 0.799,-1.26 l -4.38,-16.207 c -0.96,0.059 -1.875,-0.525 -2.19,-1.481 -0.27,-0.822 -0.019,-1.684 0.562,-2.243 l -2.145,-3.229 c -0.154,0.101 -0.319,0.191 -0.502,0.251 m 18.904,-0.071 -12.69,4.039 c 0.307,1.11 -0.297,2.276 -1.399,2.636 -0.12,0.041 -0.247,0.064 -0.368,0.083 l 4.399,16.133 c 0.049,-0.024 0.093,-0.046 0.146,-0.065 0.375,-0.124 0.765,-0.097 1.11,0.038 l 9.676,-21.245 c -0.368,-0.194 -0.657,-0.524 -0.796,-0.948 -0.075,-0.224 -0.101,-0.45 -0.078,-0.671 m 16.05,-35.105 c -0.427,-0.217 -0.754,-0.551 -0.968,-0.945 l -6.675,4.891 c 0.079,0.116 0.147,0.243 0.191,0.382 0.004,0.015 0.004,0.027 0.008,0.041 L -35.18,0.413 -51.766,0.442 c -0.015,0.313 -0.087,0.627 -0.24,0.919 -0.562,1.125 -1.928,1.573 -3.049,1.002 m 36.493,-1.979 -15.676,0.025 -28.216,6.529 c 0.045,0.27 0.026,0.533 -0.053,0.781 l 1.493,0.585 13.369,5.25 c 0.187,-0.405 0.533,-0.736 0.986,-0.885 0.743,-0.24 1.534,0.071 1.932,0.708 L -18.466,0.886 c -0.048,-0.161 -0.085,-0.33 -0.096,-0.502 m 4.27,0.877 C -14.325,1.32 -14.367,1.377 -14.4,1.434 L -3.041,9.668 -1.519,8.833 C -1.563,8.738 -1.609,8.648 -1.643,8.551 -1.808,8.052 -1.77,7.539 -1.593,7.088 L -14.292,1.261 Z M 12.03,19.558 7.417,15.08 1.748,9.575 C 1.553,9.728 1.334,9.856 1.088,9.938 0.12,10.257 -0.904,9.848 -1.421,9.016 l -1.433,0.787 14.521,10.523 c 0.056,-0.282 0.18,-0.547 0.363,-0.768 m -8.217,88.816 c 0.789,-0.258 1.613,-0.03 2.172,0.514 l 5.4,-5.003 c -0.059,-0.082 -0.112,-0.172 -0.146,-0.274 -0.078,-0.247 -0.056,-0.498 0.038,-0.715 l -3.278,-1.024 -13.298,9.742 7.643,-0.971 c -0.101,-0.986 0.491,-1.946 1.469,-2.269 m -19.173,8.667 c 0.067,0.034 0.128,0.075 0.187,0.112 l 2.652,-3.739 c -0.09,-0.131 -0.169,-0.269 -0.226,-0.431 -0.097,-0.3 -0.097,-0.604 -0.03,-0.889 l -18.128,-1.814 -0.191,0.116 c -0.157,0.724 -0.675,1.346 -1.428,1.594 -0.425,0.138 -0.863,0.138 -1.265,0.026 l -11.163,6.724 c 0.011,0.108 0.014,0.218 0.014,0.326 l 26.292,-0.049 c 0.008,-0.33 0.08,-0.663 0.237,-0.978 0.566,-1.118 1.931,-1.568 3.049,-0.998 m -36.616,2.037 2.738,-0.004 c -0.012,-0.702 0.319,-1.358 0.881,-1.771 l 0.014,-0.554 -3.779,1.672 c 0.079,0.21 0.131,0.431 0.146,0.657 M -82.689,98.347 c -0.016,0.026 -0.034,0.049 -0.053,0.078 l 11.374,8.243 -6.146,-14.742 c -0.03,0.012 -0.056,0.027 -0.082,0.035 -0.327,0.108 -0.657,0.104 -0.964,0.022 l -0.195,-0.075 c -0.158,-0.067 -0.301,-0.158 -0.432,-0.266 l -3.888,4.114 c 0.641,0.682 0.828,1.709 0.386,2.591 m -9.986,-6.068 6.089,3.75 c 0.161,-0.228 0.36,-0.42 0.578,-0.57 l -3.746,-11.416 -3.57,5.048 c 0.374,0.297 0.678,0.698 0.84,1.193 0.228,0.694 0.134,1.406 -0.191,1.995 m 3.004,-8.753 3.558,-5.028 c -0.319,-0.256 -0.57,-0.601 -0.705,-1.02 -0.289,-0.871 0.011,-1.79 0.671,-2.341 l -9.795,-13.238 c -0.221,0.146 -0.461,0.26 -0.721,0.323 l 6.992,21.304 z M -100.528,52.164 -98,57.895 c 0.307,-0.121 0.641,-0.169 0.978,-0.143 l 6.435,-20.115 c -0.563,0.026 -1.099,-0.169 -1.515,-0.533 l -7.95,10.928 c 0.33,0.289 0.596,0.667 0.746,1.117 0.39,1.189 -0.154,2.453 -1.222,3.015 m 20.625,-41.888 c 0.338,1.283 -0.364,2.621 -1.635,3.042 -0.522,0.168 -1.053,0.149 -1.537,-0.004 l -1.875,7.263 c 0.112,0.038 0.228,0.079 0.341,0.132 0.352,0.179 0.626,0.442 0.832,0.746 l 3.109,-2.276 c 0.12,-0.124 0.263,-0.233 0.424,-0.315 L -65.503,8.071 C -65.57,7.966 -65.631,7.857 -65.671,7.729 -65.698,7.654 -65.716,7.576 -65.728,7.501 l -14.175,2.775 z m 36.616,-17.051 c -0.915,0.299 -1.867,0.041 -2.516,-0.585 l -6.51,6.216 c 0.322,0.38 0.51,0.856 0.539,1.351 l 17.629,-0.034 8.441,-1.953 c -0.086,-0.357 -0.086,-0.717 0.004,-1.055 l -16.125,-5.22 c -0.285,0.585 -0.795,1.058 -1.462,1.28 m 39.192,5.703 C -4.151,-1.248 -4.182,-1.428 -4.2,-1.607 l -9.856,1.623 c 0.034,0.341 -0.018,0.694 -0.145,1.027 l 12.697,5.824 c 0.255,-0.48 0.682,-0.869 1.237,-1.05 0.039,-0.011 0.072,-0.015 0.102,-0.022 L -1.286,0.627 C -2.49,0.83 -3.702,0.132 -4.095,-1.072 m 3.18,1.617 C -0.96,0.56 -1.009,0.562 -1.054,0.574 L 0.067,5.742 C 1.099,5.577 2.126,6.177 2.464,7.204 2.733,8.019 2.483,8.88 1.905,9.437 l 5.903,5.725 4.364,4.241 c 0.049,-0.041 0.106,-0.071 0.155,-0.108 L -0.397,0.301 c -0.158,0.1 -0.334,0.183 -0.518,0.244 m 29.746,29.587 c -0.079,0.027 -0.165,0.038 -0.252,0.053 l 6.128,37.846 c 1.062,-0.004 2.055,0.66 2.408,1.729 0.434,1.323 -0.282,2.753 -1.606,3.184 -0.618,0.202 -1.257,0.145 -1.803,-0.102 l -16.909,33.556 c 0.434,0.304 0.783,0.735 0.96,1.279 0.435,1.324 -0.281,2.749 -1.605,3.184 -1.137,0.371 -2.341,-0.113 -2.937,-1.099 l -34.058,17.498 c 0.406,1.312 -0.307,2.715 -1.613,3.143 -1.32,0.431 -2.744,-0.289 -3.179,-1.617 -0.143,-0.439 -0.151,-0.885 -0.061,-1.305 l -36.979,-5.805 c -0.266,0.663 -0.803,1.211 -1.534,1.451 -1.32,0.432 -2.745,-0.292 -3.18,-1.616 -0.284,-0.867 -0.068,-1.778 0.483,-2.423 L -93.155,92.909 c -0.26,0.244 -0.571,0.439 -0.93,0.559 -1.325,0.435 -2.747,-0.289 -3.181,-1.617 -0.435,-1.324 0.285,-2.748 1.605,-3.183 0.086,-0.026 0.173,-0.038 0.259,-0.057 l -5.858,-36.203 c -1.214,0.218 -2.437,-0.48 -2.835,-1.687 -0.435,-1.327 0.285,-2.753 1.605,-3.184 0.417,-0.139 0.84,-0.15 1.241,-0.075 l 17.401,-34.539 c -0.394,-0.299 -0.705,-0.716 -0.87,-1.222 -0.435,-1.324 0.285,-2.748 1.605,-3.183 0.998,-0.327 2.055,0.006 2.7,0.764 L -46.385,-8.2 c -0.026,-0.065 -0.06,-0.124 -0.083,-0.193 -0.434,-1.327 0.281,-2.748 1.606,-3.182 1.32,-0.432 2.741,0.288 3.18,1.615 0.135,0.417 0.146,0.844 0.071,1.249 l 37.587,5.899 c 0.271,-0.66 0.806,-1.204 1.534,-1.444 1.32,-0.434 2.744,0.289 3.18,1.616 0.292,0.889 0.052,1.82 -0.528,2.468 l 26.152,26.078 c 0.263,-0.251 0.578,-0.454 0.941,-0.573 1.324,-0.436 2.749,0.288 3.185,1.612 0.435,1.328 -0.285,2.753 -1.609,3.187" /></g></g><text
       transform="scale(0.9903009,-1.0097941)"
       sodipodi:linespacing="125%"
       id="text15138"
       y="-177.83842"
       x="312.58707"
       style="font-style:normal;font-weight:normal;font-size:57.16088867px;line-height:125%;font-family:sans-serif;text-align:end;letter-spacing:0px;word-spacing:0px;text-anchor:end;fill:#ffffff;fill-opacity:1;stroke:none;stroke-width:1px;stroke-linecap:butt;stroke-linejoin:miter;stroke-opacity:1"
       xml:space="preserve"><tspan
         y="-177.83842"
         x="312.58707"
         sodipodi:role="line"
         style="font-style:normal;font-variant:normal;font-weight:bold;font-stretch:normal;font-family:Rubik;-inkscape-font-specification:'Rubik Bold';text-align:center;text-anchor:middle"
         id="tspan27228">Open Tech Summit</tspan></text>
<g
       id="g28381"
       transform="matrix(1.0730743,0,0,1.0730743,-25.15312,-569.99008)"><g
         transform="matrix(1.989794,0,0,1.989794,398.96641,759.27834)"
         id="g4191"><path
           inkscape:connector-curvature="0"
           id="path4193"
           style="fill:#ffffff;fill-opacity:1;fill-rule:nonzero;stroke:none"
           d="m 0,0 0,2.652 13.984,0 c 13.356,0 14.004,0.023 14.52,0.594 0.793,0.875 0.547,2.558 -0.442,3.058 C 27.48,6.593 24.465,6.695 16.215,6.707 6.125,6.718 5.036,6.769 3.898,7.293 1.45,8.425 0.258,10.558 0.243,13.859 c -0.013,2.309 0.601,4.066 1.878,5.43 1.652,1.761 1.622,1.757 17.043,1.757 l 14.195,0 0,-5.3 -13.179,0 c -14.465,0 -14.571,-0.012 -14.562,-1.813 0.011,-2.156 0.507,-2.242 12.964,-2.242 8.996,0 10.934,-0.078 11.902,-0.484 2.606,-1.086 3.918,-3.266 3.938,-6.528 0.019,-2.66 -0.445,-4.093 -1.77,-5.453 C 30.801,-2.676 31.059,-2.649 14.82,-2.649 L 0,-2.649 0,0 Z" /></g><g
         transform="matrix(1.989794,0,0,1.989794,251.93237,759.27834)"
         id="g4195"><path
           inkscape:connector-curvature="0"
           id="path4197"
           style="fill:#ffffff;fill-opacity:1;fill-rule:nonzero;stroke:none"
           d="m 0,0 0,2.652 13.984,0 c 13.356,0 14.004,0.023 14.516,0.594 0.797,0.875 0.551,2.558 -0.442,3.058 C 27.48,6.593 24.465,6.695 16.211,6.707 6.125,6.718 5.035,6.769 3.898,7.293 c -2.453,1.132 -3.64,3.265 -3.656,6.566 -0.012,2.309 0.598,4.066 1.879,5.43 1.652,1.761 1.621,1.757 17.043,1.757 l 14.195,0 0,-5.3 -13.179,0 c -14.465,0 -14.571,-0.012 -14.563,-1.813 0.012,-2.156 0.508,-2.242 12.965,-2.242 8.996,0 10.933,-0.078 11.902,-0.484 2.605,-1.086 3.918,-3.266 3.937,-6.528 0.02,-2.66 -0.445,-4.093 -1.769,-5.453 C 30.801,-2.676 31.058,-2.649 14.82,-2.649 L 0,-2.649 0,0 Z" /></g><g
         transform="matrix(1.989794,0,0,1.989794,50.489006,752.90284)"
         id="g4199"><path
           inkscape:connector-curvature="0"
           id="path4201"
           style="fill:#ffffff;fill-opacity:1;fill-rule:nonzero;stroke:none"
           d="m 0,0 0,9.2 -3.743,0 0,5.297 3.703,0 0.161,1.324 c 0.089,0.73 0.246,2.086 0.347,3.012 0.219,1.945 0.692,2.988 1.864,4.085 0.808,0.754 1,0.786 6.812,0.981 3.285,0.113 8.254,0.219 11.039,0.234 l 5.07,0.032 0,-5.274 -9.027,-0.094 C 6.543,18.7 6.484,18.688 6.359,17.071 6.324,16.598 6.191,15.805 6.062,15.305 l -0.234,-0.902 19.425,0.351 0,-5.554 -19.019,0 0,-18.399 L 0,-9.199 0,0 Z" /></g><g
         transform="matrix(1.989794,0,0,1.989794,160.43886,765.13789)"
         id="g4203"><path
           inkscape:connector-curvature="0"
           id="path4205"
           style="fill:#ffffff;fill-opacity:1;fill-rule:nonzero;stroke:none"
           d="m 0,0 1.016,0.906 0.09,4.629 c 0.082,4.199 0.031,4.719 -0.547,5.645 -0.348,0.562 -0.992,1.156 -1.434,1.324 -0.453,0.172 -4.652,0.305 -9.64,0.305 l -8.844,0 -0.949,-0.801 c -1.36,-1.145 -1.68,-2.563 -1.543,-6.867 0.086,-2.895 0.23,-3.883 0.652,-4.481 1.063,-1.504 1.371,-1.547 11.067,-1.559 L -1.019,-0.91 0,0 Z m -23.39,-5.859 c -1.571,0.777 -3.211,2.671 -4.016,4.636 -0.484,1.184 -0.57,2.285 -0.57,7.016 0,5.414 0.027,5.672 0.816,7.328 0.977,2.051 2.473,3.629 4.172,4.406 1.133,0.516 2.274,0.567 12.625,0.574 6.574,0 11.852,-0.125 12.492,-0.304 C 3.692,17.363 5.723,15.519 6.715,13.629 7.528,12.094 7.567,11.805 7.664,6.508 7.789,-0.125 7.485,-1.586 5.477,-3.867 3.121,-6.539 3.321,-6.508 -10.207,-6.512 -21.656,-6.524 -22.097,-6.5 -23.39,-5.859" /></g><g
         transform="matrix(1.989794,0,0,1.989794,180.14438,759.27834)"
         id="g4207"><path
           inkscape:connector-curvature="0"
           id="path4209"
           style="fill:#ffffff;fill-opacity:1;fill-rule:nonzero;stroke:none"
           d="m 0,0 0,2.652 13.98,0 c 13.36,0 14.008,0.023 14.52,0.594 0.793,0.875 0.55,2.558 -0.442,3.058 C 27.476,6.593 24.465,6.695 16.211,6.707 6.125,6.718 5.035,6.769 3.898,7.293 c -2.453,1.132 -3.64,3.265 -3.656,6.566 -0.012,2.309 0.598,4.066 1.879,5.43 1.652,1.761 1.621,1.757 17.043,1.757 l 14.195,0 0,-5.3 -13.18,0 c -14.468,0 -14.57,-0.012 -14.562,-1.813 0.012,-2.156 0.508,-2.242 12.965,-2.242 8.992,0 10.933,-0.078 11.898,-0.484 2.606,-1.086 3.922,-3.266 3.942,-6.528 0.019,-2.66 -0.45,-4.093 -1.77,-5.453 C 30.797,-2.676 31.054,-2.649 14.82,-2.649 L 0,-2.649 0,0 Z" /></g><g
         transform="matrix(1.989794,0,0,1.989794,380.52182,768.58799)"
         id="g4211"><path
           inkscape:connector-curvature="0"
           id="path4213"
           style="fill:#ffffff;fill-opacity:1;fill-rule:nonzero;stroke:none"
           d="m 0,0 0,2.024 -10.688,0 c -11.976,0 -12.07,-0.016 -12.07,-2.024 0,-2.011 0.094,-2.027 12.07,-2.027 L 0,-2.027 0,0 Z m -25.098,-6.738 c -2.514,1.16 -3.586,3.148 -3.586,6.66 0,2.742 0.782,4.531 2.602,5.981 l 1.199,0.957 12.363,0.152 c 6.801,0.09 12.333,0.262 12.286,0.391 -0.039,0.129 -0.078,0.66 -0.078,1.183 0,0.594 -0.286,1.239 -0.761,1.715 l -0.771,0.766 -25.593,0 0,5.3 27.628,0 1.59,-0.796 C 2.66,15.133 3.77,14.266 4.242,13.641 5.72,11.707 5.927,10.168 5.927,1.024 l 0,-8.352 -14.892,0.004 c -13.805,0.012 -14.976,0.051 -16.133,0.586" /></g><g
         transform="matrix(1.989794,0,0,1.989794,472.34007,777.58186)"
         id="g4215"><path
           inkscape:connector-curvature="0"
           id="path4217"
           style="fill:#ffffff;fill-opacity:1;fill-rule:nonzero;stroke:none"
           d="m 0,0 0,11.847 5.922,0 0,-23.695 -5.922,0 L 0,0 Z" /></g><g
         transform="matrix(1.989794,0,0,1.989794,472.34007,811.52397)"
         id="g4219"><path
           inkscape:connector-curvature="0"
           id="path4221"
           style="fill:#ffffff;fill-opacity:1;fill-rule:nonzero;stroke:none"
           d="m 0,0 0,2.809 5.922,0 0,-5.613 L 0,-2.804 0,0 Z" /></g><g
         transform="matrix(1.989794,0,0,1.989794,546.78622,768.58023)"
         id="g4223"><path
           inkscape:connector-curvature="0"
           id="path4225"
           style="fill:#ffffff;fill-opacity:1;fill-rule:nonzero;stroke:none"
           d="m 0,0 0,2.028 -10.753,0 c -10.341,0 -10.782,-0.024 -11.384,-0.625 -0.843,-0.848 -0.812,-2.324 0.071,-2.942 0.593,-0.414 2.211,-0.484 11.382,-0.484 L 0,-2.023 0,0 Z m -25.109,-6.742 c -2.493,1.137 -3.567,3.215 -3.571,6.914 -0.004,2.477 0.836,4.336 2.598,5.735 l 1.2,0.957 24.952,0.172 -0.187,0.691 c -0.102,0.383 -0.188,0.945 -0.188,1.254 -0.004,0.305 -0.351,0.902 -0.769,1.324 l -0.765,0.766 -25.595,0 0,5.3 27.625,0 1.595,-0.796 C 2.665,15.137 3.77,14.27 4.247,13.645 5.723,11.711 5.926,10.172 5.926,1.028 l 0,-8.352 -14.887,0.004 c -13.769,0.008 -14.984,0.051 -16.148,0.578" /></g></g><flowRoot
       xml:space="preserve"
       id="flowRoot4680"
       style="font-style:normal;font-weight:normal;font-size:32px;line-height:129.99999523%;font-family:sans-serif;letter-spacing:0px;word-spacing:0px;fill:#000000;fill-opacity:1;stroke:none;stroke-width:1px;stroke-linecap:butt;stroke-linejoin:miter;stroke-opacity:1"><flowRegion
         id="flowRegion4682"><rect
           id="rect4684"
           width="703.69458"
           height="436.4415"
           x="-47.415867"
           y="-132.54889"
           transform="scale(1,-1)" /></flowRegion><flowPara
         id="flowPara4686"></flowPara></flowRoot><text
       transform="scale(0.9903009,-1.0097941)"
       sodipodi:linespacing="125%"
       id="text15138-3"
       y="-112.84312"
       x="300.00943"
       style="font-style:normal;font-weight:normal;font-size:46.53122711px;line-height:125%;font-family:sans-serif;text-align:end;letter-spacing:0px;word-spacing:0px;text-anchor:end;fill:#ffffff;fill-opacity:1;stroke:none;stroke-width:1px;stroke-linecap:butt;stroke-linejoin:miter;stroke-opacity:1"
       xml:space="preserve"><tspan
         y="-112.84312"
         x="300.00943"
         sodipodi:role="line"
         style="font-style:normal;font-variant:normal;font-weight:bold;font-stretch:normal;font-family:Rubik;-inkscape-font-specification:'Rubik Bold';text-align:center;text-anchor:middle"
         id="tspan27228-5">March 22-25, 2018</tspan><tspan
         y="-54.679085"
         x="300.00943"
         sodipodi:role="line"
         style="font-style:normal;font-variant:normal;font-weight:bold;font-stretch:normal;font-family:Rubik;-inkscape-font-specification:'Rubik Bold';text-align:center;text-anchor:middle"
         id="tspan4722">Singapore</tspan></text>
</g></svg>