<?xml version="1.0" encoding="UTF-8" standalone="no"?>
<!-- Created with Inkscape (http://www.inkscape.org/) -->

<svg
   xmlns:dc="http://purl.org/dc/elements/1.1/"
   xmlns:cc="http://creativecommons.org/ns#"
   xmlns:rdf="http://www.w3.org/1999/02/22-rdf-syntax-ns#"
   xmlns:svg="http://www.w3.org/2000/svg"
   xmlns="http://www.w3.org/2000/svg"
   xmlns:sodipodi="http://sodipodi.sourceforge.net/DTD/sodipodi-0.dtd"
   xmlns:inkscape="http://www.inkscape.org/namespaces/inkscape"
   width="400"
   height="170"
   id="svg6016"
   version="1.1"
   inkscape:version="0.91 r13725"
   sodipodi:docname="fossasia-white-path.svg"
   inkscape:export-filename="/home/opntec/git/fossasia-artwork/Logo/Rectangle/png/fossasia-white-300dpi.png"
   inkscape:export-xdpi="300"
   inkscape:export-ydpi="300">
  <defs
     id="defs6018">
    <inkscape:perspective
       sodipodi:type="inkscape:persp3d"
       inkscape:vp_x="0 : 526.18109 : 1"
       inkscape:vp_y="0 : 1000 : 0"
       inkscape:vp_z="744.09448 : 526.18109 : 1"
       inkscape:persp3d-origin="372.04724 : 350.78739 : 1"
       id="perspective6024" />
  </defs>
  <sodipodi:namedview
     id="base"
     pagecolor="#ffffff"
     bordercolor="#666666"
     borderopacity="1.0"
     inkscape:pageopacity="0.0"
     inkscape:pageshadow="2"
     inkscape:zoom="1.2432572"
     inkscape:cx="144.54959"
     inkscape:cy="66.591207"
     inkscape:document-units="px"
     inkscape:current-layer="g2865"
     showgrid="true"
     inkscape:window-width="1366"
     inkscape:window-height="742"
     inkscape:window-x="0"
     inkscape:window-y="0"
     inkscape:window-maximized="1"
     inkscape:snap-object-midpoints="false"
     inkscape:snap-center="true"
     inkscape:snap-page="true"
     height="3543.31px">
    <inkscape:grid
       type="xygrid"
       id="grid2863"
       empspacing="5"
       visible="true"
       enabled="true"
       snapvisiblegridlinesonly="true" />
  </sodipodi:namedview>
  <metadata
     id="metadata6021">
    <rdf:RDF>
      <cc:Work
         rdf:about="">
        <dc:format>image/svg+xml</dc:format>
        <dc:type
           rdf:resource="http://purl.org/dc/dcmitype/StillImage" />
        <dc:title></dc:title>
      </cc:Work>
    </rdf:RDF>
  </metadata>
  <g
     inkscape:label="Layer 1"
     inkscape:groupmode="layer"
     id="layer1"
     transform="translate(-59.323479,-840.36963)">
    <flowRoot
       xml:space="preserve"
       id="flowRoot6032"
       style="font-size:72px;font-style:normal;font-variant:normal;font-weight:normal;font-stretch:normal;fill:#000000;fill-opacity:1;stroke:none;font-family:Ethnocentric;-inkscape-font-specification:Ethnocentric"><flowRegion
         id="flowRegion6034"><rect
           id="rect6036"
           width="923.17072"
           height="320.73172"
           x="-165.85365"
           y="103.5817" /></flowRegion><flowPara
         id="flowPara6038" /></flowRoot>    <flowRoot
       xml:space="preserve"
       id="flowRoot6046"
       style="font-size:72px;font-style:normal;font-variant:normal;font-weight:normal;font-stretch:normal;fill:#000000;fill-opacity:1;stroke:none;font-family:Ethnocentric;-inkscape-font-specification:Ethnocentric"><flowRegion
         id="flowRegion6048"><rect
           id="rect6050"
           width="917.07318"
           height="268.29269"
           x="28.04878"
           y="76.752426" /></flowRegion><flowPara
         id="flowPara6052" /></flowRoot>    <flowRoot
       xml:space="preserve"
       id="flowRoot6054"
       style="font-size:72px;font-style:normal;font-variant:normal;font-weight:normal;font-stretch:normal;fill:#000000;fill-opacity:1;stroke:none;font-family:Ethnocentric;-inkscape-font-specification:Ethnocentric"><flowRegion
         id="flowRegion6056"><rect
           id="rect6058"
           width="713.41461"
           height="148.78049"
           x="25.609756"
           y="81.630478" /></flowRegion><flowPara
         id="flowPara6060" /></flowRoot>    <flowRoot
       xml:space="preserve"
       id="flowRoot6062"
       style="font-size:72px;font-style:normal;font-variant:normal;font-weight:normal;font-stretch:normal;fill:#000000;fill-opacity:1;stroke:none;font-family:Ethnocentric;-inkscape-font-specification:Ethnocentric"><flowRegion
         id="flowRegion6064"><rect
           id="rect6066"
           width="691.46344"
           height="115.85366"
           x="47.560974"
           y="120.65487" /></flowRegion><flowPara
         id="flowPara6068" /></flowRoot>    <flowRoot
       xml:space="preserve"
       id="flowRoot6070"
       style="font-size:72px;font-style:normal;font-variant:normal;font-weight:normal;font-stretch:normal;fill:#000000;fill-opacity:1;stroke:none;font-family:Ethnocentric;-inkscape-font-specification:Ethnocentric"
       transform="translate(0,802.36218)"><flowRegion
         id="flowRegion6072"><rect
           id="rect6074"
           width="1079.2683"
           height="365.85367"
           x="-91.463417"
           y="-729.26831" /></flowRegion><flowPara
         id="flowPara6076" /></flowRoot>    <g
       id="g2865"
       transform="matrix(1.0472911,0,0,1.0472911,0.71952702,-54.48149)">
      <g
         transform="scale(0.94399373,1.0593291)"
         style="font-size:76.27169037px;font-style:normal;font-variant:normal;font-weight:normal;font-stretch:normal;line-height:20.0000003%;writing-mode:lr-tb;fill:#ffffff;fill-opacity:1;stroke:none;font-family:spaceman;-inkscape-font-specification:spaceman"
         id="text6026">
        <path
           d="m 144.72923,814.28949 0,13.77128 -44.809624,0 c -1.341852,5e-5 -2.507113,0.0707 -3.495786,0.21187 -0.706252,0.21191 -1.518404,0.63564 -2.436457,1.27119 -1.553712,1.41248 -2.330553,3.63707 -2.330524,6.67378 l 0,1.48306 53.072391,-0.21187 0,13.87721 -53.072391,0.21187 0,45.02149 -17.690797,0 0,-45.02149 -11.122956,0 0,-13.87721 11.122956,0 0,-5.82631 c -1.1e-5,-3.10732 0.282477,-5.68502 0.847464,-7.73311 0.564963,-2.1186 1.730224,-4.0607 3.495786,-5.82631 1.765531,-1.76549 3.672322,-2.89544 5.720377,-3.38985 2.048013,-0.49429 4.590401,-0.74147 7.62717,-0.74153 l 53.072391,0.10593"
           style="font-size:105.93291473px;text-align:start;line-height:20.0000003%;letter-spacing:-7.99983072;text-anchor:start;fill:#ffffff;font-family:spaceman;-inkscape-font-specification:spaceman;stroke:none;fill-opacity:1"
           id="path2862" />
        <path
           d="m 173.5146,812.91237 56.78004,0 c 6.0734,6e-5 11.2288,2.15402 15.46621,6.4619 4.30784,4.23737 6.4618,9.39277 6.4619,15.46621 l 0,17.16113 c -1e-4,6.00288 -2.15406,11.15828 -6.4619,15.46621 -4.23741,4.30794 -9.39281,6.4619 -15.46621,6.4619 l -56.78004,0 c -6.00288,0 -11.15828,-2.15396 -15.46621,-6.4619 -4.30794,-4.30793 -6.4619,-9.46333 -6.4619,-15.46621 l 0,-17.16113 c 0,-6.07344 2.15396,-11.22884 6.4619,-15.46621 4.30793,-4.30788 9.46333,-6.46184 15.46621,-6.4619 m 5.29664,13.77127 c -2.47179,5e-5 -4.59044,0.88282 -6.35597,2.64833 -1.76557,1.76559 -2.64834,3.88424 -2.64832,6.35597 l 0,14.61874 c -2e-5,2.47179 0.88275,4.59045 2.64832,6.35598 1.76553,1.76556 3.88418,2.64834 6.35597,2.64832 l 45.33929,0 c 2.47169,2e-5 4.59035,-0.88276 6.35598,-2.64832 1.76546,-1.76553 2.64824,-3.88419 2.64832,-6.35598 l 0,-14.61874 c -8e-5,-2.47173 -0.88286,-4.59038 -2.64832,-6.35597 -1.76563,-1.76551 -3.88429,-2.64828 -6.35598,-2.64833 l -45.33929,0"
           style="font-size:105.93291473px;text-align:start;line-height:20.0000003%;letter-spacing:-7.99983072;text-anchor:start;fill:#ffffff;font-family:spaceman;-inkscape-font-specification:spaceman;stroke:none;fill-opacity:1"
           id="path2864" />
        <path
           d="m 278.28201,850.94228 c -5.50852,2e-5 -9.99301,-1.58897 -13.45348,-4.76698 -3.38985,-3.24858 -5.08478,-7.62713 -5.08478,-13.13568 0,-7.27401 2.86019,-12.53534 8.58057,-15.784 2.75424,-1.55363 6.07347,-2.33047 9.95769,-2.33053 l 75.00051,0 0,13.87721 -71.50472,0 c -3.88423,5e-5 -5.82633,1.48311 -5.82631,4.44919 -2e-5,2.96615 1.94208,4.44921 5.82631,4.44918 l 56.14444,0.10593 c 5.50843,4e-5 9.95761,1.62434 13.34755,4.87291 3.46038,3.24864 5.19062,7.6272 5.19071,13.13569 -9e-5,7.41531 -2.86028,12.67664 -8.58056,15.784 -2.68372,1.48306 -6.00295,2.22459 -9.9577,2.22459 l -78.17849,0 0,-13.87721 74.68271,0.10593 c 3.88412,2e-5 5.82623,-1.51835 5.82631,-4.55511 -8e-5,-2.9661 -1.94219,-4.44916 -5.82631,-4.44919 l -56.14445,-0.10593"
           style="font-size:105.93291473px;text-align:start;line-height:20.0000003%;letter-spacing:-7.99983072;text-anchor:start;fill:#ffffff;font-family:spaceman;-inkscape-font-specification:spaceman;stroke:none;fill-opacity:1"
           id="path2866" />
        <path
           d="m 380.35312,850.94228 c -5.50853,2e-5 -9.99302,-1.58897 -13.45348,-4.76698 -3.38986,-3.24858 -5.08478,-7.62713 -5.08478,-13.13568 0,-7.27401 2.86018,-12.53534 8.58056,-15.784 2.75425,-1.55363 6.07348,-2.33047 9.9577,-2.33053 l 75.0005,0 0,13.87721 -71.50472,0 c -3.88422,5e-5 -5.82632,1.48311 -5.82631,4.44919 -10e-6,2.96615 1.94209,4.44921 5.82631,4.44918 l 56.14445,0.10593 c 5.50843,4e-5 9.9576,1.62434 13.34755,4.87291 3.46038,3.24864 5.19061,7.6272 5.19071,13.13569 -10e-5,7.41531 -2.86028,12.67664 -8.58057,15.784 -2.68372,1.48306 -6.00294,2.22459 -9.95769,2.22459 l -78.17849,0 0,-13.87721 74.6827,0.10593 c 3.88413,2e-5 5.82623,-1.51835 5.82631,-4.55511 -8e-5,-2.9661 -1.94218,-4.44916 -5.82631,-4.44919 l -56.14444,-0.10593"
           style="font-size:105.93291473px;text-align:start;line-height:20.0000003%;letter-spacing:-7.99983072;text-anchor:start;fill:#ffffff;font-family:spaceman;-inkscape-font-specification:spaceman;stroke:none;fill-opacity:1"
           id="path2868" />
      </g>
      <g
         style="font-size:72px;font-style:normal;font-variant:normal;font-weight:normal;font-stretch:normal;fill:#ffffff;fill-opacity:1;stroke:none;font-family:Ethnocentric;-inkscape-font-specification:Ethnocentric"
         id="text2859">
        <path
           d="m 68.593375,965.74463 0,-13.755 70.034995,0 c 6.92992,6e-5 12.42492,1.82006 16.485,5.46 2.51991,2.24005 4.23491,4.86505 5.145,7.875 0.62991,2.24004 0.94491,5.39004 0.945,9.45 l 0,35.59497 -78.224995,0 c -5.740013,0 -10.255008,-1.575 -13.545,-4.725 -3.290002,-3.15 -4.935,-7.55996 -4.935,-13.22997 0,-5.66998 1.644998,-10.04497 4.935,-13.125 3.359992,-3.14997 7.874987,-4.72497 13.545,-4.725 l 60.689995,0 0,-0.525 c -7e-5,-4.33996 -1.61007,-6.96496 -4.83,-7.875 -0.98007,-0.27996 -2.48507,-0.41996 -4.515,-0.42 l -65.729995,0 m 75.074995,30.87 0,-8.925 -56.069995,0 c -3.710019,2e-5 -5.565018,1.50502 -5.565,4.515 -1.8e-5,2.94001 1.854981,4.41001 5.565,4.41 l 56.069995,0"
           style="font-size:105px;letter-spacing:3.77589703;fill:#ffffff;font-family:spaceman;-inkscape-font-specification:spaceman;stroke:none;fill-opacity:1"
           id="path2871" />
        <path
           d="m 201.6981,987.68963 c -5.46002,2e-5 -9.90501,-1.57498 -13.335,-4.725 -3.36,-3.21997 -5.04,-7.55997 -5.04,-13.02 0,-7.20995 2.83499,-12.42495 8.505,-15.645 2.72999,-1.53994 6.01998,-2.30994 9.87,-2.31 l 74.34,0 0,13.755 -70.875,0 c -3.85002,4e-5 -5.77502,1.47004 -5.775,4.41 -2e-5,2.94004 1.92498,4.41003 5.775,4.41 l 55.65,0.105 c 5.45991,3e-5 9.86991,1.61003 13.23,4.83 3.4299,3.22003 5.1449,7.56002 5.145,13.02 -1e-4,7.35001 -2.8351,12.56497 -8.505,15.64497 -2.66009,1.47 -5.95008,2.205 -9.87,2.205 l -77.49,0 0,-13.75497 74.025,0.105 c 3.84992,10e-6 5.77492,-1.50499 5.775,-4.515 -8e-5,-2.93998 -1.92508,-4.40998 -5.775,-4.41 l -55.65,-0.105"
           style="font-size:105px;letter-spacing:3.77589703;fill:#ffffff;font-family:spaceman;-inkscape-font-specification:spaceman;stroke:none;fill-opacity:1"
           id="path2873" />
        <path
           d="m 313.73555,1010.3696 -17.535,0 0,-58.37997 17.535,0 0,58.37997 m 0,-64.25997 -17.535,0 0,-13.965 17.535,0 0,13.965"
           style="font-size:105px;letter-spacing:3.77589703;fill:#ffffff;font-family:spaceman;-inkscape-font-specification:spaceman;stroke:none;fill-opacity:1"
           id="path2875" />
        <path
           d="m 339.13982,965.74463 0,-13.755 70.035,0 c 6.92992,6e-5 12.42492,1.82006 16.485,5.46 2.51991,2.24005 4.23491,4.86505 5.145,7.875 0.62991,2.24004 0.94491,5.39004 0.945,9.45 l 0,35.59497 -78.225,0 c -5.74001,0 -10.25501,-1.575 -13.545,-4.725 -3.29,-3.15 -4.935,-7.55996 -4.935,-13.22997 0,-5.66998 1.645,-10.04497 4.935,-13.125 3.35999,-3.14997 7.87499,-4.72497 13.545,-4.725 l 60.69,0 0,-0.525 c -8e-5,-4.33996 -1.61007,-6.96496 -4.83,-7.875 -0.98007,-0.27996 -2.48507,-0.41996 -4.515,-0.42 l -65.73,0 m 75.075,30.87 0,-8.925 -56.07,0 c -3.71002,2e-5 -5.56501,1.50502 -5.565,4.515 -10e-6,2.94001 1.85498,4.41001 5.565,4.41 l 56.07,0"
           style="font-size:105px;letter-spacing:3.77589703;fill:#ffffff;font-family:spaceman;-inkscape-font-specification:spaceman;stroke:none;fill-opacity:1"
           id="path2877" />
      </g>
      <path
         style="fill:#ffffff;stroke:none;fill-opacity:1"
         d="m 14.890176,74.291728 0,-24.934502 -5.6303716,0 -5.6303716,0 0,-7.23905 0,-7.239049 5.6303716,0 5.6303716,0 0.01967,-5.429287 c 0.02592,-7.158649 1.215583,-12.026901 3.751497,-15.351657 3.709226,-4.8630449 4.405997,-4.9578973 36.419942,-4.9578973 l 28.982031,0 0,7.2390493 0,7.239049 -24.041056,0 c -27.927084,0 -27.349595,-0.145976 -28.044794,7.089096 l -0.400843,4.171647 26.243347,0 26.243346,0 0,7.239049 0,7.23905 -26.14101,0 -26.141011,0 0,24.934502 0,24.934503 -8.445558,0 -8.445557,0 0,-24.934503 z"
         id="path3052"
         inkscape:connector-curvature="0"
         transform="matrix(0.95484436,0,0,0.95484436,55.957653,854.44354)" />
      <path
         style="fill:#ffffff;stroke:none;fill-opacity:1"
         d="M 105.37829,72.39924 C 101.2419,70.468943 96.344467,65.728696 94.197901,61.577694 90.181123,53.810101 90.376956,27.717172 94.512877,19.610098 96.592774,15.533162 103.29453,9.6577502 107.19946,8.4878047 c 2.23037,-0.668234 12.61037,-0.9538303 34.4674,-0.9483391 31.14859,0.00783 31.29244,0.015565 35.34231,1.9014022 4.97801,2.3180262 9.46125,7.3907262 11.61175,13.1384442 1.39065,3.716859 1.61511,6.26755 1.61511,18.353901 0,11.907404 -0.23491,14.655384 -1.54836,18.112088 -2.15842,5.680495 -6.53257,10.698734 -11.47036,13.159335 l -4.18825,2.087092 -31.81454,-0.0079 c -31.63619,-0.0078 -31.83708,-0.01838 -35.83623,-1.884631 z m 60.99117,-14.48672 c 5.05381,-2.111612 5.76895,-4.286427 5.76895,-17.54379 0,-10.725791 -0.15398,-12.011179 -1.68622,-14.075929 -3.09483,-4.170429 -3.71252,-4.258486 -29.96106,-4.271237 -27.1011,-0.01317 -27.81027,0.111048 -30.27381,5.302563 -1.66145,3.501244 -1.73225,22.730128 -0.0953,25.89555 1.38814,2.684371 3.59161,4.694363 5.71271,5.211102 0.88478,0.215547 12.02644,0.43389 24.75926,0.485208 17.89991,0.07214 23.74592,-0.155449 25.77551,-1.003467 l 0,0 z"
         id="path3054"
         inkscape:connector-curvature="0"
         transform="matrix(0.95484436,0,0,0.95484436,55.957653,854.44354)" />
      <path
         style="fill:#ffffff;stroke:none;fill-opacity:1"
         d="m 198.27942,67.086925 0,-7.273295 38.02712,0 c 42.89571,0 41.60242,0.175569 41.60242,-5.647681 0,-2.417357 -0.41803,-3.382221 -1.80976,-4.17717 -1.35641,-0.774769 -9.86941,-1.134469 -33.98331,-1.435892 l -32.17356,-0.40217 -3.40829,-2.3121 c -4.92816,-3.343147 -7.68481,-9.309849 -7.63958,-16.535679 0.0549,-8.771022 3.15149,-14.2833 10.01041,-17.819679 2.81846,-1.453168 5.15292,-1.5386345 42.0267,-1.5386345 l 39.04247,0 0,7.2390495 0,7.239049 -36.44368,0 c -29.75237,0 -36.72297,0.204219 -37.96479,1.112262 -1.76869,1.2933 -2.09834,6.353088 -0.51708,7.936549 0.75605,0.7571 8.99046,1.104753 33.33984,1.407593 35.30136,0.439053 34.45139,0.32409 39.46519,5.337885 3.65065,3.650658 4.79159,6.654001 5.15282,13.564077 0.30765,5.885036 0.13793,6.81155 -1.98678,10.846155 -1.70066,3.229372 -3.37404,5.061355 -6.24501,6.83688 l -3.92185,2.425435 -41.28664,0.23533 -41.28664,0.235329 0,-7.273293 z"
         id="path3056"
         inkscape:connector-curvature="0"
         transform="matrix(0.95484436,0,0,0.95484436,55.957653,854.44354)" />
      <path
         style="fill:#ffffff;stroke:none;fill-opacity:1"
         d="m 299.62611,67.052679 0,-7.239049 37.84048,0 37.84049,0 1.97429,-1.974286 c 2.37234,-2.372345 2.50157,-4.434968 0.43764,-6.985418 l -1.53664,-1.89887 -32.44667,-0.402169 c -28.18291,-0.349321 -32.76377,-0.577096 -34.85969,-1.733339 -5.36046,-2.957158 -8.47176,-8.350404 -9.06245,-15.709169 -0.73421,-9.146693 2.95236,-16.528673 9.80989,-19.643291 3.03984,-1.380667 6.08147,-1.4883984 42.48577,-1.5047986 l 39.21151,-0.017665 0,7.2390495 0,7.239049 -36.87492,0 c -34.70232,0 -36.95335,0.08666 -38.20609,1.470927 -1.71203,1.891772 -1.7135,6.0578 -0.003,7.479397 1.05777,0.878922 7.82001,1.185878 33.17898,1.50608 31.21883,0.394195 31.91845,0.438492 35.27966,2.233779 6.34771,3.390427 9.49878,9.597652 9.32178,18.36274 -0.1139,5.640537 -1.57833,9.616054 -4.89413,13.286244 -4.91717,5.442748 -5.70826,5.529838 -50.23063,5.529838 l -39.26661,0 0,-7.239049 z"
         id="path3058"
         inkscape:connector-curvature="0"
         transform="matrix(0.95484436,0,0,0.95484436,55.957653,854.44354)" />
      <path
         style="fill:#ffffff;stroke:none;fill-opacity:1"
         d="m 304.3597,161.65931 c -7.60044,-2.7161 -11.36939,-8.35684 -11.36939,-17.01586 0,-6.7109 2.49049,-11.90821 7.30723,-15.24917 l 3.48661,-2.41836 35.7249,-0.23268 35.72491,-0.23268 0,-2.73874 c 0,-1.73513 -0.71117,-3.56573 -1.9407,-4.99552 l -1.94068,-2.25678 -37.06974,-0.22447 -37.06975,-0.22447 0,-6.84894 0,-6.84895 39.61369,0.25507 c 44.20675,0.28465 44.17406,0.28077 49.99867,5.93756 5.69914,5.53494 5.67465,5.40695 5.94818,31.07894 l 0.24638,23.12474 -42.87634,-0.0353 c -32.93079,-0.0271 -43.55079,-0.27633 -45.78397,-1.07438 z m 70.87426,-17.39011 0,-4.82603 -31.32361,0 -31.3236,0 -1.25212,1.78765 c -1.68523,2.406 -1.57595,4.32322 0.35656,6.25574 1.55297,1.55296 2.68113,1.60868 32.57572,1.60868 l 30.96705,0 0,-4.82604 z"
         id="path3060"
         inkscape:connector-curvature="0"
         transform="matrix(0.95484436,0,0,0.95484436,55.957653,854.44354)" />
      <path
         style="fill:#ffffff;stroke:none;fill-opacity:1"
         d="m 252.17012,132.60629 0,-30.1627 8.84773,0 8.84772,0 0,30.1627 0,30.16271 -8.84772,0 -8.84773,0 0,-30.16271 z"
         id="path3062"
         inkscape:connector-curvature="0"
         transform="matrix(0.95484436,0,0,0.95484436,55.957653,854.44354)" />
      <path
         style="fill:#ffffff;stroke:none;fill-opacity:1"
         d="m 252.17012,88.769827 0,-7.23905 8.84773,0 8.84772,0 0,7.23905 0,7.239049 -8.84772,0 -8.84773,0 0,-7.239049 z"
         id="path3064"
         inkscape:connector-curvature="0"
         transform="matrix(0.95484436,0,0,0.95484436,55.957653,854.44354)" />
      <path
         style="fill:#ffffff;stroke:none;fill-opacity:1"
         d="m 133.93232,155.93212 0,-6.83688 40.0632,0 c 32.48688,0 40.3458,-0.20664 41.55751,-1.09266 1.71311,-1.25266 2.03082,-5.66268 0.51716,-7.17863 -0.72339,-0.72447 -9.7922,-1.08305 -34.92171,-1.38078 l -33.94457,-0.40217 -4.42387,-2.50571 c -3.48499,-1.97394 -4.89329,-3.40173 -6.63579,-6.72765 -3.76601,-7.18821 -2.74091,-16.06848 2.47483,-21.43896 5.51114,-5.67463 3.96054,-5.49681 50.20936,-5.75797 l 41.62453,-0.23504 0,6.87084 0,6.87084 -38.42929,0 c -43.32491,0 -42.31754,-0.13254 -41.8475,5.50571 0.39288,4.71274 1.45103,4.85111 37.64684,4.92296 29.19068,0.0579 32.03272,0.18443 34.98873,1.55731 5.81558,2.70096 8.83515,6.51003 9.98324,12.59346 1.66529,8.82391 -1.90893,16.58727 -9.23161,20.05145 l -4.27153,2.02076 -42.67977,0 -42.67976,0 0,-6.83688 z"
         id="path3066"
         inkscape:connector-curvature="0"
         transform="matrix(0.95484436,0,0,0.95484436,55.957653,854.44354)" />
      <path
         style="fill:#ffffff;stroke:none;fill-opacity:1"
         d="m 19.730673,161.09843 c -4.561398,-2.06903 -6.222293,-3.58203 -8.21215,-7.48088 -3.6324496,-7.11729 -2.377966,-17.03843 2.786442,-22.03671 5.184056,-5.01729 5.096066,-5.00709 43.189333,-5.00709 l 34.612402,0 0,-2.77033 c 0,-1.76847 -0.701801,-3.58648 -1.940604,-5.02712 l -1.940604,-2.25678 -37.471997,-0.2315 -37.471997,-0.23149 0,-6.84161 0,-6.84161 40.015855,0.23622 c 39.849719,0.23524 40.032908,0.24395 44.123936,2.09569 2.259436,1.02271 5.392411,3.19443 6.962161,4.82604 4.9461,5.14101 5.4187,7.92767 5.4187,31.95087 l 0,21.28687 -43.233206,-0.0177 c -41.728774,-0.017 -43.35866,-0.0746 -46.838271,-1.6529 z M 92.1067,144.2692 l 0,-4.82603 -31.104794,0 c -27.814591,0 -31.260386,0.14081 -32.575721,1.33117 -1.83149,1.65748 -1.897796,4.90736 -0.139756,6.84997 1.246095,1.37692 3.328012,1.47093 32.575721,1.47093 l 31.24455,0 0,-4.82604 z"
         id="path3068"
         inkscape:connector-curvature="0"
         transform="matrix(0.95484436,0,0,0.95484436,55.957653,854.44354)" />
    </g>
  </g>
</svg>
