<?xml version="1.0" encoding="UTF-8" standalone="no"?>
<!-- Created with Inkscape (http://www.inkscape.org/) -->

<svg
   xmlns:dc="http://purl.org/dc/elements/1.1/"
   xmlns:cc="http://creativecommons.org/ns#"
   xmlns:rdf="http://www.w3.org/1999/02/22-rdf-syntax-ns#"
   xmlns:svg="http://www.w3.org/2000/svg"
   xmlns="http://www.w3.org/2000/svg"
   xmlns:sodipodi="http://sodipodi.sourceforge.net/DTD/sodipodi-0.dtd"
   xmlns:inkscape="http://www.inkscape.org/namespaces/inkscape"
   width="426.66666"
   height="181.33333"
   id="svg6016"
   version="1.1"
   inkscape:version="0.92.3 (2405546, 2018-03-11)"
   sodipodi:docname="fossasia-path.svg"
   inkscape:export-filename="/home/hp/Downloads/fossasia/fossasia-squarelogo_300dpi.png"
   inkscape:export-xdpi="300"
   inkscape:export-ydpi="300"
   viewBox="0 0 400 170">
  <defs
     id="defs6018">
    <inkscape:perspective
       sodipodi:type="inkscape:persp3d"
       inkscape:vp_x="0 : 526.18111 : 1"
       inkscape:vp_y="0 : 1000 : 0"
       inkscape:vp_z="744.0945 : 526.18111 : 1"
       inkscape:persp3d-origin="372.04725 : 350.7874 : 1"
       id="perspective6024" />
  </defs>
  <sodipodi:namedview
     id="base"
     pagecolor="#ffffff"
     bordercolor="#666666"
     borderopacity="1.0"
     inkscape:pageopacity="0.0"
     inkscape:pageshadow="2"
     inkscape:zoom="1.2432572"
     inkscape:cx="176.72314"
     inkscape:cy="52.113109"
     inkscape:document-units="px"
     inkscape:current-layer="g2865"
     showgrid="false"
     inkscape:window-width="1366"
     inkscape:window-height="740"
     inkscape:window-x="0"
     inkscape:window-y="0"
     inkscape:window-maximized="1"
     inkscape:snap-object-midpoints="false"
     inkscape:snap-center="true"
     inkscape:snap-page="true"
     height="3543.31px">
    <inkscape:grid
       type="xygrid"
       id="grid2863"
       empspacing="5"
       visible="true"
       enabled="true"
       snapvisiblegridlinesonly="true"
       originx="0"
       originy="0"
       spacingx="1"
       spacingy="1" />
  </sodipodi:namedview>
  <metadata
     id="metadata6021">
    <rdf:RDF>
      <cc:Work
         rdf:about="">
        <dc:format>image/svg+xml</dc:format>
        <dc:type
           rdf:resource="http://purl.org/dc/dcmitype/StillImage" />
        <dc:title></dc:title>
      </cc:Work>
    </rdf:RDF>
  </metadata>
  <g
     inkscape:label="Layer 1"
     inkscape:groupmode="layer"
     id="layer1"
     transform="translate(-59.323479,-840.36963)">
    <flowRoot
       xml:space="preserve"
       id="flowRoot6032"
       style="font-style:normal;font-variant:normal;font-weight:normal;font-stretch:normal;line-height:0.01%;font-family:Ethnocentric;-inkscape-font-specification:Ethnocentric;fill:#000000;fill-opacity:1;stroke:none"><flowRegion
         id="flowRegion6034"><rect
           id="rect6036"
           width="923.17072"
           height="320.73172"
           x="-165.85365"
           y="103.5817" /></flowRegion><flowPara
         id="flowPara6038"
         style="font-size:72px;line-height:1.25"> </flowPara></flowRoot>    <flowRoot
       xml:space="preserve"
       id="flowRoot6046"
       style="font-style:normal;font-variant:normal;font-weight:normal;font-stretch:normal;line-height:0.01%;font-family:Ethnocentric;-inkscape-font-specification:Ethnocentric;fill:#000000;fill-opacity:1;stroke:none"><flowRegion
         id="flowRegion6048"><rect
           id="rect6050"
           width="917.07318"
           height="268.29269"
           x="28.04878"
           y="76.752426" /></flowRegion><flowPara
         id="flowPara6052"
         style="font-size:72px;line-height:1.25"> </flowPara></flowRoot>    <flowRoot
       xml:space="preserve"
       id="flowRoot6054"
       style="font-style:normal;font-variant:normal;font-weight:normal;font-stretch:normal;line-height:0.01%;font-family:Ethnocentric;-inkscape-font-specification:Ethnocentric;fill:#000000;fill-opacity:1;stroke:none"><flowRegion
         id="flowRegion6056"><rect
           id="rect6058"
           width="713.41461"
           height="148.78049"
           x="25.609756"
           y="81.630478" /></flowRegion><flowPara
         id="flowPara6060"
         style="font-size:72px;line-height:1.25"> </flowPara></flowRoot>    <flowRoot
       xml:space="preserve"
       id="flowRoot6062"
       style="font-style:normal;font-variant:normal;font-weight:normal;font-stretch:normal;line-height:0.01%;font-family:Ethnocentric;-inkscape-font-specification:Ethnocentric;fill:#000000;fill-opacity:1;stroke:none"><flowRegion
         id="flowRegion6064"><rect
           id="rect6066"
           width="691.46344"
           height="115.85366"
           x="47.560974"
           y="120.65487" /></flowRegion><flowPara
         id="flowPara6068"
         style="font-size:72px;line-height:1.25"> </flowPara></flowRoot>    <flowRoot
       xml:space="preserve"
       id="flowRoot6070"
       style="font-style:normal;font-variant:normal;font-weight:normal;font-stretch:normal;line-height:0.01%;font-family:Ethnocentric;-inkscape-font-specification:Ethnocentric;fill:#000000;fill-opacity:1;stroke:none"
       transform="translate(0,802.36218)"><flowRegion
         id="flowRegion6072"><rect
           id="rect6074"
           width="1079.2683"
           height="365.85367"
           x="-91.463417"
           y="-729.26831" /></flowRegion><flowPara
         id="flowPara6076"
         style="font-size:72px;line-height:1.25"> </flowPara></flowRoot>    <g
       id="g2865"
       transform="matrix(1.0472911,0,0,1.0472911,0.71952702,-54.48149)">
      <g
         id="g855">
        <g
           id="text6026"
           style="font-style:normal;font-variant:normal;font-weight:normal;font-stretch:normal;font-size:76.27169037px;line-height:20.0000003%;font-family:spaceman;-inkscape-font-specification:spaceman;writing-mode:lr-tb;fill:#000000;fill-opacity:1;stroke:none"
           transform="scale(0.94399373,1.0593291)">
          <path
             inkscape:connector-curvature="0"
             id="path2862"
             style="font-size:105.93291473px;line-height:20.0000003%;font-family:spaceman;-inkscape-font-specification:spaceman;text-align:start;letter-spacing:-7.99983072;text-anchor:start;fill:#d40000"
             d="m 144.72923,814.28949 v 13.77128 H 99.919606 c -1.341852,5e-5 -2.507113,0.0707 -3.495786,0.21187 -0.706252,0.21191 -1.518404,0.63564 -2.436457,1.27119 -1.553712,1.41248 -2.330553,3.63707 -2.330524,6.67378 v 1.48306 l 53.072391,-0.21187 v 13.87721 l -53.072391,0.21187 v 45.02149 H 73.966042 V 851.57788 H 62.843086 v -13.87721 h 11.122956 v -5.82631 c -1.1e-5,-3.10732 0.282477,-5.68502 0.847464,-7.73311 0.564963,-2.1186 1.730224,-4.0607 3.495786,-5.82631 1.765531,-1.76549 3.672322,-2.89544 5.720377,-3.38985 2.048013,-0.49429 4.590401,-0.74147 7.62717,-0.74153 l 53.072391,0.10593" />
          <path
             inkscape:connector-curvature="0"
             id="path2864"
             style="font-size:105.93291473px;line-height:20.0000003%;font-family:spaceman;-inkscape-font-specification:spaceman;text-align:start;letter-spacing:-7.99983072;text-anchor:start;fill:#d40000"
             d="m 173.5146,812.91237 h 56.78004 c 6.0734,6e-5 11.2288,2.15402 15.46621,6.4619 4.30784,4.23737 6.4618,9.39277 6.4619,15.46621 v 17.16113 c -1e-4,6.00288 -2.15406,11.15828 -6.4619,15.46621 -4.23741,4.30794 -9.39281,6.4619 -15.46621,6.4619 H 173.5146 c -6.00288,0 -11.15828,-2.15396 -15.46621,-6.4619 -4.30794,-4.30793 -6.4619,-9.46333 -6.4619,-15.46621 v -17.16113 c 0,-6.07344 2.15396,-11.22884 6.4619,-15.46621 4.30793,-4.30788 9.46333,-6.46184 15.46621,-6.4619 m 5.29664,13.77127 c -2.47179,5e-5 -4.59044,0.88282 -6.35597,2.64833 -1.76557,1.76559 -2.64834,3.88424 -2.64832,6.35597 v 14.61874 c -2e-5,2.47179 0.88275,4.59045 2.64832,6.35598 1.76553,1.76556 3.88418,2.64834 6.35597,2.64832 h 45.33929 c 2.47169,2e-5 4.59035,-0.88276 6.35598,-2.64832 1.76546,-1.76553 2.64824,-3.88419 2.64832,-6.35598 v -14.61874 c -8e-5,-2.47173 -0.88286,-4.59038 -2.64832,-6.35597 -1.76563,-1.76551 -3.88429,-2.64828 -6.35598,-2.64833 h -45.33929" />
          <path
             inkscape:connector-curvature="0"
             id="path2866"
             style="font-size:105.93291473px;line-height:20.0000003%;font-family:spaceman;-inkscape-font-specification:spaceman;text-align:start;letter-spacing:-7.99983072;text-anchor:start;fill:#d40000"
             d="m 278.28201,850.94228 c -5.50852,2e-5 -9.99301,-1.58897 -13.45348,-4.76698 -3.38985,-3.24858 -5.08478,-7.62713 -5.08478,-13.13568 0,-7.27401 2.86019,-12.53534 8.58057,-15.784 2.75424,-1.55363 6.07347,-2.33047 9.95769,-2.33053 h 75.00051 V 828.8023 H 281.7778 c -3.88423,5e-5 -5.82633,1.48311 -5.82631,4.44919 -2e-5,2.96615 1.94208,4.44921 5.82631,4.44918 l 56.14444,0.10593 c 5.50843,4e-5 9.95761,1.62434 13.34755,4.87291 3.46038,3.24864 5.19062,7.6272 5.19071,13.13569 -9e-5,7.41531 -2.86028,12.67664 -8.58056,15.784 -2.68372,1.48306 -6.00295,2.22459 -9.9577,2.22459 h -78.17849 v -13.87721 l 74.68271,0.10593 c 3.88412,2e-5 5.82623,-1.51835 5.82631,-4.55511 -8e-5,-2.9661 -1.94219,-4.44916 -5.82631,-4.44919 l -56.14445,-0.10593" />
          <path
             inkscape:connector-curvature="0"
             id="path2868"
             style="font-size:105.93291473px;line-height:20.0000003%;font-family:spaceman;-inkscape-font-specification:spaceman;text-align:start;letter-spacing:-7.99983072;text-anchor:start;fill:#d40000"
             d="m 380.35312,850.94228 c -5.50853,2e-5 -9.99302,-1.58897 -13.45348,-4.76698 -3.38986,-3.24858 -5.08478,-7.62713 -5.08478,-13.13568 0,-7.27401 2.86018,-12.53534 8.58056,-15.784 2.75425,-1.55363 6.07348,-2.33047 9.9577,-2.33053 h 75.0005 V 828.8023 H 383.8489 c -3.88422,5e-5 -5.82632,1.48311 -5.82631,4.44919 -10e-6,2.96615 1.94209,4.44921 5.82631,4.44918 l 56.14445,0.10593 c 5.50843,4e-5 9.9576,1.62434 13.34755,4.87291 3.46038,3.24864 5.19061,7.6272 5.19071,13.13569 -10e-5,7.41531 -2.86028,12.67664 -8.58057,15.784 -2.68372,1.48306 -6.00294,2.22459 -9.95769,2.22459 h -78.17849 v -13.87721 l 74.6827,0.10593 c 3.88413,2e-5 5.82623,-1.51835 5.82631,-4.55511 -8e-5,-2.9661 -1.94218,-4.44916 -5.82631,-4.44919 l -56.14444,-0.10593" />
        </g>
        <g
           id="text2859"
           style="font-style:normal;font-variant:normal;font-weight:normal;font-stretch:normal;font-size:72px;font-family:Ethnocentric;-inkscape-font-specification:Ethnocentric;fill:#d40000;fill-opacity:1;stroke:none">
          <path
             inkscape:connector-curvature="0"
             id="path2871"
             style="font-size:105px;font-family:spaceman;-inkscape-font-specification:spaceman;letter-spacing:3.77589703;fill:#d40000"
             d="m 68.593375,965.74463 v -13.755 h 70.034995 c 6.92992,6e-5 12.42492,1.82006 16.485,5.46 2.51991,2.24005 4.23491,4.86505 5.145,7.875 0.62991,2.24004 0.94491,5.39004 0.945,9.45 v 35.59497 H 82.978375 c -5.740013,0 -10.255008,-1.575 -13.545,-4.725 -3.290002,-3.15 -4.935,-7.55996 -4.935,-13.22997 0,-5.66998 1.644998,-10.04497 4.935,-13.125 3.359992,-3.14997 7.874987,-4.72497 13.545,-4.725 h 60.689995 v -0.525 c -7e-5,-4.33996 -1.61007,-6.96496 -4.83,-7.875 -0.98007,-0.27996 -2.48507,-0.41996 -4.515,-0.42 H 68.593375 m 75.074995,30.87 v -8.925 H 87.598375 c -3.710019,2e-5 -5.565018,1.50502 -5.565,4.515 -1.8e-5,2.94001 1.854981,4.41001 5.565,4.41 h 56.069995" />
          <path
             inkscape:connector-curvature="0"
             id="path2873"
             style="font-size:105px;font-family:spaceman;-inkscape-font-specification:spaceman;letter-spacing:3.77589703;fill:#d40000"
             d="m 201.6981,987.68963 c -5.46002,2e-5 -9.90501,-1.57498 -13.335,-4.725 -3.36,-3.21997 -5.04,-7.55997 -5.04,-13.02 0,-7.20995 2.83499,-12.42495 8.505,-15.645 2.72999,-1.53994 6.01998,-2.30994 9.87,-2.31 h 74.34 v 13.755 h -70.875 c -3.85002,4e-5 -5.77502,1.47004 -5.775,4.41 -2e-5,2.94004 1.92498,4.41003 5.775,4.41 l 55.65,0.105 c 5.45991,3e-5 9.86991,1.61003 13.23,4.83 3.4299,3.22003 5.1449,7.56002 5.145,13.02 -1e-4,7.35001 -2.8351,12.56497 -8.505,15.64497 -2.66009,1.47 -5.95008,2.205 -9.87,2.205 h -77.49 v -13.75497 l 74.025,0.105 c 3.84992,10e-6 5.77492,-1.50499 5.775,-4.515 -8e-5,-2.93998 -1.92508,-4.40998 -5.775,-4.41 l -55.65,-0.105" />
          <path
             inkscape:connector-curvature="0"
             id="path2875"
             style="font-size:105px;font-family:spaceman;-inkscape-font-specification:spaceman;letter-spacing:3.77589703;fill:#d40000"
             d="m 313.73555,1010.3696 h -17.535 v -58.37997 h 17.535 v 58.37997 m 0,-64.25997 h -17.535 v -13.965 h 17.535 v 13.965" />
          <path
             inkscape:connector-curvature="0"
             id="path2877"
             style="font-size:105px;font-family:spaceman;-inkscape-font-specification:spaceman;letter-spacing:3.77589703;fill:#d40000"
             d="m 339.13982,965.74463 v -13.755 h 70.035 c 6.92992,6e-5 12.42492,1.82006 16.485,5.46 2.51991,2.24005 4.23491,4.86505 5.145,7.875 0.62991,2.24004 0.94491,5.39004 0.945,9.45 v 35.59497 h -78.225 c -5.74001,0 -10.25501,-1.575 -13.545,-4.725 -3.29,-3.15 -4.935,-7.55996 -4.935,-13.22997 0,-5.66998 1.645,-10.04497 4.935,-13.125 3.35999,-3.14997 7.87499,-4.72497 13.545,-4.725 h 60.69 v -0.525 c -8e-5,-4.33996 -1.61007,-6.96496 -4.83,-7.875 -0.98007,-0.27996 -2.48507,-0.41996 -4.515,-0.42 h -65.73 m 75.075,30.87 v -8.925 h -56.07 c -3.71002,2e-5 -5.56501,1.50502 -5.565,4.515 -10e-6,2.94001 1.85498,4.41001 5.565,4.41 h 56.07" />
        </g>
      </g>
    </g>
  </g>
</svg>
