<?xml version="1.0" encoding="UTF-8" standalone="no"?>
<!-- Created with Inkscape (http://www.inkscape.org/) -->

<svg
   xmlns:dc="http://purl.org/dc/elements/1.1/"
   xmlns:cc="http://creativecommons.org/ns#"
   xmlns:rdf="http://www.w3.org/1999/02/22-rdf-syntax-ns#"
   xmlns:svg="http://www.w3.org/2000/svg"
   xmlns="http://www.w3.org/2000/svg"
   xmlns:xlink="http://www.w3.org/1999/xlink"
   xmlns:sodipodi="http://sodipodi.sourceforge.net/DTD/sodipodi-0.dtd"
   xmlns:inkscape="http://www.inkscape.org/namespaces/inkscape"
   width="620mm"
   height="2270mm"
   viewBox="0 0 2196.8504 8043.307"
   id="svg5022"
   version="1.1"
   inkscape:version="0.92.3 (2405546, 2018-03-11)"
   sodipodi:docname="FOSSASIA-General-Banner-v3-60x200.svg"
   inkscape:export-filename="/home/opntec/git/fossasia-artwork/Banner/General/Rollup-FOSSASIA-Banner-85x200/v2/FOSSASIA-General-Banner-(small).png"
   inkscape:export-xdpi="90"
   inkscape:export-ydpi="90">
  <defs
     id="defs5024">
    <clipPath
       clipPathUnits="userSpaceOnUse"
       id="clipPath740">
      <path
         d="m 222.327,3542.717 h 940.628 v 361.327 H 222.327 Z"
         id="path742"
         inkscape:connector-curvature="0" />
    </clipPath>
    <clipPath
       clipPathUnits="userSpaceOnUse"
       id="clipPath18-5-2">
      <path
         d="M 0,0 H 610 V 858 H 0 Z"
         id="path16-9-8"
         inkscape:connector-curvature="0" />
    </clipPath>
    <linearGradient
       inkscape:collect="always"
       xlink:href="#linearGradient40"
       id="linearGradient6180"
       gradientUnits="userSpaceOnUse"
       gradientTransform="matrix(723.09436,-748.78607,-748.78607,-723.09436,-56.547157,803.39307)"
       spreadMethod="pad"
       x1="0"
       y1="0"
       x2="1"
       y2="0" />
    <linearGradient
       x1="0"
       y1="0"
       x2="1"
       y2="0"
       gradientUnits="userSpaceOnUse"
       gradientTransform="matrix(723.09436,-748.78607,-748.78607,-723.09436,-56.547157,803.39307)"
       spreadMethod="pad"
       id="linearGradient40">
      <stop
         style="stop-opacity:1;stop-color:#ed1e79"
         offset="0"
         id="stop24" />
      <stop
         style="stop-opacity:1;stop-color:#ed1e79"
         offset="0.00551471"
         id="stop26-3" />
      <stop
         style="stop-opacity:1;stop-color:#ed1e79"
         offset="0.02041877"
         id="stop28-6" />
      <stop
         style="stop-opacity:1;stop-color:#d40000"
         offset="0.358456"
         id="stop30-7" />
      <stop
         style="stop-opacity:1;stop-color:#d40000"
         offset="0.47768384"
         id="stop32" />
      <stop
         style="stop-opacity:1;stop-color:#6b272d"
         offset="0.856618"
         id="stop34" />
      <stop
         style="stop-opacity:1;stop-color:#6b272d"
         offset="0.90538028"
         id="stop36" />
      <stop
         style="stop-opacity:1;stop-color:#6b272d"
         offset="1"
         id="stop38" />
    </linearGradient>
    <inkscape:perspective
       id="perspective6024"
       inkscape:persp3d-origin="396.85039 : 374.17322 : 1"
       inkscape:vp_z="793.70078 : 561.25983 : 1"
       inkscape:vp_y="0 : 1066.6667 : 0"
       inkscape:vp_x="0 : 561.25983 : 1"
       sodipodi:type="inkscape:persp3d" />
  </defs>
  <sodipodi:namedview
     id="base"
     pagecolor="#ffffff"
     bordercolor="#666666"
     borderopacity="1.0"
     inkscape:pageopacity="0.0"
     inkscape:pageshadow="2"
     inkscape:zoom="0.043750001"
     inkscape:cx="-2578.6418"
     inkscape:cy="4802.5573"
     inkscape:document-units="px"
     inkscape:current-layer="g1148"
     showgrid="false"
     fit-margin-top="0"
     fit-margin-left="0"
     fit-margin-right="0"
     fit-margin-bottom="0"
     inkscape:window-width="1366"
     inkscape:window-height="740"
     inkscape:window-x="0"
     inkscape:window-y="0"
     inkscape:window-maximized="1"
     units="mm"
     width="8in"
     showguides="false" />
  <metadata
     id="metadata5027">
    <rdf:RDF>
      <cc:Work
         rdf:about="">
        <dc:format>image/svg+xml</dc:format>
        <dc:type
           rdf:resource="http://purl.org/dc/dcmitype/StillImage" />
        <dc:title></dc:title>
      </cc:Work>
    </rdf:RDF>
  </metadata>
  <g
     inkscape:label="Layer 1"
     inkscape:groupmode="layer"
     id="layer1"
     transform="translate(1774.4769,3730.4949)">
    <g
       style="display:inline"
       transform="matrix(3.6013941,0,0,-9.3744839,-1774.4769,4312.8122)"
       id="g12-7-1">
      <g
         id="g14-8-9"
         clip-path="url(#clipPath18-5-2)">
        <g
           id="g20-4-4">
          <g
             id="g22-5-7">
            <path
               d="M 0,0 H 610 V 858 H 0 Z"
               style="fill:url(#linearGradient6180);stroke:none"
               id="path42-0-8"
               inkscape:connector-curvature="0" />
          </g>
        </g>
      </g>
    </g>
    <flowRoot
       xml:space="preserve"
       id="flowRoot4253"
       style="font-style:normal;font-weight:normal;line-height:0.01%;font-family:sans-serif;letter-spacing:0px;word-spacing:0px;fill:#000000;fill-opacity:1;stroke:none;stroke-width:1px;stroke-linecap:butt;stroke-linejoin:miter;stroke-opacity:1"
       transform="translate(-5908.0193)"><flowRegion
         id="flowRegion4255"><rect
           id="rect4257"
           width="64.649765"
           height="371.73615"
           x="5285.1182"
           y="4179.8613" /></flowRegion><flowPara
         id="flowPara4259"
         style="font-size:40px;line-height:0"> </flowPara></flowRoot>    <g
       id="g1148"
       transform="matrix(2.1738614,0,0,2.1738614,8621.3002,2294.4492)"
       style="fill:#cccccc">
      <g
         id="g1159"
         transform="matrix(0,4.3180791,-4.3180791,0,-10277.773,17555.306)"
         style="fill:#ffffff">
        <path
           d="m -4638.1064,-1316.5788 v -23.728 h -4.826 -4.8261 v -6.8369 -6.8369 h 4.7107 4.7106 l 0.5487,-7.2685 c 0.6124,-8.1123 1.387,-10.7578 3.9585,-13.5196 3.8172,-4.0999 4.1929,-4.1464 33.4876,-4.1464 h 27.3875 v 6.8369 6.8369 h -22.5581 -22.558 l -1.9743,1.9743 c -1.5138,1.5137 -1.9743,2.8223 -1.9743,5.6099 v 3.6357 l 24.5323,-0.5112 24.5324,-0.5112 v 7.3685 7.3685 h -24.5324 -24.5323 v 23.728 23.728 h -8.0434 -8.0434 z"
           id="path3135"
           inkscape:connector-curvature="0"
           style="fill:#ffffff;stroke-width:1" />
        <path
           style="fill:#ffffff;stroke-width:1"
           d="m -4555.888,-1318.6869 c -4.0536,-2.0065 -8.2881,-6.8983 -10.3597,-11.9679 -1.247,-3.0516 -1.479,-5.8909 -1.479,-18.0976 0,-13.963 0.075,-14.6354 2.1094,-18.9019 2.5244,-5.294 6.3763,-9.3624 10.76,-11.3646 2.9265,-1.3367 5.8712,-1.4707 32.5757,-1.4827 16.9616,-0.01 30.5693,0.3232 32.2261,0.7835 4.0335,1.1205 9.2786,5.8818 11.8384,10.7464 2.0863,3.9648 2.1856,4.7111 2.4456,18.3831 0.3253,17.1051 -0.4706,20.8788 -5.6432,26.7552 -6.0748,6.9013 -5.5617,6.8147 -40.4647,6.8341 -29.5367,0.016 -30.6808,-0.04 -34.0086,-1.6876 z m 60.338,-15.1172 2.6268,-2.3451 0.2297,-11.932 c 0.2087,-10.8362 0.079,-12.1738 -1.4079,-14.5661 -0.9008,-1.4488 -2.566,-2.987 -3.7006,-3.4184 -1.164,-0.4426 -12.0014,-0.7843 -24.8724,-0.7843 h -22.8096 l -2.4602,2.0701 c -3.4968,2.9424 -4.3213,6.6074 -3.9836,17.7079 0.2272,7.4664 0.6001,10.017 1.6903,11.5592 2.745,3.8831 3.5377,3.9949 28.5465,4.0252 l 23.5142,0.028 z"
           id="path3137"
           inkscape:connector-curvature="0" />
        <path
           style="fill:#ffffff;stroke-width:1"
           d="m -4469.9996,-1323.8179 v -6.8369 h 36.0706 c 34.4591,0 36.1326,-0.069 37.4583,-1.5334 2.0437,-2.2583 1.4169,-6.6015 -1.1384,-7.8873 -1.4992,-0.7545 -9.276,-1.0195 -30.5649,-1.0415 -26.0249,-0.027 -28.839,-0.161 -31.7713,-1.5144 -6.3224,-2.918 -9.3899,-8.4273 -9.4313,-16.939 -0.029,-5.9504 1.5424,-10.4919 4.849,-14.0145 4.2551,-4.5331 4.1844,-4.5258 43.969,-4.5258 h 36.6233 v 6.8368 6.8369 h -34.0054 c -37.3209,0 -37.5948,0.034 -37.5685,4.6706 0.032,5.5653 1.3064,5.7858 33.446,5.7858 23.2031,0 28.2089,0.203 30.7026,1.2449 6.7236,2.8093 10.1159,8.4316 10.1686,16.8527 0.043,6.8603 -1.1586,10.556 -4.5712,14.0606 -4.7823,4.9114 -4.1173,4.8414 -46.0045,4.8414 h -38.2319 z"
           id="path3139"
           inkscape:connector-curvature="0" />
        <path
           style="fill:#ffffff;stroke-width:1"
           d="m -4376.6963,-1323.8179 v -6.8369 h 35.6684 c 33.5335,0 35.7481,-0.088 36.9996,-1.4709 1.952,-2.1569 1.7126,-6.2141 -0.4565,-7.7333 -1.5377,-1.0771 -5.843,-1.2522 -30.7966,-1.2522 -28.4869,0 -29.0733,-0.033 -32.587,-1.8097 -2.0553,-1.0395 -4.58,-3.2519 -5.9321,-5.1982 -1.9916,-2.8667 -2.4107,-4.3674 -2.7221,-9.7475 -0.4328,-7.4762 0.5638,-11.1525 4.1217,-15.2047 4.4766,-5.0987 3.9556,-5.0394 44.3413,-5.0394 h 36.6232 v 6.8368 6.8369 h -34.1844 c -33.1119,0 -34.2348,0.05 -35.793,1.6087 -2.0206,2.0205 -2.0436,4.1104 -0.072,6.5467 l 1.5365,1.8989 30.5004,0.4021 30.5004,0.4022 2.8957,2.2101 c 4.1495,3.1671 6.1671,6.358 7.2329,11.4392 1.8525,8.8315 -1.804,18.0259 -8.4476,21.242 -3.4388,1.6647 -4.4458,1.7061 -41.4765,1.7061 h -37.9522 z"
           id="path3141"
           inkscape:connector-curvature="0" />
        <path
           style="fill:#ffffff;stroke-width:1"
           d="m -4274.9474,-1318.5012 c -6.4883,-2.9946 -9.2499,-8.1254 -9.2499,-17.1855 0,-7.0736 2.0062,-11.6881 6.7093,-15.4321 l 3.0897,-2.4596 31.899,-0.4022 c 17.5444,-0.2212 31.8085,-0.6736 31.6979,-1.0054 -0.1106,-0.3318 -0.2011,-1.7056 -0.2011,-3.0528 0,-1.5284 -0.7425,-3.1921 -1.9743,-4.4239 l -1.9743,-1.9743 h -33.0144 -33.0145 v -6.8369 -6.8368 h 35.6352 35.6351 l 4.1142,2.0501 c 2.2628,1.1276 5.1193,3.3681 6.3479,4.9788 3.8037,4.9869 4.3319,8.9567 4.3319,32.5589 v 21.5419 l -38.4072,-0.018 c -35.6201,-0.016 -38.6406,-0.1254 -41.6245,-1.5026 z m 64.7492,-17.3818 v -5.2282 h -27.5707 c -30.8998,0 -31.146,0.041 -31.146,5.2282 0,5.1869 0.2462,5.2282 31.146,5.2282 h 27.5707 z"
           id="path3143"
           inkscape:connector-curvature="0" />
        <path
           style="fill:#ffffff;stroke-width:1"
           d="m -4186.068,-1323.8179 v -6.8369 h 35.7356 c 39.577,0 38.2636,0.1781 38.2636,-5.1871 0,-4.8771 0.3092,-4.8278 -33.0323,-5.2693 l -30.3755,-0.4021 -3.4143,-2.413 c -5.2129,-3.6842 -6.7749,-7.3932 -6.7749,-16.0868 0,-8.2952 1.126,-11.0081 6.3076,-15.1972 l 3.0902,-2.4983 37.7299,-0.224 37.73,-0.224 v 6.8598 6.8598 h -34.0306 c -25.9864,0 -34.3418,0.2377 -35.3469,1.0054 -2.1838,1.6682 -2.5105,4.8781 -0.7215,7.0889 l 1.586,1.96 30.4359,0.4021 c 30.0085,0.3965 30.4717,0.4277 32.9866,2.2216 4.1216,2.9399 6.4491,6.2522 7.5149,10.6949 2.2383,9.3307 -1.08,18.5667 -7.9802,22.2109 l -3.5449,1.8722 h -38.0796 -38.0796 z"
           id="path3145"
           inkscape:connector-curvature="0" />
        <path
           style="fill:#ffffff;stroke-width:1"
           d="m -4091.156,-1347.5459 v -30.5648 h 7.6412 7.6412 v 30.5648 30.5649 h -7.6412 -7.6412 z"
           id="path3147"
           inkscape:connector-curvature="0" />
        <path
           style="fill:#ffffff;stroke-width:1"
           d="m -4091.156,-1392.5888 v -7.2391 h 7.6412 7.6412 v 7.2391 7.239 h -7.6412 -7.6412 z"
           id="path3149"
           inkscape:connector-curvature="0" />
        <path
           style="fill:#ffffff;stroke-width:1"
           d="m -4059.4179,-1318.4929 c -6.4339,-2.9225 -9.204,-8.2819 -9.2121,-17.8229 0,-6.3992 2.1636,-11.188 6.705,-14.803 l 3.09,-2.4596 32.1867,-0.2278 32.1866,-0.2277 -0.478,-1.7831 c -0.2629,-0.9807 -0.483,-2.433 -0.489,-3.2273 -0.01,-0.7942 -0.8994,-2.3325 -1.9853,-3.4184 l -1.9743,-1.9743 h -33.0144 -33.0145 v -6.8369 -6.8368 h 35.6352 35.6351 l 4.1142,2.0501 c 2.2628,1.1276 5.1193,3.3681 6.3479,4.9788 3.8037,4.9869 4.3319,8.9567 4.3319,32.5589 v 21.5419 l -38.4072,-0.018 c -35.5226,-0.016 -38.6513,-0.1286 -41.6578,-1.4942 z m 64.7825,-17.3901 v -5.2282 h -27.7496 c -26.6773,0 -27.8119,0.062 -29.3584,1.6087 -2.186,2.186 -2.096,6.0022 0.179,7.5956 1.5335,1.0742 5.7065,1.2521 29.3583,1.2521 h 27.5707 z"
           id="path3151"
           inkscape:connector-curvature="0" />
      </g>
    </g>
  </g>
</svg>
