<?xml version="1.0" encoding="UTF-8" standalone="no"?>
<svg
   xmlns:dc="http://purl.org/dc/elements/1.1/"
   xmlns:cc="http://creativecommons.org/ns#"
   xmlns:rdf="http://www.w3.org/1999/02/22-rdf-syntax-ns#"
   xmlns:svg="http://www.w3.org/2000/svg"
   xmlns="http://www.w3.org/2000/svg"
   xmlns:sodipodi="http://sodipodi.sourceforge.net/DTD/sodipodi-0.dtd"
   xmlns:inkscape="http://www.inkscape.org/namespaces/inkscape"
   version="1.0"
   width="7.3999996cm"
   height="4.0000005cm"
   viewBox="0 0 209.76377 113.38583"
   preserveAspectRatio="xMidYMid meet"
   id="svg2"
   inkscape:version="0.91 r13725"
   sodipodi:docname="SUSI.AI_logo_bluewhite.svg">
  <metadata
     id="metadata22">
    <rdf:RDF>
      <cc:Work
         rdf:about="">
        <dc:format>image/svg+xml</dc:format>
        <dc:type
           rdf:resource="http://purl.org/dc/dcmitype/StillImage" />
        <dc:title></dc:title>
      </cc:Work>
    </rdf:RDF>
  </metadata>
  <defs
     id="defs20" />
  <sodipodi:namedview
     pagecolor="#ffffff"
     bordercolor="#666666"
     borderopacity="1"
     objecttolerance="10"
     gridtolerance="10"
     guidetolerance="10"
     inkscape:pageopacity="0"
     inkscape:pageshadow="2"
     inkscape:window-width="1364"
     inkscape:window-height="715"
     id="namedview18"
     showgrid="false"
     fit-margin-top="0"
     fit-margin-left="0"
     fit-margin-right="0"
     fit-margin-bottom="0"
     inkscape:zoom="1.3184265"
     inkscape:cx="29.99523"
     inkscape:cy="74.575807"
     inkscape:window-x="0"
     inkscape:window-y="0"
     inkscape:window-maximized="0"
     inkscape:current-layer="svg2"
     borderlayer="true"
     units="cm" />
  <rect
     style="fill:#0080c0;fill-opacity:1;stroke:#0d5ce2;stroke-width:0.289837;stroke-miterlimit:4;stroke-dasharray:none;stroke-opacity:1"
     id="rect4184"
     width="209.47395"
     height="113.096"
     x="0.14490509"
     y="0.14491545" />
  <g
     id="g5885"
     transform="matrix(1.0007344,0,0,1.0007345,8.4329838,26.907304)">
    <path
       d="m 26.153236,12.484614 c -3.336335,0.410817 -6.747365,2.091434 -9.448801,4.655931 -1.468983,1.38184 -2.539598,2.850824 -3.498172,4.780421 -1.107962,2.215923 -1.593474,3.996133 -1.705515,6.348996 l -0.03735,0.746941 4.855114,0 4.855116,0 0.03735,-0.49796 c 0.08714,-1.506331 0.846533,-3.000212 2.141231,-4.29491 1.058166,-1.045718 2.01674,-1.668168 3.224294,-2.078985 l 0.821634,-0.273879 10.121048,-0.01245 10.108598,0 0,-4.730625 0,-4.730625 -10.544314,0.01245 c -5.813688,0.01245 -10.718599,0.04979 -10.930233,0.0747 z"
       id="path6"
       inkscape:connector-curvature="0"
       style="fill:#ffffff;fill-opacity:1;stroke:none;stroke-width:0.12449013;stroke-miterlimit:4;stroke-dasharray:none;stroke-opacity:1" />
    <path
       d="m 50.017994,12.932778 -0.535308,0.535307 0.03735,12.822484 c 0.04979,14.092283 0,13.183505 0.796737,14.76453 1.344493,2.651639 4.369604,5.216136 6.996345,5.888382 1.058166,0.286328 12.336975,0.273879 13.407585,0 2.327966,-0.610001 4.880016,-2.576945 6.411243,-4.942257 0.423266,-0.6349 0.883884,-1.51878 1.033271,-1.966945 l 0.273878,-0.809185 0.06221,-12.859831 0.06227,-12.85983 -0.560205,-0.547757 -0.57266,-0.560206 -3.921435,0 -3.921442,0 -0.585103,0.597553 -0.585104,0.597553 0,11.577582 0,11.577582 -0.410818,0.398368 -0.410817,0.398369 -3.610213,0 -3.610214,0 -0.323675,-0.336123 -0.336123,-0.348573 -0.08714,-11.72697 -0.08714,-11.72697 -0.535308,-0.497961 -0.522858,-0.51041 -3.971235,0 -3.971235,0 -0.522859,0.535308 z"
       id="path8"
       inkscape:connector-curvature="0"
       style="fill:#ffffff;fill-opacity:1;stroke:none;stroke-width:0.12449013;stroke-miterlimit:4;stroke-dasharray:none;stroke-opacity:1" />
    <path
       d="m 94.93403,12.472165 c -3.933883,0.597552 -6.983896,2.153679 -9.834721,5.016952 -2.88817,2.90062 -4.518992,6.286751 -4.842664,10.071252 -0.06221,0.734492 -0.08715,1.369391 -0.04982,1.419187 0.02491,0.06224 2.203474,0.09959 4.830215,0.09959 l 4.780421,0 0.07469,-0.597553 c 0.398369,-2.88817 2.651644,-5.490014 5.564711,-6.386344 0.697144,-0.224082 1.319598,-0.236531 10.780848,-0.236531 l 10.04635,0 -0.0374,-4.730624 -0.0249,-4.730626 -10.49452,0.01245 c -5.763897,0.01245 -10.619009,0.03735 -10.7933,0.06225 z"
       id="path10"
       inkscape:connector-curvature="0"
       style="fill:#ffffff;fill-opacity:1;stroke:none;stroke-width:0.12449013;stroke-miterlimit:4;stroke-dasharray:none;stroke-opacity:1" />
    <path
       d="m 118.47511,13.194207 -0.51041,0.796737 0,15.735553 0,15.723103 0.59756,0.834084 0.5851,0.846533 3.93389,0 3.93388,0 0.58511,-0.871431 0.57266,-0.871431 0,-15.648409 0,-15.660859 -0.58511,-0.834084 -0.59755,-0.846533 -3.99613,0 -3.99614,0 -0.52286,0.796737 z"
       id="path12"
       inkscape:connector-curvature="0"
       style="fill:#ffffff;fill-opacity:1;stroke:none;stroke-width:0.12449013;stroke-miterlimit:4;stroke-dasharray:none;stroke-opacity:1" />
    <path
       d="m 37.979799,30.473438 c -0.0249,0.08714 -0.112041,0.522858 -0.186736,0.958574 -0.423266,2.427557 -2.415108,4.730624 -4.979605,5.776342 l -0.684696,0.273878 -10.33268,0.06224 -10.332681,0.06225 -0.03734,4.705726 -0.0249,4.705727 11.10452,-0.03734 11.116968,-0.03735 1.195106,-0.336123 c 7.18308,-2.029189 12.461461,-8.390635 12.710442,-15.349633 l 0.03735,-0.871431 -4.767973,-0.03735 c -3.747152,-0.0249 -4.767971,0 -4.817767,0.12449 z"
       id="path14"
       inkscape:connector-curvature="0"
       style="fill:#ffffff;fill-opacity:1;stroke:none;stroke-width:0.12449013;stroke-miterlimit:4;stroke-dasharray:none;stroke-opacity:1" />
    <path
       d="m 106.69835,30.473438 c -0.0249,0.08714 -0.11204,0.510409 -0.18673,0.933676 -0.41082,2.39021 -2.34042,4.643481 -4.90492,5.751444 l -0.75939,0.323674 -10.332677,0.06224 -10.332678,0.06225 -0.03737,4.693277 -0.02491,4.705727 10.693702,0 c 11.664733,0 11.378403,0.01245 13.706353,-0.734492 3.28655,-1.058166 6.63533,-3.535519 8.68942,-6.436139 1.89224,-2.65164 3.12471,-6.236955 2.98776,-8.70186 l -0.0374,-0.74694 -4.70572,-0.03735 c -3.69736,-0.0249 -4.70573,0 -4.75553,0.12449 z"
       id="path16"
       inkscape:connector-curvature="0"
       style="fill:#ffffff;fill-opacity:1;stroke:none;stroke-width:0.12449013;stroke-miterlimit:4;stroke-dasharray:none;stroke-opacity:1" />
    <path
       style="fill:#ffffff;fill-opacity:1;stroke:none;stroke-width:0.12449013;stroke-miterlimit:4;stroke-dasharray:none;stroke-opacity:1"
       d="m 154.19046,12.374027 -0.17157,0.14861 c -0.0944,0.08166 -0.23072,0.200631 -0.30286,0.264542 -0.0721,0.06391 -0.21838,0.191678 -0.32503,0.283993 -0.18879,0.163398 -0.19664,0.175069 -0.29879,0.439022 -0.0577,0.149122 -0.11416,0.294491 -0.12546,0.322896 -3.80294,10.324027 -7.67065,20.630261 -11.95522,32.321722 0,0.0102 0.2001,0.233442 0.44466,0.496016 l 0.44467,0.477536 4.16675,-0.0055 4.16676,-0.0053 c 1.52903,-4.431681 3.12838,-9.022255 4.65576,-13.354477 0.007,-0.03082 0.0348,-0.08017 0.0619,-0.109707 0.0464,-0.05069 0.0759,-0.05369 0.52306,-0.05369 0.45149,0 0.47655,0.0025 0.53259,0.05602 0.0323,0.03088 0.059,0.07325 0.059,0.09395 0.41929,1.408146 0.89964,2.830233 1.34566,4.342955 0.0169,0.03413 0.48606,0.03956 3.95279,0.04532 3.71834,0.0062 3.93642,0.0041 3.98352,-0.03871 0.0274,-0.0249 0.15322,-0.167356 0.27972,-0.316476 0.12648,-0.149123 0.27377,-0.316444 0.32717,-0.371916 0.0534,-0.05547 0.0971,-0.116251 0.0971,-0.134993 -2.6014,-7.835021 -5.11951,-15.391928 -7.92911,-24.036905 l -0.42463,-0.432408 -0.42483,-0.432603 -1.54174,0 -1.54174,0 z m 6.72485,26.390157 c -2.54804,2.2e-5 -5.24243,0.0077 -5.98743,0.01712 l -1.35443,0.01712 0.0122,0.480065 c 0.0134,0.523829 0.0548,0.885636 0.1414,1.235174 0.0149,0.06036 0.0379,0.153319 0.051,0.206577 0.013,0.05326 0.0359,0.140286 0.0507,0.193543 0.0149,0.05326 0.0374,0.134743 0.05,0.180901 0.0776,0.284966 0.25839,0.788868 0.39059,1.088315 0.46183,1.046097 0.88168,1.664641 1.57229,2.316294 0.61443,0.579788 1.06354,0.890996 1.91969,1.329905 0.52762,0.270495 1.08069,0.502147 1.57014,0.657658 0.0978,0.03108 0.2008,0.06534 0.22875,0.07606 0.028,0.01072 0.0995,0.03242 0.15893,0.04824 0.0594,0.01582 0.15652,0.04172 0.21591,0.05758 0.0594,0.01585 0.13663,0.03804 0.17156,0.04941 0.035,0.01135 0.10339,0.02822 0.1523,0.03735 0.0489,0.0091 0.18056,0.03379 0.29237,0.05505 0.1118,0.02126 0.27172,0.0506 0.35557,0.06516 0.0838,0.01457 0.2155,0.03793 0.29236,0.05174 0.29432,0.05288 0.82367,0.115879 1.25328,0.149193 0.16524,0.01281 0.30723,0.0301 0.3155,0.03851 l 0,2.49e-4 c 0.0204,0.02058 7.32434,0.01938 7.32434,-0.0014 -1.0921,-2.545726 -2.17384,-5.202629 -3.27371,-7.885088 -0.41998,-0.141601 -0.79679,-0.284087 -1.27059,-0.464698 l -4.63281,0 z"
       id="path4847"
       inkscape:connector-curvature="0" />
    <path
       style="fill:#ffffff;fill-opacity:1;stroke:none;stroke-width:0.12449013;stroke-miterlimit:4;stroke-dasharray:none;stroke-opacity:1"
       d="m 131.79443,47.129389 c -0.30924,-0.466055 -0.61866,-0.876286 -1.00724,-1.464006 l 0.011,-5.467568 c 0.4153,-0.655163 0.66048,-0.837762 1.04831,-1.433335 2.22959,0.0023 4.26941,0.03214 6.33358,0.03214 0.39936,0.607581 0.50891,0.836413 0.97201,1.576368 -0.006,1.740262 0.0125,3.480915 -0.0147,5.22087 -0.3606,0.522594 -0.53202,0.923661 -0.96827,1.516318 -2.34183,-0.0049 -4.41062,0.02536 -6.37475,0.01922 z"
       id="path4199"
       inkscape:connector-curvature="0" />
    <path
       style="fill:#ffffff;fill-opacity:1;stroke:none;stroke-width:0.12449013;stroke-miterlimit:4;stroke-dasharray:none;stroke-opacity:1"
       inkscape:connector-curvature="0"
       id="path4254"
       d="m 171.65729,13.194207 -0.5104,0.796737 0,15.735553 0,15.723103 0.59755,0.834084 0.5851,0.846533 3.93389,0 3.93389,0 0.5851,-0.871431 0.57266,-0.871431 0,-15.648409 0,-15.660859 -0.5851,-0.834084 -0.59755,-0.846533 -3.99614,0 -3.99614,0 -0.52286,0.796737 z" />
  </g>
</svg>
